<svg baseProfile="full" height="600px" version="1.1" viewBox="0.087331169856 -0.0668793238908 3.10515368656 4.92859182714" width="379px" xmlns="http://www.w3.org/2000/svg" xmlns:ev="http://www.w3.org/2001/xml-events" xmlns:xlink="http://www.w3.org/1999/xlink">
    <defs></defs>
    <path d="M 0.411713807131,0.928455412221 C 0.411689407103,0.796777278018 0.42562718308,0.649992614818 0.425601256089,0.534575894309 C 0.425598360483,0.448961660099 0.471570450698,0.345502041114 0.78298829857,0.345546633333 C 1.19772433106,0.345545116586 1.70102666679,0.345565174642 2.13015817467,0.345607736106 C 2.3297636545,0.345633273675 2.52388935152,0.363606320425 2.67097437743,0.397052919223 C 2.80454470578,0.432653357937 2.93200375501,0.48985872577 2.9320121575,0.583923438295 C 2.93199433338,0.710412839158 2.89447848078,0.803613805874 2.82328103807,0.920182967289 C 2.75942295369,1.0495154501 2.66677427617,1.1538850532 2.53442307141,1.32113452415 C 2.41685126301,1.5033185647 2.2806674051,1.66606156687 2.13863269564,1.86283844869 C 2.01221358356,2.07307951312 1.87375752207,2.27796720128 1.74694607732,2.50105430345 C 1.63363939848,2.73936519186 1.51590331223,2.97687412958 1.4177781823,3.2118217961 C 1.33022407022,3.45849473934 1.24143404093,3.70316890041 1.24144197254,3.91039969186 C 1.2414563063,4.04085341255 1.22896545636,4.15641252856 1.24502827855,4.23772008131 C 1.24504996612,4.35350183557 1.2364600893,4.4492791907 1.20558123252,4.44928661302 C 1.10581015757,4.44931023905 1.04116607419,4.41697162727 0.936180218672,4.4169645836 C 0.791780188297,4.41697565391 0.710720583414,4.38010221272 0.710687796727,4.37806153711 C 0.710705244419,4.30562133756 0.755729367462,4.17329032388 0.755703887751,4.10204077926 C 0.755730461913,3.96920434799 0.799051222044,3.76468588081 1.14793526812,3.240285885 C 1.43381032034,2.75618694391 1.74085175677,2.27106643882 2.1677998571,1.65419883695 C 1.86504044815,1.65419876059 1.51713311358,1.6541915084 1.23722114845,1.65413772316 C 0.993217643934,1.65412767759 0.86368973239,1.64486373184 0.745032158333,1.62223454161 C 0.639763888555,1.60146749733 0.584014502006,1.57938921048 0.583973324877,1.56279285966 C 0.583997175039,1.52645070819 0.527071732969,1.52748306972 0.472117010446,1.52666530581 C 0.437670018465,1.52663473856 0.394038572849,1.51712242492 0.380980662012,1.49645225309 C 0.368546205514,1.47623276875 0.347826878482,1.45142981015 0.347803868766,1.40621704586 C 0.347838867537,1.31445801236 0.360757024109,1.25214427688 0.360736260338,1.17626751937 C 0.360769933673,1.05721139141 0.389385840508,0.99006369688 0.407598481166,0.961564549956 C 0.425392123523,0.930964784477 0.466750870111,0.92221346103 0.695693666699,0.92220128952 C 1.07614659763,0.922177334819 1.48706814146,0.922205165592 1.84718203044,0.922201688838 C 1.98188106215,0.92218408981 2.10289572424,0.896816496417 2.19483845926,0.86077463688 C 2.28043942398,0.824266736075 2.35405857361,0.779247087106 2.35407218482,0.754510295257 C 2.35405449765,0.735552291065 2.33139136816,0.712609515205 2.3195417245,0.712596726582 C 2.26827245402,0.712577140391 2.21279625418,0.721640645028 2.1409202871,0.72164212943 C 2.07580011162,0.722640443318 1.99973366978,0.73193532201 1.8967386988,0.731927756565 C 1.80332895192,0.733313526953 1.69815851572,0.738278333093 1.54610390785,0.738285871845 C 1.38525618436,0.738267419397 1.16024394157,0.799364169596 0.977577475929,0.955236946701" fill="none" stroke="#000000" stroke-width="0.00410374007256"></path>
</svg>