<svg baseProfile="full" height="600px" version="1.1" viewBox="-0.564556974525 0.195755138727 4.86670496853 5.83137097243" width="501px" xmlns="http://www.w3.org/2000/svg" xmlns:ev="http://www.w3.org/2001/xml-events" xmlns:xlink="http://www.w3.org/1999/xlink">
    <defs></defs>
    <path d="M 0.442730887793,1.83364603446 C 0.442706996299,1.70179991947 0.524513164259,1.58225000428 0.630397097862,1.47820126043 C 0.72718107859,1.36474971996 0.882542313731,1.26209302024 1.04527512351,1.17983884887 C 1.19715300361,1.09345257805 1.39899216751,1.01834030227 1.60230991403,0.965970163807 C 1.7924620227,0.910660145446 2.01563152829,0.88089444825 2.26341962973,0.880848950435 C 2.51778575937,0.880834361453 2.78095463077,0.921492876399 2.99677372137,0.988885985602 C 3.19902609447,1.0577342379 3.38863511542,1.15963597028 3.52527029971,1.27557873159 C 3.65259383777,1.39426830589 3.75604103664,1.53707729458 3.8114989304,1.68517199336 C 3.86233111257,1.8370991069 3.89193182038,1.99402366756 3.89189805292,2.1298625487 C 3.89190924752,2.34656264066 3.83798014212,2.52893588125 3.73306071598,2.68787749289 C 3.63438945848,2.85427929639 3.48122814137,2.98786944329 3.30126668353,3.09208838819 C 3.46139854032,3.19307442932 3.61144459087,3.31103735595 3.72864243973,3.46033238797 C 3.83482082028,3.61836765139 3.89458551843,3.81680257051 3.89456614294,4.04937111764 C 3.89459155426,4.26530882149 3.83415755183,4.47624083786 3.72141392082,4.6577035877 C 3.61542939693,4.84887363939 3.44320486039,5.01251848965 3.23749494106,5.13983886867 C 3.04316331,5.27476246088 2.78366551847,5.37438354074 2.49989996404,5.43764884948 C 2.2345953092,5.50639822512 1.91754503102,5.53920060201 1.60981128663,5.53915538777 C 1.27769709677,5.53916068276 0.968770484631,5.49301403289 0.732536117737,5.41973147814 C 0.508909429615,5.34207579767 0.310579116647,5.22782962297 0.175838331883,5.09701240336 C 0.0488399073529,4.9576057819 -0.0468167930794,4.79132636164 -0.0912130072666,4.6181276915 C -0.132744562621,4.43417017435 -0.156984931598,4.24450451409 -0.156975128501,4.07740687107 C -0.156958414869,3.82944569265 -0.0954072127806,3.62214201962 0.0558636834157,3.44011448597 C 0.196158741905,3.24699484085 0.394265641762,3.0948532698 0.639482413722,2.98160038416 C 0.509711389734,2.8758657602 0.392491129531,2.73052454268 0.31518599142,2.59201585029 C 0.242044811441,2.44317831372 0.200893679006,2.25976436113 0.200886256996,2.08257949625 C 0.200893228246,1.87880979751 0.256755897148,1.67761862551 0.351375551267,1.51233506476 C 0.440515750392,1.33773021673 0.582203158481,1.17897600209 0.752195963008,1.06244769965 C 0.91179195915,0.938986706484 1.11933740352,0.841188187647 1.34362634395,0.781478016574 C 1.55295556162,0.717806070048 1.79153872405,0.683752707142 2.00861209009,0.683725815437" fill="none" stroke="#000000" stroke-width="0.00485542961901"></path>
    <path d="M 1.78549375118,3.4944821236 C 1.60335533799,3.53688640272 1.46812998237,3.58971805995 1.36524138333,3.70031057422 C 1.26902785631,3.82131226485 1.21417968826,3.94209136938 1.18811694825,4.09277726089 C 1.16500547634,4.25356736158 1.17783255888,4.35624422257 1.17783645503,4.46048462515 C 1.17786992532,4.64035734658 1.21885798318,4.74482172852 1.29627739084,4.84098576878 C 1.37006212962,4.94580271219 1.48173766774,4.99170883124 1.66490815026,4.99169850873 C 1.80797349853,4.991705361 1.93672368867,4.96019910945 2.05815496487,4.88780900015 C 2.17193136555,4.808123558 2.26174374116,4.7176413007 2.33833583635,4.59891281946 C 2.40974145574,4.46995794698 2.45516907615,4.34432622715 2.48367862967,4.20076517685 C 2.51052118284,4.04528619273 2.52256997028,3.91678008362 2.52253945643,3.82986495568 C 2.5225479823,3.68720295205 2.47724348273,3.56852265372 2.40326370265,3.47173116281 C 2.33370103654,3.36665899976 2.23184733804,3.28246636613 2.10944566842,3.21745477541 C 1.99569999393,3.14771363809 1.85715421256,3.09386917128 1.67934431847,3.04675741046 C 1.55210234936,3.12257448136 1.43012093719,3.11986494687 1.33426798102,3.21876676258" fill="none" stroke="#000000" stroke-width="0.00485542961901"></path>
    <path d="M 1.66230639584,1.35655384154 C 1.59253760196,1.44357242078 1.52126221872,1.49412559733 1.46537555895,1.57728602008 C 1.4121923796,1.66848331705 1.37013204164,1.73868437127 1.34251756362,1.8289828749 C 1.31681481704,1.92678769693 1.30807339541,2.01001667992 1.31598921541,2.10513486729 C 1.32343185741,2.20773787067 1.35856412772,2.29354609564 1.4212211785,2.3744193168 C 1.47992999527,2.4617484288 1.562641148,2.52991218135 1.66544852081,2.59367414579 C 1.76166116122,2.66227158919 1.87206251595,2.7109570244 2.01875058982,2.77601591886 C 2.16046434316,2.66983146608 2.25235012594,2.63261290655 2.32898337815,2.55070228145 C 2.40044136766,2.45985066161 2.43896845776,2.41284826413 2.47114244151,2.32402566091 C 2.50110228221,2.22524423168 2.50689408324,2.16607109845 2.50635532151,2.07421701044 C 2.50634024708,1.93306570143 2.4657162693,1.8450072819 2.39449795751,1.74921314806 C 2.32683306603,1.64456835032 2.23647236495,1.58907354638 2.12098078845,1.53206525758 C 2.01309411643,1.4702529499 1.89302078305,1.44854716041 1.74701728343,1.44849570088 C 1.62244629531,1.44846836633 1.5183057007,1.46878284372 1.42037938951,1.51689983315" fill="none" stroke="#000000" stroke-width="0.00485542961901"></path>
</svg>