<svg baseProfile="full" height="600px" version="1.1" viewBox="-0.742221322586 0.40382718671 3.38582544047 4.74223671132" width="429px" xmlns="http://www.w3.org/2000/svg" xmlns:ev="http://www.w3.org/2001/xml-events" xmlns:xlink="http://www.w3.org/1999/xlink">
    <defs></defs>
    <path d="M 1.11497375296,0.983979244209 C 1.48796382473,0.984010971764 1.79527893589,0.996014591919 2.0158346288,1.0549898936 C 2.24244922326,1.11483851136 2.3597912185,1.2077926776 2.3598067589,1.42441973897 C 2.35979767198,1.68762726398 2.26492453421,1.85175377937 2.09996935035,2.0449903837 C 1.93054939116,2.23442412229 1.69413363243,2.33714721413 1.37906821872,2.48487841399 C 1.37905761201,2.5854253328 1.3790113382,2.65948397728 1.3790111296,2.84591635378 C 1.37898053899,3.08048712523 1.6274099566,3.41954534562 1.62747993335,3.69778513225 C 1.62751878905,3.97664698275 1.50241151559,4.23662339957 1.43094316232,4.44902855964 C 1.34977508443,4.64039229663 1.08548892396,4.74928995283 0.735118904288,4.74923224356 C 0.285812326844,4.74918284005 -0.126673660104,4.65859050786 -0.458423963611,4.47173787391 C -0.412945001249,4.35161614901 -0.349845423226,4.23934061563 -0.277800722842,4.12640126532 C 0.0696500699475,4.26482685393 0.423388824935,4.34648824221 0.711666301961,4.34647086781 C 1.12646491932,4.34651174772 1.42476250338,4.08995952832 1.59000726151,3.93002830076 C 1.76193523514,3.77368545162 1.85276180613,3.46740117299 1.85276599558,3.29206932711 C 1.85276225796,2.99961049485 1.48181468835,2.79075704145 1.07845745078,2.79074072612 C 0.807606226115,2.79076477961 0.504579877763,2.79079856396 0.23349661222,2.79077503438 C 0.233475672341,2.68417711164 0.233393522407,2.56426673735 0.23814499095,2.46730440463 C 0.422853735237,2.46733461112 0.58833349958,2.467364784 0.74963365212,2.46732292441 C 1.0500964345,2.46734939913 1.33435038939,2.2773863266 1.48579519704,2.1286871324 C 1.64485497489,1.98601206045 1.74198979601,1.70789690714 1.74204492478,1.4952971379 C 1.74204704469,1.22257882754 1.46151283687,1.06669466595 1.15129065818,1.06665161796 C 0.871232006013,1.06667267323 0.495249065816,1.19306271315 0.228198263108,1.38177246392 C 0.198240948155,1.28797375203 0.134689552024,1.16201252282 0.069339392021,1.03964471609 C 0.340707686975,0.874742744274 0.651434657409,0.800667812831 1.02469363554,0.800658818256 C 1.37386500581,0.800661368272 1.63857575996,0.883738337061 1.81922940655,1.02403384258" fill="none" stroke="#000000" stroke-width="0.00394857344822"></path>
</svg>