<svg baseProfile="full" height="600px" version="1.1" viewBox="-0.341033457011 -0.459013016313 4.06956457752 5.48531759042" width="446px" xmlns="http://www.w3.org/2000/svg" xmlns:ev="http://www.w3.org/2001/xml-events" xmlns:xlink="http://www.w3.org/1999/xlink">
    <defs></defs>
    <path d="M 0.777156054974,4.28179121017 C 0.521208584309,4.09157693386 0.327770337462,3.82398736477 0.196662187576,3.47938072681 C 0.0655540376902,3.13477408886 -3.72529029846e-08,2.73607635498 -3.72529029846e-08,2.28364577889 C -3.72529029846e-08,1.83121520281 0.0655540376902,1.43251746893 0.196662187576,1.08791083097 C 0.327770337462,0.74330419302 0.521208584309,0.475714623928 0.777156054974,0.285500347614 C 1.03292438388,0.095106959343 1.33848515153,-1.78813934326e-07 1.69365927577,-1.78813934326e-07 C 2.04901251197,-1.78813934326e-07 2.35439416766,0.095106959343 2.61034163833,0.285500347614 C 2.86610996723,0.475714623928 3.05972732604,0.74330419302 3.19083547592,1.08791083097 C 3.32194362581,1.43251746893 3.38749770075,1.83121520281 3.38749770075,2.28364577889 C 3.38749770075,2.73607635498 3.32194362581,3.13477408886 3.19083547592,3.47938072681 C 3.05972732604,3.82398736477 2.86610996723,4.09157693386 2.61034163833,4.28179121017 C 2.35439416766,4.47218459845 2.04901251197,4.5672917366 1.69365927577,4.5672917366 C 1.33848515153,4.5672917366 1.03292438388,4.47218459845 0.777156054974,4.28179121017" fill="none" stroke="#000000" stroke-width="0.00456729191542"></path>
    <path d="M 2.33128899336,3.41919994354 C 2.48550225794,3.16110318899 2.56269844621,2.7826448679 2.56269844621,2.2836458385 C 2.56269844621,1.7846468091 2.48550225794,1.40618848801 2.33128899336,1.14809173346 C 2.17689661682,0.890174090862 1.96429365873,0.761215269566 1.69365921617,0.761215269566 C 1.4230247736,0.761215269566 1.21060092747,0.890174090862 1.05620855093,1.14809173346 C 0.901816174388,1.40618848801 0.824619986117,1.7846468091 0.824619986117,2.2836458385 C 0.824619986117,2.7826448679 0.901816174388,3.16110318899 1.05620855093,3.41919994354 C 1.21060092747,3.67711758614 1.4230247736,3.80607640743 1.69365921617,3.80607640743 C 1.96429365873,3.80607640743 2.17689661682,3.67711758614 2.33128899336,3.41919994354" fill="none" stroke="#000000" stroke-width="0.00456729191542"></path>
</svg>