<svg baseProfile="full" height="600px" version="1.1" viewBox="-0.50046392345 -0.511168216096 3.5639534798 5.43830866913" width="394px" xmlns="http://www.w3.org/2000/svg" xmlns:ev="http://www.w3.org/2001/xml-events" xmlns:xlink="http://www.w3.org/1999/xlink">
    <defs></defs>
    <path d="M 1.19656705219,3.24396383029 C 1.30359597612,3.25191862241 1.35145633403,3.25117019837 1.46972349767,3.18551031773 C 1.5782141957,3.11141197657 1.62951222543,3.03889090841 1.75370736901,2.91803361749 C 1.86575264964,2.7835633186 1.96194627616,2.62045873975 1.96190779258,2.43725787376 C 1.96193531515,2.21043928241 1.91582697989,2.02955469762 1.7874739206,1.92511426931 C 1.6721613592,1.81174533342 1.51527326168,1.75017910351 1.271594826,1.75014450079 C 1.03649033965,1.7502026425 0.830953765525,1.74706248751 0.621285457028,1.76187545618 C 0.66979137422,1.11006993612 0.709826864166,0.514414614045 0.782987750931,-0.0560890976553 C 1.41143379347,-0.0560574465194 2.06920055286,-0.0560757681355 2.71863255636,-0.0560696441303 C 2.69128707783,0.162699682676 2.70488618301,0.349038420283 2.68263171786,0.53290945109 C 2.25028313869,0.532867789226 1.78994964236,0.532871964021 1.36254836792,0.532891761767 C 1.32432834232,0.792258542286 1.28592366153,1.00880299162 1.24941459843,1.25079540561 C 1.31105851927,1.25381124837 1.40090086856,1.25790330421 1.48067574003,1.25287842823 C 1.55481415042,1.24639072807 1.64335183599,1.25528573503 1.80971880057,1.32552711924 C 1.95845354894,1.39995711555 2.09033828774,1.4803637441 2.24849556187,1.60415487995 C 2.39211055437,1.73792643358 2.50433137813,1.87545471897 2.61620287397,2.05060353388 C 2.71756092259,2.24197476616 2.76456586444,2.43141419699 2.76460670328,2.66845325639 C 2.76461153232,2.91360051443 2.72182578721,3.11141144743 2.63553646334,3.30976509561 C 2.55858472117,3.52695047369 2.45340476313,3.69179683437 2.30138359346,3.8448929291 C 2.16471048572,4.0125139307 2.00952588894,4.13066022356 1.8030010102,4.22863377889 C 1.61673040071,4.33548673501 1.42364768066,4.38160001372 1.18695857503,4.42283706998 C 0.97429040947,4.46714377289 0.833477967763,4.47549627421 0.661434152508,4.47097126606 C 0.505549305463,4.46557107686 0.398693704391,4.44595962136 0.269443848515,4.41194697588 C 0.152131372476,4.37680688247 0.0743141336084,4.33534073576 -0.014237670815,4.28151456385 C -0.0946525397062,4.22396217033 -0.147473941213,4.16726768508 -0.201581070787,4.09959736213 C -0.131734470493,3.83409258469 -0.0631543198883,3.6262747918 0.0976088693083,3.40123244866 C 0.216530566448,3.47130064412 0.344857310289,3.49787613868 0.595825647348,3.49787068126 C 0.821746562952,3.49867043991 0.917136271828,3.50138302494 1.03788140171,3.49707370226 C 1.16310617083,3.49709872322 1.24668770784,3.47311729731 1.37722405546,3.41436977851" fill="none" stroke="#000000" stroke-width="0.00452815043225"></path>
</svg>