<svg baseProfile="full" height="600px" version="1.1" viewBox="-0.26245823296 -0.459013028612 3.12666058127 5.48531760384" width="343px" xmlns="http://www.w3.org/2000/svg" xmlns:ev="http://www.w3.org/2001/xml-events" xmlns:xlink="http://www.w3.org/1999/xlink">
    <defs></defs>
    <path d="M 1.54464018345,4.5672917366 C 1.54875970166,4.39212265611 1.55305832904,4.21014742553 1.55717784725,4.02136602998 C 1.56147647463,3.83240552247 1.56362578832,3.63878816366 1.56362578832,3.44051396847 C 1.04653665982,3.44051396847 0.529626643285,3.44051396847 0.0127166267484,3.44051396847 C 0.00841799937189,3.27376303077 0.00429848115891,3.10719120502 -1.46217644215e-07,2.94044026732 C 0.0274036051705,2.90461837128 0.0675241285935,2.83494478092 0.120361429639,2.73159860447 C 0.173019618727,2.62807331607 0.233737737872,2.50412954763 0.30233667139,2.35958819464 C 0.370935604908,2.21504684165 0.444728710689,2.05635583773 0.523895108141,1.88333607092 C 0.602882386185,1.71031630412 0.681511447765,1.53622188047 0.759603188373,1.36105279997 C 0.943190411665,0.951608497649 1.14361392055,0.497924167663 1.36105284188,-1.89989805222e-07 C 1.67646464799,-1.89989805222e-07 1.99187645409,-1.89989805222e-07 2.30746737216,-1.89989805222e-07 C 2.30316874478,0.130749735981 2.29940744559,0.26436540857 2.29636258422,0.400309506804 C 2.29313861323,0.536432716995 2.29045197088,0.670406613499 2.28848176659,0.802410308272 C 2.2863324529,0.934234891087 2.2847204674,1.06140262261 2.28364581056,1.18373439834 C 2.28257115372,1.30606617406 2.28203382529,1.4190842621 2.28203382529,1.52243043855 C 2.28203382529,1.76727310196 2.28310848214,1.98775688186 2.28525779583,2.18388176337 C 2.28740710951,2.38018575683 2.29045197088,2.57219113782 2.29475059826,2.76007698849 C 2.39702211786,2.76007698849 2.49947274197,2.76007698849 2.60174426157,2.76007698849 C 2.60174426157,2.9868295975 2.60174426157,3.21358220652 2.60174426157,3.44051392749 C 2.50896554906,3.44051392749 2.41600772459,3.44051392749 2.32322901208,3.44051392749 C 2.32949784398,3.6051155366 2.33737866115,3.77598598972 2.34687146358,3.953304369 C 2.35636426602,4.13044365123 2.36746905465,4.30776203051 2.38018582761,4.4850804098 C 2.10167057812,4.51248416118 1.82315532863,4.53988791257 1.54464007914,4.56729166396" fill="none" stroke="#000000" stroke-width="0.00456729192659"></path>
    <path d="M 1.56989451684,2.26627199538 C 1.56989451684,2.07784880884 1.56989451684,1.88960473426 1.56989451684,1.70118154772 C 1.56989451684,1.70118154772 1.56774520315,1.52243028767 1.56362568494,1.16474865563 C 1.32415630575,1.69652472623 1.08450781461,2.22830079682 0.845038435422,2.76007686742 C 1.0866571283,2.76007686742 1.32827582117,2.76007686742 1.56989451405,2.76007686742 C 1.56989451405,2.59547525831 1.56989451405,2.43087364919 1.56989451405,2.26627204008" fill="none" stroke="#000000" stroke-width="0.00456729192659"></path>
</svg>