<svg baseProfile="full" height="600px" version="1.1" viewBox="-0.47886702335 -1.40231483057 3.90924299087 5.10754512128" width="460px" xmlns="http://www.w3.org/2000/svg" xmlns:ev="http://www.w3.org/2001/xml-events" xmlns:xlink="http://www.w3.org/1999/xlink">
    <defs></defs>
    <path d="M 0.700738625088,6.85519262333e-05 C 1.25328935818,8.894194616e-05 1.94406463341,0.00010534701687 2.45348729328,0.000100405910871 C 2.59446652369,0.000125698529246 2.84341603653,-0.0141270553991 2.95103181289,-0.0268136665522 C 3.05170792476,-0.0267837698589 3.09170510755,0.0394296442141 3.10283374176,0.10550040202 C 2.40160226212,1.11585051017 1.78842669115,2.05277115302 1.19297712431,3.12929910617 C 1.11466781185,3.23446394699 1.06122090802,3.29362203376 1.01938199014,3.27414782354 C 0.916989294299,3.27422553226 0.873069432982,3.26748961601 0.777981070289,3.26744255933 C 0.633877260098,3.26748215238 0.565251154312,3.2397892868 0.44596677781,3.23980535566 C 0.226559532293,3.23984049903 0.151759011158,3.20951901646 0.655499321827,2.37375073405 C 1.09537322582,1.72298275204 1.70945204557,1.19227706166 2.33895565332,0.291263270098 C 1.9113327092,0.291286053182 1.5531523651,0.228659981908 1.15360189737,0.228639562724 C 0.864850354799,0.228734740195 0.576628965744,0.270910252956 0.381589425215,0.363748234835 C 0.153794941911,0.439485174742 -0.034555139533,0.528524269489 -0.111818092457,0.710976530936 C -0.132487081504,0.7396951552 -0.150311939931,0.741562260104 -0.150289380499,0.804368285252 C -0.150263154117,0.819143187975 -0.138206740079,0.81604370477 -0.151324797591,0.803898905426 C 0.0529326608576,0.803932552121 0.325267415325,0.417834018252 0.650823186914,-0.218056525209 C 1.00438321737,-0.736850763776 1.34544600157,-0.974750216224 1.5918712875,-0.97478886479 C 1.58749011375,-0.974815300736 1.48942985602,-0.97483662444 1.48146701727,-0.97491409394" fill="none" stroke="#000000" stroke-width="0.00425274364803"></path>
</svg>