<svg baseProfile="full" height="600px" version="1.1" viewBox="-0.122912944279 -0.416728299476 1.89594374926 4.9807554964" width="229px" xmlns="http://www.w3.org/2000/svg" xmlns:ev="http://www.w3.org/2001/xml-events" xmlns:xlink="http://www.w3.org/1999/xlink">
    <defs></defs>
    <path d="M 1.01240242974,6.26475584795e-05 C 1.15796910182,7.3397268352e-05 1.32447901324,8.38813757582e-05 1.47248588458,0.000122369361634 C 1.58316405073,0.000141842443554 1.60188406103,0.0231842977591 1.61059240487,0.0507450999357 C 1.4656098434,1.3249752225 1.33856105295,2.64068636313 1.23616627094,4.01457890883 C 1.37422877786,4.028921161 1.45627687362,4.0494283551 1.59859744695,4.07542976566 C 1.60740330958,4.07543231502 1.6097944102,4.11210283592 1.61330750354,4.14723624989 C 1.16591110595,4.14722926327 0.672539261661,4.14725093236 0.228128699146,4.14719721795 C 0.228017746074,4.11479372651 0.217196549824,4.08833649874 0.217150022454,4.0325919886 C 0.442240108914,4.03262811806 0.617891733713,3.97540164646 0.794114981956,3.92908022459 C 0.895543118186,2.84525952395 1.00518271811,1.740841127 1.00514738638,0.895140684207 C 0.722994107789,1.02320597227 0.401874024457,1.15568759199 0.146614957637,1.2837392902 C 0.081532787568,1.18487626221 0.0694115050501,1.15845838468 0.03681035716,1.06734336447 C 0.417036760635,0.850684936156 0.83579953391,0.624521906485 1.2526234277,0.34946280252" fill="none" stroke="#000000" stroke-width="0.00414717360233"></path>
</svg>