<svg baseProfile="full" height="600px" version="1.1" viewBox="-0.167712326693 -0.00702203868969 2.56300903062 4.98045191305" width="309px" xmlns="http://www.w3.org/2000/svg" xmlns:ev="http://www.w3.org/2001/xml-events" xmlns:xlink="http://www.w3.org/1999/xlink">
    <defs></defs>
    <path d="M 0.801036576492,1.53795436601 C 0.801045942171,1.68664278666 0.800974918238,1.77618524263 0.800926601209,1.88034901599 C 0.667611634053,1.88038524568 0.468022709407,1.88044926871 0.343902526118,1.8805022382 C 0.343883211493,1.52113740079 0.506725976944,1.04319973223 0.506722929342,0.705929770396 C 1.08212489115,0.705964952253 1.51706382857,0.552100613259 2.0097649418,0.552114498718 C 2.00978547538,0.793690216644 2.1800002625,0.996491950853 2.1799847333,1.25656257282 C 2.17996698797,1.6103769363 1.87714034498,2.02788085948 1.54821187437,2.34368769537 C 1.89613858045,2.41664666395 2.10503925562,2.56792550246 2.10505885633,2.68816023032 C 2.10503783942,3.09104000489 2.10489620411,3.4563141958 2.10493089027,3.718497564 C 2.10497473417,4.20344175856 1.7256223732,4.55659528534 1.31191833554,4.55666433126 C 0.912199603896,4.55662179083 0.463222818951,4.17735272735 0.0475996607349,4.17730507081 C 0.0475800864845,4.06079926168 0.0636517730056,3.82306121861 0.0636503272885,3.75343489473 C 0.41621931132,3.83439119731 0.751270728671,3.97796898161 0.976883577668,3.97797494645 C 1.32589681681,3.97800837289 1.60683249172,3.78220338951 1.6068242362,3.55204525421 C 1.60687568931,3.34801734815 1.5088363081,3.10567490588 1.50881974236,2.95146728883 C 1.50886409726,2.71295171807 1.32550407197,2.52373906801 1.08178708698,2.52375231935 C 0.860431320924,2.52373707486 0.660726107616,2.52378906042 0.441452287096,2.52380415096 C 0.441454893368,2.3879213114 0.441375604522,2.25786230757 0.441338311827,2.14348629161 C 0.610444750583,2.14345923318 0.79937773565,2.1434943211 0.965208765065,2.14348100981 C 1.17000142852,2.14346772849 1.34281529108,2.08675482168 1.45486230025,1.98721315011 C 1.56378982583,1.86586916491 1.62456644321,1.68973179206 1.62454202477,1.46929428026 C 1.6245661056,1.17455324575 1.56682359561,0.978259161557 1.45274391159,0.879643246974 C 1.3434170945,0.759465523506 1.16871968046,0.703290116484 0.939026789217,0.703283613003 C 0.728245036153,0.703249191648 0.562755600957,0.742775676555 0.4496757327,0.799524580842 C 0.340772823839,0.870730219192 0.261815094797,0.965266925997 0.261788406732,1.02996426613 C 0.261808841956,1.04373660569 0.209227468353,1.09332287942 0.181276551914,1.09332489314 C 0.151375580114,1.09195642684 0.0611545848667,1.04753330489 0.0611686506215,0.991463554547 C 0.0611576783156,0.855848667667 0.0610724889227,0.7481237254 0.0610898299508,0.690121149168 C 0.0610906545778,0.548301135645 0.349854535307,0.409735282407 0.588854259696,0.409743504775" fill="none" stroke="#000000" stroke-width="0.00414692082685"></path>
</svg>