<svg baseProfile="full" height="600px" version="1.1" viewBox="-0.254828024115 -0.459012813978 3.03509983033 5.48531746514" width="332px" xmlns="http://www.w3.org/2000/svg" xmlns:ev="http://www.w3.org/2001/xml-events" xmlns:xlink="http://www.w3.org/1999/xlink">
    <defs></defs>
    <path d="M 0.0,0.298933744431 C 0.689034223557,0.298933744431 1.37824749947,0.298933744431 2.06728172302,0.298933744431 C 2.18603131175,0.298933744431 2.27092920244,0.275649512187 2.3217962943,0.229081047699 C 2.37266338617,0.182333474979 2.40239555947,0.106032831594 2.41081370506,1.30385160446e-08 C 2.44896402676,1.30385160446e-08 2.48711434845,1.30385160446e-08 2.5254437821,1.30385160446e-08 C 2.5254437821,0.205617694184 2.5254437821,0.411414487287 2.5254437821,0.617032168433 C 2.5254437821,1.17674928717 2.39809693862,1.62846338563 2.14376147557,1.97199538164 C 2.03772865701,2.11187988333 1.9327704953,2.25498835556 1.82888699044,2.40132081322 C 1.72500348557,2.54765327089 1.63580696005,2.74377815239 1.56165563781,2.98969547264 C 1.48750431556,3.23561279289 1.45024954248,3.52827770822 1.45024954248,3.86751107685 C 1.45024954248,4.07115855627 1.40368107799,4.2386259269 1.31036503706,4.3700922858 C 1.21704899613,4.5015586447 1.07179121021,4.56729182415 0.874591656961,4.56729182415 C 0.677392103709,4.56729182415 0.523716160096,4.50263330154 0.413384721614,4.37331625633 C 0.30323238764,4.24399921112 0.248066668399,4.07527807169 0.248066668399,3.86751106195 C 0.248066668399,3.62589236908 0.2967844503,3.42654350214 0.39439911861,3.26964358799 C 0.445266210474,3.1847456973 0.492013783194,3.1127436813 0.534283620305,3.05327933468 C 0.576732565649,2.99399409629 0.644615058787,2.92718626 0.73793109972,2.85303493775 C 0.831247140653,2.7787044961 0.902174499817,2.72461342998 0.951071389951,2.69076173566 C 0.999789171852,2.65691004135 1.08450795803,2.60066966154 1.20540686045,2.52221970446 C 1.32630576286,2.44376974739 1.42911460344,2.37588725425 1.51401249412,2.3185722176 C 1.5987312803,2.26143628918 1.68040520791,2.19982262515 1.75885516498,2.1340894457 C 1.83730512206,2.06835626625 1.92524787877,1.98471213691 2.02286254708,1.88297795318 C 2.21361414436,1.67933047377 2.33451304678,1.39938235842 2.38538013864,1.04331270419 C 2.36854384746,1.06444762275 2.34293119144,1.09203048237 2.30907949712,1.12588217668 C 2.27522780281,1.15991297923 2.18406106811,1.20433213376 2.03557931166,1.259497853 C 1.88709755521,1.31466357224 1.7174808709,1.34224643186 1.52672927361,1.34224643186 C 1.16833119374,1.34224643186 0.809933113866,1.34224643186 0.451714145951,1.34224643186 C 0.332964557223,1.34224643186 0.248066666536,1.3655306641 0.197199574672,1.41209912859 C 0.146332482807,1.45884670131 0.116600309499,1.53514734469 0.108182163909,1.64118016325 C 0.0721811559051,1.64118016325 0.0360010396689,1.64118016325 3.16649675369e-08,1.64118016325 C 3.16649675369e-08,1.19376466237 3.16649675369e-08,0.746349161491 3.16649675369e-08,0.298933660612" fill="none" stroke="#000000" stroke-width="0.00456729181111"></path>
</svg>