<svg baseProfile="full" height="600px" version="1.1" viewBox="-0.024528868043 -0.836805086515 3.63744980878 5.29639094442" width="413px" xmlns="http://www.w3.org/2000/svg" xmlns:ev="http://www.w3.org/2001/xml-events" xmlns:xlink="http://www.w3.org/1999/xlink">
    <defs></defs>
    <path d="M 1.29039782039,2.95423716 C 1.72975522033,2.95427152935 1.96657208852,2.96747218958 2.32404385261,2.96745958027 C 2.36057090886,2.96753519824 2.39405227579,3.11189751377 2.40416065543,3.12917258455 C 2.38621935933,3.21637102081 2.39963035691,3.34404056383 2.38807523377,3.37737894295 C 2.34902168564,3.56215551732 2.2954827597,3.83065888522 2.20699026189,4.01634232936 C 1.57784601055,4.01637406257 0.913745721202,4.01640114298 0.280429442744,4.01636572264 C 0.292024461884,3.86587475322 0.3012184504,3.73964758299 0.366668343875,3.58769324504 C 0.432697140011,3.41116681777 0.493460733775,3.258081735 0.698872555378,3.04470518313 C 0.903733808878,2.8092043259 1.07174742627,2.61194576405 1.31723936308,2.39445461415 C 1.5651774447,2.1555785992 1.74937211383,1.94707736455 1.88624436069,1.79969744466 C 2.02964798022,1.63068251394 2.13220518488,1.46692776762 2.20299108732,1.31776517712 C 2.27694284577,1.14866967581 2.31008358705,0.979846552834 2.31008013272,0.801788122282 C 2.31010436265,0.620685563311 2.26388875021,0.454703898057 2.17466719075,0.336611830518 C 2.08342418446,0.205331974551 1.96580350025,0.138092816696 1.77721096201,0.13809931319 C 1.64501598103,0.138096422963 1.54262491687,0.177338679396 1.4295602925,0.252304893993 C 1.31476686521,0.335313138627 1.23727531357,0.439154778682 1.16012205555,0.553019014262 C 1.08206901325,0.677459274494 1.03658716007,0.809358646237 1.03656546429,0.908939999603 C 1.03660258733,0.988729422056 1.0399821467,1.04972595077 1.0755502499,1.08419664677 C 1.11016644829,1.12230144914 1.14121565514,1.14603290249 1.18588422903,1.15594337981 C 1.20110812795,1.15596752716 1.23612624046,1.15994156347 1.15633467969,1.17289246162 C 1.07825071004,1.1897267132 1.04157264543,1.19045069322 0.925352893889,1.19044509447 C 0.787950016678,1.19047293372 0.724261455357,1.16958960264 0.627647139252,1.11938334748 C 0.531317837656,1.06423338994 0.504745146379,0.986051862383 0.504772839012,0.859577765012 C 0.504783866242,0.695259575987 0.542212766841,0.537201230669 0.644841035143,0.383931313896 C 0.750018512145,0.220886071467 0.852972236708,0.0841439266442 1.03233198567,-0.0315087165 C 1.21284708126,-0.153586315668 1.36285607262,-0.241446326232 1.59740900739,-0.300457759506 C 1.83226555331,-0.363693914122 1.99991936727,-0.393596905029 2.24531146629,-0.393601681091 C 2.49346987648,-0.393567314626 2.62888736768,-0.355911458165 2.80389141782,-0.289444985122 C 2.97893058999,-0.218464697034 3.06599816425,-0.120270887644 3.16996049626,-0.00574959281175 C 3.27431548877,0.115738181143 3.30794995396,0.263585103422 3.30796259461,0.428874550133 C 3.30800538516,0.625101966529 3.26919578021,0.812433017164 3.16605765378,0.982514900832 C 3.06110905862,1.16584718016 2.95706265425,1.34408837345 2.78269470489,1.50256660369 C 2.60627772665,1.67211700764 2.4569067434,1.84967306045 2.2373700664,2.01256540206 C 2.01606390631,2.18372514632 1.84626527881,2.37034240153 1.44963692879,2.70268097308 C 1.38523877418,2.76308702838 1.80198315537,2.76101286521 2.25615853822,2.76102735037" fill="none" stroke="#000000" stroke-width="0.00440998413357"></path>
</svg>