<svg baseProfile="full" height="600px" version="1.1" viewBox="-0.318788020104 -0.45901284495 3.80261978167 5.48531759042" width="416px" xmlns="http://www.w3.org/2000/svg" xmlns:ev="http://www.w3.org/2001/xml-events" xmlns:xlink="http://www.w3.org/1999/xlink">
    <defs></defs>
    <path d="M 0.408369630575,4.26782083511 C 0.136123210192,4.06811375916 0.0,3.74374647439 0.0,3.29436077178 C 0.0,3.02677120268 0.084002353251,2.80772030354 0.251827932894,2.63756629825 C 0.419832639396,2.46741229296 0.630823604763,2.33916990459 0.884800873697,2.2530182451 C 0.658048264682,2.17582205683 0.468550436199,2.0533111617 0.316486485302,1.88548558205 C 0.164422534406,1.71748087555 0.0884801149368,1.49072826654 0.0884801149368,1.20486951619 C 0.0884801149368,0.819067664444 0.224603325129,0.521925009787 0.496849745512,0.313083358109 C 0.769096165895,0.104420818388 1.12982267141,-7.45058059692e-09 1.57920837402,-7.45058059692e-09 C 2.02841496468,-7.45058059692e-09 2.38914147019,0.105495475233 2.66138789058,0.316486440599 C 2.93363431096,0.527477405965 3.06975752115,0.825873814523 3.06975752115,1.21167566627 C 3.06975752115,1.69258465618 2.79751110077,2.0352210924 2.25301826,2.23940590769 C 2.50717461109,2.30298977345 2.72264331579,2.4174407348 2.89960348606,2.58311701566 C 3.07656365633,2.74879329652 3.16504374146,2.99041198939 3.16504374146,3.30797310919 C 3.16504374146,3.74822422117 3.02784587443,4.06811376661 2.7532710284,4.26782084256 C 2.47869618237,4.46752791852 2.08734194934,4.56729190797 1.57920829952,4.56729190797 C 1.07089559734,4.56729190797 0.680616006255,4.46752791852 0.408369585872,4.26782084256" fill="none" stroke="#000000" stroke-width="0.00456729191542"></path>
    <path d="M 2.00119023025,3.94452822953 C 2.09647648036,3.81055433303 2.14411960542,3.58935410529 2.14411960542,3.28074846417 C 2.14411960542,2.99488971382 2.08393881842,2.78963024169 1.96375634894,2.66479093581 C 1.84339477494,2.53995162994 1.70619690791,2.46848694235 1.55198364332,2.45039688423 C 1.41120358184,2.47314378805 1.28761803731,2.54568313248 1.18104789779,2.66819402762 C 1.0742986463,2.79070492275 1.02092402056,2.99488973804 1.02092402056,3.28074848838 C 1.02092402056,3.5940109808 1.06749248505,3.81628585048 1.16062941402,3.94793132134 C 1.25358723849,4.07939768024 1.39311353117,4.14530997165 1.57920829207,4.14530997165 C 1.765123941,4.14530997165 1.90590400249,4.07832302339 2.0011902526,3.94452823885" fill="none" stroke="#000000" stroke-width="0.00456729191542"></path>
    <path d="M 1.94333788753,1.85485781915 C 2.04543029517,1.73001851328 2.09647649899,1.5224306155 2.09647649899,1.23209415562 C 2.09647649899,0.932443993166 2.05563953519,0.7227067817 1.97396560758,0.602345207706 C 1.89229167998,0.482162738219 1.76064620912,0.421981951222 1.57920829952,0.421981951222 C 1.39759127796,0.421981951222 1.26612491906,0.482162738219 1.18445099145,0.602345207706 C 1.10259795189,0.7227067817 1.06176098809,0.932443993166 1.06176098809,1.23209415562 C 1.06176098809,1.51329605468 1.11280719191,1.71748086996 1.21507871151,1.84464860149 C 1.31717111915,1.97163723595 1.43842823803,2.05116184987 1.57920829952,2.0828642305 C 1.71980924904,2.05563958921 1.84124548733,1.97969716974 1.94333789498,1.85485786386" fill="none" stroke="#000000" stroke-width="0.00456729191542"></path>
</svg>