<svg baseProfile="full" height="600px" version="1.1" viewBox="-0.542494917001 -1.05523920549 3.96749181526 4.92222384785" width="484px" xmlns="http://www.w3.org/2000/svg" xmlns:ev="http://www.w3.org/2001/xml-events" xmlns:xlink="http://www.w3.org/1999/xlink">
    <defs></defs>
    <path d="M 1.05945502481,2.42073993274 C 1.16128117851,2.44547967316 1.21451502181,2.46492028125 1.25972365475,2.46493289993 C 1.54025002456,2.4649937639 1.77563581503,2.41647583265 1.94813272989,2.32342173923 C 2.13398962355,2.23004206289 2.27936065829,2.08966890741 2.35891220606,1.88176775742 C 2.20936030782,1.97876484711 2.07225587106,1.99136401732 1.92411330975,2.03408943508 C 1.76410578824,2.08462762851 1.59976789988,2.09366675299 1.25201422608,2.09366009507 C 0.751563912993,2.09372260643 0.459871477251,2.01523143275 0.179210639363,1.75209054572 C -0.105136477585,1.49351790769 -0.210218982036,1.22203639371 -0.210162894189,0.747964593003 C -0.210159799474,0.259058865139 -0.0875384047805,-0.00505032913952 0.198956148309,-0.275685397556 C 0.490129964036,-0.546361056736 0.823065476102,-0.643301156929 1.36692316977,-0.643346202397 C 1.95146252362,-0.643300322959 2.30976291148,-0.515415428349 2.63383145778,-0.22319739885 C 2.96228490917,0.0722835677179 3.09262031464,0.429858954481 3.09266489453,1.03800538354 C 3.09268243781,1.55929908328 3.02397058329,1.88698104196 2.87373934111,2.21947574787 C 2.71644816717,2.56198674612 2.53803122958,2.76608599894 2.27607975325,2.96366197043 C 2.00470391831,3.16571979397 1.74763683399,3.26659261607 1.40645367822,3.34578490429 C 1.0581735166,3.42578115486 0.771016308873,3.44266272694 0.561276653617,3.45509163928 C 0.472171084791,3.30572037291 0.459463924936,3.19764765245 0.428963846362,3.03965147477 C 0.717401481069,3.02876806338 0.882182827986,2.99036869486 1.10051508883,2.94040799592 C 1.32432604472,2.88783537303 1.4895985041,2.82783531849 1.67492873112,2.72978205685 C 1.86400639156,2.63007874493 1.98508059124,2.52673694198 2.10494298378,2.38401968484" fill="none" stroke="#000000" stroke-width="0.00409843784168"></path>
    <path d="M 1.82918040881,0.898664110115 C 1.8492491586,0.69881752949 1.83962319659,0.560944624951 1.62594584989,0.560958529229 C 1.35709859299,0.560959883199 1.24747124927,0.608084771946 1.06153108792,0.655277226285 C 0.870952418615,0.700312685386 0.815039078315,0.792498920277 0.815021524892,0.925811235026 C 0.81506492169,1.12623782845 0.871423590644,1.25858404131 1.02449895786,1.3444399202 C 1.18287265645,1.43240357579 1.32016586111,1.47287643345 1.56439434336,1.47284791573 C 1.81016467856,1.47284180372 1.93036719011,1.43896748944 2.07624653326,1.37317648603 C 2.22237751232,1.30758281125 2.27207897948,1.22680726721 2.27214422509,1.10548094733 C 2.27214550064,0.916278921801 2.22004489065,0.780141376693 2.0869468397,0.667686314124" fill="none" stroke="#000000" stroke-width="0.00409843784168"></path>
</svg>