<svg baseProfile="full" height="600px" version="1.1" viewBox="-0.222259579786 -0.479020200965 3.53985496204 5.09452750637" width="417px" xmlns="http://www.w3.org/2000/svg" xmlns:ev="http://www.w3.org/2001/xml-events" xmlns:xlink="http://www.w3.org/1999/xlink">
    <defs></defs>
    <path d="M 0.586629335827,2.56650171328 C 0.461103309935,2.55312881145 0.37470556522,2.53031552296 0.374721022647,2.54147761307 C 0.374701892188,2.40142437063 0.260727745643,2.26683827482 0.260743119072,2.11779025934 C 0.26070811576,1.73717192552 0.32089695311,1.48227141044 0.32090460907,1.19590023897 C 0.320882104056,0.712645746687 0.633634201901,0.451024211863 0.891605578082,0.261611558417 C 1.15773986997,0.0362504645382 1.6771021408,-0.0527234897818 2.12589412154,-0.0527087672444 C 2.63715153159,-0.052774489689 2.97469618143,0.169378548097 2.97471361239,0.5143887393 C 2.97471692394,0.835424064827 2.86977636795,1.04464487655 2.86983754737,1.31195910199 C 2.86985087289,1.68566401227 2.67348065866,1.88214375002 2.39681920303,1.95813769026 C 2.81469473137,2.12111623509 3.02083681418,2.26426497025 3.02084000847,2.36973435355 C 3.02080494089,2.64489174558 3.02064591843,2.88484778179 3.02066446202,3.13219740165 C 3.02069469353,3.56757169141 2.86072248777,3.84020741953 2.67570515534,3.95939377619 C 2.48202206751,4.11885455919 2.11711158415,4.18918403162 1.64685349723,4.18919588626 C 1.07831954023,4.1891669648 0.675396075454,4.0963972973 0.436050092783,3.91802884809 C 0.197755774465,3.68734371833 0.0744558628467,3.40316718987 0.0744958036958,3.06001848153" fill="none" stroke="#000000" stroke-width="0.00424190466808"></path>
    <path d="M 1.54970543841,3.34188160192 C 1.54968811159,3.27582958233 1.46584289853,3.34709259015 1.46583310255,3.31224832576 C 1.46582288504,3.25438608494 1.46581197094,3.26839906521 1.46583382681,3.24948803321 C 1.46583817242,3.19343231604 1.5520218396,3.11768626407 1.67982897995,3.11770446862 C 1.88526255725,3.11769885811 2.05971165834,3.0680455068 2.05977109799,3.02637072894 C 2.05976376234,2.97880259025 2.05966571976,2.91396418082 2.05971431069,2.86942112314 C 2.05972249745,2.71677672731 1.91540545165,2.61766775566 1.75065512895,2.61768671712 C 1.50886174976,2.61770348705 1.31920242249,2.69127826847 1.31922176016,2.83091362275 C 1.31924038878,3.01040472544 1.31921732375,3.09656911052 1.3192727455,3.17539719946" fill="none" stroke="#000000" stroke-width="0.00424190466808"></path>
    <path d="M 1.65554522357,1.69257351104 C 1.65552649238,1.62613169197 1.7063971866,1.55887718591 1.70637320501,1.5325340433 C 1.7063589187,1.53757504606 1.76904109285,1.47722599888 1.83736551718,1.47725750286 C 1.87652347774,1.47722423869 1.97686559499,1.4366594297 1.97690667112,1.41754169437 C 1.97690410639,1.39452979761 1.97679919175,1.31221780973 1.97685744613,1.29789931747 C 1.97687584595,1.24632057222 1.91916947501,1.20222201618 1.79268090861,1.2022500995 C 1.61528659301,1.20223227272 1.50207569139,1.28321182111 1.37681293921,1.28324127809 C 1.37683918472,1.36967494205 1.32106537144,1.44989683346 1.32110279627,1.53844358639 C 1.32112229864,1.69952822343 1.32813181837,1.78137407318 1.32821943605,1.84371589363 C 1.32824074619,1.92505239189 1.36668080234,1.95318406687 1.53172502064,1.95321398205" fill="none" stroke="#000000" stroke-width="0.00424190466808"></path>
</svg>