<svg baseProfile="full" height="600px" version="1.1" viewBox="-0.621169615529 -0.636012092343 4.39532612449 5.39127232305" width="490px" xmlns="http://www.w3.org/2000/svg" xmlns:ev="http://www.w3.org/2001/xml-events" xmlns:xlink="http://www.w3.org/1999/xlink">
    <defs></defs>
    <path d="M 1.6358778354,3.63247395532 C 1.72382051015,3.63250029511 1.78069678957,3.64264309272 1.84638905788,3.64260357796 C 2.02201620007,3.64263087411 2.17931153143,3.54620719601 2.29377119506,3.37432219733 C 2.39967716003,3.20414090801 2.48230635637,2.94016501952 2.48226665009,2.54790393163 C 2.35657423783,2.63694549251 2.20340047825,2.68554102901 1.91008184899,2.68552821061 C 1.62980790485,2.68553467173 1.41006545771,2.64495078552 1.12823580254,2.64492852572 C 0.798594102747,2.64496471481 0.553474307544,2.54014707105 0.324337602146,2.40582924084 C 0.114274770505,2.2736873527 -0.0142666543652,2.07249592738 -0.117309599631,1.84172809617 C -0.213014661782,1.6251265903 -0.253021534048,1.35791509347 -0.253022027606,1.07673542695 C -0.253003064436,0.818937381075 -0.199658650798,0.597042774127 -0.0385350770182,0.4105549206 C 0.110042702513,0.226787139939 0.280349981146,0.0802119423611 0.557519596177,-0.0270409907239 C 0.81408737238,-0.131027879848 1.06617901857,-0.184832020386 1.4576666766,-0.184868987875 C 1.77452768024,-0.184847616763 2.0357583874,-0.134273925037 2.31531022127,-0.0299888636778 C 2.57068498071,0.068683727472 2.7608502471,0.218636079519 2.94082358118,0.412765382617 C 3.10539051529,0.597786455243 3.21356970455,0.83208185324 3.29669054981,1.10589465389 C 3.37237166251,1.36709090957 3.40597402688,1.6672514964 3.4060088931,1.99885037431 C 3.40604267729,2.30105450639 3.37544738402,2.59506848344 3.30317123135,2.84036525974 C 3.23679089447,3.07657073328 3.14975856145,3.29721376189 3.01743921538,3.48045572528 C 2.89605685224,3.65593348333 2.76122296502,3.81419874617 2.57125574996,3.93520898262 C 2.39729299297,4.05093833694 2.2222525989,4.14871621767 1.98618010332,4.21142059454 C 1.77015746286,4.27083461994 1.56350689282,4.30413453171 1.28747277608,4.30411711941 C 1.12304832687,4.30409276485 0.979307121537,4.28487786277 0.819568297765,4.25871132686" fill="none" stroke="#000000" stroke-width="0.00448898611411"></path>
    <path d="M 1.42989234857,1.74074799008 C 1.42988321188,1.63755821622 1.48597498241,1.62538644205 1.55356153104,1.62782369577 C 1.6165627912,1.62836541206 1.7002180219,1.66847151488 1.78620706502,1.70922211901 C 1.86536045376,1.74686918751 1.91323735196,1.74222303665 1.92343081165,1.67317040747 C 1.93321137599,1.60870083904 1.92793370181,1.53520734346 1.9279177883,1.45479474699 C 1.92793361089,1.3131933037 1.9106868635,1.18691703415 1.86329608961,1.08439615852 C 1.81982072248,0.986910236239 1.77182423501,0.905650858938 1.69536570637,0.847848952918 C 1.62587498306,0.793083653956 1.55887565194,0.763653745114 1.44716929077,0.763619458048 C 1.31607216774,0.763614993373 1.25242138086,0.7884913793 1.18944589971,0.829209249297 C 1.13263185872,0.869163390079 1.11702400717,0.933480266312 1.11699005359,1.06332268176 C 1.11702680996,1.25334622321 1.14356291143,1.36182760058 1.22062801419,1.44479123113 C 1.29123626498,1.52607300488 1.36839630304,1.56034848822 1.50596431492,1.56032519305" fill="none" stroke="#000000" stroke-width="0.00448898611411"></path>
</svg>