<svg baseProfile="full" height="600px" version="1.1" viewBox="0.338575997302 -0.616859742539 3.23538876318 4.62680146875" width="420px" xmlns="http://www.w3.org/2000/svg" xmlns:ev="http://www.w3.org/2001/xml-events" xmlns:xlink="http://www.w3.org/1999/xlink">
    <defs></defs>
    <path d="M 1.60662596012,2.18200687692 C 1.56169799054,2.32788987086 1.49130517328,2.44770478085 1.49121356753,2.65253167227 C 1.49132758709,2.89407046512 1.29654895099,3.05594328419 1.16561094256,3.05602262801 C 1.10811717766,3.05602949785 0.819778278043,2.87980890201 0.768903817554,2.56458666848 C 0.716092090626,2.25432684945 0.609923105259,1.82697611975 0.609796918196,1.3711864941 C 0.609803113471,0.823095916975 0.745071384441,0.43177327441 0.964326846729,0.164160221088 C 1.18223885013,-0.0999671824093 1.59057283712,-0.229723588359 1.94725361777,-0.229687755428 C 2.36830073906,-0.229713837508 2.76945206834,-0.0886831980979 2.96855712248,0.184447844621 C 3.17056271745,0.452800591584 3.30277677191,0.857021262046 3.30274382962,1.37394021928 C 3.30277839172,1.89717118919 3.21291010695,2.31576709926 3.10067187118,2.63737290084 C 2.98352058846,2.97142796695 2.76170750576,3.2187787044 2.54888724404,3.37661298096 C 2.33009975272,3.540948053 1.99871098119,3.62274414032 1.72554650026,3.62276974652 C 1.44713388997,3.62276613101 1.1189771803,3.53394571826 0.9096026929,3.3327705054" fill="none" stroke="#000000" stroke-width="0.00385245750937"></path>
    <path d="M 2.31638092742,2.61264478277 C 2.41543504045,2.44262779365 2.50517150954,2.28184694658 2.50503906959,1.93726423989 C 2.50505079385,1.46561951052 2.46009926926,1.21071988951 2.37244909685,0.992591744765 C 2.28414359372,0.756498447164 2.11413044911,0.670881337031 1.9141210435,0.670875946618 C 1.73501269203,0.670860716627 1.56963547748,0.749631294534 1.48660064917,0.925789931342 C 1.40254444312,1.11233288936 1.35041219424,1.3434681236 1.35035321716,1.73410349481 C 1.3503668474,2.149325931 1.40660891477,2.40436004989 1.50248896126,2.61459385745 C 1.59938919339,2.83574851744 1.77579210494,2.92520625286 1.96481555495,2.92521343535 C 2.14484748039,2.92519490714 2.3242835829,2.83992483015 2.41646845434,2.65984349246" fill="none" stroke="#000000" stroke-width="0.00385245750937"></path>
</svg>