<svg baseProfile="full" height="600px" version="1.1" viewBox="-0.525802064209 -0.779606323538 3.80181591716 5.56429091866" width="410px" xmlns="http://www.w3.org/2000/svg" xmlns:ev="http://www.w3.org/2001/xml-events" xmlns:xlink="http://www.w3.org/1999/xlink">
    <defs></defs>
    <path d="M 1.60834416785,2.4735488033 C 1.84457564392,2.47360842999 2.03057962694,2.52208803545 2.18302930929,2.58917035859 C 2.34168377556,2.67030733775 2.41705366262,2.81629326891 2.41698133566,3.0002013589 C 2.41702287396,3.22253504347 2.35217728962,3.43071539651 2.22825780262,3.59356008421 C 2.10111614813,3.78372739206 1.93690009167,3.93782599221 1.72909462203,4.03305049937 C 1.51664064576,4.14249835859 1.29407506933,4.19816070746 0.999661472935,4.19818400339 C 0.619803187747,4.19816284356 0.367794719834,4.1113609719 0.130644974608,3.83968115327 C -0.106828319531,3.5334399986 -0.207048634689,3.17229182003 -0.207053634352,2.66092986343 C -0.206969294871,2.15310270069 -0.145763937558,1.77833399651 -0.0164523908747,1.43242574213 C 0.113130938088,1.03896448491 0.272315423761,0.761044059969 0.494516815816,0.518358652569 C 0.716264303599,0.2417198169 0.941835518752,0.0624941038855 1.22421228496,-0.0761079591744 C 1.50710007158,-0.235284487628 1.76528068987,-0.313981930637 2.0358928701,-0.313984835906 C 2.14845095185,-0.314025836898 2.23450358567,-0.305131463235 2.34913175163,-0.277344630932 C 2.46322440711,-0.244100449508 2.55184024927,-0.209711303836 2.64787336794,-0.160233737802 C 2.74397599307,-0.103688483959 2.81564512459,-0.0546637083348 2.81561871462,0.0325305406991 C 2.81570368927,0.139769079262 2.79379960816,0.194415627146 2.73020794164,0.271315595234 C 2.66637192588,0.359323946858 2.59985640567,0.400781368935 2.51043676507,0.451496934617 C 2.42123515826,0.511129194969 2.33865554553,0.533078579331 2.23974683803,0.561851775372 C 2.1405054174,0.596499240125 2.05468438488,0.603654821968 1.93926920664,0.603644657525 C 1.77244540226,0.603607388589 1.66742783707,0.606283413157 1.50121903341,0.701023803934 C 1.33573917966,0.811768026933 1.22930998277,0.910106735214 1.09656443369,1.07270252882 C 0.962594709509,1.26086384235 0.88503488075,1.42826025365 0.799634493106,1.64300829349 C 0.713589570635,1.88558158456 0.673901449107,2.09160618661 0.641022334956,2.32455232917 C 0.771875391864,2.19460430919 0.928133647107,2.0994120705 1.12234025743,2.03192769168 C 1.31680874076,1.95721964715 1.49098817553,1.92101777522 1.67432133403,1.92104465837 C 1.85865753438,1.92102410553 2.01866496649,1.95144953488 2.18930744674,2.01186211689 C 2.36242723014,2.080616246 2.49373632219,2.16671867205 2.6118479028,2.27944973393 C 2.73257759508,2.40755592568 2.81319789138,2.54030235393 2.87147089388,2.69217820747 C 2.93078414645,2.86752701087 2.95729036178,3.02921542807 2.95726540549,3.19424869402" fill="none" stroke="#000000" stroke-width="0.00463304822536"></path>
    <path d="M 1.90394019261,3.3238917306 C 1.90398639177,3.24538023173 1.90946674083,3.15821883976 1.87462253232,3.05982280671 C 1.84050147717,2.94713579267 1.81182679457,2.84979356229 1.75036718619,2.75473078489 C 1.6885223977,2.64755726009 1.63345920217,2.5637346372 1.54786876512,2.49252294152 C 1.46153308374,2.41162558048 1.38942473304,2.37516714781 1.25987417173,2.37516598576 C 1.10114128065,2.37515501978 1.02331097347,2.40308994355 0.919426991761,2.46160035508 C 0.815992265165,2.5290527262 0.770484580815,2.60255595224 0.709590937168,2.69500845598 C 0.64892359373,2.80015439468 0.650875814416,3.04607177453 0.650852114148,3.20637417512 C 0.650878108951,3.4723491736 0.687186848285,3.74105123358 0.784928720358,3.89235781806 C 0.884635414841,4.06187305527 0.987796399656,4.21957423465 1.15138017005,4.28470047491 C 1.31658517188,4.35622052031 1.43553784108,4.29390931057 1.60136468327,4.29389820142 C 1.76532721138,4.29391785882 1.87330035484,4.23793007232 1.99690747625,4.14228920437 C 2.12273118264,4.0306431333 2.1933242417,3.89747890629 2.26186236358,3.71729860999" fill="none" stroke="#000000" stroke-width="0.00463304822536"></path>
</svg>