<svg baseProfile="full" height="600px" version="1.1" viewBox="-0.304996654725 -0.459012864445 3.63712265968 5.48531755071" width="398px" xmlns="http://www.w3.org/2000/svg" xmlns:ev="http://www.w3.org/2001/xml-events" xmlns:xlink="http://www.w3.org/1999/xlink">
    <defs></defs>
    <path d="M 3.0271294117,0.0381503216922 C 2.99148662388,0.190572496504 2.95584383607,0.343173783273 2.92038015649,0.495595958084 C 2.90515584964,0.50831273105 2.88975243364,0.521029504016 2.87452812679,0.533746276982 C 2.69416487403,0.521029504016 2.51362250932,0.50831273105 2.33325925656,0.495595958084 C 1.94942760654,0.495595958084 1.56559595652,0.495595958084 1.1817643065,0.495595958084 C 1.12856878899,0.902353581041 1.07519416325,1.30893212184 1.02181953751,1.71551066265 C 1.17925677262,1.74864591658 1.3368731197,1.78160206228 1.49448946677,1.81473731622 C 2.2874071952,1.98238378391 2.68395558558,2.36872294173 2.68395558558,2.97375478968 C 2.68395558558,3.26856898889 2.59762480669,3.53669589385 2.42478415184,3.77813547477 C 2.25194349699,4.01957505569 2.01551897638,4.21140130982 1.71551059,4.35379334912 C 1.41568131559,4.49618538842 1.08522431366,4.56729185209 0.724318696186,4.56729185209 C 0.516014365479,4.56729185209 0.274574784562,4.54436583817 -6.14672899246e-08,4.49869291857 C 0.00501500396058,4.32835978642 0.0102091790177,4.15802665427 0.0152242444456,3.98787264898 C 0.0329560842365,3.97246923298 0.0508670322597,3.95724492613 0.0685988720506,3.94202061929 C 0.337979530916,4.05897911824 0.599837606773,4.11736881174 0.853993957862,4.11736881174 C 1.23513895832,4.11736881174 1.54410282336,4.01581373252 1.78034823202,3.81234536506 C 2.01677275263,3.60905609466 2.13498501293,3.34988466837 2.13498501293,3.03465197422 C 2.13498501293,2.62807343341 1.8528875839,2.36872289516 1.28851361386,2.25695857592 C 1.05226820521,2.21128565632 0.815843684599,2.16543362848 0.579419163987,2.11976070888 C 0.564194857143,2.10184976086 0.548970550299,2.08411792107 0.533746243455,2.06638608128 C 0.615061947145,1.41066626459 0.696377650835,0.754946447909 0.777693354525,0.0990475192666 C 0.813336142339,0.0685989055783 0.848978930153,0.0381502918899 0.884442609735,0.00770167820156 C 1.01913293917,0.0127167436294 1.1538232686,0.0177318090573 1.28851359803,0.0229259841144 C 1.63168737013,0.0229259841144 1.97486114223,0.0229259841144 2.31803491432,0.0229259841144 C 2.54675773997,0.0152242761105 2.77548056561,0.00770167773589 3.00420339126,-3.0267983675e-08 C 3.01190509927,0.0127167426981 3.01942769764,0.0254335156642 3.02712940564,0.0381502886303" fill="none" stroke="#000000" stroke-width="0.00456729188235"></path>
</svg>