<svg baseProfile="full" height="574px" version="1.1" viewBox="-0.400590858226 -0.134151336956 4.91847306374 4.70246854341" width="600px" xmlns="http://www.w3.org/2000/svg" xmlns:ev="http://www.w3.org/2001/xml-events" xmlns:xlink="http://www.w3.org/1999/xlink">
    <defs></defs>
    <path d="M 1.01203199847,0.942437057745 C 1.31944477185,0.910167930078 1.68560859187,0.830436577451 2.01998480781,0.830482772531 C 2.18313213809,0.830502932537 2.41209417208,0.831518779387 2.55844691022,0.836104963784 C 2.73144313319,0.840146318887 2.91050780936,0.859765759547 3.00217996909,0.86593802168 C 3.11201398446,0.875052695972 3.20601838454,0.990047944588 3.20602672061,1.06741295556 C 3.20602732318,1.26104937295 3.08738195318,1.49505995016 2.93859111684,1.72060611646 C 2.75786072927,1.97016769449 2.47113580423,2.23075166146 1.83977521377,2.83436837594 C 1.21982074695,3.36650571029 0.741532513675,3.69259375135 0.307447204169,4.05913418333 C 0.225797751721,4.11731010104 0.211908280652,4.12801022909 0.670703291696,4.1280510371 C 1.38667088727,4.12804539256 1.99339580516,4.01281154655 2.68537217359,4.01277362481 C 2.83815954606,3.81529901102 2.99284034948,3.54207930639 3.11141843329,3.44100055024 C 3.24471519123,3.3977002047 3.41713570784,3.27168247029 3.51108316312,3.20223186835 C 3.63553314636,3.233042638 3.74930016677,3.19531363547 3.82150728981,3.13951757848 C 3.91529497485,3.22094957083 3.99963920544,3.17245433405 4.05366797353,3.1263682276 C 4.13965470697,3.27707009315 4.10020214672,3.39821829945 4.07505286465,3.45444979071 C 4.00345930437,3.62045336067 3.86968252043,3.80559133291 3.81262472252,3.89031739086 C 3.74103654156,3.98553436547 3.61810921858,4.09785075784 3.00197368095,4.09785657801 C 2.55091976355,4.09797407206 2.31018141637,4.09038391973 1.77756998668,4.09037426212 C 1.47482822071,4.09050374407 1.24697438608,4.08997048343 1.0298852248,4.1109153414 C 0.830950237614,4.11100582954 0.618552349311,4.13330951322 0.360248260003,4.17473788176 C 0.267118982774,4.17484112273 0.174015141826,4.16075919013 0.0687270088013,4.16071384942 C 0.0356740875062,4.13560607082 0.0109952295091,4.04926034605 0.0109882782484,3.96785073525 C 0.0110270014332,3.88190537488 0.120182470076,3.72260926461 0.680600002997,3.3071773479 C 1.22231771111,2.8875712285 1.5397825992,2.63316254115 2.10168434738,2.16526518559 C 2.68945403456,1.67465571856 2.85942438304,1.44819198346 2.85939794972,0.993235153913 C 2.85942325671,0.724103076219 2.79713209649,0.607046602129 2.65818216582,0.467708317398 C 2.50003237207,0.315062848686 2.37021765788,0.272884519606 2.15699808975,0.272866311375 C 1.8315634646,0.272922846038 1.64698562701,0.323990123828 1.43530208548,0.45282954212 C 1.19965302129,0.591969477494 1.11562432279,0.696513752003 0.987765728728,0.8981244662 C 0.84583862056,1.11369640615 0.81007346441,1.23283915456 0.758807189063,1.23282890498 C 0.724115426884,1.23284074409 0.703268314944,1.19386481612 0.703283534406,1.10618192075 C 0.703296361863,0.959241898046 0.768147101998,0.809844629155 0.854769317806,0.72423377751 C 0.953641599416,0.628951677369 1.07067696601,0.530501977788 1.21114036292,0.477411725806 C 1.37204044908,0.418984328644 1.5122922346,0.354089808898 1.68743172139,0.324992389666 C 1.89015486687,0.29238154112 2.03930385262,0.259454732077 2.27829924077,0.259427422825" fill="none" stroke="#000000" stroke-width="0.00409531479079"></path>
</svg>