<svg baseProfile="full" height="600px" version="1.1" viewBox="-0.321994038623 -0.459012876961 3.84109247354 5.48531752778" width="421px" xmlns="http://www.w3.org/2000/svg" xmlns:ev="http://www.w3.org/2001/xml-events" xmlns:xlink="http://www.w3.org/1999/xlink">
    <defs></defs>
    <path d="M 2.8213326931,2.89655852318 C 2.8213326931,3.12008716166 2.77798819542,3.33304834366 2.69129920006,3.53526295722 C 2.60443110019,3.73765668273 2.48800993711,3.91497506201 2.34149836749,4.06721812487 C 2.19498679787,4.21946118772 2.0264447704,4.34089742601 1.83551406115,4.43134772032 C 1.64476246387,4.52197711915 1.4434434101,4.56729181856 1.23137777299,4.56729181856 C 1.04259637743,4.56729181856 0.872084133327,4.52967882901 0.719841070473,4.45463195443 C 0.567598007619,4.37940597534 0.438460074365,4.2714029476 0.332427255809,4.13080199808 C 0.226394437253,3.99020104855 0.144541397691,3.82058436424 0.0866890326142,3.62195194513 C 0.0288366675377,3.42349863797 3.91155481339e-08,3.19907445461 3.91155481339e-08,2.94850028306 C 3.91155481339e-08,2.56699708849 0.0635839048773,2.19892711192 0.190751636401,1.84429035336 C 0.317919367924,1.48965359479 0.488610709086,1.17549554259 0.702467435971,0.901816256344 C 0.916324162856,0.628316052258 1.16116682626,0.409444250166 1.43663723208,0.245738171041 C 1.71228674985,0.0818529948592 1.99850369431,-4.47034835815e-08 2.29528809525,-4.47034835815e-08 C 2.42245582677,-4.47034835815e-08 2.54084719904,0.0154033713043 2.65082042105,0.0462102033198 C 2.76061453857,0.0770170353353 2.85607989319,0.120361533016 2.93685827591,0.176243692636 C 3.01781576313,0.232304964215 3.08139962889,0.2976799272 3.12778898515,0.37290590629 C 3.17399923317,0.44813188538 3.19710435718,0.529984924942 3.19710435718,0.618644114584 C 3.19710435718,0.718766320497 3.16916327737,0.798828255385 3.11328111775,0.85847171396 C 3.05739895813,0.918294280767 2.9812774267,0.948205564171 2.88491651975,0.948205564171 C 2.80395903252,0.948205564171 2.73643475585,0.922055577859 2.68252280168,0.870113825426 C 2.62861084752,0.817992964759 2.60156531446,0.738110134378 2.60156531446,0.630107106641 C 2.60156531446,0.506879778579 2.5804303959,0.414280170575 2.53798145056,0.352666506544 C 2.49571161345,0.291052842513 2.41475412622,0.260246010497 2.29528809711,0.260246010497 C 2.14107483253,0.260246010497 1.98883176968,0.300545645878 1.83855890855,0.381503133103 C 1.68810695037,0.462460620329 1.546431344,0.576195141301 1.41353210434,0.72270671092 C 1.28063286468,0.869218280539 1.16116683558,1.04259627126 1.05513401702,1.24301978014 C 0.949101198465,1.44344328903 0.865277964622,1.66500172578 0.803664300591,1.90787420236 C 0.80939580407,1.91163550154 0.815127307549,1.91557591013 0.821037920658,1.91933720931 C 1.07143298024,1.76530304179 1.33544036979,1.68810685351 1.61306005949,1.68810685351 C 1.79413974518,1.68810685351 1.95892046625,1.71712259017 2.1074022227,1.77479584701 C 2.25570486719,1.83264821209 2.38287259871,1.91468035616 2.48890541727,2.02053406276 C 2.59493823582,2.12656688131 2.67679127539,2.25373461284 2.73464364046,2.40221636929 C 2.79249600554,2.55051901378 2.82133263396,2.71529973485 2.82133263396,2.89655853249" fill="none" stroke="#000000" stroke-width="0.00456729186326"></path>
    <path d="M 1.50899750041,1.97145802714 C 1.37018765556,1.97145802714 1.24391546892,2.00423506461 1.13018094795,2.06978913955 C 1.01662553148,2.1353432145 0.919189967681,2.22776371054 0.838232480455,2.34722973965 C 0.75727499323,2.46669576876 0.694765784312,2.61123712175 0.650346629787,2.78085380606 C 0.60610658722,2.95047049038 0.583897009958,3.1372816842 0.583897009958,3.34164561145 C 0.583897009958,3.65383346193 0.636017870624,3.89276552014 0.740080479998,4.058441801 C 0.844143089373,4.22429719381 0.996386152226,4.30704577826 1.19680966111,4.30704577826 C 1.32773869904,4.30704577826 1.45114513161,4.27050744183 1.5666707498,4.19725165702 C 1.68237547996,4.12399587221 1.78160213353,4.02190346457 1.86452982994,3.89079531468 C 1.94727841439,3.75986627676 2.01283248933,3.60654854216 2.06101294281,3.4312003497 C 2.10919339629,3.25585215725 2.13337317714,3.06599608995 2.13337317714,2.86181127466 C 2.13337317714,2.26824247278 1.9252479584,1.97145807184 1.5089975209,1.97145807184" fill="none" stroke="#000000" stroke-width="0.00456729186326"></path>
</svg>