<svg baseProfile="full" height="600px" version="1.1" viewBox="-0.349858486243 -0.4539587482 4.26432613395 5.47980205867" width="467px" xmlns="http://www.w3.org/2000/svg" xmlns:ev="http://www.w3.org/2001/xml-events" xmlns:xlink="http://www.w3.org/1999/xlink">
    <defs></defs>
    <path d="M 1.70118200779,3.06957840919 C 2.10793963075,2.69971731305 2.41314220428,2.3576181829 2.61643147469,2.04328104854 C 2.81989984214,1.72894391418 2.92163402587,1.42015916109 2.92163402587,1.11692678928 C 2.92163402587,0.887487530708 2.85500529408,0.704437628388 2.72192694247,0.567597985268 C 2.58866947889,0.430758342147 2.40758979321,0.362338520586 2.17832964659,0.362338520586 C 1.63831454515,0.362338520586 1.17979425192,0.809933133423 0.802589684725,1.70494324714 C 0.79506708635,1.71963022463 0.780380108859,1.727152823 0.758170531597,1.727152823 C 0.735960954335,1.727152823 0.713751377072,1.71963022463 0.69154179981,1.70494324714 C 0.669332222547,1.69007716049 0.661988733802,1.67521107383 0.669332222547,1.66052409634 C 0.880144090857,1.11692681536 1.09095595917,0.573150422424 1.30176782748,0.0295531414449 C 1.31663391413,0.00734356418252 1.34063458676,7.54371285439e-08 1.37394895265,0.00734356418252 C 1.40708420658,0.0148661625572 1.42015919974,0.0333144390024 1.41263660137,0.0628675040789 C 1.3906061342,0.129496235866 1.37950134557,0.181258880068 1.37950134557,0.218155432958 C 1.37950134557,0.306993742008 1.42015919741,0.351412896533 1.5014749011,0.351412896533 C 1.56810363289,0.351412896533 1.67897240724,0.325442020316 1.83426032867,0.273679376114 C 1.85646990594,0.266335887369 1.93975581881,0.242156106513 2.08393896278,0.201498254668 C 2.22812210675,0.160840402823 2.38161893841,0.140601031017 2.54442945775,0.140601031017 C 2.82545224484,0.140601031017 3.04736890551,0.220125644933 3.21000031289,0.37899576081 C 3.37281083222,0.538044988643 3.45412653591,0.750647946727 3.45412653591,1.01698376192 C 3.45412653591,1.12803164078 3.44678304717,1.21669083042 3.43191696052,1.28331956221 C 3.35794474278,1.65318065835 3.13244590256,2.0377287264 2.75524133537,2.43714287831 C 2.37803676818,2.83655703021 1.72715291474,3.37639301969 0.802589745261,4.05700904084 C 0.780380167998,4.07169601833 0.772857569624,4.08459190233 0.780380167998,4.09569669096 C 0.787723656744,4.10680147959 0.802589743398,4.1123538739 0.824620210566,4.1123538739 C 1.58655198757,4.1123538739 2.11904450599,4.09945798991 2.4222768778,4.07366622193 C 2.72550924961,4.04769534571 2.94384370092,3.98303682311 3.07692205254,3.8795115347 C 3.21000040416,3.77580714179 3.32463047747,3.5947274561 3.42081227247,3.33573514177 C 3.43567835912,3.3135255645 3.45412663557,3.30242077587 3.47633621283,3.30242077587 C 3.49854579009,3.30242077587 3.5187851619,3.30994337425 3.53741254844,3.32463035174 C 3.55586082488,3.33949643839 3.5614132192,3.35436252505 3.55406973045,3.36904950254 C 3.44678315055,3.73514930718 3.33949657064,4.10124911182 3.23220999073,4.46752802841 C 3.20265692566,4.53397764824 3.16558126453,4.56729201414 3.12134122197,4.56729201414 C 2.11170100514,4.56729201414 1.10206078831,4.56729201414 0.0924205714837,4.56729201414 C 0.0555240185931,4.56729201414 0.0295531423762,4.54884373769 0.0148661648855,4.51176807657 C 7.82310962677e-08,4.47487152368 0.00734356697649,4.44155715778 0.036896632053,4.41200409271 C 0.739722297527,3.88685510494 1.29442434106,3.4392604921 1.70118196402,3.06957850792" fill="none" stroke="#000000" stroke-width="0.004562699466"></path>
</svg>