<svg baseProfile="full" height="600px" version="1.1" viewBox="-0.775347073025 -2.84498925725 10.4668139001 15.2483937793" width="412px" xmlns="http://www.w3.org/2000/svg" xmlns:ev="http://www.w3.org/2001/xml-events" xmlns:xlink="http://www.w3.org/1999/xlink">
    <defs></defs>
    <path d="M 1.86628986644,10.0814524637 C 1.83585170219,10.3391512381 1.80280928622,10.732757275 1.7780287576,11.1265179263 C 1.17758181813,11.1262285302 0.618877382301,11.1271831811 0.102177591347,11.1274148677 C 0.796955437683,6.83155743822 1.47624358656,2.73247401461 2.0673633528,-1.56899960295 C 2.76096692803,-1.56887063888 3.38881549361,-1.56880910837 3.99861112358,-1.56889225819 C 3.74463173869,0.0345582785376 3.4989744288,1.51758812091 3.24480278912,3.10012410305 C 3.2765255359,3.10037182079 3.60181740793,2.85750886606 3.63182181241,2.85693940066 C 3.94996312382,2.46271138929 4.27318409207,2.19553800963 4.66111472371,1.96742212318 C 5.06353855255,1.73768467747 5.50482130172,1.61459464871 5.95621842267,1.61456031835 C 6.91196298721,1.61443959659 7.58959162357,1.92269923275 8.06900930526,2.56910326069 C 8.57439005496,3.21170093601 8.81407606723,4.0821002919 8.81394210659,5.19986762588 C 8.81394590269,5.87659116571 8.72650413047,6.56655033415 8.58410812746,7.23720421379 C 8.43346784841,7.92066242283 8.197625993,8.55899693554 7.85330396723,9.11703654116 C 7.49433228206,9.68273188656 7.05178615283,10.1058021087 6.49873617123,10.4124328691 C 5.91654422711,10.7215252716 5.26387682389,10.8344973597 4.48749479483,10.8345216933 C 3.28361376952,10.8344918642 2.44022604655,10.4303333912 1.92356040906,9.58066947798" fill="none" stroke="#000000" stroke-width="0.0126964144707"></path>
    <path d="M 5.80201511892,8.71270899662 C 6.17057501587,8.34620891699 6.44159864696,7.94548569807 6.57901010724,7.51224495658 C 6.73534859034,7.06795518287 6.82727941933,6.50022380241 6.82720788398,5.93607758173 C 6.8273312151,5.27366708406 6.75794731821,4.73619561085 6.56457691635,4.35219542869 C 6.3646106347,3.96034957656 6.0434409305,3.73338909634 5.55195202674,3.73334359854 C 5.15317859496,3.73313170525 4.80174805965,3.83864363137 4.48742853846,4.02348489168 C 4.15360113229,4.21130310598 3.86559172715,4.47980811301 3.61443012203,4.83418293896 C 3.3525684997,5.19022371474 3.16227587308,5.59084033075 3.02830911423,6.07351504865 C 2.94101019944,6.64114671054 2.87572874125,7.11805524531 2.87567527905,7.51914315525 C 2.87580629336,8.04250203672 2.9976293807,8.53207110468 3.26671094346,8.84840478602 C 3.54126138138,9.17531766596 3.93322262811,9.34769110981 4.49594256925,9.34784394512 C 4.92679665136,9.3479523106 5.4620291953,9.23240015344 5.7234822576,9.23247148784" fill="none" stroke="#000000" stroke-width="0.0126964144707"></path>
</svg>