<svg baseProfile="full" height="600px" version="1.1" viewBox="-0.800417829873 -3.3242355104 10.6050062795 15.5789721234" width="409px" xmlns="http://www.w3.org/2000/svg" xmlns:ev="http://www.w3.org/2001/xml-events" xmlns:xlink="http://www.w3.org/1999/xlink">
    <defs></defs>
    <path d="M 1.74860449751,10.0602722084 C 1.74822783454,10.0502744047 1.72185171007,10.4131422965 1.66272977724,10.864030513 C 1.12892422809,10.8636709147 0.562736369509,10.8635792874 0.0887375546881,10.8637680321 C 0.762339301247,6.55146878055 1.44983006253,2.50003092578 2.01061279311,-2.02057082364 C 2.75145650639,-2.02059468252 3.36294013991,-2.02051976271 3.97998667492,-2.02058297218 C 3.70929992928,-0.389965472828 3.47961273028,1.05101722657 3.23212746515,2.63174921452 C 3.20533837921,2.75907673119 3.15137441627,3.0440893638 3.56885625592,2.83537614523 C 3.9385227429,2.69052072047 4.35104488007,2.41983817695 4.73758582941,2.24207545995 C 5.15508194438,2.05446390985 5.59154503218,1.94975584178 5.99748037926,1.94956385189 C 7.02784513107,1.94942409882 7.72702466122,2.28351966628 8.19080250135,2.87999109515 C 8.69161330334,3.48824868688 8.91537733546,4.37498627194 8.91543306506,5.49842093476 C 8.9153163154,6.10984639415 8.82813648324,6.80235914477 8.66599693339,7.47202609071 C 8.49637916129,8.14597372302 7.98908307593,9.23241953143 7.62913435142,9.80746076592 C 7.18976520937,10.446917038 6.62383275669,10.9383552183 5.97853570621,10.9385102786 C 5.28597145718,10.9924169205 4.57916694324,10.8555296383 3.89850371521,10.855758352 C 3.09113895338,10.8557964047 2.54547959011,10.5900136908 2.16962521713,9.94549287161 C 2.15953115191,9.9453853136 2.14629472144,9.93239772507 2.13212184612,9.93199749434" fill="none" stroke="#000000" stroke-width="0.012971667047"></path>
    <path d="M 4.58401631745,8.40792506232 C 4.95157333645,8.05298834338 5.18114248844,7.7275315751 5.44455526205,7.30450358286 C 5.71846250626,6.88515707149 5.89378435346,6.38605018749 5.99543351116,6.02460899248 C 6.10189771833,5.65331866636 6.12906290586,5.18851658001 6.12906873463,4.83262085213 C 6.1214645985,4.46313082471 6.00169464531,4.07925912037 5.75545884254,3.80110397234 C 5.50914367618,3.51974915757 5.16786962332,3.36244442358 4.67355408849,3.36240557538 C 4.22017928543,3.3623574879 3.84071626844,3.48447990976 3.52975028338,3.67919543944 C 3.19963544192,3.87672113441 2.92033457341,4.16693763993 2.70525866332,4.51157503389 C 2.47980182948,4.8561400976 2.32324188532,5.24673869274 2.23244298579,5.67417271994 C 2.13170431139,6.27007462643 2.0531104091,6.78176852129 2.05306537055,7.14125277661 C 1.98652249926,7.7109838333 2.09691599362,8.15811239742 2.36193740719,8.46021022461 C 2.63272685163,8.75851537846 3.01990050428,8.91111751459 3.55100423449,8.91138469614 C 3.99947524422,8.91157039527 4.49046534651,8.81241190705 4.92469993585,8.59903621946" fill="none" stroke="#000000" stroke-width="0.012971667047"></path>
</svg>