<svg baseProfile="full" height="600px" version="1.1" viewBox="-0.701087692274 -2.82718506717 10.3506137624 15.585842928" width="399px" xmlns="http://www.w3.org/2000/svg" xmlns:ev="http://www.w3.org/2001/xml-events" xmlns:xlink="http://www.w3.org/1999/xlink">
    <defs></defs>
    <path d="M 1.818297732,10.1103621808 C 1.77395042714,10.3415465442 1.75481354755,10.6915989903 1.72486572091,11.0777747718 C 1.23487262551,11.0776861098 0.684566305325,11.0791261897 0.16687069957,11.0791680665 C 0.844620214149,6.80812285851 1.52403472488,2.76860116433 2.17119239394,-1.5229575782 C 2.81027327602,-1.52274372105 3.4769675595,-1.52262994226 4.1315261585,-1.52263063547 C 3.88252024476,0.0297276342224 3.62849100058,1.56603234652 3.37054817502,3.15259295347 C 3.25783212607,3.59909957293 3.49749010925,3.36498276535 3.53351112206,3.3649347752 C 3.9132815202,2.91832250651 4.27197583516,2.62410334047 4.65079616506,2.38914431926 C 5.05619867642,2.16154571172 5.49089099963,2.03353424665 5.99831153949,2.03360837199 C 6.87940665086,2.03350706289 7.51734854777,2.33365000675 8.02422567208,2.93385691831 C 8.5410982569,3.52152116487 8.78152411182,4.37821163128 8.78156767826,5.51179136227 C 8.78140415185,6.29708100746 8.69183876299,7.07784415672 8.57298213177,7.80078907202 C 8.44142348998,8.54494602869 8.20228594475,9.22442175339 7.61252051526,9.94073571155 C 7.02978110247,10.6422745724 6.34579610758,11.1133511503 5.50897121363,11.4544300873 C 4.39407503539,11.4547733866 3.60647004777,11.1443169616 2.5525657528,11.1441450694 C 1.55148333245,11.072695946 1.3362231993,11.0266614311 1.11484435134,10.8421061688" fill="none" stroke="#000000" stroke-width="0.01297738795"></path>
    <path d="M 4.77150301476,9.06171173545 C 5.09507714053,8.80392876956 5.37951381345,8.35664043519 5.55250428458,7.9404286215 C 5.75379973491,7.50301582309 5.86803132136,7.04741883966 5.86803087632,6.44643873664 C 5.86828805014,5.76637763473 5.8664336444,5.43653771969 5.68867401193,5.02146650049 C 5.52350486229,4.63602928015 5.22357768725,4.4088167468 4.83117143224,4.40877502332 C 4.4935896189,4.40847965701 4.16163710664,4.50476539506 3.89627579759,4.61167925222 C 3.60621110509,4.72986153884 3.3420761318,4.89806393905 3.11214364479,5.12811676784 C 2.86964921067,5.36491462214 2.66179221283,5.64536726101 2.51788667749,5.99877586587 C 2.35990540097,6.35633650048 2.26078255634,6.75008949264 2.13856363456,7.42572453244 C 2.05845239173,7.96156474574 2.10453771587,8.44500413163 2.08881410371,8.8965862952 C 1.99958481799,9.43326013906 2.14052606533,9.88322835787 2.5083676369,10.235531386 C 2.8759901316,10.5754868053 3.34062314938,10.7739810012 3.88877190064,10.7740841528" fill="none" stroke="#000000" stroke-width="0.01297738795"></path>
</svg>