<svg baseProfile="full" height="600px" version="1.1" viewBox="-0.763429491974 -3.00189637303 10.3858031655 15.33370155" width="407px" xmlns="http://www.w3.org/2000/svg" xmlns:ev="http://www.w3.org/2001/xml-events" xmlns:xlink="http://www.w3.org/1999/xlink">
    <defs></defs>
    <path d="M 1.85546111618,10.0567430748 C 1.81675491412,10.3013316734 1.78343173792,10.6683498664 1.75467846845,11.0477847798 C 1.19983730768,11.0476105437 0.63494018768,11.0485380342 0.107373873936,11.0486769457 C 0.813660840737,6.75596854878 1.46150122141,2.62858674717 2.05865935539,-1.71876814174 C 2.74840752338,-1.71867787863 3.36282626842,-1.71854940794 4.0345457003,-1.71846805614 C 3.7713512287,-0.129054770885 3.52005688404,1.40776671368 3.27098448132,2.98849691349 C 3.30474420567,2.98878034423 3.6105818965,2.74544880758 3.641721464,2.74545063652 C 3.96808580239,2.36883999981 4.30254933913,2.09200446881 4.68145293673,1.86285736241 C 5.08224043925,1.6323461888 5.51870451053,1.49856329538 5.95636079391,1.49859562859 C 6.85938385804,1.49845701344 7.54868171294,1.80127447732 8.01886633714,2.43285214789 C 8.51360768755,3.05786239989 8.75166667183,3.97153752931 8.75157027834,5.07971554883 C 8.75147176834,5.71953850873 8.66403519663,6.45422232039 8.51694522354,7.16800683625 C 8.36187047812,7.89076405652 8.11736191365,8.57103019841 7.60014391991,9.25793021806 C 7.09076107594,9.93295937665 6.46915770623,10.3933412123 5.6927799091,10.7284081269 C 4.44567609879,10.7286210095 3.66361970755,10.3807340598 2.86737711283,10.3807603888 C 2.27815456244,10.3809044911 1.85968289825,10.0913298978 1.48893548104,9.56280770438" fill="none" stroke="#000000" stroke-width="0.0127674450874"></path>
    <path d="M 5.14432871503,8.28627215251 C 5.52639088195,7.9488023363 5.80480510157,7.5296157442 5.95385624629,7.13720689639 C 6.1198976056,6.72823576555 6.22204858971,6.19836787805 6.22204033508,5.67406712398 C 6.222119366,4.9767029725 6.14720997699,4.46831779107 5.95759809501,4.08499972448 C 5.76000978537,3.70138366446 5.43646927662,3.48556309864 4.94856895991,3.48551761786 C 4.54649113603,3.4853214775 4.21552564688,3.58470527127 3.91420625634,3.75646970466 C 3.59604155011,3.93102810577 3.3270131845,4.17907049552 3.09496720619,4.49876030579 C 2.8515093971,4.81780239239 2.66851002462,5.1826801528 2.54473374523,5.60295518532 C 2.45105477907,6.23223128214 2.37621289231,6.76118066207 2.37601952426,7.18987339035 C 2.30041891508,7.76616584554 2.41899364613,8.24722915187 2.67421537064,8.56899481311 C 2.93970649861,8.8959659864 3.3281678798,9.06485926405 3.91670020841,9.06495447419 C 4.35652776979,9.0650092571 4.91409810804,8.95104315718 5.39313607834,8.71196490367" fill="none" stroke="#000000" stroke-width="0.0127674450874"></path>
</svg>