<svg baseProfile="full" height="600px" version="1.1" viewBox="-0.781995663994 -2.97234449005 9.93787181008 15.6280197951" width="382px" xmlns="http://www.w3.org/2000/svg" xmlns:ev="http://www.w3.org/2001/xml-events" xmlns:xlink="http://www.w3.org/1999/xlink">
    <defs></defs>
    <path d="M 1.81563280435,10.0813561651 C 1.77975324081,10.3203538928 1.75241619633,10.7018579814 1.71396319108,11.1080735001 C 1.15669695572,11.1079209452 0.590244273706,11.1086927168 0.0515821977096,11.1088241212 C 0.746041039987,6.80338941737 1.40372190909,2.68900953456 2.0077227159,-1.6645876296 C 2.66691635089,-1.66450139747 3.2908026977,-1.6644726689 3.91570488648,-1.66445814048 C 3.65224821405,-0.0858288851823 3.40959383087,1.41570581521 3.16058530943,2.98708297338 C 3.45182701485,2.64730189766 3.76515003578,2.40426448013 4.17010333674,2.21387219454 C 4.59114312665,2.02427014734 5.01083674566,1.91774430896 5.44714992778,1.9177613537 C 6.37128090398,1.91770792305 7.04712563293,2.22358012497 7.54873901145,2.85206038057 C 8.07712399499,3.481903854 8.32244097726,4.36968165933 8.32229822211,5.48544222414 C 8.32235376219,6.08711988031 8.23930686395,6.7763201028 8.08074348847,7.46453184187 C 7.91841768901,8.16084540187 7.67865308802,8.80593806802 7.20182555596,9.46212262212 C 6.72491335551,10.1026648909 6.16497194449,10.5657381445 5.47594469468,10.9066313833 C 4.76112621705,11.2454089552 4.021150407,11.3478681475 3.24738984982,11.3479184426 C 2.27872413079,11.347950565 1.53573381583,10.9570260219 1.06186714451,10.1614351444 C 1.05397631004,10.1611020391 1.03797017558,10.1439536002 1.02695555109,10.144019787" fill="none" stroke="#000000" stroke-width="0.0130125060742"></path>
    <path d="M 3.80356778996,8.89721510513 C 4.16429498093,8.59498143895 4.43007331388,8.20286837919 4.57708477275,7.88763228757 C 4.74729300337,7.54596809251 4.87381117837,7.09600535734 4.87366569765,6.64649952156 C 4.88585288521,6.18258378608 4.84715545993,5.70979622705 4.8469962464,5.36463297112 C 4.84704279026,4.71770317061 4.72850224247,4.31427402003 4.5223940002,4.06267899973 C 4.30247221759,3.81343425019 3.95828114322,3.7055628295 3.53192467859,3.70573875899 C 3.09105743339,3.7055771775 2.67616681626,3.86821497748 2.37695906928,4.0672671623 C 2.04679407051,4.28062419365 1.77418993285,4.58738045166 1.55618308356,4.95876513193 C 1.32731182745,5.33584905932 1.1716707783,5.75562806199 1.07045443973,6.21407900522 C 0.987798987535,6.76842169235 0.923456220535,7.25412143538 0.923329366076,7.62564797471 C 0.92326097086,8.21829820941 1.05075248971,8.70319400499 1.34598186508,9.03164170454 C 1.64638504282,9.36232329676 2.05278229609,9.53149778912 2.63440567151,9.53157396625 C 3.06195217267,9.5317095516 3.6034070839,9.41936882564 4.06478398934,9.18542133996" fill="none" stroke="#000000" stroke-width="0.0130125060742"></path>
</svg>