<svg baseProfile="full" height="600px" version="1.1" viewBox="-0.844213626232 -3.05884354222 10.2463037307 15.4740690991" width="398px" xmlns="http://www.w3.org/2000/svg" xmlns:ev="http://www.w3.org/2001/xml-events" xmlns:xlink="http://www.w3.org/1999/xlink">
    <defs></defs>
    <path d="M 1.6439136211,10.3568987227 C 1.64407643554,10.3478303723 1.60066071404,10.7572222226 1.55941948173,11.1203513317 C 1.03321310756,11.1201044236 0.520071296669,11.118544575 0.0150134849318,11.1186154216 C 0.649910716988,6.89690044816 1.29143878696,2.70925978119 1.89462962625,-1.7639443547 C 2.59257623432,-1.76391953831 3.17205259082,-1.76386878456 3.74422624586,-1.76396931702 C 3.4934311199,-0.208057299202 3.24949258444,1.29434202617 3.00777996955,2.84360502666 C 3.36349917827,2.46954037255 3.70686726151,2.21569098538 3.73316473579,2.21649865922 C 3.82801294392,2.20215558936 3.9581932134,2.18716660537 4.31647214358,1.99672167399 C 4.6746077246,1.82394631602 5.20665958589,1.63876422145 5.67529183691,1.63805198692 C 6.61935901707,1.63800398689 7.32460343902,1.95572398286 7.79250678485,2.58566347938 C 8.29555955594,3.19225625377 8.54298687046,4.06907014232 8.5428629468,5.27327327113 C 8.54285422662,5.85363219362 8.43830806711,6.59254501443 8.26459040442,7.3366095839 C 8.08251278797,8.0503907023 7.80811949768,8.7399670897 7.2834169487,9.41560922246 C 6.7538210372,10.0721589742 6.12583842078,10.5067397473 5.28657855788,10.5066697103 C 4.15352215567,10.5064042028 3.35072150031,10.088364255 2.7935571889,9.13012595135 C 2.78609057838,9.13016034881 2.7341492171,9.1145055856 2.72392376275,9.11490170329 C 2.67822953822,9.48381195634 2.63432379202,9.8339393553 2.55940232561,10.2731548068 C 2.10887346552,10.272887 1.68108324097,10.2735760264 1.20137224482,10.2736213255" fill="none" stroke="#000000" stroke-width="0.0128843206487"></path>
    <path d="M 4.28083374354,8.14599467509 C 4.66352998468,8.14601546099 5.00841810557,7.94211235215 5.22141911837,7.60195555856 C 5.46782825144,7.26920479109 5.66141126307,6.8421596842 5.77845191958,6.33501523306 C 5.91221007707,5.83212655356 5.9650840387,5.32124667933 5.96491109985,4.80472403338 C 5.96472172981,4.20664345791 5.84782723135,3.76009663512 5.63675730473,3.482130255 C 5.41754650122,3.20669823458 5.07015233284,3.07007777264 4.64994751459,3.07007249633 C 4.28041594273,3.06991191752 3.92744182592,3.16864802486 3.62887327915,3.34364542908 C 3.31052823907,3.51800011642 3.02886392718,3.78144304998 2.79704684561,4.12992691047 C 2.55126704818,4.47158669478 2.35530178791,4.85584723003 2.21861023253,5.31992675907 C 2.12393453514,5.9238765443 2.04686111754,6.4248529876 2.04676618632,6.82190941817 C 1.99006662723,7.31602411515 2.09706673231,7.77632798798 2.03921759334,8.30674197323 C 2.25512159076,8.73916008122 2.35036242959,9.09452830798 2.83088065144,9.09458863703 C 3.28599614855,9.13379807738 3.75781203267,9.0843334232 4.16944871303,9.08425845309" fill="none" stroke="#000000" stroke-width="0.0128843206487"></path>
</svg>