<?xml version="1.0" ?>
<svg baseProfile="full" height="600px" version="1.1" viewBox="-0.846885463331 -1.23726823229 10.1010674799 14.7856709892" width="410px" xmlns="http://www.w3.org/2000/svg" xmlns:ev="http://www.w3.org/2001/xml-events" xmlns:xlink="http://www.w3.org/1999/xlink">
	<defs/>
	<path d="M 2.04123401642,11.1770601273 C 1.96012537926,11.5010119081 1.87901674211,11.8249636889 1.79790810496,12.1489154696 C 1.19876626879,12.1489154696 0.599141635001,12.1489154696 -2.01165676117e-07,12.1489154696 C 0.712597168982,8.09927719831 1.42567733675,4.04963892698 2.1382747069,6.55651092529e-07 C 2.81321445853,6.55651092529e-07 3.48815421015,6.55651092529e-07 4.16309396178,6.55651092529e-07 C 3.88211045414,1.57679122686 3.60160974413,3.15358179808 3.3206262365,4.72988969088 C 3.61223111302,4.47111448646 3.94149357826,4.27123962343 4.30889642984,4.13074786961 C 4.67629928142,3.99025611579 5.05963418633,3.92025163025 5.45890114456,3.92025163025 C 6.38778821379,3.92025163025 7.11148969084,4.24130668491 7.6295228377,4.88389959186 C 8.14803878218,5.52649249882 8.40729675442,6.35544212908 8.40729675442,7.37026580423 C 8.40729675442,8.22383769602 8.24507948011,9.02816506475 7.92112769932,9.78421344608 C 7.59717591852,10.5402618274 7.12742172927,11.1500250325 6.51186507195,11.6144685671 C 5.89630841464,12.0789121017 5.17260693759,12.311133869 4.34124337882,12.311133869 C 3.33704113215,12.311133869 2.57037132233,11.9331096783 2.04123400897,11.177061297" fill="none" stroke="#000000" stroke-width="0.0123111332133"/>
	<path d="M 5.24840497226,10.2375529185 C 5.59408225864,9.95705220848 5.86106487364,9.58144194633 6.05031838268,9.11168775707 C 6.2390890941,8.64193356782 6.33371584862,8.12631434947 6.33371584862,7.56483013183 C 6.33371584862,6.94927347451 6.21494962275,6.46358717233 5.977417171,6.10680571944 C 5.73988471925,5.75050703436 5.37248186767,5.57235769182 4.87569142878,5.57235769182 C 4.37890098989,5.57235769182 3.95501179993,5.72105687112 3.6040237993,6.01797243208 C 3.25303579867,6.31488799304 2.98846714199,6.70643027872 2.81031779945,7.1921165809 C 2.63216845691,7.67828562111 2.543335177,8.20211227983 2.543335177,8.76359649748 C 2.543335177,9.37915315479 2.66210140288,9.84890734404 2.89963385463,10.1728591248 C 3.13716630638,10.4968109056 3.52581189573,10.6590281799 4.0660533756,10.6590281799 C 4.50877137482,10.6590281799 4.90272761881,10.5185364261 5.2484049052,10.2375529185" fill="none" stroke="#000000" stroke-width="0.0123111332133"/>
</svg>
