<svg baseProfile="full" height="600px" version="1.1" viewBox="-0.578924103627 -2.91330367586 9.62572796173 15.2938930031" width="378px" xmlns="http://www.w3.org/2000/svg" xmlns:ev="http://www.w3.org/2001/xml-events" xmlns:xlink="http://www.w3.org/1999/xlink">
    <defs></defs>
    <path d="M 1.85062784716,9.9848762576 C 1.80779792755,10.1972960953 1.77929026648,10.591790152 1.73246723801,10.9904649977 C 1.18767089039,10.9902604995 0.670011285838,10.9911048969 0.228525851067,10.9912802194 C 0.937860045728,6.65664353117 1.59853610783,2.61653198942 2.20990565806,-1.63350663439 C 2.93550554305,-1.63342556666 3.56291953116,-1.63341106711 4.19722453147,-1.63338612626 C 3.91234019786,-0.00392054627082 3.65100250035,1.50680209091 3.38933089763,3.06021321704 C 3.42173561096,3.06039579735 3.75112983226,2.81913780198 4.13285979271,2.64698252604 C 4.54264589786,2.44927388952 4.97631021976,2.29889993892 5.37625059127,2.29875310025 C 6.30710193157,2.29870909135 6.96945598364,2.59882011692 7.45791700124,3.25755873005 C 7.98498370885,3.94217541497 8.23935806393,4.86587544958 8.23935381749,6.11652394812 C 8.23945495627,6.80481859724 8.15026292346,7.49836977999 7.97877429567,8.15208962242 C 7.8035683795,8.82742926161 7.55484381459,9.39775761645 7.02379742406,10.0424768595 C 6.50536766789,10.6743730573 5.896263571,11.1007642714 5.06417802117,11.1007922857 C 3.94561937592,11.1007094697 3.05707982323,10.7859284297 2.58261081717,9.95717018999 C 2.48969824753,10.3412587062 2.4563738159,10.326765631 2.44607174351,10.3274586569" fill="none" stroke="#000000" stroke-width="0.0127342989201"></path>
    <path d="M 5.39986757489,6.80047442795 C 5.52889680417,6.54998537184 5.67835209818,6.12137427212 5.73992497401,5.83834975244 C 5.82243459599,5.52013524653 5.8223046818,5.08817552806 5.82215645301,4.75432308794 C 5.82203657672,4.19654091479 5.7225174506,3.77529605509 5.51207776859,3.51463925125 C 5.29265852764,3.23809131266 4.96262999371,3.10193393411 4.57758819058,3.10191839047 C 4.1625313063,3.10180669094 3.8367932339,3.18886048163 3.56456573799,3.37096612717 C 3.27454688147,3.55665165747 3.00947268799,3.82035244072 2.79188092545,4.15995923246 C 2.55695941046,4.51092780198 2.38608940437,4.91736260618 2.26593567923,5.33828214372 C 2.17448087528,5.94349703754 2.10757939264,6.4361113068 2.10713064403,6.84291798438 C 2.1072112865,7.45246029461 2.21851951845,7.92028961147 2.5017809666,8.25033718909 C 2.79261590012,8.58646044696 3.18251357444,8.75228591824 3.74627230533,8.75234865184 C 4.20673863061,8.75250757632 4.74078742631,8.63645695296 5.029188881,8.4681716576" fill="none" stroke="#000000" stroke-width="0.0127342989201"></path>
</svg>