<svg baseProfile="full" height="600px" version="1.1" viewBox="-0.258110542576 -2.55404690799 10.5581560631 16.356737708" width="388px" xmlns="http://www.w3.org/2000/svg" xmlns:ev="http://www.w3.org/2001/xml-events" xmlns:xlink="http://www.w3.org/1999/xlink">
    <defs></defs>
    <path d="M 1.74605084941,10.1837231181 C 1.70141752795,10.3307992927 1.67289173216,10.7275312654 1.6233416012,11.0496288649 C 1.58388699949,11.1999930702 1.07690765322,11.2018529743 0.62741048992,11.2019392082 C 1.17624076069,7.03029499736 1.79941805065,3.01064978328 2.41761978329,-1.18531073842 C 3.07298292578,-1.1852379283 3.62178083122,-1.18511870934 4.21455206335,-1.18492736488 C 3.97810885668,0.352773288192 3.74600668609,1.82968960136 3.51361649096,3.37058363289 C 3.84207658828,3.04780987829 3.80909508825,3.27744863361 4.22268665195,3.08643960387 C 4.57852477193,2.97423725009 4.87652594209,2.92702423588 5.25713637829,2.92676329306 C 5.63806867957,2.92373571308 6.30855769277,3.23630348356 6.66932976604,3.23584253296 C 7.49579930663,3.23583551163 8.20583075643,3.53653060311 8.66198149681,4.17925845498 C 9.15897736311,4.80718420857 9.41476631523,5.70775722379 9.41452431648,6.79036914224 C 9.41453379011,7.50882564897 9.26886885976,8.38714997882 9.0207005552,9.14295129889 C 8.76399884736,9.92629205102 8.39891491449,10.6391122233 7.92143453276,11.2354535353 C 7.4138574115,11.8225259077 6.85011191284,12.2017350983 6.16884792959,12.4339546304 C 4.89984358465,12.4338224238 4.09283990776,12.0370635694 3.54077054178,11.1872924274 C 3.53004203076,11.187853703 3.49543885225,11.1687151974 3.48466505753,11.1673473837 C 3.44736258211,11.4855275275 3.38867667215,11.7923215451 3.31119003044,12.1352048637" fill="none" stroke="#000000" stroke-width="0.0136192653689"></path>
    <path d="M 6.16669373937,8.79015078247 C 6.54158442445,8.24255653322 6.68107799418,8.03479049206 6.6411671003,7.75530729294 C 6.60996187642,7.49237648249 6.54752070993,7.19200194478 6.38376776665,7.03657077849 C 6.22105671257,6.86279585064 6.01303441614,6.7481474787 5.77331888467,6.70075210408 C 5.44993042737,6.70057422574 5.08480948001,6.70794571051 4.81964030653,6.79559261212 C 4.51546424419,6.87888495484 4.23811492115,7.02805638173 3.99664507598,7.2566228793 C 3.73797066301,7.48019914189 3.52972340375,7.76446391502 3.35891438812,8.0863737897 C 3.25814298332,8.6598624424 3.14614621341,9.26309649506 3.03767527431,9.87403921643 C 2.97159499466,10.2903866307 3.02147363663,10.7220752374 3.0210251404,10.9891204075 C 3.19301774036,11.3935139612 3.51863788497,11.6627068357 3.9760159446,11.6626992862 C 4.45506234896,11.6807795579 4.96507658493,11.5954740311 5.43831675183,11.3816078569 C 5.92933537495,11.1790632124 6.34433086645,10.9033779616 6.66313113701,10.5270651991" fill="none" stroke="#000000" stroke-width="0.0136192653689"></path>
</svg>