<svg baseProfile="full" height="600px" version="1.1" viewBox="-0.06529341293 -2.65213363591 10.0828136206 16.297638052" width="372px" xmlns="http://www.w3.org/2000/svg" xmlns:ev="http://www.w3.org/2001/xml-events" xmlns:xlink="http://www.w3.org/1999/xlink">
    <defs></defs>
    <path d="M 1.79529264472,10.3045983336 C 1.75996411494,10.5247613511 1.73320276751,10.913418921 1.72260744772,10.9037036498 C 1.68065732992,10.9412432922 1.25561321057,10.9420447546 0.780595245726,10.9421661014 C 1.38361037052,6.74360729407 1.97837794102,2.78938342284 2.5992161063,-1.2883429413 C 3.21976387776,-1.2883357765 3.78566211737,-1.28824195141 4.37748837746,-1.28827319828 C 4.11981538213,0.305573242037 3.86536675966,1.87343515667 3.61873488403,3.34280885967 C 3.93327810145,2.99307434472 4.21544252611,2.74150775584 4.24627403445,2.74132340089 C 4.33105642623,2.71877468624 4.43962502754,2.70442124982 4.87463560975,2.70488045029 C 5.2919324962,2.69327861759 5.72026258982,2.71935943644 6.10644483841,2.7185472235 C 7.13632011688,2.71846671762 7.85527068651,3.04458417358 8.37721121586,3.71934725703 C 8.92223632611,4.41532524289 9.17162843323,5.31912185611 9.17163154897,6.43700184287 C 9.1715975857,7.13157530488 9.08264906022,7.85320194425 8.88385074648,8.57232173146 C 8.681076341,9.31765731038 8.39141186389,9.9765433258 7.96273910316,10.5596229619 C 7.51438354763,11.1502945012 6.96844404253,11.5518648213 6.31726168903,11.8248848802 C 5.63220726761,12.1052658743 4.92098539385,12.1730137801 4.2067197493,12.1730672725 C 3.24458783182,12.1730300057 2.63032352242,11.9891286361 2.17986213478,11.1918057668 C 2.16967655501,11.1911976479 2.15773834909,11.1741385248 2.14607194501,11.1740475866 C 2.09478387299,11.5281810734 2.04554925176,11.8886254999 1.97237388107,12.2817137215" fill="none" stroke="#000000" stroke-width="0.0135700566628"></path>
    <path d="M 4.33035726686,10.3893573194 C 4.52417844375,10.2384546011 4.92195918997,9.9980718105 5.20500323017,9.56165989329 C 5.53525942405,9.11650632908 5.77884696265,8.56173097183 5.77897300568,7.9642091303 C 5.8018223289,7.36032353927 5.81536606323,6.97825380255 5.66999304663,6.66171233942 C 5.53004564714,6.34446703483 5.31747071814,6.05874683549 4.84395476055,6.05892174469 C 4.46294816207,6.05889145523 4.16140713167,6.14998110622 3.88069428872,6.28508391469 C 3.58086519312,6.42948245495 3.32513176274,6.64745872706 3.0955711491,6.93480681866 C 2.85060859095,7.23316382855 2.66699767482,7.58121516794 2.5229884721,7.99113019794 C 2.41531481218,8.63836165756 2.3330118395,9.18882086366 2.24663108211,9.74310281366 C 2.18829786774,10.193419213 2.2670498341,10.609907771 2.50846120712,10.9329294512 C 2.75496938821,11.2623147914 3.10083359476,11.4556372264 3.68492245671,11.4556672647 C 4.26260817047,11.4673303943 4.79663699862,11.3637539353 5.28380396959,11.1401666756" fill="none" stroke="#000000" stroke-width="0.0135700566628"></path>
</svg>