<svg baseProfile="full" height="600px" version="1.1" viewBox="-0.854014898784 -2.96163702535 11.0355810919 15.919917212" width="416px" xmlns="http://www.w3.org/2000/svg" xmlns:ev="http://www.w3.org/2001/xml-events" xmlns:xlink="http://www.w3.org/1999/xlink">
    <defs></defs>
    <path d="M 1.80650338627,10.1325955286 C 1.76698844604,10.3631466075 1.73850566059,10.7416235848 1.70348109215,11.1457860514 C 1.14513070792,11.1455906501 0.595042838749,11.1461861586 0.0711400052869,11.1463394411 C 0.777456953224,6.8443298586 1.42735733002,2.73995688039 2.03251762598,-1.62945411128 C 2.70520819634,-1.62934274709 3.32691605299,-1.62934198712 3.96000690668,-1.62934417573 C 3.69619299382,-0.0479943260309 3.45034468084,1.46349887999 3.201990529,3.01557808074 C 3.5062122187,2.686614652 3.82401706189,2.44153675886 3.85684036374,2.4414590073 C 3.94836669325,2.42245698881 4.06743821412,2.39870494206 4.50492888599,2.3989801218 C 4.93050131112,2.38417450034 5.42999869495,2.20724018358 6.13378989607,2.20735210661 C 7.13212090641,2.20732455063 7.86790794044,2.52694283533 8.42456579119,3.18519710112 C 8.9911300531,3.82773415852 9.25659030586,4.76139782476 9.2564111985,5.8862763505 C 9.25635700915,6.5856761198 9.16398193184,7.3043452363 8.970489862,8.01360736895 C 8.77328889314,8.7299789052 8.48280416671,9.39083205271 8.07038404289,9.96338378 C 7.63968055192,10.5371782641 7.12469516936,10.9465885918 6.50334809962,11.2376223664 C 5.85000305119,11.530989037 5.15573977176,11.6260604199 4.41297041121,11.6260972725 C 3.32414625827,11.6260754983 2.49716674033,11.2237058799 2.00309564415,10.3790973942 C 1.99416580665,10.3787144932 1.97432964537,10.3628371197 1.96398036889,10.3627782624" fill="none" stroke="#000000" stroke-width="0.0132555513838"></path>
    <path d="M 4.8248341833,9.10152016023 C 5.18721388325,8.80259800891 5.44321103439,8.42794070581 5.58659674272,8.09221137503 C 5.75122089728,7.73356694917 5.87072148219,7.27138854007 5.87058701595,6.78699461559 C 5.87054783116,6.12585137228 5.81883288186,5.62931827644 5.6422784553,5.27623347381 C 5.46184217195,4.92110303978 5.17211776237,4.71522332171 4.70079796772,4.71525443446 C 4.32532855134,4.71506813447 4.00563328724,4.81363906245 3.73520993452,4.96485835592 C 3.44546269636,5.12155072669 3.19770515721,5.35361282806 2.97864022117,5.65518202166 C 2.75046470027,5.96060224156 2.57957623165,6.31249444465 2.4549580888,6.71617774944 C 2.36405325692,7.30094085912 2.29034455131,7.81936978082 2.29024452683,8.23806526045 C 2.29018468679,8.7819225965 2.40229221702,9.24353175144 2.664074893,9.56243931035 C 2.93034839154,9.88418801407 3.30154630066,10.0531562893 3.8564230454,10.0532543061 C 4.29170310021,10.0533431809 4.81302588702,9.9465147595 5.25872772456,9.71868832811" fill="none" stroke="#000000" stroke-width="0.0132555513838"></path>
</svg>