<?xml version="1.0" ?>
<svg baseProfile="full" height="600px" version="1.1" viewBox="-0.397223112669 -0.783953484883 4.74254229945 5.55949832008" width="512px" xmlns="http://www.w3.org/2000/svg" xmlns:ev="http://www.w3.org/2001/xml-events" xmlns:xlink="http://www.w3.org/1999/xlink">
	<defs/>
	<path d="M -8.24584894872e-05,2.58570690796 C -0.000130108968733,2.15040259406 0.0777921234803,1.75991322443 0.171393871828,1.37063153431 C 0.291370921357,0.882457244848 0.499823518618,0.521365243648 0.720047317966,0.214465785478 C 0.9960453739,-0.161722939755 1.36695130966,-0.318636279847 1.93731846712,-0.318733183961 C 2.8253945937,-0.318745269139 3.28516157769,0.231425450484 3.58157538675,0.599946783225 C 3.93412693642,1.06069542591 3.94799105409,1.56186880295 3.94817855444,2.01301370684 C 3.94812075104,2.64752029006 3.70140681471,3.27171395842 3.34109649863,3.61265029136 C 2.89978656973,4.05747856323 2.35929314102,4.31036026899 1.67539910282,4.31032453069 C 0.992035665171,4.31027722363 0.54880563225,3.7989521623 0.279426225083,3.48501494531" fill="none" stroke="#000000" stroke-width="0.00462905771863"/>
	<path d="M 2.35298898717,2.52915595261 C 2.44627463719,2.37289997724 2.51411789557,2.06599300889 2.51409035841,1.79202514676 C 2.51407700708,1.46076094893 2.4829302982,1.19168269423 2.26949186181,1.1916285745 C 2.02470615064,1.1916643121 1.91564021563,1.28178825608 1.76061450993,1.40968703857 C 1.58062943374,1.57751153043 1.52183135902,1.84384052089 1.52184766231,2.10193995765 C 1.52179669018,2.43676782778 1.56603150617,2.67917435995 1.65173537086,2.78163248679 C 1.75392129819,2.91786995909 1.87050893705,2.98860921344 2.03731983702,2.98854572722 C 2.2035455982,2.98852758935 2.32153373014,2.90583188912 2.41659828823,2.7881782808" fill="none" stroke="#000000" stroke-width="0.00462905771863"/>
</svg>
