<?xml version="1.0" ?>
<svg baseProfile="full" height="600px" version="1.1" viewBox="-0.271894848344 -0.275088625167 3.90635392678 4.91351066221" width="478px" xmlns="http://www.w3.org/2000/svg" xmlns:ev="http://www.w3.org/2001/xml-events" xmlns:xlink="http://www.w3.org/1999/xlink">
	<defs/>
	<path d="M 0.35997266218,2.52175160121 C 0.530291265695,2.44667456668 0.6758222346,2.37816447389 0.865747786014,2.3781917433 C 1.08499231085,2.37823031157 1.27521052107,2.34210399226 1.46174383804,2.28869213969 C 1.6496578519,2.22060258001 1.80618529662,2.14306989372 1.95097605035,2.05032417238 C 2.09694849595,1.93542674989 2.20964383975,1.82150118113 2.30453310057,1.68896174491 C 2.40031571582,1.52739240289 2.46186939895,1.37319816709 2.46189040803,1.20108287096 C 2.46190245163,1.07473224461 2.41960626554,0.937236786487 2.34089925599,0.818051100376 C 2.26044545782,0.680729032161 2.15509014291,0.557236284616 2.02519050699,0.464520119729 C 1.89300342363,0.357690692546 1.74910808068,0.303782992663 1.58392459613,0.303776467882 C 1.41936964256,0.303773382074 1.28361411852,0.350521658874 1.16422153723,0.421839115537 C 1.04341112536,0.505049479521 0.952249762535,0.615166602052 0.879736092806,0.730429065741 C 0.80759358865,0.863496211684 0.760460623473,1.00661279014 0.731912835434,1.1412534391 C 0.70389804703,1.29630079619 0.696334431812,1.44189655534 0.747785261765,1.55807716898 C 0.797688900426,1.69035853199 0.857763006285,1.80272690705 0.964072025314,1.88464593641 C 1.06821308185,1.97739135227 1.17105424304,2.05182122937 1.30536548693,2.05179602838 C 1.37365024437,2.05181297579 1.44089767237,2.03215908551 1.53283599664,2.01832721674 C 1.59428909694,2.01834253599 1.66406158631,2.01423818948 1.75868839298,2.02360192458 C 1.85255720739,2.03499989821 1.93844660644,2.03995115035 2.01934061472,2.07867533438 C 2.09998698805,2.12368144565 2.16932717238,2.15715575688 2.22845873137,2.21505604782 C 2.2876528119,2.28210704871 2.20486079057,2.36429627337 2.07310365041,2.44348435946 C 1.94423410197,2.52965359487 1.73855988581,2.57543185451 1.55699594219,2.57535770004 C 1.35224325855,2.5753583798 1.14898495276,2.54391657205 0.979009508088,2.4901350403 C 0.809101669982,2.42976038174 0.652815743282,2.34641489403 0.53695946832,2.24939223395 C 0.421883090332,2.13971708731 0.329170889154,2.01282985525 0.276203921929,1.87968704121 C 0.223893693581,1.72741915302 0.194383484244,1.57534140365 0.194412690716,1.43980549292 C 0.194394519633,1.26916064338 0.237352052784,1.11073258536 0.310803869819,0.967424735591 C 0.384383553719,0.800529971883 0.501885922706,0.660458803341 0.634960623538,0.54804246144 C 0.767911912953,0.417372629211 0.944825144565,0.318424321875 1.13094930545,0.251179061994 C 1.31714241401,0.173383243546 1.54775926665,0.136108283118 1.78503298954,0.136075256226 C 2.04518723682,0.136084979269 2.29025630847,0.182798316571 2.48419124082,0.276632835957 C 2.67857922808,0.385188830885 2.84912234739,0.518667219075 2.97165534095,0.679990930351 C 3.09350194976,0.867174384984 3.18453390346,1.06561551789 3.2333500442,1.27803961733 C 3.28179449782,1.52370072702 3.30720690832,1.75448593298 3.3072249234,1.97472946146 C 3.30723481552,2.2562198768 3.26131410824,2.50109281937 3.16722860114,2.73693975607 C 3.07398641782,3.00905400315 2.93292432206,3.23536790708 2.75605792479,3.43546068469 C 2.57982011812,3.66680878201 2.34906970637,3.8458185623 2.08481009977,3.98792128066 C 1.82052548902,4.1519343535 1.49255659358,4.22731686929 1.17269267814,4.22725812134 C 0.980067185329,4.22727226432 0.787051639722,4.19641674276 0.647558666037,4.14695214819 C 0.50711759107,4.08827828209 0.374514690803,4.01440064947 0.286044820415,3.92578003149 C 0.197334013151,3.82304104011 0.119226685928,3.71551928263 0.0728728652166,3.59711929004 C 0.0264889851378,3.45959730785 0.0731570266353,3.35754881393 0.200735210644,3.25419912826 C 0.327434628473,3.13427090238 0.41072702335,3.18049015071 0.592088013159,3.18049714256 C 0.689902394281,3.18050787694 0.738392605649,3.2266546572 0.84856465386,3.28308704964 C 0.954393408464,3.34819904439 1.02604632752,3.42329621039 1.13592031525,3.49271350078 C 1.24333627449,3.57215552501 1.32456201242,3.64347022496 1.43263135778,3.70076474644 C 1.53919095473,3.766625152 1.62355003433,3.81514292679 1.72977887021,3.76973373912 C 1.83452084588,3.71646833516 1.91535213517,3.66335228182 2.02103653477,3.56218887962 C 2.12475089656,3.44477626778 2.2006897472,3.33658152915 2.28380796985,3.19395819403 C 2.36543581562,3.02923435069 2.42116993593,2.88416259087 2.47370691152,2.7165804366 C 2.52526020558,2.52446866132 2.5538722288,2.36430040098 2.57298971081,2.19776855506 C 2.59222102837,2.00732641019 2.59275023194,1.85685618318 2.5813875368,1.71299530662 C 2.57032763047,1.54784391917 2.54534225186,1.42398303844 2.4860592561,1.29538165129 C 2.42775063237,1.14795652128 2.36205911657,1.0447098846 2.2674356254,0.952913151156 C 2.17349665632,0.847619378042 2.07692819854,0.781172924709 1.94019129893,0.781161654602 C 1.79716692885,0.781160565444 1.70039473494,0.814541278757 1.59199295958,0.883223152138 C 1.48499508222,0.963123357274 1.41536508521,1.0551996663 1.33789792677,1.16858766077 C 1.26204196384,1.29979961214 1.21701299047,1.42646943627 1.17168235054,1.56432630716 C 1.12788517421,1.72249030171 1.11136394014,1.86032501457 1.10123882277,1.99781610665" fill="none" stroke="#000000" stroke-width="0.00409118289942"/>
</svg>
