<?xml version="1.0" ?>
<svg baseProfile="full" height="600px" version="1.1" viewBox="-0.128382821429 -0.0761804588324 3.22618677894 5.35427698441" width="362px" xmlns="http://www.w3.org/2000/svg" xmlns:ev="http://www.w3.org/2001/xml-events" xmlns:xlink="http://www.w3.org/1999/xlink">
	<defs/>
	<path d="M 0.543199119602,0.83041773172 C 0.543238143553,0.81945523614 0.543193529644,0.737766325417 0.543190177846,0.702573616001 C 0.773923602271,0.508413556907 1.09049364583,0.37182098994 1.46810477631,0.3718668774 C 1.90255319731,0.371904460468 2.21560275214,0.481455733754 2.42939462917,0.670663228013 C 2.63635551589,0.863773857929 2.737492774,1.16354254422 2.73755827333,1.48063821135 C 2.73758429927,1.87627360759 2.52059789641,2.25537285743 2.12224962456,2.44346425471 C 2.63238515598,2.61288726864 2.82705175025,2.81063946126 2.82709748329,2.93835932551 C 2.82705840535,3.2536041194 2.82179783444,3.44981179176 2.82187550564,3.66802967129 C 2.82190009443,4.11703303991 2.63847617297,4.40133497653 2.36356536536,4.55490501759 C 2.0960096219,4.7453783804 1.70042024045,4.83006068853 1.27593649416,4.83004918287 C 0.86822078614,4.83009509685 0.475749323651,4.74247106107 0.142323652789,4.54176977964 C 0.183025150135,4.34161611589 0.238832636312,4.18862634095 0.288060354576,4.03642853292 C 0.611451732502,4.20436299535 0.940452503547,4.28504974338 1.23644574223,4.28503452565 C 1.59394987164,4.28507962079 1.80787113546,4.22356329487 1.95591451465,4.10769940542 C 2.09948440133,3.96372320877 2.16460871188,3.77900175379 2.16464565297,3.55850930141 C 2.16467256027,3.23431242632 2.09594421016,3.06552962588 1.95699506926,2.96672226118 C 1.82179006862,2.84630334006 1.60786759781,2.79714779185 1.31613629984,2.79712757127 C 1.1483171128,2.79717638977 0.991834863298,2.79718338051 0.836651920549,2.7971528949 C 0.83665955923,2.59694573598 0.836602066999,2.39934604184 0.836637626827,2.2034978898 C 0.988528262317,2.20350921866 1.11554765278,2.2035226442 1.24978985959,2.20349563291 C 1.44237356955,2.20353885038 1.68245134825,2.00525876923 1.82762699896,1.86983738883 C 1.96804736131,1.71380479677 2.05715898001,1.44332782967 2.05722245062,1.28479021831 C 2.05725916566,1.07751491709 1.83962106051,0.922238871887 1.53978221954,0.922253195437 C 1.28617804588,0.922289779363 0.987395488635,1.02587823379 0.722763621226,1.16901495862 C 0.652236216679,1.02992923367 0.568807334617,0.901593340514 0.49290383698,0.765677181957" fill="none" stroke="#000000" stroke-width="0.00445818233507"/>
</svg>
