<?xml version="1.0" ?>
<svg baseProfile="full" height="600px" version="1.1" viewBox="-0.916554255671 -0.671039670933 3.77024973364 5.05688873011" width="448px" xmlns="http://www.w3.org/2000/svg" xmlns:ev="http://www.w3.org/2001/xml-events" xmlns:xlink="http://www.w3.org/1999/xlink">
	<defs/>
	<path d="M 2.33193991231,3.57617883622 C 2.50506051527,3.57625009279 2.50501089433,3.77431570153 2.50502970458,3.96268710654 C 1.38363125564,3.96268861787 0.465342071066,3.9626797218 -0.600612375727,3.96263614177 C -0.600562766844,3.82797427355 -0.574389208758,3.70314729094 -0.574369094065,3.56934313356 C 0.377212026426,2.91945747911 1.08931628735,2.29575364171 1.81771109373,1.66884408771 C 2.07616884381,1.45662985622 2.21886497111,1.15259928881 2.2188067403,0.790928854337 C 2.21888486348,0.605006633987 2.14948666148,0.427350519886 2.01390342467,0.310048236241 C 1.88821536355,0.216416193833 1.71591521852,0.159696518173 1.43030209892,0.159691642037 C 1.07434918039,0.15973878858 0.866144553351,0.209988100653 0.485959068465,0.499631298904 C 0.405251585471,0.554249974166 0.3161499282,0.48832603005 0.208866991627,0.422382490908 C 0.326296143758,0.285129012738 0.37008820154,0.143998490845 0.341852384212,-0.0490952560557 C 0.653566944005,-0.170832125272 0.878721597197,-0.247887333657 1.26421642542,-0.24787786982 C 1.65576407552,-0.247903339728 1.91264498472,-0.146488793358 2.18403217435,0.071190900937 C 2.43896767736,0.250047020451 2.53779918194,0.513600073591 2.53775358178,0.894020072952 C 2.53779176437,1.13858655824 2.47051311843,1.40791914596 2.3092156034,1.67920491828 C 2.15698504262,1.89330058529 1.97800808959,2.13865313663 1.6042132359,2.46546409263 C 1.10605704598,2.84957725538 0.695304213095,3.2744604422 0.166395006705,3.75439948572 C 0.800421891738,3.75443618267 1.44835054689,3.75448179771 2.06125670486,3.75452661635 C 2.14708228223,3.59438967826 2.23578726314,3.54956222447 2.32083202713,3.44312317045" fill="none" stroke="#000000" stroke-width="0.00421056513748"/>
</svg>
