<?xml version="1.0" ?>
<svg baseProfile="full" height="600px" version="1.1" viewBox="-0.331824461236 -0.258283044251 3.94010747454 5.05916195173" width="468px" xmlns="http://www.w3.org/2000/svg" xmlns:ev="http://www.w3.org/2001/xml-events" xmlns:xlink="http://www.w3.org/1999/xlink">
	<defs/>
	<path d="M 2.42762783389,3.2087642537 C 2.67416860383,3.20883864478 2.92062594216,3.20891845332 3.14273497682,3.20888376904 C 3.14271979539,3.34475865138 3.14275891685,3.52570377958 3.14277647364,3.71681412232 C 2.91321888494,3.71684408464 2.68603511083,3.71689163675 2.44463252949,3.716854496 C 2.44466553244,3.91300543963 2.44468162711,4.14787703573 2.44466994652,4.37751915872 C 2.27975998768,4.37752742223 2.11907696673,4.37753576682 1.99427635172,4.37750588442 C 1.99436193693,4.12820863809 1.99434433326,3.92542764629 1.99431651262,3.68828572418 C 1.28496890691,3.68828228757 0.588319593937,3.68829573181 -0.0016481337243,3.68824600012 C -0.001596260101,3.46235074432 -0.00170873048592,3.23886829944 -0.00172698089409,3.03865732581 C 0.65924239567,2.12304796607 1.30320614985,1.16365851791 1.89039254597,0.165071565221 C 2.1981847029,0.165052662138 2.46444520763,0.165143975697 2.76260933688,0.165128508062 C 2.13324234298,1.06543586537 1.55041739753,2.06891975686 0.980115268738,3.08714423463 C 1.48361847213,3.08712491554 1.94055712631,3.08720603358 2.37273249438,3.08721070768 C 2.372768428,2.87933225216 2.37278546923,2.58962962807 2.37278977835,2.33530289711 C 2.46668456549,2.33533809651 2.50990190411,2.33532549591 2.60144610757,2.33531923858 C 2.60148010985,2.58452064065 2.6014388993,2.82807339993 2.60148579312,3.08090682593 C 2.88049528433,3.08089600722 3.06160517467,3.08086734728 3.27813049091,3.08085910274 C 3.27817847579,3.26771021677 3.27814740657,3.44015818132 3.27818553297,3.6049904157" fill="none" stroke="#000000" stroke-width="0.00421245791152"/>
</svg>
