<?xml version="1.0" ?>
<svg baseProfile="full" height="600px" version="1.1" viewBox="-0.809962352751 -0.51830120128 3.67167909844 5.28210821005" width="418px" xmlns="http://www.w3.org/2000/svg" xmlns:ev="http://www.w3.org/2001/xml-events" xmlns:xlink="http://www.w3.org/1999/xlink">
	<defs/>
	<path d="M 1.15840984188,1.60504862704 C 1.36966694198,1.57136230209 1.59531351231,1.60920406171 1.79857104324,1.70749834963 C 2.00688628159,1.81246860363 2.19988811813,1.96196776667 2.33613999985,2.13249491193 C 2.47639247082,2.31703773179 2.55389031075,2.53610946276 2.5539109373,2.7701076273 C 2.55394794054,3.09307235517 2.46801932163,3.36949729958 2.32357990749,3.59142257311 C 2.1736861021,3.8378960643 1.95136502392,4.0223277811 1.70913498111,4.13555617669 C 1.45970997221,4.25997644701 1.17441058166,4.32181439587 0.892356425595,4.32179878341 C 0.374755770039,4.32180934931 0.0402052403206,4.11802764023 -0.176507726241,3.80338568772 C -0.398542344499,3.46983279074 -0.502120554376,2.98511920656 -0.502156556313,2.47053895677 C -0.502122919012,1.80164120878 -0.344688500214,1.24832002605 0.0669153677936,0.825594974408 C 0.492350463819,0.36952529634 0.989964042854,0.0808020361756 1.67481044407,-0.0762929788734 C 1.70229890856,-0.00244403844135 1.7710502288,0.0941408404206 1.86333806726,0.208246050129 C 1.38814769599,0.323020783911 1.07792673918,0.517638040433 0.806432052579,0.728697059402 C 0.5179331741,0.968726752052 0.366509034362,1.2681047895 0.227159275737,1.61343976642 C 0.392912416783,1.50038047666 0.604895948496,1.42075893069 0.835470601049,1.42081446161 C 1.0962018511,1.4208085551 1.3132464579,1.49146222464 1.5038109115,1.64121943108" fill="none" stroke="#000000" stroke-width="0.00439809176523"/>
	<path d="M 1.02497928101,3.44753526382 C 1.12531771767,3.31515100829 1.20457868535,3.17550760738 1.20458593655,3.00566491715 C 1.20457801213,2.80039246611 1.16751398136,2.66166456275 1.08140926798,2.56729819856 C 0.992321200568,2.46340376369 0.871282063324,2.41713793434 0.702535666424,2.41707978708 C 0.515017472107,2.4170876508 0.390918068487,2.45545089891 0.207173906166,2.58293054154 C 0.196101271446,2.79649036278 0.194335094086,2.99091035773 0.194297048206,3.14659511199 C 0.194330962718,3.41589748015 0.230183741421,3.61016897013 0.311060874134,3.73424061289 C 0.395684665412,3.8717026179 0.502969032496,3.93725779553 0.671677133411,3.93723772662 C 0.842251023621,3.93721646437 0.966697080404,3.86569747695 1.06722500768,3.72922805318" fill="none" stroke="#000000" stroke-width="0.00439809176523"/>
</svg>
