<?xml version="1.0" ?>
<svg baseProfile="full" height="600px" version="1.1" viewBox="0.211938960684 -0.232591763316 3.60875473246 4.74906353209" width="456px" xmlns="http://www.w3.org/2000/svg" xmlns:ev="http://www.w3.org/2001/xml-events" xmlns:xlink="http://www.w3.org/1999/xlink">
	<defs/>
	<path d="M 0.520924990589,0.997650030456 C 0.520914974994,0.948105412923 0.514335081818,0.859753447972 0.514316133522,0.848409653097 C 0.51428675125,0.703796327502 0.660995493034,0.485711098105 0.906878510812,0.370459005624 C 1.15547638605,0.255574934572 1.50170662473,0.164778829008 1.96916752527,0.164811147037 C 2.46146824429,0.164821926084 2.84009968708,0.270269441929 3.11407714556,0.459834772673 C 3.38424062202,0.64551121327 3.51829313705,0.956162336794 3.51831652472,1.31320375535 C 3.51831068551,1.66058522793 3.42289835667,1.91584077808 3.02565500593,2.08883791002 C 3.28671074366,2.19927528831 3.46238352811,2.438964102 3.46238361232,2.53356745425 C 3.46228118045,2.74009362939 3.46215820029,2.95872373464 3.46216121983,3.16178290131 C 3.46214304201,3.4837095249 3.34438998334,3.75734923365 3.104171791,3.89051106158 C 2.86531805329,4.03228911343 2.51705958776,4.11905404511 2.09911044769,4.1190688664 C 1.62945353321,4.11907796327 1.24107324414,4.02341577921 0.96142339043,3.83014251803 C 0.683994524997,3.62325412546 0.539920904558,3.29229388152 0.539946433731,2.88225633417 C 0.539975488963,2.55693266306 0.73479222733,2.21727499877 1.11086412746,2.03480618213 C 0.787514323774,1.88044533644 0.642705554547,1.68930841003 0.642729453025,1.58806655322 C 0.642741646406,1.40515001629 0.642731159079,1.22909218584 0.642774205023,1.08996612344 C 0.642759321974,0.854817231637 0.734797558533,0.616382171851 0.940914801107,0.487812360268 C 1.14484181141,0.351149221402 1.41118811701,0.266411957782 1.72285055255,0.266426332929" fill="none" stroke="#000000" stroke-width="0.00395425772863"/>
	<path d="M 2.00742199065,2.87448673316 C 2.01768269928,2.87456760761 1.93640070202,2.94190675971 1.93643672443,2.93685336943 C 1.93641045011,2.95202757671 1.90856677546,2.96561024684 1.91449188647,2.98257292035 C 1.9144807813,3.04501506659 1.88559168031,3.07576738085 1.89732336358,3.11645761291 C 1.90751523537,3.16078790436 1.93613473524,3.20997157107 2.00986201515,3.20998656756 C 2.12525991549,3.21000005545 2.18641723891,3.19846433641 2.23393921753,3.1689307844 C 2.28006578435,3.13605508634 2.29753430386,3.09288669059 2.29756785151,3.02252969572 C 2.29758069725,2.9340568749 2.2736974793,2.86263335922 2.27374180835,2.79245357641 C 2.27375555102,2.705357757 2.25003420625,2.64375148767 2.21975805301,2.61237501034 C 2.1892878997,2.57870444709 2.13840662565,2.56359475532 2.05964588996,2.5635972889" fill="none" stroke="#000000" stroke-width="0.00395425772863"/>
	<path d="M 2.10212709922,1.27549676095 C 2.0281044336,1.27551423462 2.01114097218,1.34667994531 2.01110748788,1.40568248259 C 2.01110059634,1.45707187506 2.04665602982,1.5445202932 2.04672582898,1.55176004146 C 2.04674700538,1.57686158207 2.07912345493,1.63018806588 2.10026437865,1.6478785326 C 2.12271341944,1.66796912935 2.17029785255,1.68764254202 2.21216358507,1.6876375319 C 2.26035901794,1.68764305549 2.32241614053,1.66337032678 2.35273851531,1.63329391057 C 2.38324896695,1.60195318485 2.40628923738,1.54495250682 2.40632150622,1.47730946044 C 2.40634158442,1.38150034348 2.40625382906,1.29833468298 2.40629964714,1.23805853973 C 2.40631680827,1.1662397931 2.38469080145,1.13216104607 2.31167793537,1.13216562304 C 2.20849000926,1.13217591365 2.17123058329,1.15648077486 2.07990962903,1.15649429496" fill="none" stroke="#000000" stroke-width="0.00395425772863"/>
</svg>
