<?xml version="1.0" ?>
<svg baseProfile="full" height="600px" version="1.1" viewBox="-0.480885376101 -0.699327956438 4.27197045281 5.65615687346" width="454px" xmlns="http://www.w3.org/2000/svg" xmlns:ev="http://www.w3.org/2001/xml-events" xmlns:xlink="http://www.w3.org/1999/xlink">
	<defs/>
	<path d="M 0.718512231559,0.909253778756 C 0.718484784025,1.0645444718 0.822589600939,1.10300081492 0.96299607541,1.12262043253 C 1.08952225234,1.15058727086 1.27769219365,1.14772596083 1.48379535462,1.14773622373 C 1.8132443228,1.14774065079 2.12175403025,1.19761709484 2.39165736224,1.3098385817 C 2.63203410293,1.41698392095 2.8385900506,1.56251985194 2.99535229291,1.74750036361 C 3.13589767601,1.92048457625 3.23650359597,2.11843465628 3.28811943765,2.33583665254 C 3.33302195977,2.5442328638 3.35839970085,2.75156137707 3.35835840253,2.94384356203 C 3.358409007,3.27360774936 3.27472439866,3.54523529472 3.12184077959,3.77754745247 C 2.98190166514,4.00895262124 2.76223834317,4.18163180711 2.48692827385,4.30231085779 C 2.23528962295,4.42399022343 1.90690409105,4.48358511912 1.54903410833,4.48352014974 C 1.18345757287,4.48354657145 0.845371027401,4.41855371894 0.547146339824,4.27380720677 C 0.274627645424,4.12583669426 0.0429626898076,3.93486835958 -0.122925530264,3.6883732319 C 0.00725150566359,3.56923093797 0.107930575421,3.40037512185 0.267953758052,3.23893926443 C 0.45807274144,3.5218352467 0.781002988031,3.7297109157 0.99700203996,3.84709526004 C 1.19927899997,3.96155759098 1.48697318595,4.01855818333 1.74387418192,4.01856424837 C 2.12278371017,4.01858757629 2.40347873132,3.92774892046 2.5694003151,3.74833767309 C 2.72303873759,3.56405872299 2.80937212419,3.3158065398 2.80932333517,3.02185017063 C 2.80937210417,2.66167512729 2.6940566743,2.39831468656 2.49060851282,2.22369609966 C 2.30139906651,2.04118016555 1.97514264232,1.95214739635 1.61119745618,1.95211280049 C 1.29071493393,1.95216081222 0.90541829115,2.07346529444 0.583714648543,2.26860134979 C 0.481654412506,2.21476446023 0.507620565055,2.21491264394 0.54231355658,2.21494772155 C 0.598734866289,1.35770084579 0.693666044084,0.563127777172 0.777768048851,-0.226019242214 C 1.6920454236,-0.225944506393 2.54166612348,-0.225900175442 3.43312523088,-0.225932449946 C 3.43311436975,-0.0442334272952 3.43304491486,0.13592676734 3.43305834078,0.338713406673 C 2.65414800191,0.338656039251 1.81145056033,0.338716623025 1.01524593377,0.338703060869 C 0.973579746422,0.693090523008 0.932903372433,1.05576288176 0.889645927336,1.41899576259" fill="none" stroke="#000000" stroke-width="0.00470953944501"/>
</svg>
