<?xml version="1.0" ?>
<svg baseProfile="full" height="600px" version="1.1" viewBox="0.219054025295 -0.534547564433 3.93471088515 5.39375744465" width="438px" xmlns="http://www.w3.org/2000/svg" xmlns:ev="http://www.w3.org/2001/xml-events" xmlns:xlink="http://www.w3.org/1999/xlink">
	<defs/>
	<path d="M 1.18150657699,3.88679118808 C 1.05857800231,3.88677601374 1.04799029421,3.88678685254 0.929272877092,3.88676292224 C 1.02626057904,3.88681512353 1.14536622357,3.88691369248 1.22994563919,3.88692628278 C 1.61003188234,2.86310039891 1.92257932764,1.72800146474 2.3213435207,0.525687803163 C 1.83316982728,0.730596561565 1.35782704693,0.730613265347 0.855683425481,0.730587653661 C 0.865258787798,0.620257444525 0.873425838577,0.486793182636 0.894210730719,0.341556630874 C 1.51962605588,0.249927729214 2.14011493795,0.0952960251216 2.81044456832,-0.0831961633321 C 3.03623666339,-0.0832012426604 3.21230754726,-0.0831486447009 3.4100151705,-0.083100618604 C 3.14714241497,1.16765624118 2.88347042077,2.51677888465 2.63600050383,3.92467123103 C 3.06475903563,3.92465117761 3.43125688009,3.92473281885 3.82400106363,3.92474152282 C 3.79315070719,4.06222565607 3.75712397605,4.24717694655 3.72440373808,4.40785882011 C 2.63649451643,4.40784540561 1.59780144602,4.40787748957 0.548817872109,4.4078283118 C 0.556560732929,4.30609160233 0.575969711451,4.19089196939 0.585213802329,4.08083635885" fill="none" stroke="#000000" stroke-width="0.00449105532444"/>
</svg>
