<?xml version="1.0" ?>
<svg baseProfile="full" height="600px" version="1.1" viewBox="-0.298172498275 -0.459012927454 3.55523378246 5.48531756357" width="389px" xmlns="http://www.w3.org/2000/svg" xmlns:ev="http://www.w3.org/2001/xml-events" xmlns:xlink="http://www.w3.org/1999/xlink">
	<defs/>
	<path d="M 0.546283960342,4.25170087814 C 0.801156759262,4.14441429824 1.03543196619,4.00435066968 1.2487513572,3.83133090287 C 1.46224986017,3.65831113607 1.64637440443,3.46003694087 1.80112500489,3.23650830239 C 1.95587560534,3.01297966391 2.07677450776,2.76867432147 2.16382171959,2.50359228998 C 2.25068981946,2.23868937045 2.29421342537,1.95945767313 2.29421342537,1.66607633978 C 2.29421342537,1.58511885256 2.29027301678,1.50165383518 2.28221309045,1.4156812802 C 2.27397405403,1.32970872521 2.26089906087,1.24481083453 2.24262989266,1.16080848128 C 2.22453983454,1.07680612803 2.20018094359,0.9958486408 2.16991144,0.917936012149 C 2.13946282631,0.840202495456 2.102028945,0.767842262983 2.05760979047,0.701034426689 C 1.98471222958,0.591777645051 1.89730680129,0.504730433226 1.79503528168,0.44007191062 C 1.69294287404,0.375234276056 1.56093917927,0.343890115619 1.39902420482,0.346039429307 C 1.26146812877,0.349979837891 1.14468874177,0.373801400419 1.04850694677,0.417325006332 C 0.952325151768,0.460848612245 0.874054306652,0.524074261542 0.813336187508,0.607001957949 C 0.752618068364,0.689929654356 0.708557134029,0.791484733578 0.681332492735,0.91202541953 C 0.653928741347,1.03238699352 0.6403164207,1.1694057486 0.6403164207,1.32308169222 C 0.6403164207,1.40403917944 0.646406143438,1.49108639127 0.658585588913,1.58422332024 C 0.670765034389,1.67718114471 0.687959543895,1.76727322256 0.710169121157,1.85414132243 C 0.73237869842,1.94118853426 0.758707792964,2.02107136464 0.788977296557,2.09396892553 C 0.819425910246,2.16686648643 0.85166561557,2.22239042586 0.88623374654,2.26089896774 C 0.93674262194,2.30746743223 1.00355045823,2.34131912654 1.08647815464,2.36263315706 C 1.16940585105,2.38376807561 1.25537840603,2.39433553489 1.34439581959,2.39433553489 C 1.40708414046,2.39433553489 1.46923513291,2.38842492178 1.53102790518,2.37624547631 C 1.59282067744,2.36406603083 1.64995660586,2.34884172399 1.70243568672,2.33075166587 C 1.75509387581,2.31248249765 1.80058768345,2.29367600288 1.83909622533,2.27451128606 C 1.87742565898,2.25534656923 1.90590406721,2.23868938629 1.92399412533,2.22453973629 C 1.92399412533,2.33684138395 1.92399412533,2.44896392711 1.92399412533,2.56126557477 C 1.86327600619,2.58759466931 1.79754282674,2.61589396931 1.72679457953,2.646342583 C 1.65604633233,2.67661208659 1.58261144301,2.70544871502 1.50666902354,2.7328524664 C 1.43090570858,2.7600771077 1.35442596069,2.78282401152 1.27758798888,2.80109317973 C 1.20075001707,2.81936234795 1.12695691129,2.82831782196 1.05602955213,2.82831782196 C 0.894293689635,2.82831782196 0.748140343931,2.79357057903 0.617569529917,2.72371787671 C 0.486998715904,2.65386517439 0.376309053507,2.55929536466 0.285321438219,2.44000844751 C 0.194154703524,2.3205424184 0.12394378474,2.18101612572 0.0743304579519,2.021071353 C 0.0247171311639,1.86130569223 2.18860805035e-08,1.6913307989 2.18860805035e-08,1.51132575516 C 2.18860805035e-08,1.32111147884 0.0349263730459,1.13555405382 0.104779075366,0.954474368133 C 0.174452665728,0.773394682445 0.273141998332,0.612017028965 0.400667953771,0.470341422595 C 0.528014797252,0.328844928183 0.681332531851,0.214931295253 0.860262903851,0.128958740272 C 1.03937238781,0.0429861852899 1.23818391887,-9.22009348869e-08 1.45669748215,-9.22009348869e-08 C 1.62864259211,-9.22009348869e-08 1.7853633943,0.0216721566394 1.92703900067,0.0651957625523 C 2.06871460704,0.108719368465 2.19516590564,0.16800460685 2.30639289645,0.242693264969 C 2.41761988727,0.317561027594 2.5143390107,0.405682896264 2.59619205026,0.506879759021 C 2.67822419433,0.607897509821 2.74592758296,0.71572141815 2.79948132066,0.829993274994 C 2.85321416659,0.944265131839 2.89315558178,1.06319382507 2.91948467633,1.18660025764 C 2.94581377087,1.31000669021 2.95888876403,1.43036826421 2.95888876403,1.54768497963 C 2.95888876403,1.88566459436 2.90927543724,2.20985276718 2.81022788817,2.52042861003 C 2.71100123459,2.83082534093 2.56431056792,3.11722139735 2.37015588814,3.37925858516 C 2.17600120837,3.64111666102 1.93509894842,3.87377987523 1.64780730242,4.07724824268 C 1.36051565642,4.28053751308 1.02880487079,4.4438853683 0.652495833579,4.56729180086 C 0.617032153998,4.46215453465 0.581747586373,4.35683815647 0.546283906791,4.25170089025" fill="none" stroke="#000000" stroke-width="0.00456729189306"/>
</svg>
