<?xml version="1.0" ?>
<svg baseProfile="full" height="600px" version="1.1" viewBox="-0.296883113489 -0.459013049111 3.53975875637 5.48531762621" width="388px" xmlns="http://www.w3.org/2000/svg" xmlns:ev="http://www.w3.org/2001/xml-events" xmlns:xlink="http://www.w3.org/1999/xlink">
	<defs/>
	<path d="M 2.94599270821,4.5672917366 C 1.96393537521,4.5672917366 0.982057154179,4.5672917366 -1.78813934326e-07,4.5672917366 C -1.78813934326e-07,4.34644974768 -1.78813934326e-07,4.12578687072 -1.78813934326e-07,3.9049448818 C 0.538223803043,3.52326257527 1.00265470147,3.11507202685 1.39365071058,2.68037329614 C 1.78464671969,2.24567456543 1.98005516827,1.85360391438 1.98005516827,1.50398220122 C 1.98005516827,1.27400562167 1.91342643648,1.09471702576 1.77998987585,0.965937301517 C 1.64655331522,0.837157577276 1.45347329229,0.772678166628 1.20039158314,0.772678166628 C 0.818709276617,0.772678166628 0.452967695892,0.915249317884 0.103525094688,1.2003916204 C 0.103525094688,0.931369155645 0.103525094688,0.662346690893 0.103525094688,0.393324226141 C 0.25523083657,0.278335936368 0.443833120167,0.18394523859 0.669152848423,0.110331237316 C 0.894651688635,0.036717236042 1.11997141689,-2.08616256714e-07 1.34529114515,-2.08616256714e-07 C 1.78697512299,-2.08616256714e-07 2.14680609852,0.120719581842 2.42514223605,0.36215916276 C 2.70329926163,0.603598743677 2.8424673304,0.942832112312 2.8424673304,1.37985923886 C 2.8424673304,2.19856867194 2.2766604647,3.0240842998 1.14522590488,3.8565851748 C 1.74542178959,3.8565851748 2.34579678625,3.8565851748 2.94599267095,3.8565851748 C 2.94599267095,4.09354701638 2.94599267095,4.33032976091 2.94599267095,4.56729160249" fill="none" stroke="#000000" stroke-width="0.00456729194522"/>
</svg>
