<?xml version="1.0" ?>
<svg baseProfile="full" height="600px" version="1.1" viewBox="-0.311623730291 -0.459012827802 3.71664727584 5.48531756357" width="407px" xmlns="http://www.w3.org/2000/svg" xmlns:ev="http://www.w3.org/2001/xml-events" xmlns:xlink="http://www.w3.org/1999/xlink">
	<defs/>
	<path d="M 0.48449113965,0.328665912151 C 0.746528327465,0.109615013003 1.10062777996,7.45058059692e-09 1.54678949714,7.45058059692e-09 C 1.99277210236,7.45058059692e-09 2.34687155485,0.109615013003 2.60890874267,0.328665912151 C 2.87094593048,0.547716811299 3.00187496841,0.854889586568 3.00187496841,1.25018422306 C 3.00187496841,1.46708580852 2.94724657759,1.65962851048 2.83763157204,1.82799142599 C 2.72801656649,1.99617524445 2.57272864506,2.1312237978 2.3717678003,2.23277887702 C 2.59995327517,2.33451306075 2.77727165446,2.47618866712 2.90372295305,2.65798478574 C 3.03017425165,2.83996001631 3.09339990094,3.04718969017 3.09339990094,3.27985290438 C 3.09339990094,3.69090918452 2.95387360826,4.00829119235 2.67500013486,4.23181983083 C 2.39594754949,4.45552758127 2.02107137814,4.56729190052 1.55001345649,4.56729190052 C 1.0791345872,4.56729190052 0.703004661947,4.45427381247 0.421802762896,4.22841676325 C 0.140600863844,4.00255971402 -8.56816768646e-08,3.68643148988 -8.56816768646e-08,3.27985294908 C -8.56816768646e-08,3.04718973488 0.0637628920376,2.83996006101 0.191467959434,2.65798483044 C 0.318993914872,2.47618871182 0.496849644929,2.33451310545 0.725035119802,2.23277892172 C 0.521745849401,2.1312238425 0.365383271128,1.99617528915 0.255768265575,1.82799147069 C 0.146332364529,1.65962855518 0.091524861753,1.46708585322 0.091524861753,1.25018426776 C 0.091524861753,0.854889631271 0.222453899682,0.547716856003 0.484491087496,0.328665956855" fill="none" stroke="#000000" stroke-width="0.00456729189306"/>
	<path d="M 1.17227152735,3.62034009397 C 1.26487113535,3.72314893454 1.3902477771,3.7743742466 1.54840144515,3.7743742466 C 1.7065551132,3.7743742466 1.83246909082,3.72314893454 1.92614335567,3.62034009397 C 2.01999672502,3.5175312534 2.06674429774,3.37746762484 2.06674429774,3.20014924556 C 2.06674429774,3.02283086628 2.01928028092,2.8833045736 1.92453136668,2.78174949437 C 1.82960333303,2.68001531065 1.7036893554,2.62932732701 1.54678944126,2.62932732701 C 1.38971041515,2.62932732701 1.26487110928,2.68001531065 1.17227150127,2.78174949437 C 1.07967189327,2.8833045736 1.03346164525,3.02283086628 1.03346164525,3.20014924556 C 1.03346164525,3.37746762484 1.07967189327,3.5175312534 1.17227150127,3.62034009397" fill="none" stroke="#000000" stroke-width="0.00456729189306"/>
	<path d="M 1.55180452392,1.83640967309 C 1.68953972682,1.83640967309 1.79467699304,1.78948298842 1.86685812101,1.69580872357 C 1.93921835348,1.60213445872 1.97539846972,1.47335473448 1.97539846972,1.3094695583 C 1.97539846972,1.14576347917 1.93868102506,1.01877484471 1.86524613574,0.92832455039 C 1.79181124642,0.838053368032 1.68613664433,0.792917776853 1.54840144143,0.792917776853 C 1.41066623852,0.792917776853 1.3055289723,0.83751603961 1.23334784433,0.926712565124 C 1.16098761186,1.01590909064 1.12480749562,1.14236038923 1.12480749562,1.30606646836 C 1.12480749562,1.46995164454 1.16152494028,1.59926868975 1.2349598296,1.69401760399 C 1.30839471892,1.78894563764 1.41406932101,1.83640965447 1.55180452392,1.83640965447" fill="none" stroke="#000000" stroke-width="0.00456729189306"/>
</svg>
