<?xml version="1.0" ?>
<svg baseProfile="full" height="600px" version="1.1" viewBox="-0.317014842711 -0.459013119198 3.78134165229 5.48531775148" width="414px" xmlns="http://www.w3.org/2000/svg" xmlns:ev="http://www.w3.org/2001/xml-events" xmlns:xlink="http://www.w3.org/1999/xlink">
	<defs/>
	<path d="M 0.0,4.5672917366 C 0.0304486136883,4.4102127105 0.0610763374716,4.2531336844 0.09152495116,4.09623377025 C 0.527835659683,4.09623377025 0.964146368206,4.09623377025 1.40027796477,4.09623377025 C 1.64673262089,2.86593072116 1.89318727702,1.63580672443 2.13964193314,0.405682727695 C 2.12226831168,0.405682727695 2.10471558198,0.405682727695 2.08734196052,0.405682727695 C 1.63580697402,0.763364359736 1.18427198753,1.12104599178 0.732916053385,1.47872762382 C 0.643361311406,1.36320200562 0.553985681385,1.24767638743 0.464610051364,1.13197165728 C 0.937817316502,0.754587978125 1.4112036936,0.377383410931 1.88441095874,-2.68220901489e-07 C 2.17241902277,-2.68220901489e-07 2.46024797484,-2.68220901489e-07 2.74825603887,-2.68220901489e-07 C 2.47565139458,1.36535140872 2.20286766812,2.73070308566 1.93026302382,4.09623381495 C 2.33594600484,4.09623381495 2.74162898585,4.09623381495 3.14731196687,4.09623381495 C 3.11686335318,4.2531337291 3.08623562939,4.4102127552 3.05578701571,4.56729178131 C 2.03719143942,4.56729178131 1.01859586313,4.56729178131 2.86847352982e-07,4.56729178131" fill="none" stroke="#000000" stroke-width="0.00456729204953"/>
</svg>
