<?xml version="1.0" ?>
<svg baseProfile="full" height="600px" version="1.1" viewBox="-0.285276604582 -0.459013078127 3.40048315329 5.48531752778" width="372px" xmlns="http://www.w3.org/2000/svg" xmlns:ev="http://www.w3.org/2001/xml-events" xmlns:xlink="http://www.w3.org/1999/xlink">
	<defs/>
	<path d="M 2.82992982864,3.15698361397 C 2.82992982864,3.23829931766 2.82992982864,3.31943591684 2.82992982864,3.40075162053 C 2.62610323727,3.40075162053 2.42245575786,3.40075162053 2.21880827844,3.40075162053 C 2.21880827844,3.78959828615 2.21880827844,4.17844495177 2.21880827844,4.56729161739 C 2.13140285015,4.56729161739 2.04399742186,4.56729161739 1.95659199357,4.56729161739 C 1.95659199357,4.17844495177 1.95659199357,3.78959828615 1.95659199357,3.40075162053 C 1.30427530408,3.40075162053 0.652137666941,3.40075162053 2.98023223877e-08,3.40075162053 C 2.98023223877e-08,3.34827253968 2.98023223877e-08,3.29579345882 2.98023223877e-08,3.24331437796 C 0.533925384283,2.16220950335 1.06767162681,1.08110462874 1.60159698129,-2.45869159698e-07 C 1.69634589553,-2.45869159698e-07 1.79091570526,-2.45869159698e-07 1.885485515,-2.45869159698e-07 C 1.36714266241,1.05226802081 0.848620697856,2.10471533984 0.330277845263,3.15698360652 C 0.872263178229,3.15698360652 1.41442762315,3.15698360652 1.95659206808,3.15698360652 C 1.97199548408,2.61893867701 1.98739890009,2.08107285947 2.0028023161,1.54302792996 C 2.07480433211,1.54302792996 2.14680634812,1.54302792996 2.21880836412,1.54302792996 C 2.21880836412,2.08107285947 2.21880836412,2.61893867701 2.21880836412,3.15698360652 C 2.42245584354,3.15698360652 2.62610332295,3.15698360652 2.82992991433,3.15698360652" fill="none" stroke="#000000" stroke-width="0.00456729186326"/>
</svg>
