<?xml version="1.0" ?>
<svg baseProfile="full" height="600px" version="1.1" viewBox="-0.317247657925 -0.459012579247 3.78413570464 5.48531737566" width="414px" xmlns="http://www.w3.org/2000/svg" xmlns:ev="http://www.w3.org/2001/xml-events" xmlns:xlink="http://www.w3.org/1999/xlink">
	<defs/>
	<path d="M 0.930115580559,0.436131596565 C 0.8873084113,0.964325487614 0.844680350274,1.49251937866 0.801873181015,2.02071326971 C 0.925816949457,1.91378490627 1.06910453364,1.83139454573 1.23155682907,1.77372128889 C 1.39418823645,1.71586892381 1.56523780152,1.68703229539 1.74488460645,1.68703229539 C 2.00996663794,1.68703229539 2.24513738975,1.74166068621 2.45039686188,1.85073836334 C 2.65565633401,1.95963692851 2.81398912892,2.11367109604 2.92503700778,2.31248262711 C 3.0362639986,2.51129415818 3.09196704626,2.73912142403 3.09196704626,2.99560620077 C 3.09196704626,3.30779405124 3.02569653839,3.58254800923 2.89297641069,3.82004718669 C 2.76043539494,4.05736725219 2.57344510406,4.24113358743 2.33182641119,4.37170440145 C 2.09020771831,4.50209611841 1.81330444664,4.56729197688 1.50111659616,4.56729197688 C 1.21454142779,4.56729197688 0.943011455238,4.5191115234 0.686347566545,4.4229297284 C 0.42986278981,4.3267479334 0.200960867107,4.18883363344 2.23517417908e-08,4.00918682851 C 0.0770171061158,3.87449649908 0.15403418988,3.73980616964 0.230872161686,3.60511584021 C 0.632972963154,3.95151359774 1.05835799128,4.12471247651 1.50738546997,4.12471247651 C 1.83246917278,4.12471247651 2.09128237516,4.02638137527 2.28364596516,3.82954006083 C 2.47600955516,3.63287785836 2.57237046212,3.36779582687 2.57237046212,3.03411486931 C 2.57237046212,2.76043558307 2.4878307879,2.54031002708 2.31893053651,2.37337999232 C 2.15003028512,2.20662905462 1.92650164664,2.12334314175 1.64852370322,2.12334314175 C 1.19949622452,2.12334314175 0.848799839616,2.2986913342 0.596613690257,2.64920860715 C 0.474640130997,2.64920860715 0.352845676243,2.64920860715 0.230872116983,2.64920860715 C 0.299291938543,1.76619887538 0.367711760104,0.883009972051 0.436131581664,2.40281224251e-07 C 1.34063450992,2.40281224251e-07 2.24513743818,2.40281224251e-07 3.14964036644,2.40281224251e-07 C 3.13674448244,0.145437138155 3.12402770948,0.290874036029 3.11113182548,0.436131821945 C 2.38412640337,0.436131821945 1.65712098125,0.436131821945 0.930115559138,0.436131821945" fill="none" stroke="#000000" stroke-width="0.0045672917366"/>
</svg>
