<?xml version="1.0" ?>
<svg baseProfile="full" height="600px" version="1.1" viewBox="-0.310907187086 -0.459012789052 3.70804996445 5.48531754567" width="406px" xmlns="http://www.w3.org/2000/svg" xmlns:ev="http://www.w3.org/2001/xml-events" xmlns:xlink="http://www.w3.org/1999/xlink">
	<defs/>
	<path d="M 2.47618865967,1.71264493465 C 2.66532827914,1.82369281352 2.81434737146,1.98686155677 2.92306683213,2.20215116441 C 3.03178629279,2.41744077206 3.08623557538,2.67517933249 3.08623557538,2.97518771887 C 3.08623557538,3.27967384458 3.02318903804,3.55263671279 2.8969168514,3.79407629371 C 2.77082377672,4.03551587462 2.59350539744,4.22483459115 2.36514079571,4.36185334623 C 2.13677619398,4.49869298935 1.87688831985,4.56729192287 1.58547718823,4.56729192287 C 1.04617853463,4.56729192287 0.646943464875,4.3781523034 0.388309374452,3.9996939823 C 0.129317060113,3.62123566121 1.49011611938e-08,3.10145991296 1.49011611938e-08,2.4401877448 C 1.49011611938e-08,1.95300992578 0.0728975757957,1.52565466613 0.218513585627,1.15812199563 C 0.364308707416,0.79058932513 0.573150359094,0.505626134574 0.844859443605,0.303411521018 C 1.11674764007,0.101196907461 1.43538343161,4.47034835815e-08 1.80076678842,4.47034835815e-08 C 2.16185151786,4.47034835815e-08 2.48156195134,0.0934951901436 2.75989808887,0.280485481024 C 2.65547726303,0.452430590987 2.5512355417,0.624196588993 2.44681471586,0.795962586999 C 2.24674941599,0.67864587158 2.03575845063,0.619897961617 1.81384178996,0.619897961617 C 1.53550565243,0.619897961617 1.31251434982,0.744916379452 1.14504697919,0.994953215122 C 0.97757960856,1.24516916275 0.883009798825,1.5897758007 0.861337549984,2.0291313827 C 1.12659869343,1.70727163553 1.45508549362,1.54643131793 1.84643972665,1.54643131793 C 2.07695362717,1.54643131793 2.28686995059,1.60177614912 2.47618866712,1.71264492348" fill="none" stroke="#000000" stroke-width="0.00456729187816"/>
	<path d="M 2.07820741087,3.68965541199 C 2.18907618523,3.51788941398 2.24442101642,3.28415152803 2.24442101642,2.98826265708 C 2.24442101642,2.6882542707 2.1933748126,2.4740393199 2.091103293,2.34561781958 C 1.98901088536,2.21737543121 1.83999179304,2.15307512507 1.64422512054,2.15307512507 C 1.49628068507,2.15307512507 1.35603795946,2.19337476045 1.22331783175,2.27379491925 C 1.09077681601,2.35439419001 0.97220633924,2.46418830752 0.867785513401,2.60335637629 C 0.876561878249,3.07745917141 0.936384445056,3.42009560764 1.04725321941,3.631086573 C 1.15812199377,3.84189844131 1.33758970164,3.947393924 1.58547723852,3.947393924 C 1.80291615985,3.947393924 1.96715955995,3.86160048097 2.07820743881,3.68965537101" fill="none" stroke="#000000" stroke-width="0.00456729187816"/>
</svg>
