<?xml version="1.0" ?>
<svg baseProfile="full" height="600px" version="1.1" viewBox="-0.258194099313 -0.456491176451 3.07550463666 5.48256551328" width="337px" xmlns="http://www.w3.org/2000/svg" xmlns:ev="http://www.w3.org/2001/xml-events" xmlns:xlink="http://www.w3.org/1999/xlink">
	<defs/>
	<path d="M 0.176422849298,0.324725478888 C 0.438997343183,0.107465669513 0.775006756186,-2.23517417908e-08 1.18445105851,0.00232840096578 C 1.59407447278,0.00447771465406 1.91772530973,0.105137241539 2.15522448719,0.304306981619 C 2.3929027915,0.5034767217 2.51165238023,0.743304324802 2.51165238023,1.02378977602 C 2.51165238023,1.41299469536 2.29887031019,1.73431713646 1.87348528206,1.98775703972 C 2.07713276148,2.06477412349 2.24227170646,2.20734527474 2.36908122897,2.41547049349 C 2.49571163952,2.62359571224 2.55911640078,2.83852709597 2.55911640078,3.06026464468 C 2.55911640078,3.45394727355 2.42102298886,3.80356898671 2.14501527697,4.10912975436 C 1.86900756508,4.41451141005 1.49789271504,4.56729179388 1.03184980899,4.56729179388 C 0.669690437615,4.56729179388 0.325800217688,4.4632291845 3.72529029846e-08,4.25510396576 C 0.117674976587,4.09211431956 0.235349915922,3.92912467336 0.353024855256,3.76631415403 C 0.438997410238,3.8386743865 0.56562782079,3.90422846144 0.733095191419,3.96315548336 C 0.900562562048,4.02190339332 1.04993987828,4.0514564584 1.18122712523,4.0514564584 C 1.4119201526,4.0514564584 1.59855223447,3.9710362996 1.74112338573,3.81037507905 C 1.88369453698,3.6497138585 1.95498011261,3.4586040373 1.95498011261,3.23686648859 C 1.95498011261,2.59869934572 1.61323920637,2.27970536007 0.929936505854,2.27970536007 C 0.848441682756,2.27970536007 0.787365347147,2.28203378338 0.746707495302,2.28651152039 C 0.76479755342,2.14626879478 0.782887611538,2.00584695721 0.800977669656,1.8656042316 C 1.07250764221,1.8656042316 1.32827597111,1.80345323915 1.56810357422,1.67897214973 C 1.80793117732,1.55449106032 1.92775542289,1.36785897845 1.92775542289,1.11889679963 C 1.92775542289,0.924383895937 1.85987292975,0.771603512112 1.72410794348,0.660734737758 C 1.5883429572,0.549865963403 1.43001016229,0.494342023972 1.24893047661,0.494342023972 C 1.06802988797,0.494342023972 0.897159434855,0.521566665266 0.736498214304,0.57583683962 C 0.575836993754,0.630107013974 0.447952829301,0.702646358404 0.353024795651,0.79309665272 C 0.294097773731,0.636913171504 0.235349863768,0.480908802245 0.176422841847,0.324725321028" fill="none" stroke="#000000" stroke-width="0.00456500042738"/>
</svg>
