<?xml version="1.0" ?>
<svg baseProfile="full" height="600px" version="1.1" viewBox="-0.323713582546 -0.459012792796 3.86172599453 5.48531759042" width="423px" xmlns="http://www.w3.org/2000/svg" xmlns:ev="http://www.w3.org/2001/xml-events" xmlns:xlink="http://www.w3.org/1999/xlink">
	<defs/>
	<path d="M 0.406757622957,3.97676801682 C 0.135585844517,3.5832644999 -4.47034835815e-08,3.01620385051 -4.47034835815e-08,2.27576521039 C -4.47034835815e-08,1.55108824372 0.136839598417,0.990654617548 0.410518884659,0.594285339117 C 0.684377282858,0.198095142841 1.08182123303,4.47034835815e-08 1.6032089889,4.47034835815e-08 C 2.12459674478,4.47034835815e-08 2.52347359061,0.198095142841 2.79983952641,0.594285339117 C 3.07620546222,0.990654617548 3.21429887414,1.55108824372 3.21429887414,2.27576521039 C 3.21429887414,3.01620385051 3.07745923102,3.5832644999 2.80377994478,3.97676801682 C 2.52992154658,4.37045064569 2.12979094684,4.56729196012 1.60320906341,4.56729196012 C 1.07662717998,4.56729196012 0.677750334144,4.37045064569 0.406757667661,3.97676801682" fill="none" stroke="#000000" stroke-width="0.00456729191542"/>
	<path d="M 2.48299486935,3.75395582616 C 2.68897077441,3.41508068144 2.79195872694,2.92235048115 2.79195872694,2.27576525509 C 2.79195872694,1.63455332816 2.69040364772,1.14576353133 2.48693528026,0.809395894408 C 2.28364600986,0.473207369447 1.98901089281,0.305023550987 1.60320904106,0.305023550987 C 1.21740718931,0.305023550987 0.922772072256,0.473207369447 0.719482801855,0.809395894408 C 0.516193531454,1.14576353133 0.414459347725,1.63455332816 0.414459347725,2.27576525509 C 0.414459347725,2.91715635359 0.514939770103,3.40845368803 0.715542390943,3.75001548231 C 0.91632412374,4.09157727659 1.20701880753,4.26226861775 1.58762647212,4.26226861775 C 1.97862248123,4.26226861775 2.27719800174,4.09283104539 2.48299479485,3.75395590067" fill="none" stroke="#000000" stroke-width="0.00456729191542"/>
</svg>
