<svg baseProfile="full" height="600px" version="1.1" viewBox="-1.41227830424 -1.69220913167 8.08464359671 18.5544929877" width="262px" xmlns="http://www.w3.org/2000/svg" xmlns:ev="http://www.w3.org/2001/xml-events" xmlns:xlink="http://www.w3.org/1999/xlink">
    <defs></defs>
    <path d="M 1.05442408659,4.90159113214 C 1.05440836279,4.59663123891 1.24620353309,4.59663312839 1.24615405034,4.33479940103 C 1.24615133164,3.72292625116 1.24593146567,3.39755218433 1.24589405837,3.00932537721 C 1.24592666863,2.02088087009 1.45799452601,1.39660256313 1.94474533735,0.79623984502 C 2.39910361706,0.120455316765 3.01682088314,-0.139591671961 3.90038064657,-0.139564208253 C 4.40752891241,-0.139584613274 4.81819531856,-0.0913067956076 5.23722857772,0.0119346182241 C 5.6195300573,0.156579117049 5.85903217433,0.252650896777 5.99220751761,0.337971421648 C 5.99221429039,1.01756832259 5.99210680689,1.66423109429 5.99210716628,2.39533111708 C 5.59600172781,2.39541556582 5.25994871401,2.39553662608 4.96805380129,2.39558806315 C 4.74964582764,1.93308099404 4.67778044783,1.56740101472 4.67785094931,1.85466375247 C 3.67386327936,1.85471572285 3.20631726338,2.38992275601 3.20631814091,3.40964497929 C 3.20638849137,3.92716045981 3.20614725708,4.3838091672 3.20616183735,4.93667908316 C 4.03711334921,4.93664859099 4.76840434528,4.93669629044 5.54213510014,4.93671498685 C 5.54216724407,5.43286008625 5.54202632771,5.83157671481 5.54200955418,6.30190680414 C 4.69067212132,6.30190278268 3.92555751589,6.3019580928 3.12405952004,6.30194359096 C 3.12407955592,8.86491399082 3.12395691373,11.3200057057 3.12394507717,13.8563712147 C 3.84206040691,13.8562582426 4.45239182304,13.9492663808 5.06779005121,14.0436013855 C 5.06776456048,14.4942848899 5.06750895091,14.8766533353 5.06704618211,15.3096389391 C 3.10626973386,15.3095906873 1.32014610047,15.3096350912 -0.615061266469,15.309632661 C -0.615012141007,14.9643048664 -0.615134950557,14.6305942258 -0.615157399113,14.3009152731 C -0.121511284048,14.1854777729 0.335734185045,14.065997692 0.807323035067,13.9385648688 C 0.807332088861,11.3197816332 0.807222801656,8.78322252833 0.807220162571,6.22380718791 C 0.282147409141,6.22384873446 -0.207356957972,6.22393441513 -0.731991259634,6.22392460016 C -0.732000658558,5.80231165198 -0.732053822765,5.3892374864 -0.732120836532,4.96392496733 C -0.21696099118,4.85172207711 0.239874040329,4.74293368367 0.730186914646,4.63258590607 C 0.73019334543,4.28051280288 0.730076283239,3.95367758778 0.730090180147,3.57781531719" fill="none" stroke="#000000" stroke-width="0.0154492031538"></path>
</svg>