<svg baseProfile="full" height="600px" version="1.1" viewBox="-0.582970460048 -2.31802529562 8.92774310971 17.9620689698" width="299px" xmlns="http://www.w3.org/2000/svg" xmlns:ev="http://www.w3.org/2001/xml-events" xmlns:xlink="http://www.w3.org/1999/xlink">
    <defs></defs>
    <path d="M 1.03446108451,4.74968150424 C 1.03431740833,4.50070212947 1.3087759657,4.50071541817 1.64973205758,4.50071016363 C 1.64968102135,4.02899384908 1.64946707759,3.72364643625 1.64942094741,3.40993643216 C 1.6494198429,2.42842048816 1.85326354081,1.72644663266 2.37870679671,1.12643158845 C 2.76089118296,0.451576356213 3.23831881458,0.0175698738499 3.97879017764,-0.307219113787 C 4.50634945804,-0.66604324766 5.06968094283,-0.814949001749 5.89498551065,-0.814954578328 C 6.28668694073,-0.814938077267 6.65763671571,-0.766905637022 7.08851085478,-0.673006632861 C 7.39397002632,-0.561284163531 7.59459723407,-0.478530356224 7.59456241618,0.109918883506 C 7.59440401667,0.849287501041 7.2841322469,1.3192291171 6.88982749455,1.59332018203 C 6.50669560307,1.59330279264 6.12501430982,1.59332727899 5.59254199737,1.59339223995 C 4.65844250195,1.5933814762 4.08667350285,2.00132797341 4.08676291078,2.5832988439 C 4.08676519543,3.12018058876 4.08674000973,3.72294048647 4.08674688236,4.36696336846 C 4.84795547621,4.36696069999 5.59306431906,4.36699423369 6.49742967979,4.36699755675 C 6.4974376389,4.80110426432 6.49725879281,5.17101372963 6.4972537419,5.56684722191 C 5.73549064605,5.56684112321 4.98774149625,5.56688924276 4.03092458455,5.56691017513 C 4.03088490988,7.78261914615 4.03073205004,9.88301911716 4.03071441617,12.0607518232 C 4.03057553729,12.5155104673 4.14105611404,12.8466597772 4.66803246101,12.9457408017 C 5.08526092132,12.9456856958 5.48194610437,12.9948194846 6.01354234775,13.0428679436 C 6.01349140744,13.4475388079 6.01155947456,13.7950116544 6.01130625334,14.1409712284 C 4.18008240786,14.1409446637 2.38591631975,14.1409904515 0.273853388693,14.1409648941 C 0.273887937989,13.8467821167 0.273761534931,13.5253169224 0.273720548585,13.1980380998 C 0.689672903254,13.1324495361 1.06544022365,13.0572899044 1.49706529184,12.9608707563 C 1.49705766566,10.5445227758 1.62399913795,10.3182477043 1.62395609249,7.96007075765 C 1.17327121724,7.96017374244 0.735029258621,7.96024387931 0.167387106311,7.9601946899 C 0.16732148712,7.47518382755 0.167270991701,7.213927699 0.167239768901,6.70417077628 C 0.587585999169,6.57264835921 0.976266785064,6.47281512406 1.43896047632,6.32439943936 C 1.4389201201,5.9042997339 1.43876230353,5.69326673236 1.43876927616,5.25386784759" fill="none" stroke="#000000" stroke-width="0.0149559275352"></path>
</svg>