<svg baseProfile="full" height="600px" version="1.1" viewBox="-1.66257596081 -1.64499917985 8.5420118487 18.6810067722" width="275px" xmlns="http://www.w3.org/2000/svg" xmlns:ev="http://www.w3.org/2001/xml-events" xmlns:xlink="http://www.w3.org/1999/xlink">
    <defs></defs>
    <path d="M 1.17276608588,5.15233129653 C 1.17275461033,4.8523992339 1.26292859241,4.85240982082 1.26289644431,4.59971157815 C 1.26291005729,3.90334729459 1.26270955001,3.52458540704 1.26269667491,3.09565658476 C 1.26273514243,2.01555020716 1.48087403091,1.3651087394 1.96477693232,0.824007879758 C 2.42894139799,0.161972593331 3.05688169511,-0.0817954281329 3.9660214475,-0.0817675428962 C 4.54669055255,-0.0818013192556 5.02866789611,-0.0150029601 5.48473563703,0.108223377035 C 5.89599576505,0.288632555173 6.16115412029,0.408821588621 6.16112050417,1.04428238259 C 6.16096466116,1.80026722537 5.85343804292,2.09440625297 5.56180297665,2.36649114476 C 5.16484757594,2.36650161138 4.7849346929,2.36652325401 4.34868403606,2.3665627774 C 3.37207951478,2.36660825411 2.83361043863,2.79097031752 2.83366391132,3.40399443308 C 2.83373075714,3.98313301006 2.83361613504,4.54998808304 2.83363711064,5.11548369327 C 3.6286624593,5.11545722874 4.33943211262,5.11551250483 5.11643152659,5.11552844995 C 5.11647770714,5.68730758184 5.11629420615,6.16424541229 5.11628189241,6.65392063611 C 4.29903319036,6.65391438695 3.56818696414,6.65396728983 2.75474026357,6.65396823806 C 2.75475985598,9.23530092163 2.75463714255,11.6887604229 2.75462248725,14.1624421112 C 3.45341160697,14.1623759449 4.07707240981,14.2572447539 4.3058817516,14.2572145209 C 4.3058540686,14.685237889 4.30728457204,15.0856168613 4.30696508337,15.4727625594 C 2.53715345312,15.4727367585 0.946709126722,15.4727952997 -0.823444991816,15.4727690092 C -0.823363449876,15.1176607183 -0.823515686323,14.770912098 -0.823556970772,14.4115612677 C -0.332122068819,14.3082815504 0.12303291637,14.1932856983 0.582381952587,14.0705559126 C 0.582401864533,11.3962006441 0.582308129018,8.75652240428 0.582309404657,6.13025687846 C 0.0507674611065,6.13027929483 -0.430773040011,6.13037460822 -0.944158872321,6.13038237349 C -0.944148241822,5.68405677334 -0.944197326793,5.25821657434 -0.944260580279,4.82724444524 C -0.422128243186,4.72390765652 0.0340908935289,4.61850704953 0.534793393872,4.51413671628 C 0.53479398982,4.1590505685 0.534724017001,3.83708281771 0.534739674531,3.49827630774" fill="none" stroke="#000000" stroke-width="0.0155545435239"></path>
</svg>