<svg baseProfile="full" height="600px" version="1.1" viewBox="-1.1027760037 -3.44407572836 8.07241164434 21.0679352759" width="230px" xmlns="http://www.w3.org/2000/svg" xmlns:ev="http://www.w3.org/2001/xml-events" xmlns:xlink="http://www.w3.org/1999/xlink">
    <defs></defs>
    <path d="M 1.8064017422,5.76839743709 C 1.80640592916,5.57726152395 1.80646090708,5.37635141765 1.80644003343,5.19272926604 C 1.80645785901,4.51175323283 1.80629704089,4.08270272767 1.8062931194,3.7543843702 C 1.80631360158,2.76079955851 2.01748116061,1.99072012459 2.42756370947,1.53148326432 C 2.83899919436,0.94577703034 3.46025655911,0.670193673721 4.24216507122,0.670223399399 C 4.94841126844,0.670166229766 5.58834419891,0.860046779674 6.28742335484,1.14504886226 C 6.30434563503,1.87249756412 6.21818368629,2.46148706035 6.21823215947,3.16722852544 C 5.81915435657,3.16724706301 5.40055990682,3.16734508806 4.93918049798,3.16734640004 C 4.15960687861,3.16734615806 3.66004389987,3.42637372855 3.66007987126,3.80835632328 C 3.66017844235,4.29751650337 3.66007406953,4.85215196851 3.66009793277,5.38380334619 C 4.48578730817,5.38373331381 5.19494388098,5.3838144155 5.93686560387,5.38382250869 C 5.93695049692,5.96703995073 5.93677663705,6.53859461152 5.93676688734,7.08525157773 C 5.14000084463,7.08524349933 4.40357794824,7.0852865326 3.60350998703,7.085274241 C 3.6035622828,9.75080182317 3.60344087271,12.4236135698 3.60341063073,15.0818860746 C 4.22352257302,15.0817880196 4.25706557861,15.0818730004 4.52722389927,15.0818563722 C 4.52724204486,15.4621578776 4.528829497,15.8607976161 3.54848549952,15.8607816099 C 2.16544709792,15.8607934284 0.977459531922,15.8607810632 -0.422765869003,15.8608891102 C -0.422666669266,15.3324829074 -0.422671945499,14.7983645531 -0.422708571047,14.2353614303 C 0.0458564161354,14.1047147842 0.502629905849,13.9532557013 1.01238122573,13.7959564062 C 1.01240929319,11.0241551729 1.01234707788,8.27938869916 1.01233720163,5.50832680188 C 0.564105474743,5.50834337046 0.130063199791,5.50841161096 -0.362378543821,5.50843689247 C -0.362337684488,5.07180759712 -0.362386115055,4.63625094696 -0.36245190879,4.20347720786 C 0.0802550039662,4.12255786015 0.477393301524,4.03668026282 0.966349782742,3.94865803822 C 0.966363202991,3.62012191518 0.966319601116,3.32043330773 0.966339448884,3.00691171392 C 0.966361651746,1.54408081277 1.22425423059,0.382819611866 1.84952549132,-0.406764249962 C 2.44307921323,-1.24943969743 3.31227163467,-1.68107001082 4.60179976615,-1.68110529104" fill="none" stroke="#000000" stroke-width="0.0175419944012"></path>
</svg>