<svg baseProfile="full" height="600px" version="1.1" viewBox="-0.00320315148229 -2.23518529835 8.9892306177 17.0979728205" width="316px" xmlns="http://www.w3.org/2000/svg" xmlns:ev="http://www.w3.org/2001/xml-events" xmlns:xlink="http://www.w3.org/1999/xlink">
    <defs></defs>
    <path d="M 1.11859394749,4.63178938265 C 1.5542410477,4.55267838771 1.94275830825,4.48959638561 2.4144270881,4.43656578297 C 2.41439493822,4.05861055488 2.41415901542,3.72734289999 2.41409386705,3.37611856694 C 2.41408121543,2.38951226706 2.6101877089,1.65112831826 3.04257649141,1.03157952065 C 3.41781291323,0.403953518817 3.87004080372,-0.0246594584496 4.52293124752,-0.337379906228 C 5.07899656849,-0.661578480056 5.6412515934,-0.804406661442 6.37596830683,-0.804422377072 C 6.73722046571,-0.804419363572 7.07999291973,-0.764224215134 7.45911019998,-0.684440775498 C 7.78638380723,-0.597659907027 8.00278215068,-0.523588276192 8.23099306183,-0.407122521385 C 8.15768933254,0.292826027886 8.09221915113,0.902068467156 8.00749550717,1.57970121624 C 7.65459667104,1.57974688233 7.3376625623,1.579826271 6.9642820205,1.57990262602 C 6.6072528805,1.20182026122 6.50051496135,0.850288666228 6.36905979322,0.47177139614 C 5.87736754822,0.468808458329 5.55460043954,0.582378418327 5.28432478713,0.582383555584 C 4.56988515662,0.582332620316 4.17300020861,1.02013883918 4.17299849411,2.05354783862 C 4.17300959523,2.64042983382 4.1728873498,3.23732409804 4.17285457079,3.89205638497 C 5.09578218882,3.89205766117 5.94922748034,3.89208811296 6.90974721138,3.89209875157 C 6.90971499404,4.27675646236 6.90960300686,4.6144101887 6.90959722397,4.98124617031 C 5.98935253022,4.98125497314 5.15395129321,4.98131370865 4.18149686453,4.98132143368 C 4.18146751215,7.12942467083 4.18130641532,9.22651563038 4.18129635714,11.3577614819 C 4.1811696333,11.8316210007 4.27526048246,12.1913584863 4.81257078472,12.2965383624 C 5.25693738881,12.2964996096 5.62719420019,12.3539559242 6.10634562794,12.4200870466 C 6.10626872352,12.7895954919 6.10172447844,13.1149171066 6.10159084941,13.4319940281 C 4.32646415377,13.4319831291 2.63646195079,13.4320640296 0.75208840514,13.4319991237 C 0.752099145212,13.1258643633 0.751875015682,12.8243752187 0.7518312529,12.5069026715 C 1.18341468724,12.4347386202 1.55068897161,12.3555788165 1.94421501907,12.2520183763 C 1.94419172544,9.93288294881 2.07806006212,9.71205326825 2.07871877563,9.39547532707 C 2.07873917026,7.57970005184 1.81757173342,7.57968920641 1.33644673629,7.57962379611 C 1.33847982255,7.09544316686 1.35656642918,6.94521621621 1.0779178739,6.9451960869 C 1.10690336865,6.94522780029 1.12117158347,6.94532213434 1.21037423336,6.94537198009 C 1.48704388463,6.81653589966 1.73625774407,6.81668208945 2.0676823976,6.81674920137 C 2.06764959955,6.11892043168 2.06750915046,5.75290583188 2.06747443715,5.46879188831" fill="none" stroke="#000000" stroke-width="0.0142364469779"></path>
</svg>