<svg baseProfile="full" height="600px" version="1.1" viewBox="-0.161984415237 -2.4581000782 9.26096833226 18.7499533091" width="297px" xmlns="http://www.w3.org/2000/svg" xmlns:ev="http://www.w3.org/2001/xml-events" xmlns:xlink="http://www.w3.org/1999/xlink">
    <defs></defs>
    <path d="M 1.41479127631,4.34099865297 C 1.84703080878,4.25040884654 2.2318980299,4.18000235746 2.68561934456,4.11739507655 C 2.72161746919,3.74538895825 2.74078860283,3.41365638713 2.74068640848,3.12016719917 C 2.74062947539,2.20099878649 2.95488799719,1.50061524252 3.36070678739,0.915513697663 C 3.73982525972,0.31459433178 4.19393466023,-0.102846410474 4.82238141803,-0.412323709926 C 5.3887141755,-0.743181582889 5.96231464652,-0.889077481231 6.6675464919,-0.889098989476 C 6.97752163915,-0.889081785798 7.28682656197,-0.857585197657 7.64117247967,-0.792907385498 C 7.95947248844,-0.72356748429 8.16849688796,-0.661908010364 8.32073157636,-0.584472576499 C 8.23578807322,-0.0187614954712 8.15711100755,0.456837853074 8.06039867906,0.978359957814 C 7.70710475353,0.9783701116 7.55630166439,0.959523856804 7.27395034937,0.959582950488 C 6.89034862427,0.710798020974 6.51719005016,0.582146133796 6.17653287558,0.58221204532 C 5.57204497961,0.582207021791 5.20061160234,0.841151890833 4.94091270474,1.27613445886 C 4.68676368503,1.73242443569 4.54768794385,2.36224102743 4.47168875096,2.99778359898 C 4.45364120399,3.32659360536 4.44676553348,3.62570273646 4.4322156178,3.92623552449 C 5.34310148826,3.92625864092 6.11473970284,3.92620733677 7.03132550588,3.92615928107 C 7.02582384117,4.18743460232 7.05389146909,4.23013249763 7.04040064878,4.47432924041 C 6.98369220487,4.81222528943 6.93084990076,5.09803277978 6.87055213593,5.42350948581 C 6.06585176132,5.42340419083 5.31541861437,5.42332790959 4.38306833647,5.42330619648 C 4.22884425364,7.82211229161 4.1849567502,7.88300754085 4.13859866403,7.94992650256 C 3.986663936,10.6827284168 3.88175155066,10.6825910999 3.92411913938,10.771587637 C 3.83434736944,13.1491174965 3.8081975042,13.2899389236 3.37973085634,13.9896265833 C 3.18166064314,14.6656193702 2.95856397442,14.7230872108 2.4614741116,14.7228514243 C 2.08426403097,14.7228380215 1.73000692419,14.5944143158 1.51928587846,14.5943223432 C 1.26627006225,14.6209507872 1.05654013745,14.5231651877 0.930592438501,14.4684959192 C 0.791750079316,14.4142008413 0.667311286848,14.3000542064 0.616267925423,14.2276288111 C 0.627524208572,14.0672177662 0.675780717578,14.0255044539 0.756852317896,13.5983929177 C 0.941814143505,13.5691635803 1.03896657779,13.3709603593 1.3593625839,13.370946667 C 1.56622519746,13.3709811048 1.66099933937,13.4060496168 1.80489471212,13.4516601117 C 1.94167785003,13.486059867 2.17323159828,13.5202360341 2.31489406183,13.4945016766 C 2.47218121245,13.4639504703 2.64998630836,13.3212345244 2.65592337476,13.1584128739 C 2.70130084531,12.9608951511 2.78817596363,12.5772142114 2.79561845755,12.304506153 C 2.83075827157,11.9839498104 3.00336733257,9.85935583728 3.01321826299,9.56548127549 C 3.16067641398,7.63778445141 3.287447566,5.44230887311 3.40364457836,4.03232726472 C 3.39967064542,3.90705822425 3.07555513067,3.88442613574 2.62096823735,3.85290937888 C 2.61538417434,3.74841999279 2.59600853344,3.65199460851 2.59598337106,3.49337353574 C 2.59603227277,3.47462045232 2.60429691312,3.33167075196 2.8183947855,3.18405774811 C 3.01988931534,3.09655377099 3.15663843391,2.99085558036 3.43516590235,2.99089774149 C 3.65899107394,2.99087407173 3.87965821263,2.99092329664 4.14987840292,2.99097995016" fill="none" stroke="#000000" stroke-width="0.0156119511316"></path>
</svg>