<svg baseProfile="full" height="600px" version="1.1" viewBox="-1.01176175003 -1.62977597395 12.0600593145 19.4762343601" width="372px" xmlns="http://www.w3.org/2000/svg" xmlns:ev="http://www.w3.org/2001/xml-events" xmlns:xlink="http://www.w3.org/1999/xlink">
    <defs></defs>
    <path d="M 2.66971087456,4.91142892838 C 3.12568578124,4.84529031068 3.58166068792,4.77915169299 4.03763559461,4.7136490196 C 4.07642843947,4.35052256286 4.1145853363,3.98803205788 4.15274223313,3.6255415529 C 4.22969197854,2.98832134902 4.47198827192,2.38989405334 4.87835920975,1.82962362468 C 5.28473014757,1.26871727407 5.78712929413,0.824189439416 6.38619257137,0.494132295251 C 6.98461986706,0.164711102843 7.60276157781,5.06639480591e-07 8.23998178169,5.06639480591e-07 C 8.53696964309,5.06639480591e-07 8.84731240198,0.022258695215 9.17101008818,0.0661391243339 C 9.49534369633,0.110019553453 9.76180602238,0.170434638858 9.97039705142,0.247384384274 C 9.99265524,0.30779946968 10.0142774824,0.368214555085 10.036535671,0.42862964049 C 9.80059886537,0.945019606501 9.56402610801,1.46140957251 9.32808930241,1.97779953852 C 9.21807025187,1.99433419295 9.10805120133,2.01086884737 8.99803215079,2.02740350179 C 8.41613948159,1.60958546214 7.89974951558,1.40099443309 7.44886219315,1.40099443309 C 7.0533023756,1.40099443309 6.74868315272,1.53263571672 6.53436858766,1.79655426554 C 6.3200540226,2.05983683281 6.17442187481,2.48274242692 6.09747212939,3.06527101807 C 6.031969456,3.62554144673 5.96583083831,4.18581187539 5.89969222061,4.74608230405 C 6.64693145268,4.74099471793 7.39417068474,4.73527118331 8.1414099168,4.73018359719 C 8.16875569336,4.75752937375 8.19610146992,4.7848751503 8.22344724648,4.81222092686 C 8.16875569336,5.12001990853 8.11406414025,5.4278188902 8.0587366391,5.7349818903 C 7.35029025562,5.72989430418 6.64184387214,5.72417076956 5.93276156671,5.71844723495 C 5.88379354961,5.74642895954 5.83418958448,5.7737747361 5.78458561935,5.80112051265 C 5.52639063634,8.18529080646 5.26819565333,10.5694611003 5.01000067033,12.9536313941 C 4.94386205263,13.5361599852 4.754349472,14.0767159988 4.44146290608,14.5765713383 C 4.12857634015,15.0770625998 3.73556032963,15.4751662244 3.26305076666,15.7715181042 C 2.79054120369,16.0685059656 2.30149698444,16.2166819056 1.79655403085,16.2166819056 C 1.36792490073,16.2166819056 0.983176173642,16.1340086316 0.642943860963,15.9692980354 C 0.302075566724,15.8045874392 0.0877610016614,15.5959964101 1.43423676491e-07,15.3435249333 C 0.0661387611181,15.1012286399 0.183789195493,14.7966094171 0.354223342612,14.4283953761 C 0.524657489732,14.060817257 0.681100772694,13.782907859 0.824189128354,13.5965750073 C 0.911949986592,13.5965750073 0.99971084483,13.5965750073 1.08747170307,13.5965750073 C 1.12054101191,14.4862666582 1.51101324521,14.9314304446 2.25761649571,14.9314304446 C 2.56541547738,14.9314304446 2.82615426742,14.8131440659 3.04046883248,14.5765713085 C 3.25478339754,14.3406345029 3.37306977622,14.0245682378 3.39469201863,13.6290084203 C 3.42776132748,13.3542787512 3.45510710403,12.9479078134 3.47736529261,12.4098955472 C 3.47736529261,12.233737879 3.48817641381,11.9812664022 3.51043460239,11.6518452098 C 3.65288702119,9.73446118133 3.79597537685,7.8170771529 3.93906373251,5.89969312446 C 3.89454735536,5.85581269534 3.85066692624,5.81193226622 3.80678649712,5.76805183711 C 3.41122667957,5.76232830249 3.01566686202,5.75724071637 2.62010704447,5.75151718175 C 2.60420833807,5.72417140519 2.58767368365,5.69682562863 2.57113902923,5.66947985208 C 2.60420833807,5.41637242353 2.63664169889,5.16390094673 2.66971100774,4.91142946994" fill="none" stroke="#000000" stroke-width="0.0162166813989"></path>
</svg>