<svg baseProfile="full" height="600px" version="1.1" viewBox="-0.818942712374 -1.62977635054 9.74622539009 19.4762334737" width="301px" xmlns="http://www.w3.org/2000/svg" xmlns:ev="http://www.w3.org/2001/xml-events" xmlns:xlink="http://www.w3.org/1999/xlink">
    <defs></defs>
    <path d="M 8.10834026337,3.24333620071 C 7.61293655634,3.24333620071 7.11753284931,3.24333620071 6.62149319053,3.24333620071 C 6.62149319053,2.71168345213 6.62149319053,2.18003070354 6.62149319053,1.64901387691 C 6.26154646277,1.54026672244 5.87425395846,1.48684706911 5.4596156776,1.48684706911 C 4.68503066897,1.48684706911 4.12158051133,1.70306948945 3.77053707838,2.13551433012 C 3.41885766387,2.56795917079 3.24333594739,3.18928067014 3.24333594739,4.00011472031 C 3.24333594739,4.28819931671 3.24333594739,4.57691983506 3.24333594739,4.86500443146 C 4.14447467029,4.86500443146 5.04497741163,4.86500443146 5.94611613452,4.86500443146 C 5.94611613452,5.36040813848 5.94611613452,5.85581184551 5.94611613452,6.3518515043 C 5.04497741163,6.3518515043 4.14447467029,6.3518515043 3.24333594739,6.3518515043 C 3.24333594739,9.14430026338 3.24333594739,11.9373848848 3.24333594739,14.7298336439 C 3.78389196098,14.7298336439 4.32444797456,14.7298336439 4.86500398815,14.7298336439 C 4.86500398815,15.2258733027 4.86500398815,15.7212770097 4.86500398815,16.2166807167 C 3.24333588779,16.2166807167 1.62166778743,16.2166807167 -3.12924385071e-07,16.2166807167 C -3.12924385071e-07,15.7212770097 -3.12924385071e-07,15.2258733027 -3.12924385071e-07,14.7298336439 C 0.54055570066,14.7298336439 1.08111171424,14.7298336439 1.62166772783,14.7298336439 C 1.62166772783,11.9373848848 1.62166772783,9.14430026338 1.62166772783,6.3518515043 C 1.08111171424,6.3518515043 0.54055570066,6.3518515043 -3.12924385071e-07,6.3518515043 C -3.12924385071e-07,5.85581184551 -3.12924385071e-07,5.36040813848 -3.12924385071e-07,4.86500443146 C 0.54055570066,4.86500443146 1.08111171424,4.86500443146 1.62166772783,4.86500443146 C 1.62166772783,4.66658857092 1.62166772783,4.46880866215 1.62166772783,4.27039280161 C 1.62166772783,2.82869806513 1.95935626328,1.75648918375 2.63536931574,1.05440231785 C 3.31074638665,0.35167947039 4.24304653704,5.58793544769e-08 5.43226982653,5.58793544769e-08 C 6.35185106099,5.58793544769e-08 7.24345059693,0.188876699656 8.10834027827,0.567901860923 C 8.10834027827,1.45950139686 8.10834027827,2.35110093281 8.10834027827,3.2433363311" fill="none" stroke="#000000" stroke-width="0.0162166806608"></path>
</svg>