<svg baseProfile="full" height="600px" version="1.1" viewBox="-0.891350506367 -2.01827398316 10.672269671 18.4618733602" width="347px" xmlns="http://www.w3.org/2000/svg" xmlns:ev="http://www.w3.org/2001/xml-events" xmlns:xlink="http://www.w3.org/1999/xlink">
    <defs></defs>
    <path d="M 1.99739589062,4.0804017234 C 2.38654099669,4.00336736174 2.72087221112,3.93876158924 3.06620960202,3.86927161099 C 3.11367407333,3.56094211818 3.14352550808,3.28820196272 3.18961380873,3.0380553353 C 3.2573837832,2.52640530945 3.49394317422,1.86198965193 3.87851448808,1.29387674214 C 4.27611156259,0.788275276438 4.71839784536,0.351068054453 5.29633556757,0.00741410733826 C 5.8492743269,-0.304404224142 6.42001902018,-0.473326961383 7.08530192528,-0.473379501313 C 7.37519894991,-0.473365907675 7.65853758607,-0.449768996915 7.96545608792,-0.398527405342 C 8.26026307497,-0.35505128943 8.4916778997,-0.300731844386 8.70974712525,-0.223507127842 C 8.77860346887,-0.153846151313 8.83039226461,-0.0836955896821 8.88515832353,-0.0253005876448 C 8.77075082142,0.302341286907 8.64187014181,0.660717849502 8.49115303237,1.06904861785 C 8.40632499088,1.10958913795 8.32319674719,1.13668671704 8.21639303196,1.14262231148 C 7.76747489799,0.958573673734 7.60498278666,0.893527929554 7.41575538445,0.819778961012 C 7.22752346922,0.749860544572 7.08664304841,0.720536540145 6.81802774299,0.720539719098 C 6.32162893642,0.720671456291 5.99841398824,0.908643972113 5.74763957489,1.23723135514 C 5.49885007072,1.55480874701 5.3484039389,2.09037150069 5.26611516703,2.69195814057 C 5.21886170361,3.07286552711 5.17906821597,3.47652180119 5.13140399087,3.86158553882 C 5.97020299066,3.86337191645 6.64874584306,3.86117552324 7.43369615901,3.85881447569 C 7.51367029626,3.88766039499 7.55036387671,3.92191203647 7.59003037292,3.97536534407 C 7.53804544065,4.26143938639 7.49195483405,4.57407111266 7.43792863268,4.8751031492 C 6.64925934453,4.87384142807 5.95367099423,4.87184475791 5.78611493189,4.86991098137 C 5.59552775402,4.86976822486 5.55097382966,4.88119186761 5.50419724438,4.91448114367 C 5.2305918381,7.27604625674 5.0035725132,9.67671535464 4.77806415115,12.0481464669 C 4.73903082762,12.2849011079 4.55353385661,12.8728283301 4.22645417307,13.3505150929 C 3.84514007423,13.7824374095 3.44891474102,14.1777580336 2.99861306403,14.4765542701 C 2.46374857876,14.7488645271 1.96194357131,14.8988280699 1.40882945511,14.8987048192 C 1.05419889543,14.8986705028 0.65038848374,14.8268746294 0.451580484249,14.7034691729 C 0.194745798446,14.5650299944 0.0520469293369,14.3967202164 0.00441033471361,14.2205799528 C 0.0851444460823,13.9211857624 0.172915086932,13.6060151763 0.277573139258,13.2444930978 C 0.416028709002,12.9384198494 0.525438831039,12.6799786993 0.550178172849,12.6799630503 C 0.66020623859,12.6800364435 0.804367150031,12.6800255929 0.899714323543,12.6800578689 C 1.03660249975,12.6962975604 1.19229007032,12.87341537 1.29085692283,12.9118872141 C 1.42007699128,12.966666535 1.60358415063,13.115104035 1.82501653846,13.1151594971 C 2.18586454805,13.1152210963 2.43921245154,13.1095695534 2.65127779063,13.0356219822 C 2.87345245,12.9447048196 3.02478250381,12.7134581694 3.11744147804,12.2855117807 C 3.2215193164,11.8428425678 3.27978761014,11.3255156168 3.30470063988,10.8525791058 C 3.53281169835,8.58888911097 3.69205297235,6.42618011324 3.86114367548,4.36502932398 C 3.84422599789,4.234787468 3.82332944576,4.17204333483 3.45576449934,4.12751010447 C 3.2849438012,4.13176464257 3.19205382172,4.09909334001 2.87779637877,4.09881298159 C 2.86966176596,4.03796097924 2.84257206772,4.0132839429 2.81401823726,3.96679844436 C 2.83274260242,3.78397997197 2.83690479429,3.64571056243 2.83970079882,3.60659879547" fill="none" stroke="#000000" stroke-width="0.0153720843965"></path>
</svg>