<svg baseProfile="full" height="600px" version="1.1" viewBox="-0.477027878775 -1.48154270713 7.42389487662 18.9514856468" width="236px" xmlns="http://www.w3.org/2000/svg" xmlns:ev="http://www.w3.org/2001/xml-events" xmlns:xlink="http://www.w3.org/1999/xlink">
    <defs></defs>
    <path d="M 1.34851570759,5.42314741255 C 1.34850432542,5.1644603336 1.37256539245,5.16446394082 1.37255576328,4.92928544041 C 1.37257588588,4.2097704744 1.37238403948,3.80428243037 1.37239466831,3.36594906803 C 1.37244102788,2.25591066834 1.59552054536,1.55494383331 2.08410932552,1.01719788071 C 2.55211501252,0.35855397936 3.21746109855,0.10429945942 4.14418630731,0.104322673549 C 4.76824932229,0.104273422042 5.40623127353,0.252919925729 6.08518873584,0.546931101362 C 6.15397348684,1.2881142631 6.08314385694,1.8754761949 6.08314862952,2.59110899119 C 5.74392294988,2.59109671526 5.38177415833,2.59117498366 4.90200090513,2.59118292389 C 4.083960713,2.5912125158 4.00021002546,2.14692217585 4.00024643346,2.44748950478 C 4.00031381498,2.94961178776 4.00028083003,3.45222187516 4.00028158443,4.11051553961 C 4.00040011249,4.52785215255 4.00019812632,4.84504646536 4.00021778957,5.21479696509 C 4.80279629842,5.2147493262 5.50481348649,5.2148306733 6.32161783592,5.21483271731 C 6.3216796603,5.79835187806 6.32154752239,6.31179516925 6.32153065521,6.86399393691 C 5.50372476894,6.86398616263 4.75005967934,6.8640394157 3.89568294603,6.86403865499 C 3.89572203966,9.48314375562 3.89562705132,12.0802227942 3.89560769271,14.7282366244 C 4.52725343179,14.7281580486 4.51761458028,14.7282272717 4.84666863788,14.7282040524 C 4.8466814687,15.1237446773 4.84844394242,15.5166199016 4.84824816592,15.8840596485 C 3.25034801371,15.8840149923 1.8758008898,15.8840780738 0.257867854907,15.8840775682 C 0.257966346642,15.4580441607 0.257837201567,15.0589510394 0.257776273778,14.6513325466 C 0.74271143823,14.5492499737 1.1841545239,14.4357369436 1.62903128414,14.3052661313 C 1.62906818176,11.6443078412 1.62898785888,8.99443696869 1.62900219777,6.32103537453 C 1.12796042779,6.32105625343 0.660011186387,6.32113717079 0.148264422204,6.32116353332 C 0.148290587663,5.87659022032 0.148258187958,5.44919222413 0.148204925489,5.01976856409 C 0.647511693668,4.92291869043 1.08607107682,4.8201161754 1.59562802596,4.71633522033 C 1.595638958,4.3862131369 1.59559960925,4.08782870888 1.59561708466,3.76868755936" fill="none" stroke="#000000" stroke-width="0.0157797549099"></path>
</svg>