<svg baseProfile="full" height="600px" version="1.1" viewBox="-0.57565655758 -2.23521640376 10.1202911392 19.3013101948" width="315px" xmlns="http://www.w3.org/2000/svg" xmlns:ev="http://www.w3.org/2001/xml-events" xmlns:xlink="http://www.w3.org/1999/xlink">
    <defs></defs>
    <path d="M 1.70635128406,4.19405492507 C 2.12370682148,4.11064575725 2.49021047739,4.03826131039 2.89577487496,3.97419723236 C 2.93491191429,3.63895785176 2.95764865739,3.33382674419 2.9992999473,3.06457453333 C 3.06613016513,2.47006362044 3.29704744009,1.77253543698 3.70511478571,1.19614099823 C 4.10970497516,0.653317385545 4.56530350832,0.205834084382 5.17217481521,-0.135362899671 C 5.73726213363,-0.451690411935 6.3147861996,-0.620042851934 6.99765926984,-0.620077623921 C 7.28487408546,-0.620044440258 7.57365778473,-0.592081491131 7.8934129515,-0.53986733802 C 8.19303295401,-0.493754685152 8.39681296435,-0.436807129759 8.62246759621,-0.35816127457 C 8.67424938095,-0.289609816152 8.69460991782,-0.219136905152 8.69458069168,0.0878966932712 C 8.58280090503,0.445542264503 8.46168759726,0.821295130771 8.31890863441,1.25237633638 C 8.19995910935,1.25833436358 8.08836500607,1.26526356652 7.93629938625,1.25111761946 C 7.52221086882,0.915780993883 7.1254888799,0.757751571719 6.76313227676,0.757785437373 C 6.27910289429,0.757811486312 5.94671181105,0.948832705208 5.69277486466,1.26386900205 C 5.43730640672,1.57749281783 5.28803082071,2.08980749507 5.20827234052,2.7079155292 C 5.16727914922,3.07405869622 5.13170000799,3.46546183486 5.08757443241,3.85211195011 C 5.96423847489,3.85257057933 6.70784420781,3.85197238746 7.53313333802,3.85136354575 C 7.53431090088,4.03312239656 7.55964795807,4.07839884469 7.59921867707,4.13787520537 C 7.54654639149,4.45096421847 7.49733246425,4.77597398171 7.44184709275,5.1081116558 C 6.64768458092,5.10764935322 5.93855888331,5.10705235711 5.08067221129,5.10697183675 C 5.0295016312,5.20458556629 4.98242757031,5.25609339691 4.93555613542,5.31936297483 C 4.68558057332,7.78644452161 4.47318457747,10.2204466826 4.22169854426,12.6073173053 C 4.15256279641,13.5182981259 3.96139198476,14.1159295208 3.53938922221,14.6384485132 C 3.11901989514,15.1900579698 2.57703700596,15.4510540134 1.92690434986,15.4509549831 C 1.41717746788,15.4508628343 1.12215098673,15.3874263112 0.856374739946,15.2145035361 C 0.546966224254,15.0324919764 0.384206994713,14.8293432389 0.310033164264,14.6065837984 C 0.22692353958,14.3918673639 0.304095297397,14.0916580502 0.389308779777,13.7430308108 C 0.481615229786,13.4324212317 0.560739889086,13.2373282556 0.629582113863,13.2373269966 C 0.765974334718,13.2373828066 0.894050143004,13.2373645341 1.03398068929,13.2373647421 C 1.19309515441,13.2522322658 1.37442471767,13.4495540831 1.49643193865,13.4951193194 C 1.63473959947,13.5566440161 1.82142596626,13.6964089211 2.00945994938,13.8057085137 C 2.36937976563,13.8057295438 2.58724414492,13.8929645178 2.88396080518,13.8930157951 C 3.1864041307,13.8930518786 3.3571062752,13.7445096681 3.46720643276,13.3855826864 C 3.58173032785,13.0148571441 3.64663295382,12.5511837313 3.66681624325,12.1343841562 C 3.70344867678,11.6467194865 3.86176317306,9.47306493021 3.88642403045,9.06825295187 C 3.90079710474,8.8550481955 3.99362794896,6.9691764275 4.09067442855,5.64140392937 C 4.08908682437,5.48830676176 4.06805655481,5.38182937451 3.70345795275,5.34693192787 C 3.52823031069,5.32476113647 3.43769849213,5.24420036286 3.07182873161,5.24410665834 C 3.06296671861,5.23614216091 3.03988292934,5.14405376704 3.01427225517,5.0802680725 C 3.02702646078,4.9562336752 3.03072500676,4.75339444967 3.0377293148,4.54420479627" fill="none" stroke="#000000" stroke-width="0.0160710326352"></path>
</svg>