<svg baseProfile="full" height="600px" version="1.1" viewBox="0.276484536941 -2.33548097704 8.76805548199 18.2316688108" width="289px" xmlns="http://www.w3.org/2000/svg" xmlns:ev="http://www.w3.org/2001/xml-events" xmlns:xlink="http://www.w3.org/1999/xlink">
    <defs></defs>
    <path d="M 1.2280445155,4.49864672374 C 1.67037329639,4.41434408974 2.0708102044,4.34479382139 2.54682639803,4.2838252249 C 2.54679291766,3.9438095751 2.54654203132,3.63118589547 2.54646686952,3.29806888726 C 2.54644128512,2.35780472185 2.75293917785,1.6384611788 3.18472619186,1.01329458382 C 3.56423802505,0.406538552306 4.02275790106,-0.0202666458863 4.67183227668,-0.340022051074 C 5.22164751421,-0.6651060519 5.78417737613,-0.809832074978 6.51788313518,-0.80985007291 C 6.83977527748,-0.809853950766 7.16519878636,-0.773064820346 7.53584824334,-0.698253741738 C 7.85711841117,-0.623902386305 8.06996543537,-0.556822834787 8.30754355918,-0.453499628481 C 8.22649749945,0.189464555803 8.1554022787,0.735311971727 8.06013662944,1.34566764695 C 7.71264387499,1.34568532929 7.41397799383,1.34575415161 7.08173779975,1.34584687223 C 6.69362635742,1.03745366206 6.3270559145,0.871236677664 6.16566029022,0.532030756968 C 5.97494461964,0.264048482674 5.83488644491,0.0785804050147 5.73324211518,-0.038339261514 C 5.61977272312,-0.135722634 5.23962589185,0.138136092025 4.97310726921,0.637604508001 C 4.73201732914,1.0849201711 4.58477245848,1.73936629613 4.58476056011,2.72274703105 C 4.58475888881,3.09061009009 4.58447291643,3.44058600386 4.58448119561,3.83983069976 C 5.44074221055,3.8398355364 6.25374354521,3.83987073362 7.21824391286,3.83987926778 C 7.21821944289,4.19029145774 7.21808799573,4.49554138717 7.21808767325,4.85390829381 C 6.35799670225,4.85391561125 5.57979202276,4.8539594615 4.57523477083,4.85395661842 C 4.57516018759,6.80561665546 4.57497811452,8.70640102874 4.57497123743,10.7113687183 C 4.57489413655,11.1870198334 4.61481750271,11.6023714925 4.42303605638,11.9642158533 C 4.2919306036,12.3239533986 4.12845790646,12.5970382775 3.9172886189,12.8125647242 C 3.74495822451,13.0059463168 3.55627659223,13.1641291017 3.65188273302,13.2084311555 C 3.71080341823,13.2570387545 3.79330329484,13.2533061202 4.01377035565,13.2713956829 C 4.20997859425,13.3000632502 4.45075273401,13.3286978822 4.63278548307,13.3285913027 C 4.68997912369,13.3286129188 4.84644413254,13.3864197012 4.84549810351,13.5715056684 C 4.82957904213,13.8446171906 4.81143962392,14.0925735858 4.79241933474,14.3704836693 C 3.50205876478,14.3704466877 2.33888902315,14.3706111317 1.02138056406,14.3705379167 C 1.02137216925,14.0730700889 1.01353525649,13.8347968856 1.01348099669,13.5054583946 C 1.39041445216,13.4778153529 1.68310031851,13.4489582168 1.98661432227,13.3921493092 C 2.24729648789,13.3182776222 2.3906562384,13.2615809167 2.39131513381,12.9779527807 C 2.42505495021,12.7401310528 2.44898555199,12.4790104354 2.45010056909,12.1262471402 C 2.60343871828,9.71660396697 2.60330901932,7.67913195731 2.60328974861,5.58756563308 C 2.08654978412,5.58757790749 1.57242485422,5.58777442709 1.03464486736,5.58767135273 C 1.05174755032,5.27501050959 1.07214478317,5.04004339705 1.09077430057,4.74422393571 C 1.59510451841,4.60277007352 2.04833266425,4.47781813721 2.51686027932,4.33660996537" fill="none" stroke="#000000" stroke-width="0.0151804070032"></path>
</svg>