<?xml version="1.0" ?>
<svg baseProfile="full" height="600px" version="1.1" viewBox="-3.53231870104 -0.505466489769 11.7206026647 18.2779828992" width="385px" xmlns="http://www.w3.org/2000/svg" xmlns:ev="http://www.w3.org/2001/xml-events" xmlns:xlink="http://www.w3.org/1999/xlink">
	<defs/>
	<path d="M -0.000237381538682,1.0935595749 C 0.1803219556,1.07515800242 0.323115357676,1.02398614828 0.562666544238,1.02404003183 C 1.1225431054,1.02392978076 1.12276689595,2.74821204547 1.12237185385,4.09600157146 C 1.12170460558,5.09846169356 1.11950495321,6.2027464569 1.11862568732,7.29285878543 C 1.96902506228,6.40155393485 2.79630129214,5.94324187044 3.81379692431,5.94295763161 C 4.7599613535,5.94301018623 5.58451144572,6.37342072038 6.19178132887,7.29749912528 C 6.85497252818,8.19091266898 7.2053894269,9.50903445987 7.2052257802,11.0487687042 C 7.20519589478,12.191723769 6.99823041851,13.1927081993 6.5847915321,14.014715617 C 6.13514067823,14.8277106932 5.52481724912,15.3835209062 4.80006112749,15.7507623485 C 4.02137621337,16.1104089072 3.18901594573,16.2429801574 2.28423120672,16.2430099303 C 1.37568958694,16.2428558607 0.412561973872,15.954649492 -0.174851277528,15.8340600345 C -0.824887493311,15.6815708194 -1.24208171075,15.4627014611 -1.28125184557,15.3729053054 C -1.28083602497,11.1775727783 -1.28070397329,6.65373330453 -1.28019406225,2.31082873682 C -1.62928717162,2.1658327792 -2.13318877246,2.04344872275 -2.54926057483,2.04337301783" fill="none" stroke="#000000" stroke-width="0.015218969941"/>
	<path d="M 3.22697600241,10.8217272801 C 3.23728968746,10.8216080851 3.18268174103,10.8518199156 3.14597265593,10.9907045643 C 3.10663949869,11.1192118059 3.04930950872,11.2787702362 2.98020358554,11.4866850207 C 2.90559026769,11.6808641831 2.83387874237,11.9020165781 2.76449053905,12.1236015836 C 2.53108330986,12.7204965631 2.34009473941,13.0562579314 2.28452496774,13.2228570263 C 2.2848190237,14.5848858635 2.28724646896,14.6179412733 2.42300509244,14.6123692257 C 2.79104777008,14.6124888734 3.02473078996,14.3555403129 3.28122364312,13.8352568523 C 3.53788085609,13.3395636455 3.72238156527,12.7001705543 3.99810862869,12.0049357788 C 4.26607349843,11.3220211045 4.33548494011,10.4931504504 4.14429165751,9.92681113639 C 3.94855757385,9.34492782511 3.58461775213,8.95699817695 2.87793632179,8.95708394936 C 2.23754932314,8.95707642831 1.65334226519,9.24322154917 1.00469757944,9.58910947837 C 1.00485832092,11.1849340776 1.00507658825,12.788670359 1.00500283502,14.2538967709" fill="none" stroke="#000000" stroke-width="0.015218969941"/>
</svg>
