<?xml version="1.0" ?>
<svg baseProfile="full" height="600px" version="1.1" viewBox="-1.46581634732 -1.93384369022 10.318279669 18.1080494447" width="342px" xmlns="http://www.w3.org/2000/svg" xmlns:ev="http://www.w3.org/2001/xml-events" xmlns:xlink="http://www.w3.org/1999/xlink">
	<defs/>
	<path d="M 0.000151701511641,0.26715047461 C 0.391273387017,0.217939967188 0.390772115214,-0.116425847737 0.357917360736,-0.150226390091 C 0.655354343129,-0.150351045071 1.16073354311,-0.149159156601 1.65227701492,-0.149503499852 C 1.65214723336,1.85266563238 1.65217518413,3.70875474752 1.65217682586,5.61212858499 C 2.26905551419,4.90428957285 2.92505052552,4.5110499853 3.47124054895,4.20549380721 C 4.00681230292,3.91585436405 4.53607138858,4.10817697586 5.00812053547,4.10798524621 C 5.61428177223,4.10783718641 6.12072259054,4.28397254761 6.56216889486,4.64695032056 C 6.99778160319,5.01840956624 7.34520062671,5.55075039084 7.59488776193,6.22785516198 C 7.84324365721,6.92308797057 7.98634737597,7.73389001306 7.98632437526,8.63830359395 C 7.98638998783,9.44191594537 7.85918638921,10.2041935485 7.61638391829,10.8799880307 C 7.36987727202,11.5897507828 7.02708672798,12.1666709345 6.62049003757,12.6340873998 C 6.20809307016,13.1164150697 5.72345876015,13.4523737591 5.20443701065,13.6796330374 C 4.67837267435,13.9156050247 4.10623847759,13.9972711217 3.49832933462,13.997329037 C 2.87870799816,13.997128145 1.9879769615,13.7590278547 1.21306734598,13.3141236466 C 0.397639744646,12.8404979866 0.2040346644,12.6387507629 0.203770533925,11.8903658699 C 0.203760741374,7.88943794483 0.204353099493,3.9952066254 0.204226940878,0.0406537365343 C 0.204087423591,-0.348967402038 -0.194288594218,-0.418550929782 -0.599677426311,-0.418557287897" fill="none" stroke="#000000" stroke-width="0.01507747664"/>
	<path d="M 4.29875370539,8.68474527878 C 4.19636512227,8.74650204611 4.12809886463,8.74156680248 3.99248837359,8.88566098652 C 3.87505043722,9.0133222594 3.76954851724,9.14894778571 3.66425583191,9.31639910779 C 3.55808604188,9.50222134135 3.4778029216,9.7028010591 3.45056444644,9.73237480513 C 3.24189293623,9.96821818046 3.09537843108,11.6651460855 3.07770233653,11.6574358061 C 3.07803853566,12.8955464676 2.98810431326,14.4448461846 3.0401337702,14.48500956 C 3.09514411131,14.6935262323 3.37037329713,14.6560435496 3.66061933676,14.6566772407 C 4.08661179581,14.6564855465 4.3996159021,14.4806427398 4.62413955072,14.2442383358 C 4.83973303774,13.9917856047 4.97793147305,13.684474189 5.01916743779,13.0950985143 C 5.01902151088,12.076649327 4.97998849655,11.2882253119 4.97958778882,10.663657088 C 4.97981412213,9.79032172651 4.60521898668,9.0752057621 4.16640556853,8.63985024781 C 3.53638071816,8.63897311663 2.94014055531,8.65261233853 2.29270399611,8.8990869026" fill="none" stroke="#000000" stroke-width="0.01507747664"/>
</svg>
