<?xml version="1.0" ?>
<svg baseProfile="full" height="600px" version="1.1" viewBox="-0.826897508878 -1.23726931041 9.86121751916 14.7856710519" width="401px" xmlns="http://www.w3.org/2000/svg" xmlns:ev="http://www.w3.org/2001/xml-events" xmlns:xlink="http://www.w3.org/1999/xlink">
	<defs/>
	<path d="M 2.46222662926,4.5961561203 C 2.46898568282,4.5961561203 2.47574473638,4.5961561203 2.48250378994,4.5961561203 C 3.22117181448,3.994117558 4.03515501646,3.69333967566 4.92445333628,3.69333967566 C 5.92286213068,3.69333967566 6.71994765429,4.08343362808 7.31474437146,4.86265593767 C 7.91002388624,5.64284384251 8.20742224483,6.62049263716 8.20742224483,7.7970507741 C 8.20742224483,9.12375634909 7.84822683362,10.2081015706 7.13031880883,11.0491209626 C 6.41192798642,11.8906231523 5.37586169271,12.3111328483 4.02163713006,12.3111328483 C 3.18737678556,12.3111328483 2.25704132346,12.1812624633 1.23111354141,11.9215216935 C 1.23111354141,8.32377412915 1.23111354141,4.72602656484 1.23111354141,1.12876155972 C 0.820742446464,1.12876155972 0.410371351521,1.12876155972 2.56579369307e-07,1.12876155972 C 2.56579369307e-07,0.752185702324 2.56579369307e-07,0.376092642546 2.56579369307e-07,-4.17232513428e-07 C 0.820742446464,-4.17232513428e-07 1.64148463635,-4.17232513428e-07 2.46222682623,-4.17232513428e-07 C 2.46222682623,1.53189080954 2.46222682623,3.06426483393 2.46222682623,4.5961560607" fill="none" stroke="#000000" stroke-width="0.0123111332655"/>
	<path d="M 2.46222682623,11.0592593551 C 2.95467214612,11.1688525751 3.44711746601,11.2238905802 3.9395627859,11.2238905802 C 4.93797158031,11.2238905802 5.67663960485,10.9501489177 6.15556682972,10.4031483904 C 6.6344940546,9.85566506535 6.87395766703,9.04844097048 6.87395766703,7.98195890337 C 6.87395766703,7.010586299 6.66490979819,6.24101982266 6.24777962593,5.67325929552 C 5.83064945368,5.10549876839 5.25275035528,4.82210130244 4.51408233074,4.82210130244 C 3.7754143062,4.82210130244 3.09130151896,5.10211924464 2.46222676663,5.66312066466 C 2.46222676663,7.46199444681 2.46222676663,9.26086822897 2.46222676663,11.0592592135" fill="none" stroke="#000000" stroke-width="0.0123111332655"/>
</svg>
