<?xml version="1.0" ?>
<svg baseProfile="full" height="600px" version="1.1" viewBox="-0.578261256784 -1.23726905417 6.8775783416 14.785671195" width="280px" xmlns="http://www.w3.org/2000/svg" xmlns:ev="http://www.w3.org/2001/xml-events" xmlns:xlink="http://www.w3.org/1999/xlink">
	<defs/>
	<path d="M 0.0,0.0 C 0.20228882134,0.0 0.404577642679,0.0 0.606383666396,0.0 C 0.606383666396,1.69410848618 0.606383666396,3.38773429394 0.606383666396,5.08184278011 C 1.30594567955,4.30599999428 2.04895876348,3.91783720255 2.83590565622,3.91783720255 C 3.43697862327,3.91783720255 4.03805159032,4.18578541279 4.63912455738,4.72119903564 C 4.95631729066,4.99445790052 5.2155752629,5.40965691209 5.41786408424,5.96727880836 C 5.62015290558,6.524417907 5.72105591744,7.17763212323 5.72105591744,7.92595592141 C 5.72105591744,8.67476251721 5.61194548011,9.32218328118 5.39324180782,9.86870101094 C 5.17453813553,10.4152187407 4.89596858621,10.8410390913 4.55705034733,11.1471276581 C 4.21861487627,11.4532162249 3.78410428762,11.6965421438 3.25400137901,11.876622647 C 2.7238984704,12.057185933 2.21310716867,12.1745037958 1.72114464641,12.2290590145 C 1.22966489196,12.2836142331 0.655628114939,12.3111332357 -8.94069671631e-08,12.3111332357 C -8.94069671631e-08,8.20742210746 -8.94069671631e-08,4.10371097922 -8.94069671631e-08,-1.49011611938e-07" fill="none" stroke="#000000" stroke-width="0.0123111333847"/>
	<path d="M 5.11467257142,8.06548199058 C 5.11467257142,6.95072099566 4.90127959847,6.08169981837 4.47545924783,5.45890131593 C 4.04915609956,4.83610281348 3.49732765555,4.52470356226 2.8194911778,4.52470356226 C 2.14213749766,4.52470356226 1.40443512797,4.98335361481 0.606384009123,5.90161931515 C 0.606384009123,7.83036351204 0.606384009123,9.75910770893 0.606384009123,11.6883347034 C 3.61174890399,11.6883347034 5.11467263103,10.4803953171 5.11467263103,8.06548213959" fill="none" stroke="#000000" stroke-width="0.0123111333847"/>
</svg>
