<?xml version="1.0" ?>
<svg baseProfile="full" height="600px" version="1.1" viewBox="-0.273089176068 1.9718753805 5.37855176122 9.57598080003" width="338px" xmlns="http://www.w3.org/2000/svg" xmlns:ev="http://www.w3.org/2001/xml-events" xmlns:xlink="http://www.w3.org/1999/xlink">
	<defs/>
	<path d="M 3.62539739665,5.1651600911 C 3.62537750389,5.10470293972 3.56536622506,5.08860809307 3.56536681947,4.73564968209 C 3.56544201805,4.39814437131 3.55091751537,4.06347400646 3.55086907119,3.74288258652 C 3.55102334534,3.58985412816 3.61475166296,3.22190246682 3.6146657328,3.19335967253 C 3.48189543289,3.19346384719 3.43244236064,3.19360296614 3.39990129796,3.19366132503 C 3.44154654545,3.1936128901 3.46760643561,3.18959046273 3.44758037393,3.18963357514 C 3.43396455523,3.17784583277 3.44714829613,3.19676997034 3.41336135481,3.19682209797 C 3.46183339794,3.19678506612 3.49677986939,3.1894323028 3.4602612472,3.18950887445 C 3.49881048788,3.18942353535 3.5357930838,3.16397599909 3.52352578853,3.14012561772 C 3.56648547863,3.1400907562 3.62726180916,3.06740219154 3.6341232784,3.0381412451 C 3.65470711662,3.00484848217 3.72957060262,2.93637763158 3.74589946455,2.91829859101 C 3.82658357507,2.91825827138 3.93840233571,2.85897647889 3.94584792395,2.84494812528 C 4.02397352,2.84485067725 4.11462634344,2.80243861228 4.13665447672,2.80100734632 C 4.17329140295,2.80096478028 4.24720046957,2.78840955267 4.27374271591,2.78663775303 C 4.31600217809,2.78657990619 4.40107857724,2.77124029602 4.42227553491,2.77340536397 C 4.46293159489,2.77194110334 4.52786033516,2.77870175179 4.54149137166,2.77900977046 C 4.56905415569,2.77906242524 4.61149713685,2.79762644832 4.61867028716,2.80342388525 C 4.63661722521,2.80738581064 4.6456399491,2.83182893599 4.65020339572,2.83574569923 C 4.6616028604,2.83936231512 4.64270550207,2.84678424265 4.64790875939,2.8575013189 C 4.65080205266,2.86117351147 4.62684828889,2.86922723054 4.62740378614,2.88756196759 C 4.62206575294,2.89822931587 4.58846889084,2.90557821187 4.52943057214,2.92129805776 C 4.45824347084,2.92287337453 4.36981427317,2.91984842856 4.25509249811,2.92401503351 C 4.11801510697,2.91685102413 3.97551145797,2.90502190589 3.809981283,2.90084845851 C 3.6265082175,2.89315602415 3.45245854204,2.88861098419 3.26891682689,2.89339549047 C 3.07444756871,2.90782790677 2.90622529035,2.94522829399 2.74946158772,2.99812069208 C 2.59091737514,3.05633417935 2.45500072484,3.14059807778 2.34468418752,3.24668538243 C 2.24088290726,3.34264629007 2.15007660185,3.45948975206 2.06588483249,3.6116787088 C 1.98740861212,3.75663300277 1.91880184059,3.9098382187 1.8451875711,4.09446919382 C 1.77996867543,4.26561354519 1.72207818573,4.44326289416 1.65636910891,4.64114359439 C 1.60153077935,4.82396415294 1.57139003669,5.03894943417 1.57132910523,5.42692187847 C 1.57120040417,5.71028900565 1.57108920252,6.00560698331 1.57101457152,6.28084621251 C 1.57091953008,6.38480684579 1.55287300571,6.4526324761 1.49973430633,6.45262751768 C 1.51352689004,6.4525949956 1.57959797568,6.45267565678 1.53422867841,6.45272103592 C 1.59666833616,6.45266851484 1.70235376394,6.45279982338 1.67780855073,6.45280731244 C 1.78552664592,6.45271604922 1.88558489605,6.4991983999 1.87895758738,6.49922334871 C 1.90244226259,6.51745351685 1.91174056855,6.54434516562 1.90291154672,6.54436954636 C 1.90685522937,6.55418082479 1.9021807379,6.57214385051 1.90309498735,6.57216982316 C 1.91016749615,6.57659294415 1.94881490568,6.66223421652 1.96088268372,6.66226211502 C 1.97664388033,6.67826484456 1.99242493647,6.72341015129 1.97978010537,6.72338118005 C 1.97974156491,6.73333468914 1.97197608227,6.74890788246 1.95779565206,6.74888296208 C 1.95135008074,6.75428448726 1.93772261493,6.76127540336 1.93763088388,6.89746250973 C 1.94264672649,7.00350347922 1.94453729549,7.11226292715 1.9444689844,7.34867069886 C 1.94438398808,7.47171189652 1.95401684467,7.63573484883 1.95397115419,7.89791610108 C 1.95384669327,7.99954482929 1.93693246902,8.09383431093 1.93688223706,8.37225219623 C 1.93678408364,8.48908209816 1.91020322094,8.60149128751 1.91016253583,8.8791749926 C 1.91004884351,8.99206201003 1.8908395629,9.10132497565 1.83608280975,9.10127043747 C 1.79323582459,9.10614421847 1.73883755241,9.10071975062 1.67903730009,9.10069731493 C 1.63341839719,9.10235702547 1.56668563295,9.12144755314 1.56660842918,9.31973205994 C 1.59249785751,9.49739052842 1.52366081089,9.64607562612 1.49803486861,9.64605203384 C 1.37616815813,9.6459960781 1.31666686035,9.64603064512 1.30429784417,9.64599751252 C 1.17221797466,9.6460075135 1.15294311218,9.635828819 1.15290829418,9.88936468574 C 1.13497839746,10.0034378729 1.13965597953,10.1672058663 1.10231216084,10.1672190288 C 1.07632201742,10.1728441343 1.02902398835,10.1470586285 1.02760645218,10.1470536757 C 1.02283969784,10.1450303553 0.993873235601,10.1179079061 0.993825733344,10.2377370467 C 0.948862377237,10.379602479 0.850001025628,10.4348721301 0.812900449763,10.4349060696 C 0.67750072075,10.4348916918 0.598518255781,10.3874988765 0.583149249348,10.3458624505 C 0.566519167888,10.3096821778 0.551316079366,10.2427533366 0.551267354119,10.3753106691 C 0.548702447743,10.4744439892 0.553077746251,10.5533808492 0.553060906398,10.635385374 C 0.55200323292,10.6972324982 0.542891646893,10.7419175975 0.54607677848,10.741916519 C 0.546446613979,10.7413118349 0.490552891058,10.71211322 0.490495258201,10.7343535924 C 0.479444841113,10.7492570149 0.476396679137,10.7568419201 0.464529183883,10.718694791 C 0.30364207663,10.7187884324 0.255790156502,10.6488726386 0.23625025079,10.5930003845 C 0.219347580526,10.5425693229 0.226533436872,10.4511636779 0.203964143716,10.3663086579 C 0.185949103631,10.2968711317 0.200112613574,10.1780861825 0.181855479911,10.0557557107 C 0.16823609332,9.95075470066 0.199814544715,9.8165887729 0.19978902795,9.8025534623 C 0.207786535179,9.77816902145 0.234269478625,9.63891640349 0.234219993025,9.6326881088 C 0.23701513701,9.59818287191 0.252491544493,9.49789857861 0.243546990238,9.36333975193 C 0.238425469052,9.25156575438 0.257558858048,9.14596639571 0.257484350882,9.1025166176 C 0.262179617833,9.05814381313 0.275458753172,8.95558487993 0.268801975127,8.82828522843 C 0.268903576293,8.6973908506 0.268696441334,8.62116618079 0.26454851266,8.46853397411 C 0.264662268365,8.36407228184 0.280692928264,8.24142783505 0.280644009778,8.17226371539 C 0.285262097562,8.10528686267 0.285073446256,8.05491219085 0.285010027562,8.05569276397 C 0.285015443997,8.04451849215 0.286492327769,8.04484043663 0.286456184875,8.03838397396 C 0.287547117978,8.01816926358 0.280007833563,7.92911492495 0.279919212945,7.88910120187 C 0.278587904437,7.84046655727 0.28389801891,7.70979176296 0.270619878224,7.57382094694 C 0.271688724314,7.44593992663 0.286616320167,7.30573099686 0.286543860048,7.17050990296 C 0.286661796903,7.19184965288 0.28650069556,7.11220244711 0.286408562714,7.00685061162 C 0.286531013981,6.9223751763 0.286397873401,6.83268171197 0.286341531998,6.7340821216 C 0.2869714418,6.65642785674 0.286835585483,6.59202807044 0.28674279433,6.57872135585 C 0.286070174831,6.55932128636 0.285948415784,6.4852647057 0.285855120516,6.43876360191 C 0.284748300679,6.39118386266 0.287818820451,6.33993363959 0.275523325663,6.19979683144 C 0.266405822013,6.02475476844 0.28637394612,5.87995823307 0.286281118354,5.75550903214 C 0.286387733586,5.5998462571 0.28621833883,5.50768838657 0.286133596392,5.49265533054 C 0.287068591463,5.47150552572 0.29646777642,5.37172057779 0.296376762412,5.34255330192 C 0.295770504245,5.30263639914 0.334935982445,5.27596293131 0.33489097766,5.25255162382 C 0.357193992654,5.16502207631 0.363262271689,5.14845679627 0.363190436101,5.04191848563" fill="none" stroke="#000000" stroke-width="0.0079733395504"/>
</svg>
