<?xml version="1.0" ?>
<svg baseProfile="full" height="600px" version="1.1" viewBox="-1.05111743323 -1.59028804594 12.3062135324 17.1258407019" width="432px" xmlns="http://www.w3.org/2000/svg" xmlns:ev="http://www.w3.org/2001/xml-events" xmlns:xlink="http://www.w3.org/1999/xlink">
	<defs/>
	<path d="M 1.48754497786e-05,5.14551741035 C -1.14274753287e-05,5.03042539359 -0.0196152014269,4.95165450276 -0.0196580739157,4.80103557707 C -0.0197426513278,4.61979302169 0.102773362354,4.52566985191 0.49751757975,4.52564283862 C 1.08368020649,4.52557415974 1.39479749794,4.52950097753 1.85430213209,4.52946317413 C 2.19565277691,4.52938488552 2.52002360816,4.52937063914 2.5200520157,4.26115137678 C 2.52001119022,2.99664813619 2.926615212,1.9077835713 3.71885767941,1.06255215746 C 4.54132756952,0.244043711241 5.58272645239,-0.157103564922 7.11822602514,-0.157193132542 C 8.1289458013,-0.157204914682 9.04359361891,0.123544078477 9.72752932076,0.677422087796 C 9.92710109417,0.811501901753 10.2235767132,1.28676707686 10.2236367836,1.72387022913 C 10.2233994158,1.95225235463 10.1632510873,2.16049310208 10.0075744839,2.3432889694 C 9.84125863035,2.48896890522 9.63622207959,2.56251410783 9.37991555054,2.56242156101 C 9.21985000391,2.56235952259 9.0146254452,2.48563482941 8.84018965085,2.30416845859 C 8.67288988848,2.14785734893 8.54400905986,1.9624423045 8.5440425004,1.68597784222 C 8.54403760928,1.19063928307 8.48104143786,0.919275220043 8.36835213649,0.687113265998 C 8.05392884361,0.42971874357 7.58009462702,0.253683071143 6.99725227701,0.253654695813 C 6.19198601591,0.253749279012 5.63277082789,0.461793882479 5.19671525705,0.879740876784 C 4.76958074319,1.25666461669 4.56812048602,1.90943614923 4.56809688625,2.81670264684 C 4.56806127214,3.33370040142 4.5680365563,4.02026299917 4.56802858262,4.75317261898 C 5.71566082387,4.7531278535 6.83004499822,4.75316191192 8.01962055116,4.75312933935 C 8.16154868751,4.75315263776 8.30995809882,4.83925413994 8.42665957509,4.95845255164 C 8.53311624973,5.06805923489 8.57730051353,5.21507306305 8.5772752208,5.35780216662 C 8.5771597131,5.42650657801 8.50009104897,5.55891594199 8.34280991841,5.60542757717 C 8.18951280702,5.66737504212 7.99987024356,5.70895964933 7.81656559099,5.70898965415 C 6.66069872965,5.70894014745 5.54061825861,5.70898385027 4.4579068004,5.70905966026 C 4.45788114376,8.08209962113 4.4577764256,10.4651772426 4.45778795787,12.9043516563 C 4.45773662656,13.2898380504 4.47635771363,13.5459040747 4.34028819233,13.7780526624 C 4.20784011512,13.9908215897 4.05841283529,14.1025091828 3.84776151209,14.1024577252 C 3.44374918967,14.1024112706 3.26278458565,14.0477563483 3.10999344318,14.0477620277 C 2.9430515471,14.0308064862 2.86632587045,13.9661231904 2.84236733645,13.9050803787 C 2.81197797723,13.8194422505 2.83056955441,13.6146950803 2.83159270737,13.4718832008 C 2.83157923128,11.1887520782 2.83853685446,11.0141311071 2.83854942579,8.85705689408 C 2.36083312888,8.85713483531 1.91837014813,8.85725427666 1.44619112272,8.85715952597 C 1.16624419946,8.85728429946 1.01846911568,8.82795673552 0.877210801431,8.72302416655 C 0.747545337268,8.60413616094 0.673353521117,8.53297201487 0.673313789357,8.28532756063 C 0.67327978096,8.05687215122 0.716014172947,7.91183582636 0.808290105379,7.73015723321 C 0.927705247021,7.53628554138 1.06017171226,7.48330540526 1.29067011557,7.48327662792 C 1.72219337902,7.48317454594 2.08496968827,7.4832816251 2.4462108501,7.48319828871 C 2.82567091665,7.459468983 2.99133760116,7.45939549788 2.9913135144,7.22755418702" fill="none" stroke="#000000" stroke-width="0.0142596508759"/>
</svg>
