<?xml version="1.0" ?>
<svg baseProfile="full" height="600px" version="1.1" viewBox="-1.06003135786 -1.62977656232 12.6392821752 19.4762343797" width="390px" xmlns="http://www.w3.org/2000/svg" xmlns:ev="http://www.w3.org/2001/xml-events" xmlns:xlink="http://www.w3.org/1999/xlink">
	<defs/>
	<path d="M 10.5192203522,0.640399873257 C 10.4486300945,0.710990130901 10.3735882044,0.793027453125 10.2953665629,0.885239958763 C 10.2171449214,0.978088408709 10.121116735,1.02451263368 10.0072819963,1.02451263368 C 9.93605578691,1.02451263368 9.86482957751,1.00670608133 9.79423931986,0.97109297663 C 9.72301311046,0.935479871929 9.65178690106,0.903046511114 9.58056069165,0.875064786524 C 9.58056069165,0.803838577121 9.57356526051,0.743423491716 9.55957439821,0.693183574826 C 9.54494758788,0.643579609692 9.53795215674,0.583164524287 9.53795215674,0.511938314885 C 9.53795215674,0.355495031923 9.58056069352,0.270277958363 9.66577776708,0.256287096068 C 9.75163078494,0.241660285741 9.82222104259,0.185060888529 9.87945638411,0.0852170065045 C 9.99329112284,0.0922124376521 10.1071258616,0.0998438168317 10.2209606003,0.106839247979 C 10.334795339,0.220673986711 10.3952104244,0.309706741013 10.4022058556,0.373301566578 C 10.4092012867,0.437532343902 10.4486300796,0.526565098204 10.5192203373,0.640399836935" fill="none" stroke="#000000" stroke-width="0.0162166814152"/>
	<path d="M 1.06712053716,3.98993935529 C 1.0385028664,4.03254789207 1.00988519564,4.08278780896 0.981267524883,4.13938720617 C 0.953285800293,4.19662254769 0.917672695592,4.24622651283 0.875064158812,4.28883504961 C 0.80383794941,4.3028259119 0.739607172087,4.31745272223 0.683007774875,4.33144358452 C 0.625772433355,4.34607039485 0.56217760779,4.353065826 0.490951398388,4.353065826 C 0.391107516363,4.353065826 0.305890442804,4.32444815524 0.234664233401,4.26784875803 C 0.206046562642,4.21061341651 0.174249149859,4.1540140193 0.138636045158,4.09677867778 C 0.103022940457,4.04017928056 0.0852163881063,3.97594850324 0.0852163881063,3.90472229384 C 0.0852163881063,3.87610462308 0.0998431984335,3.81950522587 0.127824923024,3.73428815231 C 0.185060264543,3.67705281079 0.248655090109,3.63444427401 0.319881299511,3.60582660325 C 0.391107508913,3.57784487866 0.455338286236,3.52760496177 0.511937683448,3.45701470412 C 0.611781565472,3.48499642871 0.690003206953,3.51742978953 0.746602604166,3.55304289423 C 0.803837945685,3.5880200509 0.875064155087,3.62744884379 0.960281228647,3.67005738057 C 0.974272090942,3.74128358997 1.00988519564,3.84812289663 1.06712053716,3.98993936367" fill="none" stroke="#000000" stroke-width="0.0162166814152"/>
	<path d="M 8.74873970449,0.405734928325 C 8.74873970449,0.462334325537 8.72012203373,0.518933722749 8.66288669221,0.576169064268 C 8.62027815543,0.661386137828 8.5668585021,0.739607779309 8.50326367654,0.810833988711 C 8.43903289922,0.882060198113 8.35699557699,0.917673302814 8.25778764673,0.917673302814 C 8.1935568694,0.917673302814 8.12996204384,0.917673302814 8.06573126651,0.917673302814 C 8.03711359575,0.860437961295 7.98750963062,0.796843135729 7.91628342122,0.725616926327 C 7.84505721182,0.654390716925 7.80944410712,0.583164507523 7.80944410712,0.511938298121 C 7.8520526439,0.419725792482 7.89466118068,0.326877342537 7.93790566549,0.234664836898 C 8.00849592313,0.178065439686 8.07654238865,0.138636646792 8.14013721421,0.117650352418 C 8.20436799154,0.0960281100124 8.26478307694,0.0565993171185 8.32201841846,-8.00937414169e-08 C 8.41041522846,0.0534195732325 8.49944798276,0.106839226559 8.58848073706,0.160258879885 C 8.58848073706,0.160258879885 8.64190039039,0.241660257801 8.74873969704,0.405734902248" fill="none" stroke="#000000" stroke-width="0.0162166814152"/>
	<path d="M 5.16389939934,0.469329727814 C 5.14927258901,0.540555937216 5.13146603666,0.600971022621 5.11047974229,0.650574987754 C 5.08885749988,0.700814904645 5.07868232764,0.76122999005 5.07868232764,0.832456199452 C 4.92160310782,0.931664129719 4.77978664078,0.981268094853 4.65132508613,0.981268094853 C 4.58073482849,0.953286370263 4.51268836297,0.924668699503 4.44909353741,0.896051028743 C 4.38486276008,0.867433357984 4.31745224632,0.832456201315 4.24622603692,0.789211716503 C 4.24622603692,0.725616890937 4.24622603692,0.661386113614 4.24622603692,0.597155336291 C 4.24622603692,0.469329733402 4.29583000205,0.326877314597 4.39567388408,0.170434031636 C 4.51650405489,0.127825494856 4.6373342257,0.0852169580758 4.75816439651,0.0426084212959 C 4.81539973803,0.14245230332 4.88281025179,0.216858249158 4.96103189327,0.266462214291 C 5.03925353475,0.316702131182 5.10666404851,0.384112644941 5.16389939003,0.4693297185" fill="none" stroke="#000000" stroke-width="0.0162166814152"/>
	<path d="M 0.938658682629,15.5762814321 C 0.924667820334,15.8465594389 0.817828513682,16.0602380522 0.618776701391,16.2166813351 C 0.533559627831,16.1600819379 0.433715745807,16.1524505587 0.319881007075,16.1950590955 C 0.234663933516,16.0888557332 0.149446859956,15.9820164265 0.064229786396,15.8751771199 C 0.064229786396,15.8325685831 0.064229786396,15.7899600463 0.064229786396,15.7473515095 C 0.064229786396,15.7047429727 0.0674095277209,15.6653141798 0.0744049588684,15.6297010751 C 0.0820363380481,15.5940879704 0.0852160793729,15.5552951256 0.0852160793729,15.5126865888 C 0.156442288775,15.4414603794 0.234663930256,15.3950361544 0.319881003816,15.3740498601 C 0.405098077375,15.3524276176 0.483955663163,15.3060033927 0.554545920808,15.235413135 C 0.696998339612,15.3060033927 0.77140428545,15.3664184781 0.779035664629,15.416658395 C 0.786031095777,15.4662623601 0.839450749103,15.5196820134 0.93865867937,15.5762814106" fill="none" stroke="#000000" stroke-width="0.0162166814152"/>
	<path d="M 3.07290121401,0.405734878965 C 3.05827440368,0.504942809232 3.03347242111,0.593975563534 2.99785931641,0.672197205015 C 2.96224621171,0.750418846495 2.92345336685,0.832456168719 2.88084483007,0.917673242278 C 2.76701009134,0.946290913038 2.68115707347,0.960281775333 2.62455767626,0.960281775333 C 2.55333146686,0.960281775333 2.45412353659,0.920852982439 2.32566198194,0.842631340958 C 2.19783637905,0.764409699477 2.13360560173,0.683008321561 2.13360560173,0.597155303694 C 2.13360560173,0.52656504605 2.14441672293,0.455338836648 2.16603896534,0.384112627245 C 2.18702525971,0.312886417843 2.1908409493,0.234664776362 2.17621413898,0.149447702803 C 2.26206715684,0.149447702803 2.34028879832,0.134820892476 2.41087905597,0.106839167885 C 2.48210526537,0.0782214971259 2.55333147477,0.0642306348309 2.62455768418,0.0642306348309 C 2.76701010298,0.0642306348309 2.85922260862,0.092212359421 2.9018311454,0.14944770094 C 2.94443968218,0.206047098152 3.0016750237,0.291900116019 3.0729012331,0.40573485475" fill="none" stroke="#000000" stroke-width="0.0162166814152"/>
	<path d="M 4.69456933346,7.89466174226 C 4.65132484864,8.02312329691 4.59854114335,8.1509488998 4.53431036603,8.27877450269 C 4.4700795887,8.40723605733 4.36006053817,8.4708308829 4.2036172552,8.4708308829 C 4.16100871842,8.44284915831 4.11458449345,8.41804717574 4.06498052832,8.39642493334 C 4.01474061143,8.37480269093 3.96195690613,8.36462751869 3.90472156461,8.36462751869 C 3.81950449105,8.26478363667 3.77689595427,8.14395346586 3.77689595427,8.00150104705 C 3.77689595427,7.95889251027 3.78389138542,7.92009966541 3.79788224772,7.88448656071 C 3.81250905804,7.84887345601 3.82649992034,7.81644009519 3.84049078263,7.7884583706 C 3.95432552136,7.7172321612 4.02555173077,7.66762819607 4.05416940153,7.63901052531 C 4.08278707229,7.61039285455 4.17499957792,7.58177518379 4.33144286089,7.5537934592 C 4.38867820241,7.61039285641 4.44909328781,7.66381250974 4.51268811338,7.71341647487 C 4.5769188907,7.76365639176 4.6373339761,7.82407147717 4.69456931762,7.89466173481" fill="none" stroke="#000000" stroke-width="0.0162166814152"/>
	<path d="M 1.08810660057,11.7783978684 C 1.07411573827,11.8782417504 1.05249349587,11.941836576 1.02451177128,11.9704542467 C 0.995894100517,11.9990719175 0.995894100517,12.0702981269 1.02451177128,12.1841328656 C 0.953285561875,12.1981237279 0.896050220355,12.2191100223 0.853441683576,12.2477276931 C 0.810833146796,12.2763453638 0.761229181662,12.3049630346 0.703993840143,12.3329447592 C 0.632767630741,12.3189538969 0.569172805175,12.3049630346 0.511937463656,12.2903362243 C 0.455338066444,12.276345362 0.391107289121,12.2693499308 0.319881079718,12.2693499308 C 0.291899355128,12.1981237214 0.256286250427,12.1307132076 0.213677713647,12.0664824303 C 0.170433228835,12.002251653 0.149446934462,11.9348411392 0.149446934462,11.8636149298 C 0.149446934462,11.8210063931 0.149446934462,11.7783978563 0.149446934462,11.7357893195 C 0.220673143864,11.5367375072 0.348498746753,11.4368936252 0.533559694886,11.4368936252 C 0.604785904288,11.4368936252 0.672196418047,11.4438890563 0.73642719537,11.4585158667 C 0.800022020936,11.472506729 0.867432534695,11.4795021601 0.938658744097,11.4795021601 C 0.967276414856,11.5367375016 0.992078397423,11.5901571549 1.01370063983,11.6397611201 C 1.0346869342,11.6893650852 1.05948891677,11.7357893102 1.08810658753,11.778397847" fill="none" stroke="#000000" stroke-width="0.0162166814152"/>
	<path d="M 1.13071512431,0.362490940839 C 1.05948891491,0.504943359643 1.02451175824,0.632768962532 1.02451175824,0.746603701264 C 0.935479003936,0.782216805965 0.846446249634,0.817829910666 0.757413495332,0.853443015367 C 0.757413495332,0.853443015367 0.675376173109,0.875065257773 0.511937465519,0.917673794553 C 0.398102726787,0.917673794553 0.309705916792,0.867433877662 0.245475139469,0.768225947395 C 0.181244362146,0.668382065371 0.149446949363,0.569174135104 0.149446949363,0.46933025308 C 0.149446949363,0.355495514348 0.188239794225,0.259467327967 0.266461435705,0.181245686486 C 0.344683077186,0.103024045005 0.440711263567,0.0642312001437 0.554546002299,0.0642312001437 C 0.611781343818,0.0642312001437 0.68300755322,0.0782220624387 0.76822462678,0.106839733198 C 0.810833163559,0.163439130411 0.867432560772,0.20604766719 0.938658770174,0.23466533795 C 1.00988497958,0.26328300871 1.0741157569,0.305891545489 1.13071515411,0.362490942702" fill="none" stroke="#000000" stroke-width="0.0162166814152"/>
	<path d="M 1.00288955122,9.64479284547 C 1.00288955122,9.74400077574 0.988898688927,9.84002896212 0.960281018168,9.93287741207 C 0.931663347408,10.0250899177 0.917672485113,10.1211181041 0.917672485113,10.2209619861 C 0.846446275711,10.2489437107 0.775220066309,10.2775613815 0.703993856907,10.3061790522 C 0.703993856907,10.3061790522 0.632767647505,10.3201699145 0.490951180458,10.3487875853 C 0.419724971056,10.3487875853 0.348498761654,10.3487875853 0.277272552252,10.3487875853 C 0.248654881492,10.2635705117 0.216857468709,10.1853488702 0.181244364008,10.1141226608 C 0.145631259307,10.0428964514 0.120829276741,9.96467480995 0.106838414446,9.87945773639 C 0.120829276741,9.85084006563 0.134820139036,9.82222239487 0.149446949363,9.79424067028 C 0.163437811658,9.76562299952 0.178064621985,9.73700532876 0.19205548428,9.708387658 C 0.178064621985,9.66577912122 0.170433242805,9.60917972401 0.170433242805,9.53795351461 C 0.298894797452,9.52396265231 0.440711264499,9.48834954761 0.59715454746,9.43111420609 C 0.668380756862,9.45973187685 0.736427222379,9.49534498155 0.800022047944,9.53795351833 C 0.864252825268,9.58056205511 0.931663339026,9.61617515981 1.00288954843,9.64479283057" fill="none" stroke="#000000" stroke-width="0.0162166814152"/>
	<path d="M 1.10972885508,6.20940021239 C 1.10972885508,6.22339107469 1.09891773388,6.24501331709 1.07729549147,6.27299504168 C 1.0563091971,6.30161271244 1.03150721453,6.3302303832 1.00288954377,6.35884805396 C 0.967276439071,6.39446115866 0.93166333437,6.43007426336 0.896050229669,6.46505142003 C 0.80383772403,6.46505142003 0.710989274085,6.46505142003 0.618776768446,6.46505142003 C 0.576168231666,6.46505142003 0.540555126965,6.47967823036 0.511937456205,6.50829590112 C 0.440711246803,6.4510605596 0.39110728167,6.41226771474 0.36248961091,6.39064547233 C 0.33450788632,6.36902322993 0.270277108997,6.34422124736 0.170433226973,6.31623952277 C 0.192055469379,6.2303865049 0.213677711785,6.14516943134 0.234664006159,6.05995235778 C 0.220673143864,6.03133468702 0.206046333537,6.00271701626 0.192055471241,5.97473529167 C 0.248654868454,5.88951821811 0.319881077856,5.81129657663 0.405098151416,5.74007036723 C 0.490951169282,5.66884415783 0.590159099549,5.63323105313 0.70399383828,5.63323105313 C 0.803837720305,5.63323105313 0.889054793864,5.68283501826 0.960281003267,5.78267890029 C 1.04549807683,5.81129657105 1.0919223018,5.84309398383 1.09891773295,5.87870708853 C 1.10591316409,5.91432019323 1.10972885368,6.02433924377 1.10972885368,6.2094001919" fill="none" stroke="#000000" stroke-width="0.0162166814152"/>
	<path d="M 1.08810661128,7.87367679179 C 1.01688040188,8.03012007475 0.95328557631,8.15794567764 0.896050234791,8.25778955966 C 0.839450837579,8.35699748993 0.710989282932,8.40723740682 0.511937470641,8.40723740682 C 0.440711261239,8.40723740682 0.370121003594,8.40723740682 0.298894794192,8.40723740682 C 0.298894794192,8.29340266809 0.270277123433,8.22599215433 0.21367772622,8.20436991192 C 0.156442384701,8.18274766952 0.127824713942,8.11533715576 0.127824713942,8.00150241703 C 0.127824713942,7.91628534347 0.149446956348,7.84187939763 0.192055493128,7.77764862031 C 0.234664029907,7.71341784298 0.270277134608,7.64600732923 0.298894805368,7.57478111982 C 0.341503342148,7.57478111982 0.384111878928,7.57478111982 0.426720415708,7.57478111982 C 0.455338086467,7.57478111982 0.483955757227,7.5716013785 0.511937481817,7.56396999932 C 0.540555152576,7.55697456817 0.569172823336,7.55379482685 0.597154547926,7.55379482685 C 0.640399032738,7.55379482685 0.683007569518,7.55379482685 0.725616106298,7.55379482685 C 0.846446277108,7.65999818919 0.967276447918,7.76683749584 1.08810661873,7.8736768025" fill="none" stroke="#000000" stroke-width="0.0162166814152"/>
	<path d="M 1.08810661873,13.6137461918 C 1.05948894797,13.7701894748 1.00288955076,13.8910196456 0.917672477197,13.9762367192 C 0.803837738466,14.018845256 0.703993856441,14.0404674984 0.618776782881,14.0404674984 C 0.490951179992,14.0404674984 0.394922993612,13.9978589616 0.330692216288,13.9120059437 C 0.266461438965,13.8267888702 0.220673162024,13.7275809399 0.192055491265,13.6137462012 C 0.263281700667,13.4712937823 0.384111871477,13.3148504994 0.554546018597,13.1437804154 C 0.625772227999,13.2150066248 0.690003005322,13.2436242956 0.746602402534,13.2296334333 C 0.803837744053,13.215006623 0.867432569619,13.2436242937 0.938658779021,13.3148505031 C 0.953285589349,13.3860767125 0.974271883722,13.4394963658 1.00288955448,13.4744735225 C 1.03150722524,13.5100866272 1.05948894983,13.5565108522 1.08810662059,13.6137461937" fill="none" stroke="#000000" stroke-width="0.0162166814152"/>
	<path d="M 0.938658777159,2.13360741502 C 0.938658777159,2.20483362442 0.931663346011,2.27987551456 0.917672483716,2.35809715604 C 0.903045673389,2.43631879753 0.896050242241,2.51072474336 0.896050242241,2.58195095276 C 0.853441705462,2.56796009047 0.789210928138,2.56032871129 0.703993854579,2.56032871129 C 0.647394457366,2.56032871129 0.583163680043,2.59594181599 0.511937470641,2.66716802539 C 0.284267993178,2.56796009513 0.113833846059,2.41851225169 -8.92672687769e-07,2.21882448765 C 0.0852161808871,2.14823423 0.163437822368,2.08400345268 0.23466403177,2.02740405547 C 0.305890241172,1.97016871395 0.377116450574,1.89894250454 0.448342659976,1.81372543098 C 0.562177398708,1.82771629328 0.661385328975,1.85633396404 0.746602402534,1.89894250082 C 0.832455420401,1.9415510376 0.896050245967,2.01977267908 0.938658782747,2.13360741781" fill="none" stroke="#000000" stroke-width="0.0162166814152"/>
	<path d="M 2.70977480104,8.08671906637 C 2.63854859164,8.17257208424 2.56032695016,8.25079372572 2.4751098766,8.32201993512 C 2.38989280304,8.39261019276 2.29004892102,8.42822329747 2.17621418228,8.42822329747 C 2.1336056455,8.42822329747 2.09481280064,8.42504355614 2.05919969594,8.41804812499 C 2.02358659124,8.41041674581 1.98415779835,8.40024157357 1.94154926157,8.38561476325 C 1.91356753698,8.32901536603 1.88494986622,8.27559571271 1.85633219546,8.22599174757 C 1.8277145247,8.17575183068 1.8137236624,8.11533674528 1.8137236624,8.04411053588 C 1.8137236624,8.00849743118 1.8137236624,7.97352027451 1.8137236624,7.93790716981 C 1.87795443973,7.80944561516 1.94154926529,7.68162001227 2.00578004261,7.55379440938 C 2.11961478135,7.55379440938 2.21882271161,7.57478070376 2.30467572948,7.61738924053 C 2.38989280304,7.65999777731 2.48910073331,7.69561088202 2.60293547204,7.72422855278 C 2.6315531428,7.79545476218 2.64617995312,7.85586984758 2.64617995312,7.90547381272 C 2.64617995312,7.95571372961 2.6671662475,8.01612881501 2.70977478428,8.08671907266" fill="none" stroke="#000000" stroke-width="0.0162166814152"/>
	<path d="M 8.49245243473,7.95889346977 C 8.49245243473,7.98751114053 8.47846157243,8.04411053774 8.44984390168,8.12996355561 C 8.33600916294,8.27178002265 8.25079208938,8.3468219128 8.19355674786,8.35381734394 C 8.13695735065,8.36081277509 8.02312261192,8.37861932744 7.85205252795,8.4072369982 C 7.76683545439,8.3360107888 7.72041122941,8.2755957034 7.71341579827,8.22599173826 C 7.70642036712,8.17575182137 7.66762752226,8.11533673597 7.59640131285,8.04411052656 C 7.61039217515,7.97352026892 7.63519415772,7.9054738034 7.67080726242,7.84187897784 C 7.70642036712,7.77764820051 7.7382177799,7.71023768676 7.76683545066,7.63901147735 C 7.80244855536,7.63901147735 7.83806166006,7.63901147735 7.87367476476,7.63901147735 C 7.90229243552,7.63901147735 7.94108528038,7.62438466703 7.99068924552,7.59640294244 C 8.04092916241,7.56778527168 8.10134424781,7.55379440938 8.17257045722,7.55379440938 C 8.215178994,7.55379440938 8.25778753078,7.55379440938 8.30039606756,7.55379440938 C 8.32901373832,7.62438466703 8.36780658318,7.69243113254 8.41804650007,7.75602595811 C 8.4676504652,7.82025673543 8.49245244777,7.88766724919 8.49245244777,7.95889345859" fill="none" stroke="#000000" stroke-width="0.0162166814152"/>
	<path d="M 7.02023226535,0.533561389195 C 7.02023226535,0.632769319462 6.98461916065,0.707811209606 6.91339295125,0.757415174739 C 6.84216674184,0.807019139873 6.77094053244,0.860438793199 6.7003502748,0.917674134718 C 6.6291240654,0.903047324391 6.56107759988,0.896051893244 6.49748277431,0.896051893244 C 6.43007226055,0.896051893244 6.36202579504,0.896051893244 6.29461528128,0.896051893244 C 6.2520067445,0.810834819684 6.2163936398,0.750419734279 6.18777596904,0.714806629578 C 6.15979424445,0.679193524877 6.14516743412,0.611783011118 6.14516743412,0.511939129094 C 6.17378510488,0.440712919692 6.22338907002,0.348500414053 6.29461527942,0.234665675322 C 6.36584148882,0.12083093659 6.45805399446,0.0642315393779 6.57188873319,0.0642315393779 C 6.64311494259,0.0642315393779 6.71434115199,0.0852178337518 6.7855673614,0.127826370532 C 6.8567935708,0.170434907312 6.92738382844,0.206048012013 6.99861003784,0.234665682772 C 6.98461917555,0.248656545067 6.96299693314,0.284269649768 6.93501520855,0.341504991287 C 6.96299693314,0.370122662047 6.98461917555,0.398104386637 6.99861003784,0.426722057397 C 7.01323684817,0.455339728156 7.02023227932,0.490952832857 7.02023227932,0.533561369637" fill="none" stroke="#000000" stroke-width="0.0162166814152"/>
	<path d="M 6.6361195338,8.00150217698 C 6.6361195338,8.101346059 6.61131755123,8.18274743692 6.56107763434,8.24697821424 C 6.5114736692,8.31120899157 6.4510585838,8.37861950533 6.3798323744,8.44984571473 C 6.33722383762,8.40723717795 6.30860616686,8.38561493554 6.29461530456,8.38561493554 C 6.2659976338,8.38561493554 6.24501133943,8.38943062513 6.2303845291,8.39642605628 C 6.21639366681,8.40342148743 6.1947714244,8.40723717702 6.16678969981,8.40723717702 C 6.08093668194,8.40723717702 5.99571960839,8.3500018355 5.91050253483,8.23616709677 C 5.82528546127,8.12233235803 5.78267692449,8.02312442777 5.78267692449,7.93790735421 C 5.78267692449,7.80944579956 5.8392763217,7.71723329392 5.95311106043,7.6599979524 C 6.06694579916,7.60339855519 6.18078053789,7.57478088443 6.29461527662,7.57478088443 C 6.37983235018,7.57478088443 6.45805399166,7.62820053776 6.52928020107,7.73503984441 C 6.60050641047,7.84187915106 6.63611951517,7.93027596106 6.63611951517,8.00150217046" fill="none" stroke="#000000" stroke-width="0.0162166814152"/>
</svg>
