<?xml version="1.0" ?>
<svg baseProfile="full" height="600px" version="1.1" viewBox="-0.926481360149 -1.62977656531 11.0366916648 19.4762339479" width="341px" xmlns="http://www.w3.org/2000/svg" xmlns:ev="http://www.w3.org/2001/xml-events" xmlns:xlink="http://www.w3.org/1999/xlink">
	<defs/>
	<path d="M 0.255651205778,5.59125709534 C 1.08874347806,5.59125709534 1.92183575034,5.59125709534 2.75492802262,5.59125709534 C 2.80516793951,5.54483287036 2.85604380071,5.49840864539 2.9062837176,5.45198442042 C 2.9062837176,4.1578296572 3.04937207326,3.18928046525 3.33618476614,2.5457008034 C 3.68532034382,1.73232294619 4.18708350882,1.10464198887 4.84147426113,0.662657961249 C 5.49650099501,0.220673933625 6.20749118552,-1.19209289551e-07 6.97508075461,-1.19209289551e-07 C 8.02884700522,-1.19209289551e-07 8.76527508721,0.426085203886 9.18372904882,1.27889183164 C 8.72648223862,1.70879286528 8.26923542842,2.13869389892 7.81198861822,2.56923088431 C 7.71532448009,2.5380694177 7.61802439764,2.50690795109 7.5213602595,2.47638243437 C 7.49019879289,2.32121105492 7.46539681032,2.20101682842 7.44568241388,2.11579975486 C 7.42660396546,2.0305826813 7.38208758831,1.90275707841 7.31213327497,1.73232293129 C 7.24217896163,1.56188878417 7.16459327191,1.42961154878 7.07937619835,1.33676309884 C 6.99415912479,1.24391464889 6.86824136227,1.15678973496 6.7016229257,1.07538835704 C 6.53500448912,0.993986979127 6.34739974886,0.953286290169 6.13817276806,0.953286290169 C 5.65739586204,0.953286290169 5.29872103781,1.37364810705 5.0627842322,2.21437174082 C 4.82621147484,3.05509537458 4.70792509615,4.13429957628 4.70792509615,5.45198434591 C 4.73908656277,5.49840857089 4.77024802938,5.54483279586 4.8007735461,5.59125702083 C 5.78522144258,5.59125702083 6.76966933906,5.59125702083 7.75348131359,5.59125702083 C 7.79608985037,5.64976426214 7.83933433518,5.70763555542 7.88194287196,5.76614279673 C 7.82343563065,5.94039262459 7.76556433737,6.11464245245 7.70705709606,6.28889228031 C 7.65300149098,6.33531650528 7.5989458859,6.38174073026 7.54425433278,6.42880090326 C 6.62976071239,6.42880090326 5.71526709199,6.42880090326 4.80077347159,6.42880090326 C 4.75434924662,6.47522512823 4.70792502165,6.52164935321 4.66150079668,6.56807357818 C 4.66150079668,7.44759006053 4.66150079668,8.32710654289 4.66150079668,9.20662302524 C 4.66150079668,11.5628113225 4.74290217459,13.7059571221 4.90570493042,15.6354242042 C 4.27802397311,15.8293884322 3.65034301579,16.0227167085 3.02266205847,16.2166809365 C 2.88656912744,16.1276481822 2.75111213326,16.0386154279 2.61565513909,15.9495826736 C 2.82488211989,12.9192889705 2.92917763442,10.6635802761 2.92917763442,9.18372855335 C 2.92917763442,8.32710621506 2.92917763442,7.47111985832 2.92917763442,6.61449752003 C 2.87893771753,6.55281053483 2.82869780064,6.49048760161 2.77845788375,6.42880061641 C 1.89067411795,6.42880061641 1.00352627411,6.42880061641 0.116378430277,6.42880061641 C 0.0775855854154,6.3741090633 0.0387927405536,6.32005345821 -1.04308128357e-07,6.26599785313 C 0.0311613623053,6.08729639277 0.0616868790239,5.90923088416 0.0928483456373,5.73116537556 C 0.147539898753,5.68474115059 0.201595503837,5.63831692562 0.255651108921,5.59125675261" fill="none" stroke="#000000" stroke-width="0.0162166810557"/>
</svg>
