<?xml version="1.0" ?>
<svg baseProfile="full" height="600px" version="1.1" viewBox="-0.163327705689 -2.17513762382 9.50635570623 13.0118452243" width="439px" xmlns="http://www.w3.org/2000/svg" xmlns:ev="http://www.w3.org/2001/xml-events" xmlns:xlink="http://www.w3.org/1999/xlink">
	<defs/>
	<path d="M 1.40663130646,9.18217035281 C 1.38279147138,9.18209758144 1.23695386638,9.14693155255 1.21575229307,9.10525928553 C 1.17344814976,9.06211662408 1.18094786088,8.15968954678 1.16834356095,8.03267334517 C 1.37082843686,6.83410619315 1.42044269125,5.82770417746 1.6107575653,5.47212068852 C 1.79361764173,5.11218698438 1.78029074351,4.29912401851 1.84732101689,3.49782647308 C 1.84817047668,2.64675004896 1.81905173388,1.74647595104 1.69230570522,0.844330446085 C 1.6927049302,0.597670019826 1.66073038732,0.429549069365 1.64523516339,0.277928189596 C 1.6216721416,0.137441055139 1.5168231458,0.026096307894 1.3544058979,-0.112409940699 C 1.1910388947,-0.240752256254 0.999306741405,-0.33474372212 0.863231527854,-0.334724317396 C 0.716852608371,-0.339779968465 0.705083997223,-0.343431155289 0.633382843111,-0.343520217186 C 0.689487782542,-0.343584520623 0.675966164332,-0.372707027822 0.660050360721,-0.419400274634 C 0.945641903441,-0.543731629729 1.25647389726,-0.655343599498 1.50014373497,-0.795929066717 C 1.75042193965,-0.928818039476 2.05654367642,-0.980236776054 2.24392857985,-1.06331147242 C 2.44750308828,-1.13456845272 2.62413135008,-1.02795351285 2.6808347276,-0.910867124676 C 2.7503709218,-0.784883752346 2.79640599922,-0.616271152973 2.80072494992,-0.384523957848 C 2.80777185899,-0.161869868517 2.81873824285,0.0961242766384 2.8188520788,0.402143851042 C 2.82193674071,0.694170192004 2.84400985686,0.995767280579 2.87437604664,1.34605382395 C 2.90829577966,1.6783231349 2.95407804025,2.00988440228 2.95399873713,2.68226306152 C 2.96116292625,3.29540829372 2.95690883053,3.88157187414 2.94810182796,4.55476234865 C 3.08837806629,4.34658347082 3.25505528794,4.15286898625 3.47577529596,3.94447413099 C 3.69529526876,3.74264089775 3.93958246158,3.56598466647 4.19249799298,3.39426162851 C 4.44639831232,3.22875294101 4.72757324026,3.08922016633 5.02217190908,2.96321399522 C 5.3148098235,2.84509319824 5.64431341933,2.77689150733 5.97249638484,2.73732043815 C 6.34437640952,2.73730233505 6.70694058584,2.81224022999 7.04332646178,3.00185613528 C 7.37760593937,3.17819480791 7.66625207113,3.40739566281 7.89726045178,3.73389196589 C 8.12377330111,4.0355382283 8.29261654066,4.38006580069 8.40039715366,4.81654173329 C 8.50799201624,5.22278398469 8.54628821658,5.62736353472 8.54631745174,6.03213742569 C 8.54621899657,6.53961554363 8.44752400898,7.00101807907 8.24424512469,7.4779543896 C 8.04371288203,7.92303836539 7.74739548348,8.29840019539 7.3725253322,8.65941649869 C 6.99682387494,8.99365535572 6.51441484474,9.2511314471 5.95852458261,9.45826675191 C 5.40307104372,9.65108001426 4.77491718315,9.74794332132 4.13903039478,9.7478728868 C 3.84232789062,9.74783115337 3.54794356011,9.71648000056 3.23355495714,9.6505214932 C 2.92623847507,9.58705730612 2.62662237667,9.51042539502 2.36882686399,9.41218934084 C 2.11587604665,9.3189111414 1.88485829316,9.21906673784 1.69914090418,9.11235555882 C 1.51832483493,9.01052632803 1.36457815551,8.90418457115 1.26065615349,8.79153576369" fill="none" stroke="#000000" stroke-width="0.0108341758737"/>
	<path d="M 5.74692527033,3.95790470322 C 5.60298921742,3.95766508886 5.53496988691,4.0267378048 5.36980549075,4.17232325235 C 5.21958970107,4.30979017475 5.07149568774,4.47488064626 4.91512013055,4.69377283314 C 4.76248995043,4.89719676533 4.60470195688,5.11640394786 4.46202836014,5.36827019909 C 4.31937383689,5.60472434321 4.18131447412,5.83251212099 4.06164974548,6.08153484324 C 4.06155472354,6.6145899103 4.06101257843,7.26224217871 4.0609391374,7.94765893677 C 4.25162664479,7.92484144615 4.46750326878,7.95132923061 4.64909600145,8.03583419257 C 4.84289427525,8.11393713886 5.04646408981,8.19107157671 5.23410156792,8.2687973001 C 5.52410525507,8.26875795814 5.82204664177,8.24819235894 6.09405205077,8.10236606392 C 6.3645218057,7.97091073188 6.63442603177,7.82747540268 6.86109748906,7.58090575429 C 7.09063698774,7.35280095431 7.29290828532,7.08517258259 7.4460153175,6.73811586591 C 7.59964433736,6.4083173463 7.6668307302,6.05037285777 7.66677677561,5.60824491474 C 7.66681770474,5.27924158069 7.60086776554,4.94349949452 7.49371246487,4.62791742774 C 7.38418305904,4.32824232074 7.2267995277,4.08486439678 7.02789334446,3.85842045041 C 6.82733357936,3.64563951286 6.57347769528,3.50623864325 6.28530148655,3.40585448983 C 5.98622483998,3.40568773528 5.67868960887,3.38841684801 5.36805875093,3.42597316844" fill="none" stroke="#000000" stroke-width="0.0108341758737"/>
</svg>
