<?xml version="1.0" ?>
<svg baseProfile="full" height="600px" version="1.1" viewBox="-0.798606262744 -1.23726893646 9.52172006893 14.7856707678" width="387px" xmlns="http://www.w3.org/2000/svg" xmlns:ev="http://www.w3.org/2001/xml-events" xmlns:xlink="http://www.w3.org/1999/xlink">
	<defs/>
	<path d="M 2.1368265152,11.6743335724 C 1.84425607324,10.8251067996 1.56858325005,10.0304352641 1.30884248018,9.28983610868 C 1.04958450794,8.54923695326 0.8231562078,7.82312148809 0.629557594657,7.11052411795 C 0.436441779137,6.39840954542 0.282914698124,5.67422527075 0.169941954315,4.93845403194 C 0.0564864203334,4.20268279314 4.842877388e-08,3.41525310278 4.842877388e-08,2.57519930601 C 4.842877388e-08,2.50953993201 0.00241399602965,2.38932533562 0.00724189123139,2.21455553174 C 0.0115869971924,2.04026851058 0.0140009447932,1.85825686157 0.0140009447932,1.66996893287 C 0.0140009447932,1.48119822145 0.0164148923941,1.29966935515 0.0212427875958,1.12489955127 C 0.0260706827976,0.950612530112 0.0284846303985,0.830397933722 0.0284846303985,0.764255769551 C 0.112972798757,0.575485058129 0.261671978049,0.400715254247 0.474099385552,0.240429125726 C 0.686526793055,0.0801429972053 0.900885346346,-6.70552253723e-08 1.11814064067,-6.70552253723e-08 C 1.11814064067,0.698113612831 1.12731364183,1.44112669677 1.14614243247,2.22855638713 C 1.1649712231,3.01646887511 1.22387154959,3.80196749419 1.32332619093,4.58505206555 C 1.4222980421,5.36765383929 1.58258417062,6.13432364911 1.80418456905,6.88409578055 C 2.02578496747,7.63435070962 2.339598177,8.32039462775 2.74514135532,8.9431931302 C 2.75479714572,8.71676483005 2.76397014689,8.46667986363 2.77362593729,8.19342099875 C 2.78279893845,7.91967933625 2.80886957422,7.64593767375 2.85135505348,7.37267880887 C 2.89384053275,7.09893714637 2.96239664778,6.83485128731 3.05654061213,6.57993840426 C 3.15068457648,6.32550831884 3.29021074995,6.0990800187 3.47415355965,5.90065351874 C 3.65809636936,5.7027098164 3.89852556214,5.5472515896 4.19592392072,5.43379605561 C 4.49283948168,5.32082331181 4.86796694621,5.26868204027 5.3208235465,5.27833783068 C 5.72636672482,5.27833783068 6.09183841571,5.35365299322 6.41723855957,5.50476613082 C 6.74263870344,5.6553964559 7.01638036594,5.86058200337 7.23798076436,6.12032277323 C 7.45958116278,6.37958074547 7.62952307984,6.68132419325 7.74732373282,7.0260359142 C 7.86560716853,7.37026486732 7.92450749502,7.73573655821 7.92450749502,8.12245098688 C 7.92450749502,8.64144972898 7.79705105349,9.15079269744 7.54213817045,9.65096263029 C 7.28770808503,10.1506498251 6.95023820922,10.5986785088 6.53069410846,10.9950487111 C 6.11066721007,11.3914189134 5.64139575884,11.7095772121 5.12239701673,11.9504891727 C 4.60388107225,12.1909183655 4.07522655651,12.3111329619 3.53788180277,12.3111329619 C 3.26414014027,12.3111329619 3.0000542812,12.2614056412 2.74514139816,12.16243379 C 2.49071131274,12.0634619389 2.28793972358,11.9007618669 2.13682658598,11.6743335668" fill="none" stroke="#000000" stroke-width="0.0123111330289"/>
	<path d="M 5.49028260633,6.50945090689 C 5.30199467763,6.61325065978 5.10356817767,6.73587919958 4.89596867189,6.87733653374 C 4.68836916611,7.0187938679 4.497667294,7.23798030801 4.32289749011,7.53537866659 C 4.14861046895,7.83229422756 3.99991128966,8.23590627499 3.87728274986,8.74524924345 C 3.75465421006,9.25459221192 3.67933904752,9.92904922552 3.65085446648,10.7686202247 C 3.66968325712,10.7686202247 3.71941057779,10.7734481199 3.79955364205,10.782621121 C 3.87969670631,10.7922769114 3.9337691348,10.7971048066 3.96225371584,10.7971048066 C 4.21668380126,10.7971048066 4.50684031472,10.7169617424 4.83224045858,10.5566756139 C 5.15812340006,10.3959067026 5.47386774048,10.1979630003 5.78043910488,9.96187892649 C 6.08701046929,9.72627762053 6.35351028666,9.46460568998 6.5799385868,9.17686313484 C 6.80636688694,8.8891205797 6.94347911701,8.61296498869 6.9903097041,8.34887912963 C 7.01879428513,8.1885930011 6.98596459813,8.0046501914 6.89133784361,7.79705068562 C 6.79719387926,7.58945117984 6.67215139605,7.38909351919 6.51621037163,7.19549490605 C 6.36075214483,7.00237909053 6.19081022777,6.83967901859 6.00686741807,6.70739469025 C 5.82292460836,6.57559314463 5.65105153061,6.50945098046 5.49028261937,6.50945098046" fill="none" stroke="#000000" stroke-width="0.0123111330289"/>
</svg>
