<?xml version="1.0" ?>
<svg baseProfile="full" height="600px" version="1.1" viewBox="-4.75269239195 -0.311141184104 13.2663798233 14.9767753074" width="532px" xmlns="http://www.w3.org/2000/svg" xmlns:ev="http://www.w3.org/2001/xml-events" xmlns:xlink="http://www.w3.org/1999/xlink">
	<defs/>
	<path d="M 6.98417242502,4.58276076142 C 7.05209904794,4.65161440794 7.06459670678,4.69502983887 7.17128823862,4.70887149025 C 7.27844765947,4.72136298932 7.36458084152,4.75040228844 7.40295984015,4.76408887368 C 7.40037684819,4.82345081952 7.29297652027,4.88180872511 7.28522588757,5.04720018517 C 7.26956136037,5.22336059522 7.15481297184,5.36873464 7.15328915978,5.58303340983 C 7.15065247357,5.81936010432 7.01199938894,6.24833076906 7.01195001583,6.65430479955 C 7.01214347299,7.03049143862 6.94178305086,7.35870757412 6.94183659128,7.71688931894 C 6.88563681713,7.88216428172 6.83606988139,8.06249041569 6.77118409372,8.17398187231 C 6.72514299995,8.2410033242 6.68573472596,8.33138165336 6.62505373306,8.40434237283 C 6.56321444682,8.48400073957 6.52719380654,8.56226241302 6.49254238552,8.57827701878 C 6.45682547933,8.59863492001 6.44704480882,8.63669085775 6.42540417279,8.64241144892 C 6.40512854646,8.65120599132 6.41694302059,8.68455356073 6.44543019629,8.69306118407 C 6.47879046521,8.70489741389 6.53295143641,8.74276922915 6.44162331468,8.83335922186 C 6.39459060452,8.88134909693 6.28269934974,8.99906625871 6.10337417147,9.06668518011 C 5.91839917324,9.14156040076 5.75093050621,9.2704632533 5.53235315106,9.29619873773 C 5.30649017117,9.3273235922 5.13358429394,9.38757231359 4.94227983377,9.41059528936 C 4.74400739691,9.43527689103 4.6068072798,9.48336709563 4.45552777073,9.52054558966 C 4.30167934618,9.55926170845 4.20887978694,9.61534699325 4.05993520043,9.61543303202 C 3.90926680288,9.61709575784 3.82909041963,9.63874315899 3.6377954664,9.63884034989 C 3.4707198473,9.47657378254 3.38644652388,9.48440520981 3.18979271076,9.48442475014 C 2.98746143601,9.48635492676 2.87798968277,9.54056103358 2.6807706239,9.58583904633 C 2.47709633729,9.63092384317 2.37118774227,9.69473485479 2.1918446081,9.73885489085 C 2.00701967946,9.78258716518 1.90939720294,9.79221051296 1.75190997443,9.81240000313 C 1.58922373078,9.83059245085 1.50197321496,9.8187987983 1.36906361899,9.81588687881 C 1.23093776724,9.81004229554 1.15534586034,9.78081578009 1.02342632732,9.7533763665 C 0.886027100897,9.72317452536 0.801359150028,9.67308109806 0.678795840061,9.62619065673 C 0.551202710187,9.57589321763 0.464884470618,9.50959904671 0.345172482944,9.44858052388 C 0.219069543695,9.38372694508 0.138512458122,9.28520018414 0.0582667397618,9.26557271548 C -0.0247742054701,9.24195761599 -0.115100224102,9.13810275116 -0.180907201552,9.12767172412 C -0.253512327158,9.1132604237 -0.330579948211,9.03061996207 -0.406870525861,8.9801104869 C -0.487310726726,8.92703735263 -0.552927535558,8.80241756321 -0.605231870496,8.7566502671 C -0.659944557184,8.70641975284 -0.699550301367,8.58835504383 -0.755169094139,8.52059312344 C -0.813083138847,8.44926321686 -0.853579238588,8.32118399621 -0.883582350397,8.26085296825 C -0.914597997972,8.19536623166 -0.9434919642,8.05034676001 -0.960544312903,7.97706871287 C -0.978620794201,7.89691491977 -1.00770744548,7.75993671075 -1.01334702882,7.69332632229 C -1.02062278527,7.62031356052 -1.02880909766,7.47474577085 -1.01946121833,7.40564271614 C -1.01951892682,7.31104390875 -1.0456757509,7.15450876013 -1.04565089251,7.03704922453 C -1.04565884755,6.94733916775 -1.08264248655,6.76846640364 -1.0827295177,6.63483067409 C -1.08274589027,6.55162937001 -1.12668241108,6.35935752646 -1.12682218302,6.20390098349 C -1.12679258452,6.11212459758 -1.17486694918,5.89577089802 -1.17498992097,5.70632230297 C -1.17497346119,5.60733804659 -1.17735688422,5.38845164136 -1.17745561328,5.18138047115 C -1.17637924699,4.96723336533 -1.15025457403,4.89585464255 -1.150373358,4.68260224715 C -1.14922564181,4.47397082106 -1.12320322992,4.41571897075 -1.0975925036,4.25560335622 C -1.07071469242,4.09596113667 -1.03775099182,4.02401162491 -1.03781861778,3.81933210597 C -1.03613551439,3.61332650289 -0.999167123001,3.47184894786 -0.984540591139,3.30579319403 C -0.96633877245,3.13337354169 -0.930504061405,3.08325741619 -0.90510573623,2.92677665681 C -0.879129087675,2.76923596293 -0.838621413458,2.71371874393 -0.771247720469,2.65578010113 C -0.701112976421,2.59185307652 -0.656669533003,2.5314775239 -0.573094172526,2.42772317485 C -0.488052224863,2.31745010421 -0.437416846056,2.27006526098 -0.347917297978,2.16090495691 C -0.255903283257,2.0486899148 -0.202059304465,1.967057174 -0.11868224119,1.85245014534 C -0.0326079038271,1.73304635093 0.0330170484892,1.68554521159 0.100037777673,1.57257971719 C 0.170263180386,1.45870022283 0.398065293085,1.29267814562 0.477528819691,1.28946960571 C 0.463924117263,1.24166814091 0.541612282272,1.20054352882 0.763271823402,1.14356188329 C 0.985688164707,1.08406814041 1.21668672549,1.00630447867 1.43080946791,1.00653667962 C 1.65347526955,1.00232169014 1.87965604651,0.94260707479 2.06425304699,0.942757830304 C 2.25512078392,0.939443689353 2.32474593061,0.949556516065 2.46838023501,0.960966846487 C 2.60614310938,0.974441173999 2.66827515873,0.979175610049 2.77222737285,0.999104633509 C 2.87637104454,1.01887149881 2.92628923419,1.02625628519 3.01199049118,1.054904779 C 3.13096443179,1.05481665834 3.17773283261,1.07366062394 3.24992469686,1.11101894146 C 3.32390764343,1.14884151584 3.28489283087,1.19524381003 3.33919440943,1.25429672441 C 3.38918174791,1.31557140193 3.30578201997,1.35820946536 3.63480684149,1.46196029774 C 3.96056404698,1.56695121965 4.08547054219,1.64272863111 4.26346825051,1.78131722352 C 4.44307205069,1.92027160964 4.48306466254,2.03115640274 4.48307394213,2.22654324463 C 4.48546150723,2.42521570316 4.40813275823,2.52910529515 4.43987820321,2.62471296332 C 4.46918173716,2.7224369689 4.45613920619,2.79132261566 4.67717243661,2.97200035742 C 4.90223584999,3.15476044706 5.00395371695,3.2564485564 5.06240385701,3.3464995741 C 5.12819432397,3.43996961108 5.12731549994,3.50779391519 5.15216267214,3.57602256975 C 5.16044681531,3.65867598048 5.23838271212,3.92288468471 5.2522342616,3.98896236411 C 5.27326348808,4.06788041881 5.31200277072,4.11818410895 5.30052789592,4.18697986445 C 5.29278619553,4.24281151659 5.32723414863,4.30977407909 5.3108750541,4.36330308086 C 5.43000652234,4.4859443537 5.50682928006,4.69632736659 5.48646948824,4.76292019403 C 5.48645629579,4.8810736171 5.53423784145,5.08990573204 5.53690302822,5.1530917219 C 5.54553166575,5.22428575224 5.59465618602,5.34941797024 5.59894319655,5.40920179031 C 5.60782269419,5.4533014006 5.65816862167,5.55920103258 5.6515666799,5.61615358731 C 5.64777262633,5.67818016625 5.72694544618,5.90823411262 5.70483075951,5.9769236452 C 5.68848878269,6.05805706299 5.74053799858,6.21142023123 5.68683758875,6.26811772651 C 5.63688416158,6.33051425284 5.69653734689,6.5525834567 5.58993306135,6.60867045141 C 5.58980466471,6.78336960888 5.66278130607,7.02061029589 5.62152144731,7.10061225361 C 5.58388670579,7.18925290621 5.43775627808,7.56501113689 5.38499778555,7.6338781721 C 5.38501632476,7.78752134806 5.23890434468,8.23309068448 5.1354338851,8.32058773256 C 5.08410490194,8.41631002045 4.89749825635,8.86543361163 4.90009167866,8.90365867755 C 4.87213543692,8.97358601979 4.74089693168,9.46384417704 4.6918855969,9.52556125513 C 4.64182335028,9.62508720598 4.49670159706,10.114010547 4.37299591193,10.2097125768 C 4.30399347731,10.3117161959 4.11820487568,10.7782547741 4.0768925015,10.8162622496 C 4.02565557399,10.8883594244 3.89662068227,11.311661598 3.72847991326,11.38074961 C 3.55534163752,11.4674062773 3.36659713724,11.8652239784 3.13595610002,11.9268758974 C 2.90022415557,12.003132031 2.8753146276,12.097107426 2.83295881824,12.0959685109 C 2.78747908847,12.1333962082 2.67007819639,12.4084075391 2.57147349493,12.4085032971 C 2.38832427637,12.4345692818 2.2720117055,12.7160129075 2.10668169783,12.716065115 C 1.93926835881,12.7282385376 1.73967429326,12.7535693084 1.57393790112,12.7867977952 C 1.40195373522,12.8181023968 1.18169758545,12.8353682046 1.16027753317,12.8452224431 C 1.12566664332,12.8658652471 1.12505699607,12.8972052836 1.11214441533,12.9202817825 C 1.0980409552,12.9622268637 1.07921787544,12.9254830775 1.13002069114,12.9809987654 C 1.17843586026,13.0330573541 1.18806330493,12.9834545997 1.17961707717,13.0564818305 C 1.17188365484,13.1792166528 1.15407296183,13.1215425541 1.09116505744,13.1215587292 C 1.02981044265,13.117907585 0.922035506987,13.123786637 0.905716198557,13.1959603069 C 0.883492740863,13.2680817185 0.837936385595,13.2607465995 0.808153060326,13.2607574148 C 0.777857742333,13.2584406672 0.715361069017,13.2152327647 0.698986862847,13.2710266313 C 0.681680223965,13.3222400559 0.636392216259,13.3307171225 0.59668694722,13.3307117181 C 0.556273463243,13.3298090214 0.493586416417,13.3021126112 0.444091393673,13.3194169944 C 0.394616141045,13.3335437162 0.286980598294,13.3474740472 0.241107336306,13.3474640893 C 0.192139717811,13.3473171691 0.121198001378,13.2872347037 0.115821029586,13.3458378004 C 0.109705650308,13.3972915249 0.0625737691905,13.3515789682 0.068681308129,13.3993845458 C 0.0741996491004,13.4398968542 0.041639933889,13.3727101708 0.018807428484,13.3726283269 C -0.00293674826139,13.3654388105 -0.052389213289,13.2566657429 -0.0687992120486,13.3036340353 C -0.084389431807,13.3391155032 -0.124678401681,13.2467737449 -0.132725114408,13.310623127 C -0.139634088552,13.3629986373 -0.159500735751,13.3305983757 -0.129685866586,13.3303942302" fill="none" stroke="#000000" stroke-width="0.012470254211"/>
	<path d="M -0.150035562792,11.543825438 C -0.150045672836,11.3773008936 -0.0776233174222,11.3651504887 -0.125780443134,11.38078998 C -0.164637120845,11.3970686567 -0.169568235924,11.4367342589 -0.173396054827,11.4625366514 C -0.173389820988,11.3298372214 -0.0846361058304,11.252899151 -0.0848414262821,11.1627420669 C -0.0789545116079,11.0683832278 -0.00799705209852,10.8978697171 -0.00799909364264,10.8115398993 C -0.0030179763196,10.7144920339 0.0520344903709,10.5450956484 0.0750765396299,10.457612585 C 0.100743286872,10.3618627672 0.109792096169,10.1240809446 0.123213610241,10.0228361373 C 0.136055118033,9.91094406297 0.124310508931,9.63676883628 0.119549094794,9.54834928711 C 0.119675137736,9.3485182484 0.0861180580034,9.06422277888 0.059320247434,8.96497805764 C 0.0309322613105,8.85656021883 -0.0241339405254,8.59782223751 -0.0693738994376,8.51290084769 C -0.115351540335,8.41793180605 -0.184456331022,8.14501826068 -0.2552516957,8.06636461963 C -0.326579136141,7.97643638005 -0.417736579962,7.80375774553 -0.548602794595,7.80390772309 C -0.680044477172,7.79742453939 -0.717982900627,7.76582998356 -0.888838661201,7.76594140357 C -1.0186149006,7.76576181439 -1.1359833752,7.74073577423 -1.32964808989,7.74082413454 C -1.49983130146,7.74072691164 -1.54519451905,7.7188837204 -1.74707497407,7.71889981679 C -1.9532468294,7.718789264 -2.09506770719,7.81012867335 -2.30779245246,7.81019081414 C -2.52084842075,7.81457154319 -2.65429386247,7.97993267939 -2.81923275936,7.94878134557 C -2.9870544051,7.92494665698 -3.08937997121,8.05999279634 -3.22531232733,8.04562369321 C -3.36208272476,8.0376222083 -3.40207602952,8.25307192892 -3.51814854268,8.2602301967 C -3.6317007554,8.27869446023 -3.6407620826,8.53251744254 -3.64076374421,8.62508857443 C -3.65218123744,8.62724367791 -3.57843739489,8.91877899581 -3.57841351822,9.04065940046 C -3.57827090045,9.18043679261 -3.57063216289,9.26569989586 -3.57149559729,9.34586587811 C -3.57134189339,9.4680586707 -3.58866259711,9.56294378156 -3.58338062394,9.64462948853 C -3.58328696464,9.77803563589 -3.60802820448,9.84878346586 -3.60797749748,9.88344654703 C -3.60802412633,9.98558131868 -3.63840769459,9.99878172839 -3.63831636017,10.0167923745 C -3.63882156768,10.0318671324 -3.57860184767,10.1562941604 -3.50918458709,10.2998588018 C -3.43595543065,10.4477620356 -3.24744054237,10.6320396744 -3.08689643004,10.7911353193" fill="none" stroke="#000000" stroke-width="0.012470254211"/>
</svg>
