<?xml version="1.0" ?>
<svg baseProfile="full" height="600px" version="1.1" viewBox="-0.852686662061 -1.0689079175 10.1790573799 12.7737165466" width="479px" xmlns="http://www.w3.org/2000/svg" xmlns:ev="http://www.w3.org/2001/xml-events" xmlns:xlink="http://www.w3.org/1999/xlink">
	<defs/>
	<path d="M 8.47368431091,9.11267280579 C 8.46409114543,9.13603007793 8.45491507463,9.15938735008 8.44573900383,9.18274462223 C 8.44573900383,9.18733265763 8.42321591917,9.23404720193 8.37900394294,9.32288826024 C 8.33437486831,9.41214640951 8.25262441579,9.50932933902 8.13333549444,9.61443706369 C 8.01362948213,9.71954478836 7.85012857709,9.81547643756 7.64158150647,9.90223201877 C 7.43345153425,9.98898759997 7.16776257847,10.0319482959 6.84493172262,10.0319482959 C 6.63429917488,10.0319482959 6.45661705825,10.0077568362 6.31146830413,9.95853973133 C 6.16631955002,9.90932262642 6.04202549253,9.84717559768 5.93942033593,9.77251575096 C 5.72378266696,9.80504909111 5.51231593732,9.85092944605 5.3037688667,9.9093226227 C 5.09563889448,9.96771579934 4.89084567968,10.0440440322 4.6898062909,10.1374731208 C 4.67562509049,10.1466491916 4.66144389007,10.1562423571 4.6476797834,10.1654184279 C 4.63349858299,10.1608303925 4.61931738257,10.1562423571 4.60555327591,10.1516543217 C 4.48834982421,10.1516543217 4.37740278151,10.1466491921 4.27187796589,10.1374731213 C 4.16677024122,10.1282970505 4.05790867563,10.1232919209 3.94529325422,10.1232919209 C 3.56615466531,10.1232919209 3.17658872064,10.1633329578 2.7765954202,10.2425808422 C 2.37660211977,10.3222458251 2.01706696209,10.4440373145 1.69882414397,10.6079553179 C 1.67546687182,10.6171313887 1.65210959967,10.6267245542 1.62875232752,10.635900625 C 1.60998309124,10.6313125896 1.59121385496,10.6267245542 1.57244461868,10.6217194246 C 1.58662581909,10.6267245542 1.55158991087,10.6125433538 1.46733689774,10.5795929153 C 1.3830838846,10.5470595751 1.28464967478,10.4874151144 1.17245135177,10.4006595332 C 1.06025302876,10.3143210504 0.951391463168,10.1946150381 0.845866647549,10.0427927691 C 0.740758922882,9.89055340178 0.676109333523,9.69535334595 0.652752061374,9.45635840483 C 0.526372541673,9.38628658839 0.422516097315,9.3103754539 0.340348553844,9.22820791043 C 0.258598101325,9.14645745791 0.19311432261,9.07054632343 0.143897217698,9.00005740859 C 0.0946801127866,8.92998559214 0.0608954885975,8.87034113146 0.0421262523159,8.82112402655 C 0.0233570160344,8.77190692164 0.0141809452325,8.74521289766 0.0141809452325,8.74020776805 C 0.00917581561953,8.7168504959 0.00458778021857,8.69349322375 -2.55182385445e-07,8.6701359516 C 0.00917581561953,8.64928124379 0.0187689810991,8.62800944317 0.027945051901,8.60715473536 C 0.117203201167,8.44782476965 0.194365615956,8.2980879778 0.259849394672,8.15752726141 C 0.325333173387,8.01738362852 0.379138316028,7.88057675306 0.421264822595,7.74710662011 C 0.463391329162,7.61363648716 0.495090483688,7.478080892 0.515945191495,7.34002273623 C 0.537216992117,7.20196458045 0.547644346021,7.0509765083 0.547644346021,6.88705850486 C 0.547644346021,6.69519520644 0.533463145606,6.47997463588 0.505517837591,6.24097969476 C 0.510105872992,6.21053182241 0.514693908393,6.18008395005 0.519699038006,6.15005317051 C 0.641073436476,5.85516759474 0.731165775098,5.5811367305 0.789976046421,5.3283776911 C 0.848369223066,5.0756186517 0.877565811388,4.82285961229 0.877565811388,4.57010057289 C 0.877565811388,4.42536890227 0.868389740586,4.27646629233 0.849620504305,4.12464402337 C 0.830851268023,3.972404656 0.807493995875,3.8143259855 0.779131595045,3.65040798206 C 0.774543559644,3.62705070991 0.769955524243,3.60369343776 0.765367488842,3.58033616561 C 0.774543559644,3.5661549652 0.784136725124,3.55239085853 0.793312795926,3.53820965812 C 0.900923081208,3.32757711038 0.989764139522,3.13446251675 1.06025305437,2.95928299055 C 1.13032487081,2.78368635103 1.18413001345,2.60683844611 1.22166848602,2.42915632948 C 1.15117957117,2.33531014994 1.09153511049,2.21018191054 1.04273509653,2.05335452035 C 0.993517991621,1.89652713016 0.968909439165,1.70591509715 0.968909439165,1.48110136762 C 0.968909439165,1.18162778392 1.00728210108,0.937210608274 1.08444451587,0.747849870473 C 1.16202402906,0.55807203427 1.24836251186,0.409586522728 1.34429416107,0.301976237446 C 1.44022581028,0.194365952164 1.52823267179,0.121791575104 1.60748055624,0.084253102541 C 1.68714553909,0.0467146299779 1.73177461373,0.0279453936964 1.74095068453,0.0279453936964 C 1.76430795668,0.0187693228945 1.78766522883,0.00917615741491 1.81143959379,8.66129994392e-08 C 1.8322943016,0.00917615741491 1.85356610222,0.0187693228945 1.87442081003,0.0279453936964 C 2.11800378887,0.149736883119 2.36367222993,0.237326646224 2.6114261481,0.291548883542 C 2.85959714977,0.345354026183 3.12153226463,0.372048050165 3.39806568949,0.372048050165 C 3.5102640125,0.372048050165 3.64123156993,0.370796767762 3.79096836178,0.368711296935 C 3.94070515363,0.366208732128 4.07667784719,0.344102744013 4.19805224566,0.301976237446 C 4.21932404628,0.297388202045 4.24017875409,0.292383072432 4.26145055471,0.287795037031 C 4.28021979099,0.297388202511 4.29898902727,0.306564273313 4.31734116888,0.315740344115 C 4.57010020828,0.432943795808 4.80409002816,0.521784854122 5.01972769713,0.582680598833 C 5.23494826769,0.643576343544 5.45016883826,0.678612251766 5.66538940882,0.688205417246 C 5.78259286052,0.636485744268 5.91356041795,0.589771199971 6.05870917207,0.547644693404 C 6.20385792619,0.505518186837 6.36986139184,0.484246386215 6.55713665253,0.484246386215 C 6.74441191321,0.484246386215 6.91041537886,0.50676947087 7.05556413298,0.550981447101 C 7.2007128871,0.595610521734 7.32333856588,0.646078914404 7.42427535122,0.701969530433 C 7.52479504561,0.758277241141 7.6019574604,0.809579819441 7.65576260304,0.856294363737 C 7.70956774568,0.903426002711 7.74126690021,0.928868746385 7.75044297101,0.933873875998 C 7.77380024316,0.957231148146 7.79715751531,0.980588420294 7.82051478745,1.00394569244 C 7.81133871665,1.03189100046 7.80216264585,1.06025340129 7.79256948037,1.0881987093 C 7.74126690207,1.29424321931 7.70247714547,1.48944327515 7.67661730899,1.67421597522 C 7.65117456531,1.85940577369 7.63824464707,2.03833915573 7.63824464707,2.21143323462 C 7.63824464707,2.44542305451 7.66285319952,2.67107098084 7.71207030443,2.88879411202 C 7.76087031839,3.1065172432 7.83261051355,3.33216516953 7.92603960214,3.56615498941 C 7.93521567294,3.58033618983 7.94480883842,3.59451739024 7.95398490923,3.60828149691 C 7.94939687382,3.62705073319 7.94480883842,3.64581996948 7.94022080302,3.66458920576 C 7.91185840219,3.84268840589 7.88850113004,4.01202862896 7.86973189376,4.17344405688 C 7.85096265748,4.33527658321 7.84178658668,4.49544073083 7.84178658668,4.65435359813 C 7.84178658668,4.95883233286 7.87348574121,5.24996403791 7.93646695931,5.52858291008 C 7.99986526836,5.80720178224 8.09704819787,6.08665485121 8.2280157553,6.36735920049 C 8.23719182611,6.38154040091 8.24678499158,6.39572160132 8.25596106239,6.40948570799 C 8.24678499158,6.43284298014 8.23719182611,6.4566173451 8.2280157553,6.47997461725 C 8.17629608233,6.68560201395 8.1366721401,6.87663113046 8.10872683208,7.05181065667 C 8.08036443125,7.22740729619 8.06660032459,7.39716461767 8.06660032459,7.56108262111 C 8.06660032459,7.80883653928 8.09704819694,8.05116823781 8.1575268507,8.28766061831 C 8.21842259541,8.52373590041 8.31435424462,8.78024881054 8.44573890045,9.05636512209 C 8.45491497125,9.07513435837 8.46409104206,9.09390359465 8.47368420754,9.11267283093" fill="none" stroke="#000000" stroke-width="0.0106359005384"/>
	<path d="M 3.4823187748,3.85436680447 C 3.47731364518,3.86813091114 3.47272560978,3.88231211156 3.46813757438,3.89649331197 C 3.33216488082,4.21473613009 3.23414776195,4.50378235802 3.17325201724,4.76321491227 C 3.11235627253,5.02306455001 3.08190840017,5.27916034684 3.08190840017,5.53191938624 C 3.08190840017,5.68165617809 3.09150156565,5.83181006834 3.10985370725,5.98154686019 C 3.12862294354,6.13128365204 3.15698534437,6.28811104223 3.19410672225,6.45161194727 C 3.19911185186,6.47038118355 3.20369988726,6.48915041983 3.20828792267,6.50791965611 C 3.19911185186,6.52877436392 3.18951868638,6.55004616454 3.18034261558,6.57090087235 C 3.04436992202,6.84242917597 2.94051347766,7.08225829899 2.8679391006,7.29080536962 C 2.79536472354,7.49893534184 2.75198693294,7.71290464699 2.73780573253,7.93313035369 C 2.85042115394,7.91894915327 2.97179555241,7.9026824832 3.10318020824,7.88391324691 C 3.23414776567,7.86514401063 3.36177856568,7.84303802252 3.48565552477,7.81717818603 C 3.60953248385,7.79131834954 3.72673593555,7.76003628969 3.83684878889,7.72249781713 C 3.94654455129,7.68495934457 4.03913945053,7.64033026993 4.11379929725,7.58902769163 C 4.13256853353,7.57985162083 4.15133776981,7.57025845535 4.1701070061,7.56108238455 C 4.18887624238,7.56567041995 4.20764547866,7.57025845535 4.22641471494,7.57484649075 C 4.38991561998,7.61238496331 4.550496866,7.6382447998 4.70732425619,7.65242600022 C 4.86415164638,7.66619010689 5.01722519565,7.67328070709 5.1669619875,7.67328070709 C 5.37300649751,7.67328070709 5.57905100752,7.65909950668 5.78467840422,7.63115419867 C 5.76132113207,7.49559860351 5.73212454375,7.35378659191 5.69708863553,7.20655236067 C 5.6620527273,7.05890103104 5.6186749367,6.90332492115 5.5673723584,6.73940691771 C 5.56236722879,6.7114616097 5.55777919339,6.68351630168 5.55319115799,6.65515390085 C 5.6094988687,6.34191620396 5.63744417671,6.03535202192 5.63744417671,5.73546132492 C 5.63744417671,5.43139970349 5.60574502219,5.14026799845 5.54276380409,4.86164912628 C 5.47936549503,4.58303025411 5.38718768675,4.29898914741 5.26539619733,4.00869163917 C 5.25580303185,3.98992240289 5.24662696104,3.97115316661 5.23703379557,3.95238393033 C 5.24203892518,3.92902665818 5.24662696058,3.90566938603 5.25121499598,3.88231211388 C 5.30293466896,3.69962487603 5.34506117553,3.5219427594 5.37759451568,3.3488486805 C 5.41054495424,3.1757546016 5.43139966205,3.0022434392 5.44099282753,2.8291493603 C 5.37509195041,2.8199732895 5.310859452,2.81288268929 5.2478782339,2.80829465389 C 5.18447992485,2.80328952428 5.12274999078,2.80120405345 5.06185424607,2.80120405345 C 4.93046959024,2.80120405345 4.79950203281,2.81038012425 4.66853447538,2.82914936054 C 4.53756691795,2.84791859682 4.39700620156,2.87586390483 4.24726940971,2.91340237739 C 4.21223350149,2.90881434199 4.17719759326,2.90422630659 4.14216168504,2.89922117698 C 4.00618899148,2.87586390483 3.88231203239,2.84916988085 3.77011370938,2.81872200849 C 3.65749828797,2.78827413614 3.54279739689,2.75907754782 3.4260110436,2.7311322398 C 3.41641787812,2.80120405625 3.41182984272,2.86919040303 3.41182984272,2.93467418174 C 3.41182984272,3.00015796046 3.41182984272,3.06564173917 3.41182984272,3.13112551789 C 3.41182984272,3.23414777289 3.41766916076,3.33925549756 3.42934779683,3.44686578284 C 3.44102643291,3.55447606812 3.45854438702,3.6691769592 3.48231875198,3.79096844862 C 3.48231875198,3.81224024924 3.48231875198,3.83309495705 3.48231875198,3.85436675767" fill="none" stroke="#000000" stroke-width="0.0106359005384"/>
</svg>
