<?xml version="1.0" ?>
<svg baseProfile="full" height="538px" version="1.1" viewBox="-1.00031946574 3.91849765912 14.8996401854 13.3454137289" width="600px" xmlns="http://www.w3.org/2000/svg" xmlns:ev="http://www.w3.org/2001/xml-events" xmlns:xlink="http://www.w3.org/1999/xlink">
	<defs/>
	<path d="M 6.82053297374,11.4033368395 C 7.74724375817,12.5747733877 8.59676330897,13.7628229426 9.59091162297,14.8288416432 C 8.8802220783,14.8287412986 8.5436596534,14.8289124982 8.20144167158,14.8290965632 C 7.3719771764,13.7611045912 6.61798140022,12.7373099402 5.79266568634,11.769047387 C 4.94220557425,12.8241453246 4.14241608593,13.8997614459 3.3275852463,14.8838241771 C 3.93265911553,14.915839959 4.42442655179,14.8950781264 4.86513697717,14.9420512431 C 4.85650029208,15.1564936303 4.85089420422,15.3819665276 4.85779836203,15.58244152 C 3.26079311396,15.5819836705 1.76830520655,15.5817764336 0.258615041035,15.5820337731 C 0.256738337921,15.3369876343 0.250632919138,15.0427319902 0.246486394899,14.7884851295 C 1.70307955076,13.2848226625 3.01212248136,11.8151398498 4.42747268011,10.3555204469 C 3.24636170198,8.78633781255 2.20219156076,7.23796685518 1.08594235708,5.71619482816 C 1.21908931364,5.71655900795 1.30547053297,5.71725517215 1.32457428914,5.71687158009 C 2.13643228752,5.71668366066 2.97569310409,5.71637915479 3.79050653917,5.71639316656 C 4.64663427812,6.93166118242 5.43786418182,8.10707920171 6.26121580345,9.25602977849 C 7.19624387962,8.14011698343 8.0197244857,7.05340593435 8.93200033647,5.96398752309 C 9.13172481698,5.96423354217 8.52029292029,5.86416959979 8.64323062194,5.8639701377 C 8.16088977945,5.8330683946 7.72371912492,5.82707893665 7.21539611113,5.78963000517 C 7.21699024062,5.53499452214 7.22743281885,5.29049950282 7.23859427194,5.03588172238 C 8.86441538553,5.03585479884 10.4837122939,5.03568886704 12.1571931622,5.03586358504 C 12.1563207827,5.32211626248 12.1606808997,5.58118710594 12.1597092588,5.8367867239 C 11.6856448491,6.012895263 11.1153732379,6.1788543232 10.5472256382,6.31034540312 C 9.43475370004,7.57974719183 8.36664704874,8.85042034762 7.22454385355,10.0939012684 C 8.33489899233,11.6576217331 9.39326564863,13.2455918707 10.5686604221,14.8324012675 C 11.2882825573,14.9853466816 11.9667414863,15.1423657008 12.652514859,15.2400656484 C 12.648265093,15.5570791207 12.6454857785,15.871655985 12.6422244817,16.1464649283 C 10.6342927724,16.146142811 8.76814859209,16.1464995226 6.80084269342,16.1466243987 C 6.79510510282,15.887160254 6.78798215406,15.5903346961 6.78786459792,15.273958159" fill="none" stroke="#000000" stroke-width="0.0124060284641"/>
</svg>
