<?xml version="1.0" ?>
<svg baseProfile="full" height="553px" version="1.1" viewBox="-1.11670391858 -0.15806633532 13.3448874772 12.2991014779" width="600px" xmlns="http://www.w3.org/2000/svg" xmlns:ev="http://www.w3.org/2001/xml-events" xmlns:xlink="http://www.w3.org/1999/xlink">
	<defs/>
	<path d="M 7.84339761734,11.1114797592 C 6.98018813133,9.98159468174 6.11654287577,8.85214543343 5.25333338976,7.72226035595 C 4.45417827368,8.85214543343 3.65545892715,9.98159468174 2.85673958063,11.1114797592 C 1.94472670555,11.1114797592 1.03271383047,11.1114797592 0.121136724949,11.1114797592 C 1.38000208139,9.40074765682 2.63886743784,7.69001555443 3.89729696512,5.97928345203 C 2.59834319353,4.2768304348 1.29895359278,2.5739415884 -1.78813934326e-07,0.871488571167 C 1.12160569429,0.871488571167 2.2432115674,0.871488571167 3.36481744051,0.871488571167 C 4.19621759653,1.96912848949 5.02718198299,3.06633269787 5.85814636946,4.1639726162 C 6.55228710175,3.06633269787 7.24642783403,1.96912848949 7.94013279676,0.871488571167 C 8.84386652708,0.871488571167 9.7476002574,0.871488571167 10.6513339877,0.871488571167 C 9.47351711988,2.51773059368 8.29526442289,4.1639726162 7.1170117259,5.80977892876 C 8.4486463666,7.57715797424 9.77984517813,9.34410119057 11.1114798188,11.1114802361 C 10.0221189857,11.1114802361 8.93275815248,11.1114802361 7.84339731932,11.1114802361" fill="none" stroke="#000000" stroke-width="0.0111114799976"/>
</svg>
