<svg baseProfile="full" height="600px" version="1.1" viewBox="0.0227768773297 -1.89601105965 9.27548280916 16.0790460817" width="347px" xmlns="http://www.w3.org/2000/svg" xmlns:ev="http://www.w3.org/2001/xml-events" xmlns:xlink="http://www.w3.org/1999/xlink">
    <defs></defs>
    <path d="M 2.61595085251,11.6036641476 C 2.51309413451,11.6036117545 2.1727806701,11.6060246453 1.92372304934,11.6062177531 C 1.65201092499,11.6051139039 1.39426834124,11.5812586871 1.39414386592,11.4031437066 C 1.39447532537,7.62648874789 1.39457428885,4.059950414 1.39437787909,0.175618233979 C 1.39428205668,0.0474211600422 1.16626979291,0.0470791614543 0.801481230847,0.0467566642956 C 0.801687372477,-0.076427539806 0.801320736275,-0.256137019019 0.801312131577,-0.435822254042 C 0.952072737508,-0.48755270056 1.27057260066,-0.549208467822 1.56457850128,-0.549154919087 C 1.87550586253,-0.555464018117 2.20589691191,-0.540231092814 2.52298262506,-0.493930100444 C 2.73293183535,-0.49424290693 2.85948769539,-0.392181687416 2.85940150238,-0.245695196451 C 2.85945888784,1.27523270958 2.85961483287,2.73475066537 2.85938673041,4.2680530917 C 3.09741038403,4.02727729791 3.42835894546,3.83445601874 3.79696733079,3.6710756641 C 4.1759661766,3.50845131987 4.61337673983,3.42765422875 5.05788022599,3.42744663365 C 5.58149856648,3.42750444309 6.0656607779,3.5249825199 6.48766640148,3.73101397649 C 6.92108655295,3.93135473923 7.30080050549,4.22289181546 7.60268387518,4.63175342278 C 7.91201475582,5.02994478539 8.14875860832,5.51025895075 8.30324505589,6.11206278996 C 8.45973044953,6.70211020903 8.51986411533,7.34797213272 8.51972418867,8.03537533478 C 8.51973286844,8.76584027008 8.4057472629,9.42426476673 8.18733005053,10.0552000184 C 7.96407550401,10.6752014537 7.64103546566,11.1787728448 7.23866668171,11.612243243 C 6.8259116692,12.0363769312 6.3100865168,12.3358318289 5.72784384913,12.5488431682 C 5.1351970715,12.7586635877 4.45319899744,12.83752735 3.74438395924,12.8375361617" fill="none" stroke="#000000" stroke-width="0.0133880483611"></path>
    <path d="M 4.47614066625,11.8682154869 C 5.05955152536,11.8682051941 5.52412255431,11.6281326457 5.92202140713,11.1104280397 C 6.31768058563,10.6015390798 6.52919192934,9.81935924734 6.5368691403,8.74594790186 C 6.54164544769,7.71525103296 6.3584047807,6.93621790852 5.9939634753,6.42574513401 C 5.62113576658,5.91427815403 5.0958275152,5.65825093235 4.43487327822,5.65827905955 C 4.12097399957,5.65832185752 3.84799292214,5.69832411043 3.595604266,5.78619311384 C 3.34242784508,5.87266850106 3.12475387283,5.98636927835 2.94804583021,6.13855543367 C 2.9480647735,8.04044499627 2.94784377145,9.90614798299 2.94770741215,11.8303863072 C 3.13103858878,11.9226908126 3.36939748873,11.9839344584 3.58884136131,12.0847875365 C 3.81911049535,12.1785563268 4.07951409867,12.2377774046 4.35521991303,12.2379255797" fill="none" stroke="#000000" stroke-width="0.0133880483611"></path>
</svg>