<svg baseProfile="full" height="600px" version="1.1" viewBox="0.26401134382 -1.96193411883 9.03356540224 15.4007980484" width="352px" xmlns="http://www.w3.org/2000/svg" xmlns:ev="http://www.w3.org/2001/xml-events" xmlns:xlink="http://www.w3.org/1999/xlink">
    <defs></defs>
    <path d="M 3.13092282241,11.2476654002 C 3.01187491988,11.2475623446 2.6163173673,11.2499777404 2.31999198173,11.2501260276 C 1.995697057,11.2480822768 1.69075358485,11.2220840067 1.69062427343,11.0842663705 C 1.69094343439,7.47528190016 1.6909433591,4.07827205061 1.69072141434,0.426066106553 C 1.69063697394,0.30935337245 1.67703198653,0.243217690284 1.65367087361,0.189588362718 C 1.62847353157,0.140000174189 1.58622819569,0.112154303486 1.52557252359,0.100217386516 C 1.46559945878,0.0900159863704 1.28225566086,0.0598010340655 1.02244011697,0.0277114691162 C 1.02251699748,-0.0994971064902 1.02217874816,-0.227858540235 1.02215150746,-0.357720938144 C 1.28068251165,-0.406047095177 1.69786543401,-0.496488843677 2.13119549306,-0.581173223076 C 2.56976944955,-0.665760066924 2.81312330814,-0.673105232516 3.11868434401,-0.673191234677 C 3.11911697705,0.908852174671 3.11936786275,2.46527560035 3.11937782008,4.04944951812 C 3.34591464538,3.82123324254 3.65726108689,3.63262760618 4.00847108502,3.48462380448 C 4.3707961275,3.33196647444 4.78866259593,3.25820167342 5.24333314437,3.25811551966 C 5.72247309822,3.25819799782 6.17184988994,3.3409559849 6.57150633473,3.51640629501 C 6.97867308397,3.6889779392 7.33865462083,3.94327102334 7.62763599891,4.30458686978 C 7.92197225827,4.66109852225 8.1541146769,5.09670103819 8.31036704618,5.64384008677 C 8.46871128518,6.18904174597 8.53961523462,6.79622240097 8.53943624443,7.49471290142 C 8.53941629513,8.20471252234 8.44391971513,8.8236294511 8.25691310747,9.4154262069 C 8.06664971693,10.0032714132 7.79025454505,10.4834369841 7.43702013477,10.8983308795 C 7.07653788908,11.3109312478 6.6229960142,11.6114677611 6.0983946739,11.8331458244 C 5.56608186348,12.0534076217 4.94164620026,12.150128645 4.26483355149,12.150121045" fill="none" stroke="#000000" stroke-width="0.0128233122801"></path>
    <path d="M 4.54584679688,11.3276591564 C 5.11764142598,11.3276360605 5.59499061788,11.1089309875 6.00817529047,10.6014442269 C 6.41834381903,10.0980874721 6.63973676349,9.3136535708 6.65166615444,8.22673199811 C 6.6607986142,7.15628145376 6.47747250395,6.36721102634 6.12383224564,5.89678142705 C 5.75980376201,5.41474519411 5.25326656299,5.17750785985 4.61825071769,5.17749113066 C 4.30018054443,5.17752557175 4.0238566001,5.21822976993 3.78327516215,5.30343553351 C 3.54103371995,5.38849347757 3.33022270101,5.50011038707 3.15993102389,5.64751723336 C 3.15997616378,7.57426813172 3.15977296708,9.46258321331 3.15964277796,11.3997353606 C 3.3339488577,11.4943244524 3.553313471,11.5624674253 3.76197487823,11.6487895168 C 3.97820625416,11.7317043908 4.22125550322,11.7852054417 4.47178374938,11.7853816167" fill="none" stroke="#000000" stroke-width="0.0128233122801"></path>
</svg>