<svg baseProfile="full" height="600px" version="1.1" viewBox="-0.387852568389 -1.93865697086 9.14033196964 16.5093319357" width="333px" xmlns="http://www.w3.org/2000/svg" xmlns:ev="http://www.w3.org/2001/xml-events" xmlns:xlink="http://www.w3.org/1999/xlink">
    <defs></defs>
    <path d="M 1.54939236299,11.6616944093 C 1.47254091308,11.8909038174 1.36051580117,12.2371058333 1.34353993826,12.2214368786 C 1.03107957535,12.2215969482 0.705104842713,12.2227034529 0.379569396308,12.2228289838 C 0.840500369599,7.96922886329 1.28755624585,3.95307552772 1.68826489144,-0.557151675654 C 2.16951020055,-0.557138000663 2.55119137459,-0.557105802037 2.98461572819,-0.557104002888 C 2.77905771129,1.02003477866 2.57846449309,2.57421921546 2.38148944073,4.23759268576 C 2.65824817114,3.94256355221 3.01318286352,3.71723991985 3.04573879757,3.71735608521 C 3.14755405106,3.69320031944 3.28018700697,3.67645615655 3.37865348526,3.69049772563 C 3.49800076701,3.69003228408 4.00250348069,3.5137944327 4.58417489745,3.51388704962 C 5.33561685302,3.51387874864 5.94989433505,3.69591839693 6.45353754975,4.07689537189 C 6.96689638116,4.43927945278 7.35075482347,4.95909525535 7.60810440399,5.70305104635 C 7.87152298906,6.41379900358 7.98512673744,7.23838795803 7.98505740484,8.11971117638 C 7.98513514265,9.05863286636 7.83120400175,9.90948791883 7.5180168198,10.681690649 C 7.19470772609,11.4321890034 6.74017858967,12.0235445657 6.15727818474,12.4960428037 C 5.56064314112,12.9446679809 4.86587095722,13.1890433141 4.08722597822,13.1891696633 C 3.17570698723,13.1891991218 2.64425355658,13.0865181928 2.18479225501,12.8678426837" fill="none" stroke="#000000" stroke-width="0.0137463213453"></path>
    <path d="M 5.2201589775,11.4667037324 C 5.60914172053,11.1495259003 5.86227305054,10.7231952445 6.08129553318,10.1345629589 C 6.2961858195,9.56834982792 6.38723701804,8.84116743962 6.38715988642,8.0459926025 C 6.38737472632,7.16618966023 6.21280623713,6.47608070532 5.87894646564,5.95666300217 C 5.5371413056,5.45604835907 5.03568337598,5.19619991342 4.39134804645,5.19627703302 C 4.05987922588,5.19622313811 3.75195197502,5.25552810191 3.4615713779,5.37995258181 C 3.16243706384,5.49905307798 2.90360660592,5.66562625973 2.68434980252,5.89858597724 C 2.46150645354,6.11881029813 2.28811080494,6.36522478073 2.16525881478,6.66120141952 C 2.16514828474,7.88555270641 2.16491457371,9.09271818607 2.16475456478,10.3475287577 C 2.34323046626,10.629082205 2.46797763081,10.97863579 2.75945966215,11.1754497608 C 3.04186032982,11.3859083971 3.37628300758,11.5087029284 3.81767882676,11.5087012997 C 4.31057374449,11.5088529086 4.72347857328,11.4363047352 5.09774010153,11.2753651908" fill="none" stroke="#000000" stroke-width="0.0137463213453"></path>
</svg>