<svg baseProfile="full" height="600px" version="1.1" viewBox="-0.46400433711 -2.15182561017 8.99894175522 15.4453843058" width="350px" xmlns="http://www.w3.org/2000/svg" xmlns:ev="http://www.w3.org/2001/xml-events" xmlns:xlink="http://www.w3.org/1999/xlink">
    <defs></defs>
    <path d="M 1.50828614506,11.4334198914 C 1.44283041778,11.6562131129 1.35664677295,12.0153364919 1.33847430023,11.9988973539 C 0.982908752288,11.9990682675 0.634102937307,12.0009645423 0.291265991058,12.0010848215 C 0.815072086181,7.70453836234 1.32599123987,3.64884378226 1.78945851001,-0.859351141138 C 2.3158294526,-0.859361487983 2.80359086069,-0.859233395695 3.27771621617,-0.859238139547 C 3.05278868648,0.742085465036 2.83623827669,2.28965187892 2.62023810717,3.95606673583 C 2.65077157925,3.95625294759 2.68586606393,3.95364733683 2.71835025633,3.95379165581 C 3.03233620013,3.59118164352 3.37582164491,3.31803561023 3.75890391554,3.09132864348 C 4.16066407646,2.86993295721 4.60156875337,2.75211681447 5.04709955538,2.75222096168 C 5.84436550225,2.75218111827 6.47425266589,2.99212956979 6.96190872277,3.49744558885 C 7.47019066895,3.98591802074 7.77974643792,4.71307394459 7.77966707469,5.93012580826 C 7.77968059338,6.72295305683 7.70451776541,7.43518117621 7.5527462945,8.15389666512 C 7.3946842984,8.84932616903 7.15333527184,9.45867291643 6.81692471958,9.99498782112 C 6.46750876165,10.5141667481 6.04084905839,10.9075081999 5.52834036804,11.2128107305 C 4.99471613622,11.5043966825 4.3895216868,11.641737556 3.73029538847,11.6418069109 C 2.68599983907,11.6417892614 1.84367766834,11.2637856045 1.31014022089,10.4727496543" fill="none" stroke="#000000" stroke-width="0.0128604365577"></path>
    <path d="M 5.08187228089,9.95318526854 C 5.47650855428,9.62782467237 5.75335439688,9.22887880435 5.93505751735,8.63760412564 C 6.12395403927,8.06846172442 6.21341271346,7.3918396317 6.21327703507,6.67956192126 C 6.21338483981,5.86563742986 6.07111823848,5.24344814649 5.78253063849,4.77154062023 C 5.48581853799,4.31454695096 5.0272680252,4.0806511574 4.42420360736,4.0807287689 C 4.06659862689,4.08061409399 3.72996485523,4.15622044013 3.42321908764,4.30566849217 C 3.10223889641,4.45034966276 2.8268251448,4.65252845392 2.59427961997,4.92925961719 C 2.35513758949,5.19502889023 2.17240692965,5.49502148137 2.04284872404,5.85028927431 C 1.92727401397,6.84726404057 1.81864936939,7.80819629536 1.81848153091,8.75724850998 C 1.81848320349,9.27526091442 1.94159809484,9.70381950245 2.2406452073,9.98127849803 C 2.5423092617,10.2579662691 2.93841550483,10.4011780958 3.47282353772,10.4011912595 C 3.98308400049,10.4013693266 4.47474861874,10.3024481022 4.89754886164,10.0956594282" fill="none" stroke="#000000" stroke-width="0.0128604365577"></path>
</svg>