<svg baseProfile="full" height="600px" version="1.1" viewBox="-0.816759247125 -1.23726884059 9.73955471772 14.7856711246" width="396px" xmlns="http://www.w3.org/2000/svg" xmlns:ev="http://www.w3.org/2001/xml-events" xmlns:xlink="http://www.w3.org/1999/xlink">
    <defs></defs>
    <path d="M 4.06991577148,12.3111333847 C 3.49298226833,12.3111333847 2.95756864548,12.2469223738 2.46415773034,12.1185003519 C 1.9707468152,11.99007833 1.60430955887,11.8761400059 1.36581152678,11.7771681547 C 1.36581152678,8.37205350399 1.36581152678,4.96693885326 1.36581152678,1.56182420254 C 1.36581152678,1.44450633973 1.33394741639,1.35229354352 1.27118477598,1.28470300883 C 1.20793935284,1.21711247414 1.11765770987,1.17414420471 1.00033984706,1.15628099255 C 0.667215060443,1.10655367188 0.333607506007,1.05682635121 -4.842877388e-08,1.00709903054 C -4.842877388e-08,0.79998232238 -4.842877388e-08,0.59286561422 -4.842877388e-08,0.385266108438 C 0.392025034875,0.272776147351 0.824604462832,0.182494504377 1.29822100326,0.11490396969 C 1.77135474607,0.0473134350032 2.20393417403,0.00917305983603 2.59595925733,5.86733222008e-08 C 2.66837768629,0.0700045442209 2.74031332508,0.139526239596 2.81224896386,0.209530725144 C 2.81224896386,1.8703267714 2.81224896386,3.53112281766 2.81224896386,5.19240166154 C 3.08309390023,4.91286651697 3.40608011559,4.68740379717 3.78265597299,4.51601351704 C 4.15874903277,4.34462323692 4.5951907821,4.25916948821 5.09053285792,4.25916948821 C 5.51007695869,4.25916948821 5.9045160003,4.32917397376 6.27385001257,4.46870014723 C 6.64366679266,4.60870911833 6.96327345446,4.82596441265 7.23411839083,5.12094881292 C 7.50448052958,5.41641601082 7.7173907049,5.79588859435 7.8728489317,6.26033212896 C 8.0283071585,6.72477566358 8.1060362719,7.2814319646 8.1060362719,7.93030106183 C 8.1060362719,8.6018612897 8.01816857234,9.20921050664 7.84243317321,9.75234871265 C 7.66669777408,10.2954869187 7.40985373035,10.7551025664 7.07141825929,11.1311956262 C 6.73346558586,11.5077714836 6.31199035421,11.7984107947 5.80747530237,12.0035963422 C 5.3024774529,12.2087818896 4.72361281887,12.3111332646 4.06991580501,12.3111332646" fill="none" stroke="#000000" stroke-width="0.012311133326"></path>
    <path d="M 4.178060662,11.5473602405 C 4.93507469818,11.5473602405 5.51538772509,11.2890678337 5.91899977252,10.7729658177 C 6.32212905213,10.2568638017 6.53069413826,9.43805280235 6.54421224538,8.31556716468 C 6.56255824771,7.18439128902 6.38440890517,6.39116808679 6.01024700608,5.93589752819 C 5.63608510699,5.4806269696 5.13350118604,5.25323308911 4.50249530282,5.25323308911 C 4.16454262938,5.25323308911 3.85604013409,5.30585715082 3.57650498953,5.41207085457 C 3.29696984496,5.51780176815 3.04205696192,5.66553536709 2.81224913802,5.85478887614 C 2.81224913802,7.64159283694 2.81224913802,9.42887971457 2.81224913802,11.2156836754 C 2.98363941815,11.3059653183 3.1796519598,11.3836944317 3.4007695606,11.4493538057 C 3.62140439358,11.514530397 3.88066236582,11.547360084 4.1780607244,11.547360084" fill="none" stroke="#000000" stroke-width="0.012311133326"></path>
</svg>