<svg baseProfile="full" height="600px" version="1.1" viewBox="-0.189718005455 -1.86201477099 8.51763050538 15.1962855732" width="337px" xmlns="http://www.w3.org/2000/svg" xmlns:ev="http://www.w3.org/2001/xml-events" xmlns:xlink="http://www.w3.org/1999/xlink">
    <defs></defs>
    <path d="M 1.70109922768,11.7244643604 C 1.59602264644,11.7244593551 1.3180661905,11.7285161525 1.12684200288,11.7287429339 C 0.937179754988,11.728855069 0.736506517545,11.7282841727 0.525356631295,11.7284639141 C 0.878182153718,7.66477182123 1.22966546895,3.78196933481 1.56589571716,-0.590246413022 C 2.01699085118,-0.590276192361 2.19709157528,-0.590307720119 2.59893521251,-0.590385545253 C 2.42170023503,0.929556023122 2.24322083177,2.45070458555 2.07021472933,4.07213414812 C 2.32931027891,3.7968458643 2.66965014817,3.5773708483 3.06318445088,3.37993146086 C 3.47012941124,3.19042268002 3.89630873086,3.08610097671 4.39351011397,3.08574458988 C 5.01425017001,3.0857833107 5.53109092595,3.2140570213 5.99516845824,3.4961025943 C 6.4703240204,3.76291777985 6.84691981556,4.15582954185 7.13550374986,4.712515824 C 7.43038318636,5.24300777213 7.61291764261,5.89899926679 7.61283780023,6.87051581638 C 7.61294007898,7.74807786243 7.4884093687,8.52699958579 7.23567154855,9.24536376493 C 6.97634824962,9.9329762985 6.61854359359,10.4883829285 6.15047138781,10.9455832769 C 5.67353978604,11.3790884544 5.11657246799,11.6651190747 4.48990669698,11.8485807111 C 3.85210612268,12.022608154 3.18895086497,12.0625746143 2.53788640947,12.0626415765" fill="none" stroke="#000000" stroke-width="0.0126530271217"></path>
    <path d="M 3.86760786445,10.8885012706 C 4.3772175637,10.8886241938 4.82412541182,10.5954608943 5.18605971606,10.0440980221 C 5.55116141112,9.51741212861 5.75267903776,8.77304017799 5.7528066719,7.76128983753 C 5.75304338822,6.84441226976 5.58532645295,6.0997447993 5.25871889779,5.56224209325 C 4.92309351752,5.04257363336 4.43702658007,4.76812741415 3.76795758793,4.76819173226 C 3.4394561846,4.76816582598 3.14497907946,4.82005168416 2.86079209039,4.9261677704 C 2.57146509478,5.02838260599 2.32388417909,5.17105884023 2.11846957097,5.3679480023 C 1.9108740736,5.55238094099 1.74404977748,5.76012555428 1.62612378338,6.0101539559 C 1.62601819245,7.43006200262 1.62580306691,8.83065146871 1.62564122649,10.3164195485 C 1.8117066917,10.5410646565 1.93242932083,10.8252313799 2.21134043457,10.9778380758 C 2.48075840594,11.1427213467 2.78852952244,11.2418928809 3.19226232888,11.2418672045" fill="none" stroke="#000000" stroke-width="0.0126530271217"></path>
</svg>