<svg baseProfile="full" height="600px" version="1.1" viewBox="-0.534234318817 -2.6312902562 9.74634053903 15.3718299677" width="381px" xmlns="http://www.w3.org/2000/svg" xmlns:ev="http://www.w3.org/2001/xml-events" xmlns:xlink="http://www.w3.org/1999/xlink">
    <defs></defs>
    <path d="M 1.63214245043,10.6996785126 C 1.58209887124,10.9361940942 1.538473889,11.3156430147 1.52812784794,11.301580381 C 1.09751883033,11.301756388 0.694654880794,11.3037822264 0.2832937229,11.3039162055 C 0.90183609608,7.01497434532 1.48717039707,2.96420883095 2.0510027993,-1.34497142876 C 2.66975223902,-1.34493493922 3.23741239193,-1.34478150363 3.8061422694,-1.3447770814 C 3.55405193451,0.266428734867 3.31641870621,1.80558839044 3.07701045159,3.39609720906 C 3.10802013497,3.39649204665 3.1398229308,3.39378296688 3.17114952277,3.39377837841 C 3.49214565824,2.99381502931 3.82874468039,2.69570087854 4.22176623415,2.45960664217 C 4.63567256998,2.22068054442 5.08693635534,2.09121402566 5.54977193545,2.09127238391 C 6.49430033635,2.09115082848 7.17323079775,2.40068868625 7.65526396106,3.04389522302 C 8.16101074289,3.68640921343 8.39469042491,4.61651013124 8.39457813805,5.76271245706 C 8.39456252718,6.47642181146 8.31165526026,7.19260523546 8.15435015374,7.87783042419 C 7.9906721037,8.57355795133 7.73924430424,9.20422975052 7.38338335568,9.76063064564 C 7.01061438733,10.318623402 6.55342846328,10.7280355178 6.00084536487,11.031570413 C 5.41630857402,11.336812862 4.76004915649,11.4541850694 4.01836036855,11.4542208841 C 2.87570773774,11.4541974719 2.02281605416,11.052654868 1.51097636634,10.2003682311" fill="none" stroke="#000000" stroke-width="0.0127991923128"></path>
    <path d="M 5.38693775233,9.52307675414 C 5.77159576114,9.18527634077 6.03842349347,8.79520408444 6.19783426817,8.20273969703 C 6.36652389165,7.62580690913 6.45689713951,6.97880993419 6.45679262558,6.34590379529 C 6.45685423405,5.64506564669 6.34417388827,5.08464310698 6.10781722755,4.68331391744 C 5.86064396293,4.27900601559 5.47004858644,4.06600549452 4.92876319081,4.06601968262 C 4.52799675853,4.06583179686 4.1663371721,4.15995565955 3.8515721956,4.33766717616 C 3.51765824349,4.51609511081 3.23061157257,4.76366923157 2.98118447752,5.09395674769 C 2.72275122494,5.42324919406 2.53024224431,5.794177869 2.38867701084,6.22634784285 C 2.28735956789,6.92641113106 2.20685079188,7.54690770213 2.20665959117,8.08113888804 C 2.20664127067,8.65726588074 2.3284078528,9.14096952382 2.61234560505,9.47665278021 C 2.90057060019,9.81625659172 3.29608350889,9.99277117256 3.87440937654,9.99287233155 C 4.32996404067,9.99300995492 4.86909085408,9.88010668777 5.33058461443,9.64088796102" fill="none" stroke="#000000" stroke-width="0.0127991923128"></path>
</svg>