<svg baseProfile="full" height="600px" version="1.1" viewBox="-0.857458669029 -1.23726865918 10.2279445851 14.7856709266" width="416px" xmlns="http://www.w3.org/2000/svg" xmlns:ev="http://www.w3.org/2001/xml-events" xmlns:xlink="http://www.w3.org/1999/xlink">
    <defs></defs>
    <path d="M 4.09260654449,12.3111333847 C 3.5036033392,12.3111333847 3.04253932834,12.1909187883 2.70941454172,11.9509723932 C 2.37677255273,11.711025998 2.08999556303,11.4218350798 1.85004916787,11.0833996087 C 1.82832363993,11.0833996087 1.80611531995,11.0833996087 1.78438979201,11.0833996087 C 1.66996867768,11.4271457642 1.55506476574,11.7708919197 1.44064365141,12.1146380752 C 0.960268063471,12.1146380752 0.480375273153,12.1146380752 -3.1478703022e-07,12.1146380752 C 0.856951100752,8.07658647001 1.71341971867,4.03805182874 2.57037113421,2.23517417908e-07 C 3.16516785137,2.23517417908e-07 3.75996456854,2.23517417908e-07 4.35476128571,2.23517417908e-07 C 3.97818542831,1.77907954156 3.60160957091,3.55815885961 3.2250337135,5.33723817766 C 3.54174364917,5.02052824199 3.92652688734,4.77478836477 4.37938348763,4.60050134361 C 4.83224008791,4.42573153973 5.32082308643,4.33834663779 5.84464974515,4.33834663779 C 6.31392119639,4.33834663779 6.71511931531,4.42042086273 7.0477613043,4.58408651501 C 7.38088609092,4.74775216728 7.65607611649,4.96886976808 7.87477978878,5.24695654958 C 8.09300066344,5.52504333109 8.25376957469,5.84464999288 8.35756932758,6.20481099933 C 8.46136908047,6.56497200578 8.51302756183,6.94685851783 8.51302756183,7.35047056526 C 8.51302756183,8.02734150738 8.3986064475,8.66558929533 8.16928142123,9.26617946476 C 7.93995639496,9.86628689617 7.62614318542,10.393010281 7.22784182243,10.8458668813 C 6.82954045944,11.2987234816 6.3602690082,11.6564705297 5.82002752833,11.9181424603 C 5.27978604846,12.1802971587 4.70381814055,12.3111331239 4.09260660224,12.3111331239" fill="none" stroke="#000000" stroke-width="0.0123111331612"></path>
    <path d="M 4.15826597624,10.9525633827 C 4.55125668459,10.9525633827 4.90321025066,10.8487636298 5.21412670426,10.641164124 C 5.52504315786,10.4340474159 5.79009461217,10.1689959615 6.00831548683,9.84745813906 C 6.2265363615,9.52543751895 6.39551269822,9.17058722675 6.51572729461,8.78290723264 C 6.635941891,8.39571000636 6.69580779411,8.01623742282 6.69580779411,7.64545507729 C 6.69580779411,7.12162841856 6.57028251328,6.67118577659 6.31923195161,6.29460991919 C 6.06818138994,5.91803406179 5.66988002695,5.72974613309 5.12432783283,5.72974613309 C 4.80761789717,5.72974613309 4.46387174167,5.80361293256 4.09260659851,5.95086373389 C 3.72182425298,6.09811453521 3.32883354463,6.3737873584 2.91411733069,6.77788220346 C 2.69010298885,7.82553552091 2.46657142974,8.87318883836 2.24303987063,9.92084215581 C 2.3299419824,10.0845078081 2.44725984521,10.229344666 2.59499344416,10.3548699468 C 2.74224424548,10.4803952277 2.90059921332,10.5866089314 3.06957555003,10.6739938334 C 3.23855188675,10.7613787353 3.41863238998,10.8294520602 3.60981704481,10.8786965907 C 3.80100169964,10.9279411212 3.98349614628,10.9525633864 4.15826595016,10.9525633864" fill="none" stroke="#000000" stroke-width="0.0123111331612"></path>
</svg>