<svg baseProfile="full" height="600px" version="1.1" viewBox="-0.758295535255 -2.92986216242 9.96960974167 15.6339468532" width="383px" xmlns="http://www.w3.org/2000/svg" xmlns:ev="http://www.w3.org/2001/xml-events" xmlns:xlink="http://www.w3.org/1999/xlink">
    <defs></defs>
    <path d="M 1.82021180027,10.0950611024 C 1.77961527788,10.329083973 1.74989065946,10.7106985091 1.71343744964,11.1222129105 C 1.14679534406,11.1220049889 0.594649147699,11.1228088042 0.0779292103744,11.1229537786 C 0.775794040868,6.82856119281 1.42121971817,2.72677219516 2.03489292831,-1.62160932416 C 2.71324778766,-1.62148287663 3.32559872837,-1.62144685646 3.96204597921,-1.6214424557 C 3.70070553989,-0.0435905641843 3.44972543092,1.47499893243 3.20107723446,3.01321218545 C 3.50281460256,2.68544108803 3.81992740602,2.43988625342 4.22933058114,2.24980862076 C 4.65367190213,2.06047312552 5.07449577422,1.9535995313 5.50759879918,1.95360704092 C 6.41617969842,1.95354004118 7.09935716958,2.26547686669 7.59762437315,2.89124284598 C 8.12540413112,3.51955722186 8.37521186144,4.41863571021 8.37508941579,5.55712233397 C 8.37514632898,6.18323872897 8.29573731082,6.86577604625 8.14397269445,7.50857679459 C 7.98759996848,8.15989379498 7.75600668745,8.76886252972 7.265856355,9.43818019244 C 6.78091505127,10.0868745885 6.2092914279,10.5573872766 5.50809672432,10.9217161975 C 4.78213587361,11.2798003099 4.02458050804,11.395799785 3.26045319395,11.3958318451 C 2.29503336506,11.3958945552 1.56037971335,11.00069019 1.08701887684,10.1871884743" fill="none" stroke="#000000" stroke-width="0.0130174411767"></path>
    <path d="M 4.82675496759,9.37868476654 C 5.20907647433,9.04179812218 5.47653735699,8.64427495743 5.65680908682,8.04322183873 C 5.8459578109,7.4593257382 5.95237415554,6.83634389187 5.95234664093,6.22430080916 C 5.9523819862,5.56566221262 5.85278664064,5.02903027083 5.64018129837,4.65505362297 C 5.41866708827,4.27773467447 5.06557322573,4.06972659375 4.55951423478,4.06970850148 C 4.14680639934,4.06952492581 3.78631473613,4.17279432402 3.47568963003,4.3510891466 C 3.14428866935,4.53209006475 2.86180541944,4.78974687741 2.61428294611,5.12514769719 C 2.35725582671,5.46211483763 2.16747170222,5.84527536915 2.02836787236,6.28936594413 C 1.93478481751,6.89392697499 1.86313256156,7.41912573264 1.86296496554,7.85412051962 C 1.86291034527,8.41623469876 1.97867371149,8.89948185967 2.24442432828,9.2407324879 C 2.51567585774,9.58420112417 2.89495931573,9.76650288389 3.48272453256,9.766617195 C 3.909281388,9.76672219133 4.46125705548,9.6522028262 4.93905474253,9.41101231819" fill="none" stroke="#000000" stroke-width="0.0130174411767"></path>
</svg>