<svg baseProfile="full" height="600px" version="1.1" viewBox="-0.184427651496 -1.91610089043 8.66502674417 16.2136732553" width="321px" xmlns="http://www.w3.org/2000/svg" xmlns:ev="http://www.w3.org/2001/xml-events" xmlns:xlink="http://www.w3.org/1999/xlink">
    <defs></defs>
    <path d="M 2.20918202889,11.7846434853 C 2.12064319593,11.7846281639 1.81356695038,11.7880920696 1.57856265944,11.7883085271 C 1.32733432692,11.7879341421 1.07978610438,11.7845943257 0.830435541691,11.7847418212 C 0.830505891165,7.76566261282 0.830840275754,3.96647113791 0.830678950704,-0.187277851197 C 1.10200906888,-0.187436053027 0.984793435491,-0.18768345334 0.763353492774,-0.18801715623 C 0.543789025105,-0.185254614356 0.543394728767,-0.391600083116 0.543282970626,-0.55891121507 C 0.983645006854,-0.559049269046 1.38699237986,-0.559287843942 1.86905719324,-0.559336392384 C 1.94808805718,-0.502978345554 2.02028164997,-0.460773123603 2.02028239792,-0.361124819319 C 2.02041956941,1.20267313143 2.02035852294,2.70359378477 2.02007314309,4.25074475427 C 2.25287168965,4.00171771069 2.57393711552,3.7953949364 2.93947139129,3.62549441477 C 3.31530701861,3.45474430342 3.74090528235,3.36313838681 4.21215378985,3.36282088369 C 4.77092975124,3.36287284146 5.27791034922,3.47017368922 5.72655868277,3.70008859286 C 6.18608799323,3.92429106186 6.57765716061,4.24853177617 6.88971772536,4.70386962841 C 7.20849090561,5.14917041609 7.4387220715,5.68819590161 7.58079005524,6.35237445185 C 7.72249598548,7.00840415309 7.75301755897,7.71019841979 7.75288806097,8.37688626597 C 7.75293914702,9.14115949223 7.61865572359,9.83481200287 7.35679088261,10.4861169035 C 7.09065620329,11.1289408381 6.71341435339,11.6386695678 6.2424520674,12.0671451862 C 5.76187331702,12.4856419439 5.18037833001,12.7602420325 4.51965684917,12.9408072258 C 3.7886778238,12.9410282447 3.32068703797,12.8840218111 2.63165490057,12.8840552281" fill="none" stroke="#000000" stroke-width="0.0135001442592"></path>
    <path d="M 4.26248181222,11.7152499283 C 4.93680417893,11.715224552 5.4146623647,11.4001988946 5.76048565266,10.8541504322 C 6.107181195,10.3088231264 6.26944598911,9.51235921967 6.27155786573,8.46311207402 C 6.2727563993,7.48337211001 6.07161995926,6.70732642997 5.68820277014,6.16111000169 C 5.29829317489,5.6180336653 4.75598770538,5.34031765449 4.06022292533,5.34040108375 C 3.74880668678,5.34039526359 3.47957918205,5.37993664593 3.22004282632,5.46107248515 C 2.96022236505,5.54171938002 2.73569315829,5.65271197558 2.55022829929,5.80568842888 C 2.36345751741,5.95142154694 2.208461167,6.11560915709 2.20830910033,7.98600445986 C 2.20867900041,9.10870217085 2.20593020533,10.0728664875 2.45115971778,10.4337428987 C 2.67192916785,10.8361696482 2.97417463575,11.0153489292 3.42051898156,11.0153471113 C 3.86200632368,11.0223051271 4.29899732981,10.9211431703 4.71362064992,10.6984947285" fill="none" stroke="#000000" stroke-width="0.0135001442592"></path>
</svg>