<svg baseProfile="full" height="600px" version="1.1" viewBox="-0.527387890219 -2.37654896959 9.4673926061 15.4235777964" width="369px" xmlns="http://www.w3.org/2000/svg" xmlns:ev="http://www.w3.org/2001/xml-events" xmlns:xlink="http://www.w3.org/1999/xlink">
    <defs></defs>
    <path d="M 1.53937977169,11.1494434357 C 1.48308161635,11.3777139068 1.41928146769,11.7436989129 1.40013535124,11.7280276336 C 1.00795264345,11.7281994518 0.637120110805,11.7302524949 0.266912443455,11.7303905085 C 0.844115180786,7.42265697274 1.38655583363,3.33847566399 1.89921305877,-1.08589987006 C 2.47728262645,-1.08588732269 3.01115034323,-1.08575697184 3.52602229815,-1.08575638728 C 3.28614438873,0.51744226022 3.06034169894,2.0646609406 2.83099038702,3.69713691278 C 2.86169295375,3.69734702657 2.8957600518,3.69498073568 2.92749422405,3.69503732274 C 3.24742018793,3.31355084727 3.58497777198,3.02202730129 3.98163616274,2.7885186101 C 4.39722874377,2.55631831536 4.84960692738,2.43145489196 5.3105049691,2.43148717749 C 6.21689670895,2.43142539299 6.89204096411,2.7260945443 7.37958219264,3.33868187703 C 7.89236875985,3.94186234511 8.14579495404,4.83761799372 8.14570435792,6.0399496559 C 8.14570777454,6.76899850405 8.06319181957,7.49829334057 7.90198853948,8.20371967591 C 7.73437522688,8.90370744503 7.47911866345,9.5309540037 7.12230246105,10.0836448077 C 6.74960978665,10.6267636422 6.29553507605,11.0304258767 5.75182043352,11.3344555799 C 5.17999159136,11.6326483492 4.53602056541,11.7563187633 3.82205371895,11.7563797272 C 2.72306578197,11.7563603109 1.86923615971,11.3601438885 1.35634814539,10.5327085739" fill="none" stroke="#000000" stroke-width="0.0128422795973"></path>
    <path d="M 5.18810559729,9.89990997091 C 5.57514633158,9.5597529687 5.84300137976,9.16389381662 6.01572164813,8.57229375616 C 6.19688510815,7.99937271848 6.28895740876,7.34620475546 6.28882233959,6.6676342465 C 6.28891992269,5.91411024109 6.16187004445,5.32729697004 5.90144566892,4.8876970388 C 5.63107300995,4.45391511694 5.20957071779,4.22785329595 4.64158810375,4.22789960361 C 4.26755340098,4.22774502452 3.91640965341,4.31419420804 3.60401250122,4.4790441301 C 3.27333618401,4.64194785621 2.98974166511,4.8691018429 2.74651409386,5.17606352832 C 2.49527842997,5.47718789246 2.30523597894,5.81370144154 2.17015887497,6.21206503178 C 2.06102686821,7.05241899754 1.96373793183,7.83525525596 1.96357193979,8.55473493602 C 1.96358268901,9.11193256642 2.08599275544,9.58683609034 2.3746043165,9.90095861818 C 2.66692784622,10.2178790775 3.06105289056,10.3823622074 3.61988386705,10.3824343158 C 4.09026757076,10.3825892036 4.60704752996,10.2757737165 5.04873877957,10.0498076652" fill="none" stroke="#000000" stroke-width="0.0128422795973"></path>
</svg>