<svg baseProfile="full" height="600px" version="1.1" viewBox="-0.0776560818796 -2.02494066625 9.44538439759 16.3431375701" width="347px" xmlns="http://www.w3.org/2000/svg" xmlns:ev="http://www.w3.org/2001/xml-events" xmlns:xlink="http://www.w3.org/1999/xlink">
    <defs></defs>
    <path d="M 1.9129883835,11.8058852444 C 1.82420953008,11.8058535463 1.5402302632,11.8096223515 1.33325298521,11.8098607547 C 1.16249244305,11.8099417282 0.942888993948,11.8081767836 0.715129260152,11.8083562845 C 0.715288426745,7.7138662332 0.715627143876,3.8314309114 0.715539095301,-0.415232659008 C 1.0830782329,-0.415431143116 1.12579814096,-0.415523827916 1.11007394952,-0.415856271193 C 1.08455317592,-0.40923184124 1.08404877586,-0.591644897733 1.08392948736,-0.656477592562 C 1.59575385679,-0.656669376734 2.0390683495,-0.657341757407 2.53861726154,-0.657342559845 C 2.63114235629,-0.595758575201 2.71068038125,-0.548147021979 2.71059394732,-0.399696990103 C 2.71074984228,1.06327898875 2.71064784272,2.45636697188 2.7103851434,3.90322466269 C 2.97069773042,3.6514024891 3.3062127825,3.46037896052 3.6756832298,3.30588184372 C 4.05936199391,3.15227627829 4.4811342355,3.07293437496 4.90411743486,3.07258630487 C 5.53348138892,3.07263868506 6.08065775001,3.19894995744 6.5609377023,3.4698769396 C 7.05582499468,3.7342687195 7.46940019691,4.10749595816 7.78781825268,4.62602108176 C 8.11472496354,5.13188075478 8.33787684107,5.73920517618 8.46017147565,6.4749637788 C 8.58145486527,7.19475155527 8.57495188211,7.93818634207 8.57485607991,8.54842370207 C 8.57491570038,9.33772700484 8.41529590709,10.0527372902 8.09697080476,10.7189686244 C 7.7731376074,11.3754545396 7.32010401113,11.8845673149 6.76314289195,12.3037674671 C 6.19181407315,12.7113246268 5.50687963588,12.950581277 4.72270906789,12.9505987707 C 3.96811188085,12.9506488851 3.46456498725,12.8800592682 3.01120159847,12.7241733781" fill="none" stroke="#000000" stroke-width="0.0136079413572"></path>
    <path d="M 5.69629655078,11.4567655086 C 6.07149360374,11.1784039795 6.3184530814,10.7737343669 6.56442538694,10.2057064533 C 6.79853264287,9.64368585344 6.89490304932,8.91578469273 6.89506774472,8.05544648167 C 6.89537793061,7.05971339937 6.69835675916,6.32706013914 6.32742599806,5.79623583552 C 5.95079518518,5.27461067434 5.41715056858,5.01648375984 4.75751603803,5.01657100883 C 4.44683257899,5.01653690272 4.17163549027,5.05974195533 3.9102109488,5.15114371859 C 3.64682556352,5.2413661369 3.41917752883,5.36246840291 3.23384214601,5.52796487146 C 3.04603132269,5.68641863399 2.89235725662,5.86065785222 2.89259037701,6.07924882703 C 2.892583575,7.69193951421 2.89239161389,9.27898089223 2.89225255979,10.9488482886 C 3.0627969904,11.0428889283 3.3272708459,11.1642999017 3.57586654557,11.2788801529 C 3.8414444281,11.3950687759 4.147016163,11.4684182965 4.49466833008,11.4684479391" fill="none" stroke="#000000" stroke-width="0.0136079413572"></path>
</svg>