<?xml version="1.0" ?>
<svg baseProfile="full" height="600px" version="1.1" viewBox="-0.52797621174 -1.02648292023 4.55298083388 6.03362198086" width="453px" xmlns="http://www.w3.org/2000/svg" xmlns:ev="http://www.w3.org/2001/xml-events" xmlns:xlink="http://www.w3.org/1999/xlink">
	<defs/>
	<path d="M 0.934130949139,3.83056834221 C 0.767421675086,3.83050750227 0.5922873739,3.81864703012 0.459591460585,3.74506281626 C 0.335911338389,3.66951611948 0.207601671278,3.5912919299 0.122655977666,3.45920882684 C 0.0432605344649,3.32708985668 -0.0344901707176,3.19521082503 -0.0765069786612,3.01257115167 C -0.116855080068,2.83179288667 -0.146408826873,2.6552150504 -0.146467878734,2.40967039329 C -0.146473524423,2.03411979538 -0.0579806391906,1.62917322975 0.0600174318242,1.29365254504 C 0.172003010957,0.956205438197 0.389754946082,0.635780792058 0.592032680957,0.373442302764 C 0.784224818199,0.114366214097 1.09637779996,-0.111845229447 1.37198347852,-0.27336600858 C 1.6309904556,-0.434457291543 2.00137091681,-0.52152453798 2.31125606105,-0.521587816125 C 2.550867493,-0.521614760377 2.81749355301,-0.46191533304 2.99704846248,-0.336604658731 C 3.1622879456,-0.213254396089 3.33162018165,-0.038415525325 3.43033223852,0.171929713122 C 3.52230192974,0.377731811039 3.59758930161,0.626424919597 3.62393842891,0.893658082716 C 3.64794888228,1.15522662901 3.64310996814,1.43764476084 3.6430738586,1.70835791134 C 3.64301818148,2.06207771205 3.57555654184,2.40129978561 3.43304226831,2.73715622329 C 3.30282769636,3.07049832844 3.10843282477,3.36635742687 2.85689031616,3.6337126603 C 2.62961746291,3.89708019399 2.32830340699,4.10591792666 1.98128939704,4.26668876015 C 1.67192603186,4.42454388344 1.29833511547,4.5023052951 0.910703997171,4.50224392936" fill="none" stroke="#000000" stroke-width="0.00502383179089"/>
	<path d="M 1.27878514752,2.73467882806 C 1.36014888511,2.73463629885 1.46949964837,2.72129404406 1.56625669525,2.68400113518 C 1.65550986007,2.64656208316 1.76462951377,2.59659701074 1.86146365181,2.5239734673 C 1.95007748232,2.45156184817 2.05392990336,2.36410118128 2.14375157729,2.25412257249 C 2.22548762784,2.14662607993 2.31249638722,2.02802674706 2.38478895352,1.88603516156 C 2.45016907976,1.7471173131 2.51188837067,1.60193152959 2.56089136824,1.43816456432 C 2.60507900343,1.27715668316 2.63552713655,1.11550797755 2.65806442947,0.943618836352 C 2.67794967331,0.775409626314 2.67967972351,0.614659535238 2.67558359267,0.455763908574 C 2.67557761496,0.251425581524 2.65177441625,0.109441848943 2.60928847505,-0.00504947965419 C 2.57092427327,-0.117519570043 2.51007092236,-0.189868865064 2.43846161155,-0.240355384996 C 2.37314157425,-0.289774680039 2.2865938866,-0.308238271153 2.1943966472,-0.306883744774 C 2.11090715467,-0.304628855893 2.01088649272,-0.27810905815 1.88568291305,-0.1927772531 C 1.77362756668,-0.109024114319 1.65155922859,-0.00429876835005 1.52101517706,0.145901747635 C 1.40244791149,0.29381971865 1.28271778165,0.459684260777 1.16250680624,0.660100170067 C 1.05398534475,0.858472683123 0.955912510441,1.06497073977 0.86479832469,1.29403135984 C 0.783472063527,1.52066763549 0.720743896947,1.74232520967 0.671750287102,1.9684903553 C 0.62796863033,2.19114475756 0.606273450465,2.39451930731 0.601300483611,2.58820297628 C 0.601268917902,2.78756218462 0.619102296068,2.94956999331 0.670409273936,3.08200273722 C 0.716402609482,3.21305384546 0.776630592181,3.31011350512 0.86804221256,3.38188150584" fill="none" stroke="#000000" stroke-width="0.00502383179089"/>
</svg>
