<?xml version="1.0" ?>
<svg baseProfile="full" height="600px" version="1.1" viewBox="-0.200919380042 -0.760885008775 3.05470121424 4.98895627551" width="368px" xmlns="http://www.w3.org/2000/svg" xmlns:ev="http://www.w3.org/2001/xml-events" xmlns:xlink="http://www.w3.org/1999/xlink">
	<defs/>
	<path d="M 0.424680696822,1.1470307673 C 0.57297867725,1.09541829328 0.701888026692,1.08684608831 0.881905274488,1.08685970143 C 1.18432964573,1.08680611191 1.50559978376,1.19132603792 1.64103859851,1.19130782188 C 1.85706819782,1.19129678614 2.1157351006,1.39443416901 2.26673703084,1.57277987905 C 2.40893531034,1.75378818817 2.5138811935,2.01276136942 2.5138684236,2.32486639924 C 2.51384378866,2.72564162321 2.38845266298,3.06136815257 2.1556820114,3.34139649577 C 1.93156932191,3.6257844419 1.60097657041,3.81062658138 1.20079986648,3.81059407203 C 0.902625962057,3.810567806 0.6132059832,3.75293923029 0.396555974045,3.61166591057 C 0.199459149399,3.47154901036 0.0554453422212,3.28854717919 0.0553699534414,3.10555445262 C 0.0553370234941,2.98868075617 0.0678483066533,2.93659519263 0.0893907440279,2.89326082029 C 0.107154327017,2.84397926786 0.144244732839,2.82460214616 0.212578991932,2.82459111563 C 0.295641230923,2.82458044469 0.428856941444,2.84431122683 0.428887448052,2.92110465907 C 0.428864188887,3.02383459054 0.456980275385,3.13209693574 0.525989676289,3.25826381587 C 0.591571832471,3.38879225098 0.666314648859,3.49873663925 0.859630333655,3.49871910123 C 1.0891936295,3.49869726602 1.2764575802,3.40876737241 1.43512214946,3.40872952628 C 1.61760291683,3.40871909114 1.78128794061,3.18436239513 1.8634794526,2.94958191964 C 1.94001855927,2.71107072982 1.97190299856,2.39668558392 1.97187381834,2.19026818725 C 1.97185562036,1.87437224242 1.83222369335,1.57796552631 1.68759321652,1.45748195651 C 1.55107497654,1.32879043224 1.31039297066,1.23941990587 1.08332223676,1.23940376479 C 0.924299547891,1.23937164672 0.672610799293,1.34972496756 0.545568669657,1.51320775278 C 0.52982526503,1.53065191075 0.503524261038,1.54702637769 0.49210934292,1.54704797217 C 0.452261272329,1.54701654719 0.423506125319,1.54770943465 0.380886844802,1.52006312775 C 0.342960599321,1.48879790249 0.320394539717,1.43184047507 0.320414211021,1.30308448838 C 0.320398289725,1.11427266466 0.425914790496,0.580301176182 0.541999239489,0.0419541107335 C 0.575821243241,-0.165295262464 0.599532580018,-0.219924722441 0.625107010841,-0.257584460654 C 0.651541676387,-0.296820752897 0.66649397371,-0.302058715482 0.94455661533,-0.302044724337 C 1.32835083363,-0.302110336849 1.71315880773,-0.302081752563 2.04419632909,-0.302063642887 C 2.19151972888,-0.302105023135 2.31785470901,-0.327044277061 2.40276752321,-0.325020838138 C 2.43481966389,-0.32504622928 2.49752242399,-0.334654400229 2.54375805242,-0.341227949701 C 2.54765367114,-0.341263020512 2.59751351901,-0.352479780193 2.59749255894,-0.323685096677 C 2.59747438379,-0.241287084397 2.56906112157,-0.150255696949 2.56903351655,-0.0720268135033 C 2.56899680812,0.0123415495195 2.53284391258,0.110978407685 2.48642244432,0.155142491583 C 2.44383152444,0.20074375895 2.36631421615,0.230436496336 2.13986368347,0.230435300869 C 1.81018994618,0.230401140175 1.47971840073,0.230389546514 1.23672395814,0.230392030881 C 1.11563435812,0.230324341418 0.910325548241,0.245822223337 0.772071427295,0.263105670424 C 0.68761385102,0.572581777783 0.624198003301,0.88581127903 0.58365742732,1.05494917414 C 0.574419315534,1.07377701482 0.568640951628,1.09057913019 0.565896193592,1.10409061095 C 0.565868279497,1.16308443105 0.571254784307,1.16380038208 0.577501472151,1.16769067666 C 0.59721979878,1.17453764754 0.608275817773,1.1678462052 0.623556130631,1.16740739316 C 0.667179738237,1.15970162878 0.745222468926,1.12478956039 0.766455254583,1.1224801563 C 0.826918798565,1.10910076502 0.899863491832,1.09769106976 0.949678140758,1.09769730483" fill="none" stroke="#000000" stroke-width="0.00415400189468"/>
</svg>
