<?xml version="1.0" ?>
<svg baseProfile="full" height="600px" version="1.1" viewBox="-0.09978307222 0.0108141723418 2.3499799635 4.7955857804" width="295px" xmlns="http://www.w3.org/2000/svg" xmlns:ev="http://www.w3.org/2001/xml-events" xmlns:xlink="http://www.w3.org/1999/xlink">
	<defs/>
	<path d="M 1.98779012362,2.70316979503 C 1.98777682503,2.80477284854 1.98778130742,2.91970724827 1.98774792753,3.02587542152 C 1.9877382398,3.21262836671 1.95778862689,3.2126316471 1.94725094199,3.21258914048 C 1.93296492401,3.21256238204 1.88412705366,3.21258990493 1.8737109492,3.21257332704 C 1.85107647277,3.21257052991 1.85109771162,3.4823415396 1.85107458952,3.67348882232 C 1.85103000834,3.92813962374 1.848684719,4.14167609487 1.84863832539,4.35942390237 C 1.79881799912,4.35941316391 1.75660439899,4.40514277871 1.69393600097,4.40510370521 C 1.64287618121,4.40512052988 1.57801889201,4.405135605 1.57798402574,4.25161557224 C 1.57175207282,4.11523725417 1.57467821571,3.98112957504 1.5746239354,3.71246187713 C 1.57456562896,3.45754824903 1.57458651436,3.25240035679 1.57455940641,2.98356382873 C 1.2130052904,2.98356205659 0.764558927186,2.98355492649 0.354172513851,2.98354831222 C 0.263248966106,2.98351605063 0.226928633668,2.97533377459 0.181561847248,2.94939585229 C 0.132078860917,2.92550412392 0.0980189564011,2.89818834526 0.0979584768806,2.86688686175 C 0.0979292141978,2.85178924923 0.0977869263857,2.8294915018 0.0977124073083,2.79227961054 C 0.097678694337,2.76124593069 0.110117035381,2.72391417821 0.110044027258,2.65863767465 C 0.109999076705,2.59169697215 0.13272680832,2.53586541688 0.437334020864,1.64706718003 C 0.52087716503,1.42524874782 0.797092688511,0.825651591769 0.820548056866,0.764291921756 C 0.866902685966,0.694930086038 0.972809105422,0.52765561094 1.01042997768,0.500407384834 C 1.05615005201,0.478277173019 1.14511880582,0.396375220394 1.17801569706,0.414783297232 C 1.1940770757,0.41478484497 1.2065747243,0.415308078407 1.24053274212,0.415281168944 C 1.27970190464,0.415274021662 1.28761439236,0.421451549958 1.36117899628,0.421420500307 C 1.41510373192,0.421397228009 1.42284831149,0.434576205193 1.42695333833,0.452761133417 C 1.13919805759,1.13679011653 0.895695947352,1.76307340454 0.646285645905,2.56710793565 C 0.634794492516,2.58381074223 0.631476183431,2.59426356222 0.750397321777,2.59422008538 C 0.916379657583,2.59421431476 1.1383637311,2.59422144971 1.31487330516,2.59420753924 C 1.41216870864,2.59418379932 1.43456845452,2.5916474289 1.43456225138,2.52227604899 C 1.43454458481,2.43824349854 1.43455025749,2.25785603139 1.43448663387,2.11174274001 C 1.43448680711,2.03421403232 1.44480359067,2.00383213486 1.45974091884,1.97591254625 C 1.47718292919,1.95406769912 1.49324559305,1.95027685536 1.54335731153,1.95022126394 C 1.64177492891,1.95020016668 1.6569151662,1.95171285619 1.73933104497,1.95166433095 C 1.82447929007,1.95231966917 1.83702629783,1.9589595181 1.83702515452,1.9719049764 C 1.83701800601,2.0070599449 1.8370145966,2.12820204171 1.83699167544,2.13738364923 C 1.83696677159,2.19333747971 1.83692605256,2.35353402245 1.83690165623,2.38896347034 C 1.83685885775,2.45818304467 1.83948040833,2.53419675129 1.83944070247,2.59337476465 C 1.83941381642,2.65207275572 1.84749629938,2.70570982817 1.88078093746,2.70564812438 C 1.93366008841,2.70563723724 1.94107984875,2.71421579383 1.99237414573,2.71415555715 C 2.04407113914,2.71415772464 2.05274342311,2.72175954783 2.05270132813,2.75330166274 C 2.05268958402,2.84875254088 2.05269397695,3.02499486261 2.02269288238,3.02491867544 C 1.96943560328,3.02492264777 1.93445191618,3.02496526933 1.89513269153,3.02489518148 C 1.85406911086,3.0248855774 1.82719820265,3.02494192792 1.78532233734,3.02488274251 C 1.74272413451,3.02488204438 1.69903288309,3.02492626837 1.69901319905,3.14283741346 C 1.69898209844,3.31140198639 1.69896322876,3.57140960625 1.69892606417,3.80660287371 C 1.69887126707,3.88642127147 1.69456459539,3.90966309128 1.69786906339,3.90957691872 C 1.71353918038,3.90958611964 1.76675085448,3.90964735304 1.80295428358,3.90957489547" fill="none" stroke="#000000" stroke-width="0.00399299398868"/>
</svg>
