<?xml version="1.0" ?>
<svg baseProfile="full" height="600px" version="1.1" viewBox="-0.222472057504 -0.464735167706 4.3312344328 5.47129168901" width="475px" xmlns="http://www.w3.org/2000/svg" xmlns:ev="http://www.w3.org/2001/xml-events" xmlns:xlink="http://www.w3.org/1999/xlink">
	<defs/>
	<path d="M 0.455802941497,1.90281042027 C 0.386460030254,1.80855165738 0.331021847006,1.69752222615 0.302430415329,1.58357917833 C 0.273410973873,1.47051190156 0.255151504453,1.34170365649 0.266021044727,1.21277429479 C 0.265992191166,0.987698885975 0.337142143876,0.74360311347 0.444126938016,0.579447794137 C 0.546600942046,0.413124817786 0.735116664798,0.245670470772 0.934900928766,0.155476603089 C 1.12811001065,0.0644309626796 1.42311166647,0.00537154394169 1.69129048708,-0.00689599161069 C 1.97717826489,-0.00693566839709 2.2888738108,0.0326946738778 2.53834113899,0.110547541422 C 2.77760602954,0.191216966849 3.02348144773,0.329929626328 3.19850208286,0.485963827711 C 3.36733794633,0.643417975646 3.51874177578,0.875282949549 3.60944761756,1.10944110785 C 3.69710431668,1.34406938289 3.74593637931,1.66163136695 3.74592799924,1.98199783896 C 3.74587957952,2.38913413022 3.68017840032,2.76078718041 3.54052044097,3.08297371004 C 3.407315653,3.40298127268 3.2007245237,3.68489249681 2.9411577696,3.90005084012 C 2.69618706051,4.11518259976 2.37196735684,4.28501019512 2.0068273956,4.3921604294 C 1.67197362725,4.49888875965 1.25592462365,4.54876945053 0.856109362282,4.54871733417 C 0.696623604931,4.54870833632 0.617025051452,4.3266254383 0.617982948269,4.08154356655 C 0.874693090166,4.1005019768 1.14374556586,4.0070060714 1.3580624853,3.89326902468 C 1.5645893161,3.78104231496 1.77228904709,3.59805846949 1.94039084956,3.40889447172 C 2.09847363278,3.22536230822 2.07664527379,3.26859852661 2.18192177645,3.03150632967 C 2.27216336511,2.81582425524 2.26540724521,2.71015268554 2.31041614672,2.46114964773 C 2.23817694893,2.54599995901 2.15878899356,2.61440555741 2.02174816986,2.68332751085 C 1.89274580737,2.74832970639 1.77896334191,2.7805863357 1.5610909309,2.78056859288 C 1.3399643596,2.78058382166 1.18609362801,2.75075880294 0.995792477927,2.66810018426 C 0.815529390774,2.58882369702 0.700427129469,2.48624835765 0.556696921191,2.34532110249 C 0.42254967948,2.20831453657 0.343364484213,2.05749539887 0.254940002761,1.87512858068 C 0.172909140191,1.69866412734 0.140395272128,1.5171666876 0.140362317478,1.31125552809" fill="none" stroke="#000000" stroke-width="0.00455561339634"/>
	<path d="M 0.775318614035,1.22734120289 C 0.77529088274,1.3595532159 0.810614383373,1.48482191364 0.845617605898,1.5852951462 C 0.877511589381,1.68443941126 0.932039456967,1.7701888437 0.989648121003,1.8399385641 C 1.04325337574,1.9085597078 1.11150662467,1.96355292002 1.18491426722,2.00388385156 C 1.25399749592,2.04293042222 1.33160813764,2.06280909838 1.42603953794,2.06281303369 C 1.52562566713,2.06279940406 1.62014932052,2.04680163103 1.72125368432,2.01990783277 C 1.81616987154,1.99352325189 1.90084234491,1.95731481599 1.98531156645,1.91270893129 C 2.06472472713,1.86938730689 2.13054717198,1.81962400364 2.19088613108,1.76125958996 C 2.24721836537,1.70456464278 2.28750456363,1.64454615551 2.32005374372,1.57772003549 C 2.35073342599,1.51310445803 2.36665243149,1.44683995532 2.37461372983,1.37432428884 C 2.38201007393,1.30374384361 2.37658073526,1.23429897117 2.36206939031,1.16094502496 C 2.34801680275,1.08964034604 2.3225276196,1.0220824449 2.28606738761,0.955700796717 C 2.25115099416,0.890787277991 2.20476812363,0.833169028783 2.14660910383,0.779487781846 C 2.09141368285,0.726960376525 2.02603319154,0.684339281791 1.94775964931,0.647819162035 C 1.87282136694,0.612242431068 1.78901021049,0.595252568522 1.68170260504,0.595249175547 C 1.56765936926,0.595212094426 1.46505711839,0.618550650716 1.37136355654,0.673613510966 C 1.28239207581,0.727370239735 1.20764628664,0.796204566896 1.14051464066,0.885662570536 C 1.07659143076,0.973556615353 1.02863214031,1.07097365701 0.989861084673,1.1836278438 C 0.953025887314,1.29479711497 0.932695171389,1.40571983153 0.932668386545,1.51669701183" fill="none" stroke="#000000" stroke-width="0.00455561339634"/>
</svg>
