<?xml version="1.0" ?>
<svg baseProfile="full" height="600px" version="1.1" viewBox="0.116808316848 -0.0832593393295 3.64278483873 5.00239507775" width="437px" xmlns="http://www.w3.org/2000/svg" xmlns:ev="http://www.w3.org/2001/xml-events" xmlns:xlink="http://www.w3.org/1999/xlink">
	<defs/>
	<path d="M 1.43517598886,3.82927591819 C 1.21778704602,3.82920030451 1.04288605232,3.82914528116 0.822864819354,3.82914831083 C 0.792254004664,3.82915665782 1.055309061,3.4341849891 1.04042037114,3.3030894605 C 1.6530106245,2.65913089192 1.92054869518,2.29503040588 2.09190273568,2.0154193846 C 2.26238012597,1.73291023648 2.29454167843,1.52771007097 2.29450613909,1.40913589126 C 2.29448240262,1.29751431024 2.2346366049,1.1820335967 2.13495032501,1.09367561168 C 2.02583814424,0.99904364175 1.87184762221,0.945408629392 1.63958030205,0.945359453162 C 1.39240298431,0.945288484825 1.17776464682,0.999865913673 1.03836024564,1.07534415452 C 0.891429431849,1.15700143008 0.777725525313,1.27682614504 0.706941537672,1.40803784309 C 0.607962772363,1.35562905101 0.505050182455,1.28660587399 0.422109216564,1.20837468086 C 0.467975817734,1.09272669433 0.543635793143,0.971350239499 0.678785137945,0.853038931175 C 0.818934835606,0.730275886042 0.982226573044,0.618779541834 1.18061276537,0.524878809138 C 1.38437237602,0.429609091861 1.60105188947,0.381460668428 1.83294316392,0.335342576636 C 2.02849464875,0.335289872401 2.20308690529,0.348027444594 2.39854223292,0.360191047341 C 2.59349585336,0.379471060038 2.75890482228,0.417153086662 2.91306632023,0.467444069833 C 3.06844850641,0.520616986007 3.18966254603,0.59417361036 3.28934827458,0.686620801836 C 3.39002840977,0.779942199737 3.45433472853,0.891866088063 3.45429223482,1.05210231259 C 3.45429143926,1.26911692336 3.39591880759,1.45564015225 3.31460455676,1.60639499143 C 3.23131149133,1.76363174632 3.09742130955,1.9097591193 2.95548737665,2.0402450265 C 2.80937035998,2.17552629128 2.61807080229,2.31231611982 2.42584688088,2.44701154545 C 2.22684704384,2.58746071175 1.99231222888,2.74067917481 1.77034326514,2.90270133331 C 1.44126801809,3.13278763011 1.12539588531,3.37593172506 0.901576435768,3.57365182057 C 1.12838508805,3.57698325641 1.44851406535,3.56372728307 1.90639533719,3.5636936646 C 2.16058673581,3.56374349074 2.31230566522,3.53263849952 2.43751989921,3.4748320114 C 2.56317991635,3.41301557982 2.64428252598,3.33300904744 2.70932346454,3.23523381167 C 2.77453183254,3.13251223975 2.81865391379,3.01626094991 2.84793812467,2.88848863357 C 2.87672181112,2.75988480264 2.9744496165,2.80587755331 3.05425140692,2.83818850854 C 3.13822625262,2.87932265737 3.23923988325,3.01139836946 3.19967156334,3.19983015397 C 3.16127523837,3.39197043517 3.09199064282,3.56510181167 2.98848687915,3.71633563378 C 2.88233655749,3.8694470171 2.76209632365,4.00398238936 2.62633610574,4.11179464498 C 2.48786949424,4.2228362132 2.341421791,4.3144380618 2.18673906533,4.38783510217 C 2.03085782436,4.4632790927 1.86983627883,4.50052482822 1.65925178734,4.50053398545" fill="none" stroke="#000000" stroke-width="0.00416519157181"/>
</svg>
