<?xml version="1.0" ?>
<svg baseProfile="full" height="600px" version="1.1" viewBox="-0.412476509101 -0.162395704923 1.78974931846 4.45762002839" width="241px" xmlns="http://www.w3.org/2000/svg" xmlns:ev="http://www.w3.org/2001/xml-events" xmlns:xlink="http://www.w3.org/1999/xlink">
	<defs/>
	<path d="M 1.04069789231,1.37120970065 C 1.04065414498,1.47694481636 1.04735321252,1.52380704234 1.04604437462,1.56706190208 C 1.04598806352,1.65415877948 1.04846141507,1.6777492697 1.04843907131,1.88602333615 C 1.04838876673,2.04874763737 1.04661414076,2.1754920716 1.04657282478,2.44282158563 C 1.04648602297,2.61608404765 1.04728319318,2.74567762861 1.04721566261,3.00260225782 C 1.04712112339,3.1467226083 1.0489905006,3.23703760753 1.05800506796,3.39220554481 C 1.06833059105,3.53275304387 1.07577911482,3.62368728319 1.07571592033,3.7474695305 C 1.07563681973,3.81707656482 1.08652861768,3.8462335738 1.09192443339,3.87433781574 C 1.09849777657,3.8989174767 1.10529595453,3.92178666504 1.09540532462,3.92180956375 C 1.06086681343,3.92174599697 1.04992359157,3.92139491749 1.02120960343,3.92142096936 C 0.959133466964,3.92136449339 0.933353390803,3.92401544885 0.909646135082,3.91990000517 C 0.819639820864,3.91984411372 0.794387718921,3.91981441771 0.771272577604,3.91488939767 C 0.742745284249,3.91063055965 0.720250755807,3.90476251218 0.720221895384,3.90578127768 C 0.720171892141,3.92667907033 0.678018611912,3.90452183712 0.677985141074,3.90909195667 C 0.610614003634,3.90900040434 0.563202874755,3.89221909845 0.512754222398,3.89222467159 C 0.406768886392,3.89216337109 0.351457422619,3.87722917961 0.299189811592,3.86072681414 C 0.233374265974,3.84481890815 0.200263163095,3.82571960556 0.148122562116,3.78820776137 C 0.0834234338454,3.75514272916 0.0506786573878,3.72432241718 0.0506034165574,3.64695673565 C 0.0505444572791,3.58550780768 0.0514618064644,3.5363472564 0.0513920160975,3.43147129694 C 0.0513426899324,3.37030843774 0.0560757392432,3.32238654176 0.0560111862633,3.1749171106 C 0.055980987092,3.08501532058 0.0591268888111,3.0177398933 0.0590423329868,2.84455075989 C 0.0590070303861,2.75987890492 0.0601924318453,2.63505982737 0.0601081938785,2.43899820129 C 0.0600756732329,2.37242114673 0.0619556227048,2.20941743384 0.0618694069071,2.0139825804 C 0.0629473098761,1.85092732439 0.0656945561732,1.67662736903 0.0656139180446,1.5228948606 C 0.0655583905009,1.43951951841 0.0652607302018,1.31531538198 0.0651913143138,1.20505371074 C 0.0661849999942,1.11781858782 0.0675169819642,1.01385843138 0.0698102783554,0.906500221589 C 0.0737214243181,0.821567156711 0.0730774678432,0.736329713264 0.0730187633399,0.64462492744 C 0.0740708687899,0.572403380075 0.072890186575,0.470186644593 0.0728333278475,0.384629139104 C 0.0740706228335,0.317620889643 0.0684991508406,0.281861354956 0.0559478412997,0.281849604994 C 0.0484369864371,0.281773625755 0.0336413236018,0.273072442853 0.0288958518449,0.27307226451 C 0.0202068171147,0.272995072675 0.0150771547724,0.263068861586 -0.00628089377096,0.291730392051 C -0.0313067197185,0.313743421135 -0.0475034791361,0.328004817737 -0.0719995110612,0.328018154949 C -0.111348176686,0.32795369724 -0.132955460189,0.326500493509 -0.1787167325,0.341161116434 C -0.23256818795,0.351256005873 -0.261741498796,0.35939285293 -0.261783951331,0.358374341333 C -0.26186830583,0.320680162811 -0.243215212924,0.290653984004 -0.243242151344,0.293732905004 C -0.24333848017,0.260839739058 -0.210171773608,0.220916708175 -0.210212198635,0.244044874969 C -0.210301595656,0.224006335426 -0.153182933955,0.210609915841 -0.118635586379,0.210619995213 C -0.0679121119065,0.210573986084 -0.00461466881461,0.212371390923 0.0356107960361,0.212372622841 C 0.105594069781,0.212328847224 0.170886577191,0.213977121474 0.226720587434,0.213787248157 C 0.318589181723,0.213731401148 0.384483927013,0.218048639143 0.444982790472,0.216589826755 C 0.520251647653,0.216526413619 0.579634958031,0.222957073994 0.639402532102,0.224073744778 C 0.70997126502,0.224002313261 0.763938476415,0.239982979764 0.822124512018,0.247964885478 C 0.886883833529,0.247888437908 0.93827791986,0.270353424798 0.987887640567,0.289692170422 C 1.0493428382,0.30553362469 1.09340227124,0.336322245624 1.1370621818,0.371544578548 C 1.19060041484,0.399763820197 1.22663272274,0.440208026644 1.2265804801,0.536025376495 C 1.22653568046,0.600224526103 1.21594537677,0.694325254734 1.21588431247,0.829875187453 C 1.21581591882,0.917263308044 1.20977286093,1.01973267781 1.20718097717,1.05190182986 C 1.20711849939,1.09326545658 1.20206245298,1.11242829027 1.20201249539,1.14541734147" fill="none" stroke="#000000" stroke-width="0.00371159036502"/>
</svg>
