<?xml version="1.0" ?>
<svg baseProfile="full" height="600px" version="1.1" viewBox="-0.00178821706684 -0.256400240998 4.12046258419 5.10175337964" width="485px" xmlns="http://www.w3.org/2000/svg" xmlns:ev="http://www.w3.org/2001/xml-events" xmlns:xlink="http://www.w3.org/1999/xlink">
	<defs/>
	<path d="M 1.03790082646,2.21668244165 C 1.0304042171,2.18924657639 1.07951858596,2.16064993862 1.07949146673,2.09885427553 C 1.07944981881,1.99960483808 1.35627134272,1.85698574979 1.50766325124,1.85698165786 C 1.6317727504,1.8569704027 1.8667495785,1.80389264907 1.9624944193,1.73669682379 C 2.0491358576,1.66454816546 2.20930134632,1.5568214276 2.20920350806,1.37036370422 C 2.20913862069,1.17810451175 2.14668651302,1.02452108945 2.0489151441,0.913898668543 C 1.95985766132,0.800833857909 1.70489780982,0.746094494417 1.53180593629,0.746081429888 C 1.38321222742,0.746033576126 1.18728781123,0.763090832899 1.07464038212,0.832774868975 C 0.972586635544,0.90174168236 0.827901694967,0.979565202067 0.765134375586,1.09083550311 C 0.675550650849,1.05773280821 0.575216140642,1.04917522501 0.550059514164,1.17789959143 C 0.473659405528,1.14387263338 0.41348141995,1.11077837254 0.382836626886,1.11076449574 C 0.363285992338,1.01078759105 0.357598586517,0.929760262082 0.451651452619,0.797490998815 C 0.536997629839,0.674998238395 0.646155326205,0.582743547569 0.831616847354,0.473850093494 C 1.00177167221,0.375822014819 1.20013372465,0.312693208168 1.4579033093,0.249896637808 C 1.69282163544,0.193948767791 1.94839165969,0.170542023788 2.21987248822,0.170515910884 C 2.40983056887,0.170479199425 2.62784032388,0.184926320374 2.81371244653,0.237876378507 C 2.98478557034,0.285402946681 3.15388169749,0.340641756118 3.28934049471,0.443105351687 C 3.41224474325,0.535537336529 3.51775646074,0.6290367288 3.59077773108,0.777157638729 C 3.65746635063,0.910587046802 3.68942837654,1.03613868779 3.68939506912,1.22003823942 C 3.68934370971,1.40345353311 3.63102851084,1.54507114416 3.48693495265,1.72653238899 C 3.35629238955,1.8877822054 3.1805541145,2.00006369925 2.94883180431,2.12385441041 C 3.1480131822,2.20650703883 3.31983997694,2.29769822633 3.44013752065,2.40172207034 C 3.54998300246,2.49668478644 3.63396795115,2.60118465549 3.69048712424,2.72979043847 C 3.74236453719,2.84628732181 3.76754557363,2.96960606849 3.77353251793,3.11304214275 C 3.77348949432,3.30153284645 3.73403771266,3.4683562485 3.67849442407,3.62015799856 C 3.62675895214,3.76078630662 3.53402962953,3.88233656114 3.42151184052,3.99055518633 C 3.31872436076,4.09068780071 3.17264033526,4.17308737016 3.0083473441,4.24030942148 C 2.85888738602,4.30311256325 2.66663294702,4.34879041514 2.46181982428,4.37729995935 C 2.2750580725,4.40465437485 2.05686024993,4.41844190522 1.83891649216,4.41843705522 C 1.6154869911,4.41843643265 1.38957257241,4.39907698 1.19910525947,4.34582515845 C 1.02519043952,4.29756895119 0.856969308552,4.23358077968 0.724982362684,4.1424694028 C 0.605660949346,4.06013124103 0.504996080395,3.96346103812 0.437233958837,3.84213006908 C 0.3759650965,3.73260078246 0.34338267937,3.61388102586 0.343353650962,3.48706749493 C 0.343323229348,3.37303066665 0.380138645416,3.29357499296 0.428990079557,3.21808524097 C 0.474562736696,3.14869899715 0.548851745671,3.10556295553 0.678810971325,3.10553912889 C 0.778214933818,3.1055457053 0.831062602347,3.19080508326 0.900022702759,3.26901928161 C 0.961185517257,3.34028061305 0.997338003015,3.45064296399 1.05453019822,3.55019147519 C 1.10607795278,3.64143866126 1.15021676431,3.74450845842 1.22070024768,3.83385118667 C 1.28533269325,3.91636512254 1.3580121384,3.99301428173 1.45408236841,4.05469513137 C 1.54247616837,4.11264920432 1.660648352,4.14327327174 1.81738451729,4.14325497568 C 1.98335785279,4.14324409333 2.13981797407,4.10808532503 2.27074735472,4.03484508214 C 2.39082960645,3.96614520815 2.49641673872,3.87723859218 2.57933071861,3.75928356317 C 2.65448931465,3.64949586061 2.7088229307,3.52853831467 2.73883394012,3.38315376458 C 2.76627325686,3.24947717604 2.76811675995,3.11945645329 2.76807228074,3.00290790764 C 2.76805195554,2.84971209434 2.7345702347,2.72519534645 2.67307355224,2.60514176455 C 2.61664640127,2.49417516407 2.52938127487,2.4078324717 2.40829724787,2.33210698333 C 2.29776969521,2.26195008126 2.15718972652,2.2133646254 1.98788563876,2.17415293497 C 1.83524429767,2.13843976525 1.66062411635,2.12186752637 1.46816682784,2.12182849876 C 1.38460373847,2.12178442955 1.38459390752,2.04540936977 1.3845681278,1.98427574665 C 1.38451442726,1.9025383699 1.4655157537,1.90249059184 1.57477900989,1.90244874944" fill="none" stroke="#000000" stroke-width="0.00424792121535"/>
</svg>
