<?xml version="1.0" ?>
<svg baseProfile="full" height="600px" version="1.1" viewBox="-0.824537262732 -0.88867783477 4.59944472267 5.57772017428" width="495px" xmlns="http://www.w3.org/2000/svg" xmlns:ev="http://www.w3.org/2001/xml-events" xmlns:xlink="http://www.w3.org/1999/xlink">
	<defs/>
	<path d="M 0.421141868719,4.22229722917 C 0.250664538034,4.22227211646 0.126261061319,4.20211819722 0.0239281191316,4.15703868657 C 0.0239288741371,3.99950650125 0.0211428152045,3.96214599698 0.0210310490741,3.7390164265 C 0.770537820639,2.53833366721 1.45988043863,1.58124054759 2.20218589622,0.460988653593 C 1.84522101003,0.460959204302 1.42812603432,0.460933264689 1.02964308578,0.460938927416 C 0.843914699735,0.460914674935 0.696623769583,0.592943522868 0.587769699277,0.707837458489 C 0.48399412352,0.823225986001 0.401293304743,1.00502094233 0.341749914916,1.20990535223 C 0.177929037244,1.20987505287 0.0565782422139,1.209826395 -0.100523493259,1.20983033128 C 0.0317001873566,0.622018622831 0.131891489954,0.162259059623 0.265072257252,-0.421738905236 C 1.35431018564,-0.421777033575 2.42615202162,-0.421889652178 3.3896853039,-0.421932724432 C 3.37148135248,-0.279110056476 3.38463028427,-0.224932615773 3.36305563989,-0.0386288809937 C 3.04864566866,0.27026044844 2.90448742452,0.488911504729 2.67334393504,0.840718532785 C 2.44324570242,1.18975740193 2.32864131871,1.44602375744 2.15566868428,1.79347431181 C 1.98472739104,2.12434115527 1.90515221748,2.36845241009 1.78677211049,2.68128515302 C 1.55123629514,3.28461749373 1.49791941139,3.50748486338 1.30735692474,4.06337601958 C 0.909394086332,4.06338365913 0.544633598061,4.06328623241 0.219091416331,4.06326712676 C -0.0978230824755,4.06328051416 -0.439311890869,4.06325136566 -0.439315106696,3.88120153987" fill="none" stroke="#000000" stroke-width="0.00464422995361"/>
</svg>
