<?xml version="1.0" ?>
<svg baseProfile="full" height="600px" version="1.1" viewBox="-0.757763052011 -0.336920851746 4.00764283725 5.54135995129" width="434px" xmlns="http://www.w3.org/2000/svg" xmlns:ev="http://www.w3.org/2001/xml-events" xmlns:xlink="http://www.w3.org/1999/xlink">
	<defs/>
	<path d="M 1.20436455511,1.99662194035 C 1.39966784619,1.99656516919 1.5549234172,1.99961504038 1.69606237315,2.01453699149 C 1.99161909722,2.01449397156 2.20856930517,2.06833378921 2.39760777556,2.17310507546 C 2.58519086443,2.27553064326 2.69921373033,2.42379339735 2.79035781526,2.60156101684 C 2.88170396738,2.77650944094 2.91400414162,2.98340386847 2.91398706078,3.21551493505 C 2.91398985243,3.52360738019 2.84695969081,3.78076241116 2.66029306805,4.02254017393 C 2.45733862674,4.26155560414 2.25975018299,4.42968874375 1.96677866137,4.55711393754 C 1.65667542374,4.68226287464 1.41864870048,4.74073892782 1.12619147754,4.74073662229 C 0.756176035166,4.74071623339 0.509266506195,4.65867769672 0.26361566341,4.48077654792 C 0.00358703291454,4.30832600547 -0.139663283467,4.08424937679 -0.256165501415,3.78807190014 C -0.379337233245,3.50744217588 -0.421871238142,3.20625558449 -0.421870310577,2.89036944462 C -0.421901191331,2.59139868571 -0.391822450541,2.31206279947 -0.28742560067,1.9750812049 C -0.17782333561,1.64653041912 -0.0677584938034,1.3654494877 0.125040329315,1.08757793857 C 0.32967861674,0.813577204478 0.510837978937,0.599312990439 0.774342573501,0.406847208274 C 1.05469933829,0.216289311183 1.28583709083,0.126857041848 1.61325196109,0.126781625558 C 1.86070287905,0.126779209168 1.99923781238,0.164969957711 2.17536433718,0.246372691633 C 2.35973163626,0.327688380422 2.45299021087,0.427841215672 2.54286296598,0.56246116692 C 2.63710138134,0.694670467915 2.66325802102,0.828785150589 2.66324844705,0.942468255104 C 2.66323345282,1.00671840394 2.65975233738,1.04111211682 2.60249233816,1.12048208648 C 2.54339870636,1.19837309355 2.49829009746,1.24901203746 2.40890558634,1.31199943209 C 2.31534722273,1.37340150336 2.24705368106,1.40878734672 2.17581425432,1.40877232812 C 2.11103304301,1.4087516098 2.07724347908,1.38244254056 2.05334062141,1.3824207943 C 2.02777463954,1.38131752909 2.01698593434,1.36139032171 1.99588203069,1.34720513058 C 1.97377438855,1.33202131298 1.95986301836,1.30599431713 1.93349391047,1.27766192165 C 1.90567645442,1.24903664758 1.88260203984,1.21556721275 1.84388870385,1.18127599378 C 1.80305552867,1.14712874611 1.76501569163,1.11197147911 1.71033852931,1.07881244664 C 1.65185609471,1.04602782448 1.59711233538,1.01507966985 1.53523037967,1.01504541492 C 1.46867973741,1.01506332199 1.41210224491,1.01088650043 1.35343056184,1.01086114955 C 1.1874799506,1.01081701203 0.999733679111,1.08078499718 0.835387297089,1.18764454706 C 0.65461019438,1.29692853077 0.495029009993,1.44334412201 0.373768463845,1.62054171248 C 0.244229346628,1.79533304854 0.143379964049,1.99511612041 0.0799918920944,2.22707038207 C 0.0122990236829,2.45469786806 -0.0256431697657,2.68416062577 -0.0256122640116,2.93158487065 C -0.0256189429909,3.04359073026 -0.0181070310772,3.07348303704 -0.0180856237474,3.21190509407 C -0.0180787027433,3.32243962048 0.00156867386852,3.40122859387 0.015488689524,3.52963525264 C 0.0310141609431,3.65460673182 0.0649312341035,3.74465032129 0.101261729133,3.85221227465 C 0.140688767415,3.95778016208 0.195097146314,4.03053248136 0.252649830413,4.1060465893 C 0.31416623084,4.18027220873 0.388256123048,4.22747355161 0.467962650341,4.27112709193 C 0.553339725119,4.31439588426 0.646432233733,4.33729209772 0.741698203367,4.3517362552 C 0.843669598681,4.36596055443 0.948466634136,4.37050837625 1.05771370022,4.37050862494 C 1.2050204405,4.3705207697 1.36278104572,4.3301461703 1.5200523266,4.23742347871 C 1.68650762526,4.14751534079 1.83183301775,4.03823957507 1.95270371227,3.88793163661 C 2.08099733083,3.74103522961 2.17364539741,3.58979528312 2.23685364215,3.40367390875 C 2.25269841937,3.34426967342 2.26597633096,3.28605270673 2.26595026714,3.15223828245 C 2.26595167126,2.91983764161 2.23576923142,2.78608346273 2.12438165824,2.63021646727 C 2.00931001882,2.47812150706 1.8644641457,2.42087107812 1.63950836341,2.42086609098 C 1.45202645342,2.42084985446 1.28429683725,2.46007443066 1.1229528753,2.54112482663 C 0.953481760426,2.62096284922 0.818335470362,2.71222154643 0.703097340269,2.83924564566 C 0.582260747059,2.96382934447 0.493704040153,3.0796871617 0.429627035363,3.22914580848 C 0.36288966666,3.37201189842 0.32246120329,3.49096933599 0.322466438342,3.58110007491" fill="none" stroke="#000000" stroke-width="0.00461395499691"/>
</svg>
