<?xml version="1.0" ?>
<svg baseProfile="full" height="600px" version="1.1" viewBox="-0.37732170162 -1.19667314577 3.51313017676 4.85380454847" width="435px" xmlns="http://www.w3.org/2000/svg" xmlns:ev="http://www.w3.org/2001/xml-events" xmlns:xlink="http://www.w3.org/1999/xlink">
	<defs/>
	<path d="M 0.748955078212,2.18585692148 C 0.568310893861,2.21556977357 0.398836172906,2.25215858396 0.260861776558,2.19395835872 C 0.108002610294,2.13241955067 0.00472584345698,2.09708663996 0.00465630819235,1.88312976237 C 0.00462646544111,1.56364987965 0.10985125363,1.37735437031 0.304178682567,1.10238354083 C 0.514666003586,0.831139402348 0.821721983553,0.697030471521 1.14946935833,0.487720744568 C 0.984997135998,0.323676811415 0.859939870836,0.181227030116 0.859897081889,-0.0820372385206 C 0.85984109643,-0.292063696426 0.95869655463,-0.413056461257 1.11211320314,-0.56981326465 C 1.2786480889,-0.717617510003 1.52193370017,-0.76927884121 1.75093206319,-0.769253246111 C 2.07419043335,-0.769313348552 2.35455825481,-0.707045367082 2.53264705393,-0.529067522009 C 2.72639216038,-0.360812893232 2.83038279715,-0.188618814667 2.83042236611,0.0842784288325 C 2.83039607254,0.369618916789 2.62275934365,0.637151772062 2.15970546153,1.01189392237 C 2.56451892999,1.2556974831 2.84131834057,1.5882599595 2.84136368156,1.82214429406 C 2.8413013001,2.06598857967 2.82051726478,2.27793226568 2.64559259313,2.51346058575 C 2.46102482873,2.73214053539 2.27844802337,2.8963160458 2.01083261567,3.0476832035 C 1.72891408997,3.18690572111 1.473650523,3.25091048507 1.18344561058,3.25096374481 C 0.817738332327,3.25092111277 0.549088962849,3.19690555083 0.309197523173,3.04416881251 C 0.0544965048393,2.89986702549 -0.0828448603788,2.74263007688 -0.0828769080435,2.49585914361" fill="none" stroke="#000000" stroke-width="0.0040414692327"/>
	<path d="M 1.08801613075,2.41756570269 C 1.20628894193,2.38485194672 1.21508024892,2.41432584007 1.35399297139,2.30821295012 C 1.49048564097,2.21050310065 1.54033969974,2.15744522516 1.62296150511,1.98113856022 C 1.70713367944,1.82103050057 1.71402310047,1.69961139862 1.71399528215,1.53729595546 C 1.71394501591,1.35892066662 1.67858799139,1.26498023723 1.5999106724,1.14751673047 C 1.51717837492,1.03685725783 1.4203257669,0.965590941949 1.2504706044,0.852917927547 C 0.944378163315,1.08344751899 0.827558170654,1.17283620243 0.714896108605,1.30912053887 C 0.598328012623,1.44066851143 0.576166597776,1.51774353836 0.57614791471,1.7086009786 C 0.576096566662,1.89453233336 0.614530926838,1.9892210022 0.722608132556,2.14405062352 C 0.83673856993,2.28734643315 0.944350516692,2.33333309297 1.14170587648,2.33334190631 C 1.32289930274,2.33331626712 1.44133442481,2.29571271746 1.58141305883,2.18004906981" fill="none" stroke="#000000" stroke-width="0.0040414692327"/>
	<path d="M 1.84697790422,-0.0922573189155 C 1.9518432764,-0.199954328956 1.92448016979,-0.249439073624 1.88192785509,-0.361879108371 C 1.83875863977,-0.463338201763 1.73858292379,-0.515874376418 1.6183985693,-0.515865770724 C 1.50437698491,-0.515950982367 1.39278195031,-0.487220196893 1.29588416197,-0.405462547114 C 1.19389074274,-0.330498366525 1.12105652668,-0.251392199566 1.12107827927,-0.12872971492 C 1.12101767807,-0.00267077880108 1.1644538775,0.0790693546633 1.25132463723,0.193604246805 C 1.34000247567,0.299788036476 1.4746132478,0.386183523665 1.62812149375,0.509790391753 C 1.78766123801,0.392529488633 1.92604885846,0.273960949014 2.11761163025,0.407228053639 C 2.23942082971,0.288343683908 2.29806831702,0.133491412828 2.35072075426,0.0354135717253 C 2.40723083018,-0.0523487617274 2.42835685834,-0.157746947279 2.42833337491,-0.303353927006 C 2.42827343812,-0.486941284408 2.39226586987,-0.584204978218 2.32798668613,-0.67403015392 C 2.25958229472,-0.758063322773 2.1725377502,-0.79050524803 2.06051243712,-0.790505487888" fill="none" stroke="#000000" stroke-width="0.0040414692327"/>
</svg>
