<?xml version="1.0" ?>
<svg baseProfile="full" height="600px" version="1.1" viewBox="-0.152430513285 -0.458747638745 1.98148065928 5.48214917839" width="217px" xmlns="http://www.w3.org/2000/svg" xmlns:ev="http://www.w3.org/2001/xml-events" xmlns:xlink="http://www.w3.org/1999/xlink">
	<defs/>
	<path d="M 1.50523614883,1.86685824394 C 1.53693852946,1.89838151261 1.5527001638,1.98345851526 1.5527001638,2.12173103914 C 1.5527001638,2.26000356302 1.55180461635,2.3606630899 1.54983441206,2.4238887392 C 1.54786420777,2.4871143885 1.51526627853,2.55034003779 1.45204062923,2.61356568709 C 1.4360998848,2.75577861443 1.43412968051,2.88420011476 1.44613001682,2.99883018807 C 1.44613001682,3.04611509293 1.44398070313,3.09071335569 1.44004029455,3.13208764791 C 1.43609988596,3.17364104837 1.43412968167,3.21214959025 1.43412968167,3.24761326984 C 1.44201049884,3.31477933004 1.47765328665,3.36815395579 1.54087893595,3.40773715451 C 1.66338983108,3.47490321472 1.69294289616,3.66458017007 1.62971724686,3.97658890858 C 1.61395561253,4.06757652387 1.60607479536,4.14745935425 1.60607479536,4.21659561619 C 1.60607479536,4.28573187813 1.60302993399,4.33319589496 1.59711932088,4.35880855098 C 1.59120870777,4.38460031897 1.572402213,4.41415338404 1.54087894433,4.4478259664 C 1.5091765637,4.48131944053 1.47765329503,4.50120059401 1.44613002636,4.50711120712 C 1.41442764574,4.51302182022 1.38093417161,4.50997695886 1.3452913838,4.49815573264 C 1.30373798334,4.48436430283 1.26236369112,4.47057287302 1.22081029066,4.45660233311 C 1.17334627383,4.44084069878 1.11424014368,4.43098967709 1.04313368001,4.4270492685 C 0.940324839437,4.42310885992 0.858292695368,4.43887049425 0.797037247801,4.47451328207 C 0.735781800235,4.50997696165 0.689392443979,4.53469407093 0.657869175309,4.54848550074 C 0.626166794682,4.56227693055 0.589628458256,4.56729199598 0.548254166031,4.56335158739 C 0.506700765574,4.55941117881 0.470162429148,4.545619749 0.438639160478,4.52179818647 C 0.406936779851,4.49815573404 0.379353920231,4.47254307801 0.355532357702,4.44478110829 C 0.312187860021,4.38549586991 0.290336502949,4.3401811705 0.290336502949,4.30847878987 C 0.290336502949,4.2769555212 0.297321772901,4.23343191529 0.311113202712,4.17808708409 C 0.324904632522,4.12274225289 0.320068676258,4.03103819722 0.296247113729,3.9026166969 C 0.272604661295,3.77419519657 0.271709113847,3.68034182722 0.293381362688,3.62105658883 C 0.315053611528,3.56177135045 0.387234739494,3.5083967247 0.509745634627,3.46111181984 C 0.584792509209,3.29901773343 0.602524349,3.08766852925 0.562941150274,2.82688509533 C 0.547179515939,2.70043379674 0.537328494247,2.55428045103 0.533388085663,2.38842505822 C 0.52944767708,2.22239055345 0.524432611652,2.06925194571 0.518521998543,1.9290092201 C 0.512611385435,1.78876649449 0.508670976851,1.68703231076 0.506700772559,1.62380666146 C 0.504730568267,1.56058101216 0.495775094256,1.50720638642 0.480013459921,1.46386188874 C 0.448490191251,1.38093419233 0.37738372758,1.32952977205 0.266694065183,1.30964861857 C 0.215289644897,1.3017678014 0.172840699553,1.29585718829 0.139347225428,1.29191677971 C 0.10567464307,1.28797637112 0.0750469192863,1.26630412228 0.0474640596658,1.22672092356 C 4.28408384323e-08,1.15955486335 0.00394045142457,1.07465697266 0.059285282623,0.971848132089 C 0.0868681422435,0.924563227221 0.117495866027,0.874233463779 0.151168448385,0.820858838037 C 0.184661922511,0.767484212294 0.214394095819,0.712139381096 0.240006751847,0.654824344441 C 0.265619407874,0.597509307787 0.298217337113,0.53428365849 0.337800535839,0.46514739655 C 0.377383734565,0.39601113461 0.422698433977,0.331889940426 0.474102854263,0.272604702041 C 0.600554152858,0.134332178161 0.734886273276,0.0651959162205 0.877099200618,0.0651959162205 C 1.0153717245,0.0651959162205 1.11029975815,0.0573150990531 1.1615250702,0.0415534647182 C 1.25251268549,0.0137914950028 1.30964861391,6.51925802231e-08 1.33347017644,6.51925802231e-08 C 1.43609991251,6.51925802231e-08 1.52314712433,0.0356428530067 1.594253588,0.106749316677 C 1.62971726758,0.142212996259 1.64350869739,0.204543096945 1.63562788023,0.293381405994 C 1.62774706306,0.382219715044 1.61897069821,0.466222068295 1.60894056736,0.545209346339 C 1.59908954566,0.624196624383 1.58726831945,0.707303425297 1.57347688964,0.794171525165 C 1.55968545983,0.881039625034 1.55072998581,0.959131365642 1.54678957723,1.02826762758 C 1.54284916865,1.09740388952 1.53890876006,1.15758467652 1.53496835148,1.20898909681 C 1.5310279429,1.26039351709 1.52798308153,1.31179793738 1.52601287724,1.36302324943 C 1.52404267294,1.41442766972 1.51920671668,1.45992147736 1.51132589951,1.49932556413 C 1.55861080438,1.51526630856 1.55664060009,1.63759808429 1.5052361798,1.8668582309" fill="none" stroke="#000000" stroke-width="0.00456465377052"/>
</svg>
