<?xml version="1.0" ?>
<svg baseProfile="full" height="600px" version="1.1" viewBox="-0.333188418854 -0.459012815166 3.97542456648 5.48531763516" width="435px" xmlns="http://www.w3.org/2000/svg" xmlns:ev="http://www.w3.org/2001/xml-events" xmlns:xlink="http://www.w3.org/1999/xlink">
	<defs/>
	<path d="M 0.0,1.56649160385 C 0.0,1.34833624959 0.0419116169214,1.14397232234 0.125734850764,0.953041613102 C 0.209737204015,0.762290015817 0.325083717704,0.596613734961 0.471774384379,0.456012785435 C 0.618644163013,0.315590947866 0.792738586664,0.204543069005 0.994057640433,0.122690029442 C 1.1953766942,0.0408369898796 1.41335293651,2.60770320892e-08 1.6481654644,2.60770320892e-08 C 1.90823245049,2.60770320892e-08 2.14107477665,0.0481804795563 2.34651336074,0.144720491022 C 2.55213104188,0.24108139798 2.72604635358,0.379533033818 2.86879661679,0.559896286577 C 3.01136776805,0.740259539336 3.12026633322,0.962534409016 3.19585053623,1.22672091052 C 3.27125562727,1.49090741202 3.30904772878,1.78876648471 3.30904772878,2.12011904642 C 3.30904772878,2.51004041359 3.26821076497,2.85715458915 3.18635772541,3.16128249094 C 3.10468379781,3.46523128077 2.98826263472,3.72117875144 2.83727332577,3.92876664922 C 2.68628401682,4.13635454699 2.50180124864,4.2946873419 2.28364589438,4.40376501903 C 2.06549054012,4.51284269616 1.8202896677,4.56729197875 1.54750594124,4.56729197875 C 1.27078178152,4.56729197875 1.01393878087,4.51069337875 0.776976939291,4.39749617875 C 0.540015097708,4.28411987424 0.331352557987,4.12059290707 0.150989305228,3.90673618019 C 0.339770700783,3.6928794533 0.52837298438,3.47902272642 0.717154379934,3.26498688757 C 0.822112541646,3.39931900799 0.947847407311,3.50409805775 1.09471718594,3.57968226075 C 1.24140785262,3.6550873518 1.39669577405,3.6928794533 1.56022274122,3.6928794533 C 1.80757295713,3.6928794533 2.00369783863,3.60475758463 2.14841830358,3.42869295925 C 2.29313876852,3.25244922191 2.36961851642,3.00294970721 2.378036662,2.68001528829 C 2.29421342816,2.79321248829 2.18298643734,2.88133435696 2.04453480151,2.9442017898 C 1.90626227763,3.00706922263 1.74470551219,3.0385924913 1.56022274401,3.0385924913 C 1.33794787433,3.0385924913 1.13125552144,3.0008003898 0.940503924154,2.92539529875 C 0.749752326868,2.84981109574 0.585150717758,2.74610670283 0.44669908192,2.6139238961 C 0.308247446083,2.48174108937 0.199169768952,2.3266322799 0.119466050528,2.14841834083 C 0.0397623321041,1.97020440176 2.51457095146e-08,1.77622883394 2.51457095146e-08,1.56649162248" fill="none" stroke="#000000" stroke-width="0.00456729195267"/>
	<path d="M 1.64816548955,0.849337238818 C 1.55592410546,0.849337238818 1.46798134875,0.868143733591 1.38397899549,0.905935835093 C 1.30015576165,0.943727936596 1.22672087234,0.99495324865 1.1638534395,1.05996999517 C 1.10098600667,1.12498674169 1.05065624323,1.20164560899 1.01286414173,1.2895883657 C 0.975072040223,1.37771023437 0.95626554545,1.46995161846 0.95626554545,1.56649162993 C 0.95626554545,1.66285253689 0.973997385241,1.7520490624 1.00964017306,1.83390210196 C 1.04528296087,1.91557602957 1.09471717943,1.9868616052 1.15758461226,2.04775883257 C 1.22045204509,2.10847695172 1.29388693441,2.15683651343 1.37771016825,2.19247930124 C 1.46153340209,2.22812208906 1.55180458445,2.24585392885 1.64816549141,2.24585392885 C 1.74058598746,2.24585392885 1.82852874417,2.22812208906 1.91253109742,2.19247930124 C 1.99635433126,2.15683651343 2.06978922058,2.10847695172 2.13265665341,2.04775883257 C 2.19552408624,1.9868616052 2.24585384969,1.91557602957 2.28364595119,1.83390210196 C 2.32143805269,1.7520490624 2.34024454746,1.66285253689 2.34024454746,1.56649162993 C 2.34024454746,1.46995161846 2.32143805269,1.37771023437 2.28364595119,1.2895883657 C 2.24585384969,1.20164560899 2.19552408624,1.12498674169 2.13265665341,1.05996999517 C 2.06978922058,0.99495324865 1.99635433126,0.943727936596 1.91253109742,0.905935835093 C 1.82852874417,0.868143733591 1.74058598746,0.849337238818 1.64816549141,0.849337238818" fill="none" stroke="#000000" stroke-width="0.00456729195267"/>
</svg>
