<?xml version="1.0" ?>
<svg baseProfile="full" height="600px" version="1.1" viewBox="-0.320131291766 -0.459012763705 3.81873962309 5.48531750988" width="418px" xmlns="http://www.w3.org/2000/svg" xmlns:ev="http://www.w3.org/2001/xml-events" xmlns:xlink="http://www.w3.org/1999/xlink">
	<defs/>
	<path d="M 2.2152261734,1.08432888985 C 2.2152261734,0.982773810625 2.19659878686,0.894293725491 2.15934401378,0.818709522486 C 2.1220892407,0.743125319481 2.07140125707,0.679899670184 2.00710095093,0.629211686552 C 1.94297975674,0.578344594687 1.8688284345,0.540015161037 1.78500520065,0.514223393053 C 1.7010028474,0.488252516836 1.61252276227,0.475356632844 1.51938583329,0.475356632844 C 1.41998006776,0.475356632844 1.32039519772,0.49201381579 1.22098943219,0.525149069726 C 1.12158366665,0.558284323663 1.03005871549,0.607360322028 0.946056362242,0.672735285014 C 0.862233128399,0.737931143492 0.789156455547,0.819246847183 0.727005463094,0.916503299028 C 0.66485447064,1.01393886283 0.620435316116,1.12570318207 0.593389783055,1.25215448067 C 0.395652908832,1.11029976234 0.197736922652,0.968265946954 4.842877388e-08,0.826411228627 C 0.049792483449,0.687601383775 0.12161539495,0.566523369402 0.216006092727,0.462998080999 C 0.310217685997,0.359293688089 0.421444676816,0.273500245064 0.549866177142,0.205080423504 C 0.678287677467,0.136660601944 0.822291709483,0.0854352898896 0.981878258288,0.0512253791094 C 1.14128569514,0.0170154683292 1.31215614825,6.70552253723e-08 1.49448961765,6.70552253723e-08 C 1.6954504624,6.70552253723e-08 1.88799316436,0.0222096443176 2.07229682058,0.0668079070747 C 2.25677958876,0.111406169832 2.41923188418,0.179646886885 2.56019104272,0.271888270974 C 2.7009711042,0.363950543106 2.81345186383,0.479476161301 2.89727509767,0.618286006153 C 2.98109833151,0.757095851004 3.02318906039,0.919727258384 3.02318906039,1.10618022829 C 3.02318906039,1.23030310124 2.99883016944,1.34636604786 2.95011238754,1.45401085168 C 2.90139460564,1.56183476001 2.83207923919,1.65855388343 2.74198716134,1.74452643842 C 2.65189508349,1.8304989934 2.54263830185,1.90518765152 2.41421680152,1.96823418885 C 2.2857953012,2.03145983815 2.14071661234,2.08071494848 1.9791598469,2.11582040787 C 2.16758303344,2.14071662538 2.33648328483,2.18424023129 2.48568148911,2.24639122374 C 2.63470058143,2.3085422162 2.76061455905,2.38878326304 2.86306518316,2.48711436428 C 2.96569491923,2.58562458493 3.04378665984,2.70204574801 3.097698614,2.83673607744 C 3.15161056817,2.97124730982 3.17847699113,3.12349037267 3.17847699113,3.293465266 C 3.17847699113,3.49012746848 3.13907290436,3.66726675071 3.06044384278,3.82470398583 C 2.98163566925,3.98214122094 2.87094600685,4.11575689353 2.72801663168,4.22555101104 C 2.58508725651,4.33534512855 2.41260482557,4.41970569827 2.21056932397,4.47881182842 C 2.00871291943,4.53773885034 1.78446783312,4.56729191542 1.53801317699,4.56729191542 C 1.38254614361,4.56729191542 1.23191507347,4.55493336078 1.08594085462,4.53003714327 C 0.93978750892,4.50514092576 0.802052306011,4.47039368283 0.6727352608,4.42597452831 C 0.54323910363,4.38137626555 0.425743283704,4.32907629292 0.320068681613,4.26907461789 C 0.214394079521,4.20889383089 0.12430200167,4.14262332302 0.0497924555093,4.07008397859 C 0.0517626598012,4.01420181897 0.0539119734894,3.95617034566 0.0558821777813,3.89616867062 C 0.0580314914696,3.83616699558 0.0610763528384,3.77132936101 0.0651958710514,3.70201399457 C 0.0693153892644,3.63251950871 0.0750468927436,3.55550242495 0.0823903814889,3.47060453426 C 0.0895547610708,3.38552753162 0.0994057827629,3.2902412815 0.111764337402,3.18474579882 C 0.272425557952,3.20426873397 0.432907651644,3.22397077736 0.593389745336,3.24367282074 C 0.607897613663,3.40325936954 0.642107524443,3.53723326605 0.696019478608,3.64613183122 C 0.74975232454,3.75485129189 0.815664615948,3.84225672018 0.893219020683,3.90852722805 C 0.970952537376,3.97497684788 1.0579997492,4.02297819313 1.1541815442,4.05306858663 C 1.25054245116,4.08315898012 1.34941088827,4.09820417687 1.45096596749,4.09820417687 C 1.57723815413,4.09820417687 1.68971891375,4.07742747664 1.78805001499,4.03605318442 C 1.88638111623,3.99449978396 1.96930881264,3.93700563908 2.03665397735,3.86357074976 C 2.10399914207,3.78995674849 2.15522445412,3.70201399177 2.19050902175,3.59938425571 C 2.22561448114,3.4969336316 2.24316721084,3.38463198394 2.24316721084,3.26230020821 C 2.24316721084,2.97232194245 2.14698541583,2.75953987241 1.95426360192,2.62377488613 C 1.76172089996,2.48818899691 1.48929536762,2.42030650377 1.13716611685,2.42030650377 C 1.03973055305,2.42030650377 0.942474101204,2.42030650377 0.845038537402,2.42030650377 C 0.84718785109,2.3479462713 0.849695383804,2.27325761318 0.852919354802,2.19659874588 C 0.855964216171,2.11993987858 0.863665924175,2.05169916153 0.876203587977,1.99151837453 C 0.963250799803,1.98632419948 1.05011889967,1.98130913405 1.1371661115,1.97611495899 C 1.25107974443,1.96984612709 1.37126221391,1.94548723614 1.49753440055,1.90303829079 C 1.62398569915,1.86058934545 1.74040686223,1.8014832153 1.84715611371,1.72589901229 C 1.95372625324,1.65031480929 2.04184812191,1.55861075362 2.11116348836,1.4509659498 C 2.18065797421,1.34332114598 2.21522610518,1.22098937025 2.21522610518,1.08432882419" fill="none" stroke="#000000" stroke-width="0.00456729184836"/>
</svg>
