<?xml version="1.0" ?>
<svg baseProfile="full" height="600px" version="1.1" viewBox="-0.353929253236 -0.45901293637 4.22431511606 5.48531750317" width="463px" xmlns="http://www.w3.org/2000/svg" xmlns:ev="http://www.w3.org/2001/xml-events" xmlns:xlink="http://www.w3.org/1999/xlink">
	<defs/>
	<path d="M 1.01787924767,4.5672917366 C 0.86097933352,4.5672917366 0.720199272037,4.54042531364 0.595180854201,4.48651335947 C 0.470341548324,4.43260140531 0.363771408796,4.35361412726 0.275649540126,4.24937240593 C 0.187348566949,4.14530979656 0.119466073811,4.01670918427 0.0716438405216,3.86357057653 C 0.0238216072321,3.71061108075 4.47034835815e-08,3.53472556733 4.47034835815e-08,3.33645137213 C 4.47034835815e-08,3.06689160131 0.0342099554837,2.79679449461 0.102808889002,2.52616005205 C 0.17140782252,2.25552560948 0.265798520297,1.99707060121 0.385801870376,1.75079505704 C 0.505805220455,1.50469862483 0.646764378995,1.2750802692 0.808321144432,1.06193999015 C 0.970057006925,0.848799711093 1.14343499765,0.663242286071 1.32827598974,0.505267729983 C 1.51329609379,0.347293173894 1.70548057184,0.223528524861 1.90518764779,0.13415289484 C 2.10489472374,0.0447772648185 2.30263159797,-1.06170773506e-07 2.49857736751,-1.06170773506e-07 C 2.6552981697,-1.06170773506e-07 2.79625732824,0.0268663167953 2.92109663412,0.0807782709599 C 3.04611505195,0.134690225124 3.15268519148,0.213140182197 3.24080706015,0.31594902277 C 3.32892892882,0.4189369753 3.39699053392,0.546821139753 3.44481276721,0.699959747493 C 3.49245589226,0.853098355234 3.51645656489,1.0288047716 3.51645656489,1.22725807875 C 3.51645656489,1.49663873762 3.48206754588,1.76673584431 3.41346861236,2.03754939884 C 3.34486967884,2.30818384141 3.25065808557,2.56717615575 3.13065473549,2.81452637166 C 3.01065138541,3.06205566972 2.86969222687,3.29221136123 2.70795636438,3.50535164028 C 2.54639959894,3.71849191934 2.37302160822,3.90404934436 2.18818061613,4.06202390045 C 2.00316051207,4.21999845654 1.81079692207,4.34376310557 1.61126894318,4.43313873559 C 1.41156186722,4.52251436561 1.213824993,4.5672917366 1.01787922345,4.5672917366" fill="none" stroke="#000000" stroke-width="0.00456729184277"/>
	<path d="M 1.06194015779,4.37994320691 C 1.20648151077,4.37994320691 1.35585882701,4.32728501782 1.51025120355,4.22196863964 C 1.66446446814,4.11665226147 1.81634930708,3.97694685683 1.96572662331,3.80303154513 C 2.11528305151,3.62911623344 2.25677954592,3.42887182161 2.39021610655,3.20229832456 C 2.52365266718,2.9757248275 2.64132760651,2.74055407569 2.74288268574,2.49678606912 C 2.84461686946,2.25301806256 2.92485791631,2.009250056 2.98360582627,1.76548204944 C 3.04235373624,1.52189313993 3.07172769122,1.29585696384 3.07172769122,1.08755263314 C 3.07172769122,0.781454529613 3.01978593878,0.550582390279 2.91572332941,0.394936259836 C 2.81148160808,0.23946922645 2.65529812686,0.161735709757 2.44717290811,0.161735709757 C 2.30263155513,0.161735709757 2.15325423889,0.214393898845 1.99886186235,0.319710277021 C 1.8444694858,0.425026655197 1.69330107979,0.565806716681 1.54517753236,0.742229565978 C 1.39687488787,0.918652415276 1.25609482639,1.12122525275 1.1224791538,1.35030628741 C 0.989042593166,1.57938732207 0.872084094211,1.81634916365 0.771603671834,2.06137095392 C 0.671123249456,2.30639274418 0.591598635539,2.55123540759 0.532850725576,2.79625719786 C 0.473923703656,3.04109986126 0.444549748674,3.26785247028 0.444549748674,3.47597768903 C 0.444549748674,4.07868114114 0.650346541777,4.37994328141 1.06194012798,4.37994328141" fill="none" stroke="#000000" stroke-width="0.00456729184277"/>
</svg>
