<?xml version="1.0" ?>
<svg baseProfile="full" height="600px" version="1.1" viewBox="-0.342949872399 -0.459012849424 4.09256224386 5.48531759936" width="448px" xmlns="http://www.w3.org/2000/svg" xmlns:ev="http://www.w3.org/2001/xml-events" xmlns:xlink="http://www.w3.org/1999/xlink">
	<defs/>
	<path d="M 2.8481991291,1.36768007278 C 2.86503542028,1.28815545887 2.87345356587,1.20666063577 2.87345356587,1.12301650643 C 2.87345356587,0.909697115421 2.80539196078,0.746528372169 2.66944786254,0.633689388633 C 2.53350376431,0.52067130059 2.34006551746,0.464251808822 2.089133122,0.464251808822 C 1.94692019466,0.464251808822 1.81097609643,0.489327136427 1.6813008273,0.539477791637 C 1.55162555818,0.589807555079 1.43466705922,0.661809571087 1.33006711397,0.756021164358 C 1.22546716873,0.85005364567 1.13447955344,0.961997076869 1.05710425321,1.091672346 C 0.979728952982,1.22134761512 0.924384121783,1.36356054246 0.890890647657,1.51831114292 C 0.847008821554,1.72321239114 0.803126995452,1.92811363935 0.759066061117,2.13301488757 C 0.784141388722,2.13301488757 0.809395826422,2.13301488757 0.834471154027,2.13301488757 C 0.955728272907,1.96160711348 1.11352373194,1.82673767209 1.30803663563,1.72840657085 C 1.50254953932,1.63007546961 1.71909291577,1.58099947125 1.95748765301,1.58099947125 C 2.12047729921,1.58099947125 2.27325768303,1.60607479885 2.41547061037,1.65622545406 C 2.55768353771,1.70637610927 2.68198552262,1.77855723724 2.78873477411,1.87276883051 C 2.89530491363,1.96680131182 2.97894904297,2.08178960159 3.03966716211,2.21773369983 C 3.1002061693,2.35367779806 3.13065478299,2.50538353994 3.13065478299,2.67267179862 C 3.13065478299,2.94026136771 3.08981781919,3.18922354653 3.00832299609,3.41920012608 C 2.92664906848,3.64917670563 2.80754125584,3.84888378158 2.65064134169,4.01832135394 C 2.49374142755,4.1877589263 2.29940762091,4.32155371085 2.06728172768,4.41988481209 C 1.83515583444,4.51821591333 1.56846179534,4.56729191169 1.26737876702,4.56729191169 C 1.07913469244,4.56729191169 0.90754780639,4.53809706494 0.752797205932,4.47952826321 C 0.598046605475,4.42095946148 0.465326477773,4.33928553388 0.354457703419,4.23486470804 C 0.243588929065,4.13026476279 0.156899933703,4.00578367338 0.0940325008705,3.86142141744 C 0.0313441799954,3.71723827347 1.95577740669e-08,3.55926371738 1.95577740669e-08,3.38785594329 C 1.95577740669e-08,3.33770528808 0.00322399055585,3.28845017776 0.0094928224571,3.24044883251 C 0.0157616543584,3.19226837903 0.0229260339402,3.14104306698 0.0313441795297,3.08677289262 C 0.142212953884,2.5639523007 0.253081728239,2.04113170877 0.363950502593,1.51831111684 C 0.418220676947,1.26308009401 0.501864806283,1.04044700041 0.614882894326,0.850053612143 C 0.727721877862,0.659839335829 0.862591319252,0.501864779741 1.0194912334,0.37648813799 C 1.17639114754,0.250932384282 1.35191845195,0.15689990297 1.54643135564,0.0940324701369 C 1.74094425933,0.0313441492617 1.94906947808,-1.11758708954e-08 2.17080702679,-1.11758708954e-08 C 2.354752474,-1.11758708954e-08 2.52311538951,0.0261499751359 2.67571667628,0.0784499477595 C 2.82849706011,0.130749920383 2.95906787412,0.204901242629 3.06778733479,0.30108303763 C 3.17668589996,0.397264832631 3.2603300293,0.511357570067 3.31889883103,0.643003040925 C 3.37728852453,0.77482762374 3.40666247951,0.918115207925 3.40666247951,1.07286580838 C 3.40666247951,1.11889694445 3.40451316582,1.1668982897 3.40039364761,1.21704894491 C 3.39627412939,1.26737870835 3.3878559838,1.31752936356 3.37531832,1.36768001877 C 3.19961190363,1.36768001877 3.02390548727,1.36768001877 2.8481990709,1.36768001877" fill="none" stroke="#000000" stroke-width="0.00456729192287"/>
	<path d="M 1.34260481736,4.10304016434 C 1.51831123373,4.10304016434 1.68237552186,4.06954669021 1.83515590569,4.00273885392 C 1.98775719246,3.93575190566 2.11940266332,3.84261497669 2.23027143767,3.72350716405 C 2.34114021203,3.6042202469 2.42890386423,3.46630594693 2.49374149879,3.30940603279 C 2.55857913336,3.15250611864 2.59099795064,2.98217298649 2.59099795064,2.79804844223 C 2.59099795064,2.55965370499 2.52204080066,2.37463360094 2.38394738873,2.24280901812 C 2.24603308877,2.11116354726 2.04525135597,2.04525125585 1.7817813023,2.04525125585 C 1.61019441625,2.04525125585 1.44917498669,2.07981938682 1.29872302851,2.14877653681 C 1.14809195837,2.21773368679 1.01537183067,2.31087061577 0.900204436388,2.42800821923 C 0.785216146614,2.54496671818 0.694228531327,2.68198547326 0.627420695033,2.83888538741 C 0.560433746781,2.99578530155 0.526940272655,3.16199890338 0.526940272655,3.33770531975 C 0.526940272655,3.58433908783 0.599121400621,3.77365780436 0.743483656552,3.90548238717 C 0.887666800525,4.03712785803 1.08737387648,4.10304014944 1.34260489931,4.10304014944" fill="none" stroke="#000000" stroke-width="0.00456729192287"/>
</svg>
