<?xml version="1.0" ?>
<svg baseProfile="full" height="600px" version="1.1" viewBox="-0.275210749609 -0.459013002477 3.27969173113 5.48531757532" width="359px" xmlns="http://www.w3.org/2000/svg" xmlns:ev="http://www.w3.org/2001/xml-events" xmlns:xlink="http://www.w3.org/1999/xlink">
	<defs/>
	<path d="M 2.67374634743,4.5672917366 C 1.81831943989,4.5672917366 0.962713420391,4.5672917366 0.107286512852,4.5672917366 C 0.0714646168053,4.47612500191 0.0358218289912,4.3847791627 -6.70552253723e-08,4.29361242801 C 0.293381266296,3.95330441743 0.549149595201,3.65257958323 0.767304949462,3.39125884324 C 0.98563940078,3.12993810326 1.17227148265,2.89870775491 1.32773851603,2.69792602211 C 1.48302643746,2.49696517736 1.61126882583,2.32054232806 1.71228657663,2.16901569813 C 1.81330432743,2.01730995625 1.89354537427,1.88172406703 1.95265150443,1.76225803792 C 2.01175763458,1.64261290431 2.05259459838,1.5340725556 2.07462506555,1.43681610376 C 2.09683464281,1.33938053995 2.10793943144,1.24391518533 2.10793943144,1.15006181598 C 2.10793943144,1.03668551147 2.09450621996,0.930115371943 2.06728157867,0.830172277987 C 2.04023604561,0.730408288538 1.99707065616,0.64354018867 1.93778541777,0.569567970932 C 1.87867928762,0.495595753193 1.80166220386,0.437564279884 1.70673417021,0.395652662963 C 1.61180613656,0.353741046041 1.49771339912,0.332785237581 1.3646350475,0.332785237581 C 1.2636172967,0.332785237581 1.17048036773,0.357502346858 1.08540336508,0.406757457182 C 1.00032636244,0.456191675738 0.927607913502,0.518342668191 0.867248018272,0.59356864728 C 0.806888123043,0.66879462637 0.759424106218,0.752617860213 0.724855975248,0.845038356259 C 0.690287844278,0.937458852306 0.673093334772,1.02683448233 0.673093334772,1.11316526122 C 0.63118171785,1.13537483849 0.593568728305,1.15633064695 0.560254362412,1.17603269033 C 0.526939996518,1.19573473372 0.493088302203,1.21364568174 0.458520171233,1.22958642617 C 0.42413115222,1.24570627883 0.386518162675,1.25931859948 0.34586031083,1.27042338811 C 0.305023347028,1.28134906664 0.256484677084,1.28940899298 0.199706968851,1.2944240584 C 0.166392602958,1.25734839728 0.133078237064,1.22045184439 0.0997638711706,1.18337618327 C 0.0997638711706,1.0551337949 0.142929260619,0.921518122312 0.229260039516,0.782170941588 C 0.315590818413,0.642823760863 0.430220891722,0.515297805425 0.573150266893,0.399413970765 C 0.716258739121,0.283530136105 0.87835282553,0.188064781483 1.05961162318,0.112838802394 C 1.24069130886,0.0376128233038 1.42624873389,-1.66241079569e-07 1.61610480119,-1.66241079569e-07 C 1.76404923666,-1.66241079569e-07 1.90267996956,0.0209556422196 2.03217612673,0.0628672591411 C 2.1616722839,0.104778876062 2.27433214802,0.168183637317 2.37051394302,0.253260639962 C 2.46669573803,0.338337642606 2.54245905299,0.446877991315 2.59798299242,0.57870257413 C 2.65350693185,0.710706268903 2.68126890156,0.866531526204 2.68126890156,1.04653656995 C 2.68126890156,1.15758444881 2.6651490489,1.26845322317 2.63308845181,1.37950110203 C 2.60102785472,1.49036987638 2.5512354197,1.61055234587 2.48335292656,1.74004850304 C 2.41547043342,1.86936554825 2.32806500513,2.0106829307 2.22077842522,2.16346331453 C 2.11349184532,2.31624369835 1.98345835228,2.48836790537 1.83067796845,2.67929861462 C 1.67771847267,2.87040843582 1.50147473533,3.0842651627 1.30176765937,3.32104790723 C 1.10206058342,3.5576515398 0.875307974406,3.82398735499 0.621330705471,4.11987622594 C 1.13662871439,4.11987622594 1.65192672331,4.11987622594 2.16722473223,4.11987622594 C 2.20913634915,4.11987622594 2.24674933869,4.11056253267 2.27988459263,4.09211425623 C 2.31319895852,4.07366597978 2.3427520236,4.04894887051 2.36872289982,4.01814203849 C 2.3945146678,3.98733520648 2.41672424506,3.95222974708 2.4353516316,3.91264654836 C 2.45379990805,3.87324246159 2.46920332406,3.83258460974 2.4815618787,3.79067299282 C 2.51111494377,3.69449119782 2.53207075223,3.58487619227 2.54442930687,3.4614697597 C 2.6060429709,3.47633584635 2.66765663493,3.49102282384 2.72927029897,3.5058889105 C 2.71082202252,3.85963013908 2.69237374607,4.21355047962 2.67374635953,4.5672917082" fill="none" stroke="#000000" stroke-width="0.00456729190284"/>
</svg>
