<?xml version="1.0" ?>
<svg baseProfile="full" height="600px" version="1.1" viewBox="-0.18393461835 -0.458653711491 2.18439779927 5.48102340774" width="240px" xmlns="http://www.w3.org/2000/svg" xmlns:ev="http://www.w3.org/2001/xml-events" xmlns:xlink="http://www.w3.org/1999/xlink">
	<defs/>
	<path d="M 1.24122881889,2.36531972885 C 1.14540524781,2.36531972885 1.05208920687,2.37427520286 0.961638912559,2.39200704265 C 0.871009513736,2.40973888244 0.780380114913,2.42836626898 0.689929820597,2.44788920414 C 0.599300421774,2.46741213929 0.507954582572,2.48514397908 0.415534086525,2.50126383174 C 0.323113590479,2.51720457617 0.229081109166,2.52508539334 0.13325753808,2.52508539334 C 0.0976147502661,2.52508539334 0.0666288081557,2.5127268387 0.0399414952844,2.48783062119 C 0.0132541824132,2.46293440368 8.00937414169e-08,2.43105291482 8.00937414169e-08,2.39200704452 C 8.00937414169e-08,2.38484266493 8.00937414169e-08,2.37767828535 8.00937414169e-08,2.3706930154 C 8.00937414169e-08,2.36352863582 0.00179117498919,2.35636425624 0.0053733647801,2.34937898628 C 0.0195230147801,2.32090057805 0.0381504013203,2.27379478142 0.0612555253319,2.20824070647 C 0.0843606493436,2.14250752702 0.111047962215,2.06871442124 0.141138355713,1.98704049364 C 0.171407859307,1.90536656603 0.201498252805,1.82011044398 0.231767756399,1.73145125434 C 0.261858149897,1.64261294529 0.292127653491,1.55735682324 0.322218046989,1.47568289563 C 0.352487550583,1.39400896803 0.378279318567,1.32021586224 0.399593349081,1.2546617873 C 0.420907379594,1.18892860785 0.436848124024,1.14003171772 0.447415583301,1.10815022886 C 0.454579962883,1.09382146969 0.462639889214,1.06552216969 0.471416254062,1.02289410867 C 0.480371728074,0.980266047642 0.489148092922,0.935846893117 0.498103566933,0.889636645094 C 0.507059040945,0.84342639707 0.515835405793,0.799186354503 0.524790879805,0.756558293477 C 0.533567244653,0.71393023245 0.538044981658,0.683660728857 0.538044981658,0.665928889066 C 0.552194631658,0.641032671556 0.574404208921,0.620614189655 0.604673712514,0.604673445225 C 0.634764106013,0.588732700795 0.665929156356,0.580672774464 0.697810645215,0.580672774464 C 0.703183929902,0.580672774464 0.708557214588,0.580672774464 0.713930499274,0.580672774464 C 0.720915769227,0.584254964255 0.736140076071,0.590523796156 0.759066089988,0.599300161004 C 0.782171213999,0.608255635016 0.795604425482,0.616136452183 0.799186615273,0.623300831765 C 0.799186615273,0.633868291043 0.799903053208,0.652674785815 0.801694148104,0.679182990454 C 0.803485242999,0.705870303325 0.804380790447,0.724497689866 0.804380790447,0.735244259238 C 0.804380790447,0.866531506181 0.784857855295,0.990833491087 0.745811984991,1.10815020651 C 0.706766114687,1.22528780997 0.662346960162,1.34152986109 0.612554525142,1.45705547929 C 0.562941198354,1.57240199298 0.517626498942,1.68792761117 0.47678953514,1.80327412486 C 0.435952571337,1.91879974306 0.415534089436,2.03862398863 0.415534089436,2.16292597353 C 0.561150099267,2.16292597353 0.706766109099,2.14608968236 0.85238211893,2.11223798804 C 0.997998128762,2.07856540568 1.14182304882,2.05456473306 1.2838568642,2.04041508306 C 1.36015750759,1.40457639564 1.43663725548,0.768916820176 1.51293789886,0.133257244714 C 1.51652008865,0.0940322661772 1.53693857056,0.0621507773176 1.57419334364,0.0372545598075 C 1.61144811672,0.0123583422974 1.64798645314,-2.12341547012e-07 1.68345013272,-2.12341547012e-07 C 1.71891381231,-2.12341547012e-07 1.75007886265,0.00985080935061 1.77658706729,0.0293737445027 C 1.80327438016,0.0488966796547 1.81652848248,0.0763004310429 1.81652848248,0.111943218857 C 1.81652848248,0.11892848881 1.81652848248,0.126092868391 1.81652848248,0.133257247973 C 1.78464699362,0.417324878741 1.74649667193,0.692616172601 1.7020775174,0.958951987792 C 1.65765836288,1.22528780298 1.63544878562,1.49520579772 1.63544878562,1.76870600181 C 1.63544878562,1.83264808403 1.64350871195,1.89032134088 1.65944945638,1.94172576116 C 1.67539020081,1.99330929713 1.68345012714,2.04740036326 1.68345012714,2.10435717972 C 1.68345012714,2.11313354457 1.68345012714,2.12208901858 1.68345012714,2.13086538343 C 1.67986793735,2.1416119528 1.66750938271,2.1699112528 1.64619535219,2.21612150082 C 1.62488132168,2.26233174885 1.60894057725,2.29260125244 1.59819400788,2.30675090244 C 1.58046216809,2.66550720623 1.5706111464,3.02677104762 1.5688200515,3.39090062073 C 1.567208066,3.75485108187 1.54840157123,4.11629403522 1.51293789165,4.47487122705 C 1.50935570186,4.48561779642 1.49610159954,4.50155854085 1.47299647552,4.52287257137 C 1.44989135151,4.54418660188 1.43305506033,4.55672426568 1.42230849096,4.56012734585 C 1.40457665117,4.56729172543 1.38594926463,4.56370953564 1.36642632948,4.54955988564 C 1.34690339433,4.53541023564 1.32738045917,4.51839483436 1.30785752402,4.49887189921 C 1.28833458887,4.47934896406 1.27239384444,4.45803493354 1.25985618064,4.43492980953 C 1.247497626,4.41182468552 1.2412287941,4.39498839434 1.2412287941,4.38442093506 C 1.2412287941,3.71132743731 1.2412287941,3.03841311112 1.2412287941,2.36531961337" fill="none" stroke="#000000" stroke-width="0.00456371640945"/>
</svg>
