<?xml version="1.0" ?>
<svg baseProfile="full" height="600px" version="1.1" viewBox="-0.321652298323 -0.459012763764 3.83699196988 5.4853175384" width="420px" xmlns="http://www.w3.org/2000/svg" xmlns:ev="http://www.w3.org/2001/xml-events" xmlns:xlink="http://www.w3.org/1999/xlink">
	<defs/>
	<path d="M 1.38702392578,1.52243065834 C 1.51472899318,1.48499677703 1.64458337426,1.46636939049 1.77676618099,1.46636939049 C 1.97933901846,1.46636939049 2.14447796345,1.51150498167 2.27200391889,1.60177616403 C 2.47242742777,1.74703394994 2.57254963368,1.99581703171 2.57254963368,2.34812539443 C 2.57254963368,2.49338318035 2.55607156083,2.65511904284 2.52311541513,2.83351209387 C 2.40203740075,3.42582717165 2.18728512898,3.86930226907 1.87903771177,4.1644746922 C 1.59729850665,4.43081050739 1.26594594494,4.56514262781 0.884980056435,4.56729194149 C 0.64730175212,4.56729194149 0.45350529626,4.52323100716 0.30376977101,4.43510913849 C 0.101196933538,4.31403112411 7.07805156708e-08,4.11701068282 7.07805156708e-08,3.84404781461 C 7.07805156708e-08,3.61066815257 0.0881219394505,3.39269191027 0.264186564833,3.19011907279 C 0.267410535831,3.1868951018 0.270813615993,3.18349202164 0.274037586991,3.18026805064 C 0.311471468303,3.13835643372 0.367711848114,3.12187836086 0.442579610739,3.13065472571 C 0.574583305512,3.15716293035 0.706766112242,3.18349202489 0.838769807015,3.21000022953 C 0.854173223022,3.21214954322 0.868501982186,3.21429885691 0.881756084505,3.21662728023 C 0.963250907604,3.23632932361 0.986356031615,3.28916662466 0.951071463991,3.37513917964 C 0.904861215968,3.50714287441 0.880681435112,3.62714622449 0.878532121424,3.73514925223 C 0.878532121424,3.88040703814 0.91471223766,3.95294638257 0.987430686597,3.95294638257 C 1.06444777036,3.95294638257 1.16582373763,3.86822759639 1.29120037938,3.69879002403 C 1.46081706369,3.46970898937 1.57849200303,3.24080706667 1.64458340639,3.01190514397 C 1.71945116902,2.76079363655 1.75688505033,2.54622047674 1.75688505033,2.36782742571 C 1.75473573664,2.19391211402 1.71282411972,2.10704401415 1.63132929662,2.10704401415 C 1.56093926588,2.10704401415 1.47514582286,2.14770186599 1.37376985559,2.22919668909 C 1.23066138336,2.34149833675 1.11191179464,2.4790544128 1.01716288039,2.642044059 C 0.986356048379,2.69040362071 0.940145800356,2.70795635041 0.878532136325,2.69488135725 C 0.722169558052,2.63308858499 0.565806979779,2.57147492096 0.409444401506,2.50986125693 C 0.372010520194,2.49445784092 0.344606768806,2.47135271691 0.326874929015,2.44054588489 C 0.315949250478,2.41636610404 0.319173221476,2.36782743409 0.336905061267,2.29528808966 C 0.517447425984,1.57634264603 0.6979897907,0.857576254755 0.878532155417,0.138630811125 C 0.900383512489,0.0506880544126 0.966474915855,0.00447780638933 1.07662724983,6.93835318089e-08 C 1.73485463392,6.93835318089e-08 2.39326107036,6.93835318089e-08 3.05148845445,6.93835318089e-08 C 3.06689187046,6.93835318089e-08 3.08336994331,0.00107472622767 3.10092267301,0.00322403991595 C 3.18904454168,0.0186274559237 3.21429897938,0.0968983010389 3.1770442063,0.237857459579 C 3.14175963867,0.378637521062 3.10647507105,0.519596679602 3.07136961166,0.660555838142 C 3.06026482303,0.704437664244 3.05041380133,0.734169837553 3.04163743649,0.749573253561 C 3.02623402048,0.778230771888 2.9920241097,0.792559531052 2.93918680865,0.792559531052 C 2.48460694868,0.78270850936 2.02984797675,0.772857487667 1.57526811678,0.762827356812 C 1.5125797959,1.01608817792 1.44971236307,1.26916988706 1.3870240422,1.52243070817" fill="none" stroke="#000000" stroke-width="0.00456729187211"/>
</svg>
