<?xml version="1.0" ?>
<svg baseProfile="full" height="600px" version="1.1" viewBox="-0.300912899235 -0.4590127814 3.58811833158 5.48531750988" width="393px" xmlns="http://www.w3.org/2000/svg" xmlns:ev="http://www.w3.org/2001/xml-events" xmlns:xlink="http://www.w3.org/1999/xlink">
	<defs/>
	<path d="M 0.065016746521,4.54776906967 C 0.0216722488403,4.53469407652 0.0,4.5087232003 0.0,4.46967732999 C 0.0,4.44370645378 0.0109256785363,4.41110852454 0.0325979273766,4.37206265423 C 0.795962540433,3.07083222363 1.55932715349,1.76960179303 2.32269176655,0.468371362425 C 1.6374188941,0.468371362425 0.952146021649,0.468371362425 0.266694037244,0.468371362425 C 0.223349539563,0.468371362425 0.194154692814,0.453326165676 0.17893038597,0.422877551988 C 0.163706079125,0.392608048394 0.156183480751,0.349084442481 0.156183480751,0.292844062671 C 0.156183480751,0.281918384135 0.156183480751,0.271171814762 0.156183480751,0.260246136226 C 0.156183480751,0.195229389705 0.168004706968,0.13558593113 0.192005379591,0.0813157567754 C 0.21582694212,0.0270455824211 0.258096779231,4.93600964546e-08 0.318814898375,4.93600964546e-08 C 1.17549558962,4.93600964546e-08 2.0319971689,4.93600964546e-08 2.88867786014,4.93600964546e-08 C 2.91035010898,4.93600964546e-08 2.93202235783,0.0325979785994 2.95369460667,0.0976147251204 C 2.97554596374,0.162631471641 2.98629253311,0.227648218162 2.98629253311,0.292844076641 C 2.98629253311,0.331889946945 2.97984459111,0.368607391603 2.96676959796,0.403354634531 C 2.18173267646,1.75670586992 1.39669575496,3.10987805296 0.611658833455,4.46322928835 C 0.568135227542,4.53254465479 0.479296918493,4.56729189772 0.344785686117,4.56729189772 C 0.3188148099,4.56729189772 0.292843933683,4.56729189772 0.266693947371,4.56729189772 C 0.175706332084,4.56729189772 0.108361167368,4.56084395573 0.0650166696869,4.54776896257" fill="none" stroke="#000000" stroke-width="0.00456729184836"/>
</svg>
