<?xml version="1.0" ?>
<svg baseProfile="full" height="600px" version="1.1" viewBox="-0.311247532241 -0.459013032712 3.71213370372 5.48531760831" width="407px" xmlns="http://www.w3.org/2000/svg" xmlns:ev="http://www.w3.org/2001/xml-events" xmlns:xlink="http://www.w3.org/1999/xlink">
	<defs/>
	<path d="M 1.26952803135,4.5672917366 C 1.03202885389,4.5672917366 0.817097470164,4.52806675807 0.624733880162,4.44979591295 C 0.432012066245,4.37134595588 0.279769003391,4.25940252468 0.16800468415,4.11396562681 C 0.0558821409941,3.96834961697 -1.86264514923e-08,3.79712093994 -1.86264514923e-08,3.60010049865 C -1.86264514923e-08,3.32695851848 0.099584851414,3.0840860419 0.298933718354,2.87130397186 C 0.498103458434,2.65870101377 0.785932410508,2.45594907925 1.16206233576,2.26358548924 C 0.924563158303,2.08877463266 0.760140646249,1.92542677745 0.668257478625,1.7731837146 C 0.576553422958,1.62094065174 0.530522286892,1.44863733277 0.530522286892,1.25591551885 C 0.530522286892,1.02773004398 0.595539033413,0.818351056427 0.725393414497,0.627957668155 C 0.855247795582,0.437743391842 1.02880488336,0.285500328988 1.24588558078,0.171228472143 C 1.46314539015,0.0571357347071 1.70368944108,-1.9371509552e-07 1.96805505455,-1.9371509552e-07 C 2.18728506565,-1.9371509552e-07 2.38215619326,0.0437025204301 2.55231019855,0.130928836763 C 2.72246420383,0.218334265053 2.85464701056,0.33583008498 2.94850037992,0.483595408499 C 3.04271197319,0.631360732019 3.08963865787,0.797037012875 3.08963865787,0.980624236166 C 3.08963865787,1.19107788056 3.00796473026,1.38594900817 2.84443776309,1.56505849212 C 2.68108990788,1.74416797608 2.41350033879,1.92775519937 2.04184815288,2.11564105004 C 2.35081201792,2.33057243377 2.55678792298,2.53099594265 2.65977587551,2.71691159159 C 2.76276382804,2.90264812857 2.81416824833,3.10074322671 2.81416824833,3.31137598306 C 2.81416824833,3.53526284546 2.74592753127,3.74231342226 2.60944609717,3.93252769858 C 2.4727855511,4.12292108685 2.28812365606,4.27623882145 2.0552813299,4.39265998453 C 1.82243900374,4.50908114761 1.56040181592,4.56729172915 1.26952802017,4.56729172915" fill="none" stroke="#000000" stroke-width="0.00456729193032"/>
	<path d="M 0.591061282903,3.51269506663 C 0.591061282903,3.75914972275 0.658227343112,3.94936399907 0.792559463531,4.08369611949 C 0.926891583949,4.21802823991 1.11728497222,4.28519430012 1.36338140443,4.28519430012 C 1.62774701789,4.28519430012 1.83372292295,4.21014742553 1.98130913451,4.06023278832 C 2.12925356999,3.91013903916 2.20304667577,3.71437236667 2.20304667577,3.47257456183 C 2.20304667577,3.31567464769 2.17170251533,3.18134252727 2.10901419446,3.06957820803 C 2.04632587358,2.95745566487 1.95336804911,2.84891531616 1.83031983301,2.74377804995 C 1.70709250495,2.63846167177 1.54929704592,2.52329427749 1.35675434396,2.39791763574 C 1.1507784389,2.54120521992 0.99190832302,2.66765651852 0.879785779864,2.77727152407 C 0.767842348665,2.88706564158 0.691720817238,2.99900907278 0.651600293815,3.11310181022 C 0.611121550202,3.22737366706 0.591061288491,3.36045201868 0.591061288491,3.51269508153" fill="none" stroke="#000000" stroke-width="0.00456729193032"/>
	<path d="M 1.16868936457,1.01411772519 C 1.16868936457,1.17101763934 1.21006365679,1.32541001588 1.2929913532,1.47765307873 C 1.37573993765,1.62989614159 1.54929702543,1.79109468311 1.81348352693,1.9612486884 C 2.07767002843,1.80452788621 2.26125725172,1.65783721954 2.36424520425,1.52135578543 C 2.46723315679,1.38469523937 2.51863757707,1.208988823 2.51863757707,0.994057439268 C 2.51863757707,0.761215113103 2.46275541745,0.585508696735 2.35081198625,0.466759108007 C 2.23886855505,0.348188631237 2.07981932722,0.288724284619 1.87384342216,0.288724284619 C 1.63652335666,0.288724284619 1.45974229835,0.359293419868 1.34332113527,0.500431690365 C 1.22689997219,0.641390848905 1.16868939064,0.812798622996 1.16868939064,1.01411767676" fill="none" stroke="#000000" stroke-width="0.00456729193032"/>
</svg>
