<svg baseProfile="full" height="600px" version="1.1" viewBox="-0.807890462393 -10.2042535405 10.7459503151 16.0604051637" width="402px" xmlns="http://www.w3.org/2000/svg" xmlns:ev="http://www.w3.org/2001/xml-events" xmlns:xlink="http://www.w3.org/1999/xlink">
    <defs></defs>
    <path d="M 0.094469233416,-6.05258442461 C 0.0945380277117,-7.65698494017 0.0954583190614,-7.77416928858 0.093177283532,-8.74416121095 C 1.2981266625,-8.74392628965 2.38189240766,-8.86052738425 3.43659755064,-8.86031426542 C 3.43692889353,-6.90634729021 3.43726404564,-5.48437441938 3.43680443539,-3.92466367834 C 4.02188476099,-4.59314860456 4.75518395676,-4.81594230287 5.13249482884,-4.81592609163 C 6.50983669533,-4.81565346855 7.4909658648,-3.86680092948 8.06741800084,-3.13738622802 C 8.73711594119,-2.1429732694 9.03734513297,-1.26688959735 9.03699179529,-0.0664322628345 C 9.0371491602,1.62299189431 8.50414696246,2.58844736678 7.64116474896,3.30753317935 C 6.67236354857,4.20281991822 5.4538705638,4.51193789107 4.13200119048,4.51221263987 C 3.13270690947,4.51203565474 2.20559421091,4.36498676415 1.37564226895,4.12671445484" fill="none" stroke="#000000" stroke-width="0.0133725271971"></path>
    <path d="M 4.03649759817,0.312422100256 C 4.03645926172,0.844932142447 4.03576138149,1.21815225835 4.03546234542,1.63463712091 C 4.03539461364,2.19641441459 3.91374904384,2.32615307326 3.91350134673,2.67417222614 C 3.89645611147,3.08097648973 4.18729497889,3.02684424798 4.29476515601,3.02664416917 C 4.47359847674,2.97802804299 4.82459497104,2.43899075575 4.8258974387,1.18779592105 C 4.82618348258,0.619966252523 4.81214505391,0.268606587129 4.73215759503,-0.00813092402859 C 4.64491812842,-0.360777841133 4.44300590413,-0.48577112071 4.10160864847,-0.485736414996 C 3.71084357756,-0.485408913142 3.25507731693,-0.271703582055 3.16984255569,0.623737830871" fill="none" stroke="#000000" stroke-width="0.0133725271971"></path>
</svg>