<svg baseProfile="full" height="600px" version="1.1" viewBox="1.46803705607 1.17484041226 9.09797646993 12.5341933312" width="436px" xmlns="http://www.w3.org/2000/svg" xmlns:ev="http://www.w3.org/2001/xml-events" xmlns:xlink="http://www.w3.org/1999/xlink">
    <defs></defs>
    <path d="M 4.25190214383,12.3553537528 C 4.05298541057,12.3552052106 3.68913198578,12.3546694779 3.26926575172,12.3541091124 C 3.14576582181,12.4321565147 3.01508189309,12.4118425365 2.88159972,12.2722255553 C 2.74898634422,12.1209506507 2.62597976196,11.9336513395 2.51176171321,11.7073069627 C 2.37255527395,11.923126098 2.28969944584,11.6660085882 2.23055028859,11.4030449356 C 2.92808800879,8.02116632117 3.61855316105,5.00560545576 4.26793128195,2.22370504988 C 4.62698668185,2.22382870871 5.02825355473,2.22389775923 5.46731129232,2.22394643101 C 5.12380275074,3.60737417015 4.81252518239,4.92899892601 4.50239109936,6.07809899124 C 4.61639217976,5.99694183591 4.75580064896,5.90185483667 4.89671516362,5.82163711014 C 5.04269351008,5.7255362359 5.18488521817,5.64452757808 5.32147888782,5.5870947552 C 5.45862118843,5.51974691572 5.58604372981,5.45744143548 5.7149895871,5.41087694961 C 5.84154173675,5.35608027997 5.9928068662,5.33212665032 6.23142550829,5.33225666337 C 6.69746778849,5.33231801884 6.94247116092,5.33547023027 7.24286375883,5.33549929363 C 7.74531482103,5.33565195045 8.1224420214,5.4102819427 8.43914665225,5.53321907064 C 8.76050151828,5.6771338447 9.01172114852,5.85592992744 9.2092161769,6.06122645876 C 9.4107204968,6.29812207958 9.55575178507,6.55286660931 9.65213841143,6.81698537013 C 9.7502979705,7.12161961338 9.80345650706,7.42153987429 9.80349947339,7.67930090567 C 9.80368278793,8.00787601015 9.7731602235,8.39130747458 9.68561573757,8.76558014891 C 9.59952058329,9.19336351892 9.48224249168,9.591404201 9.32324966474,9.95057106158 C 9.16256856604,10.3608799591 8.96542749985,10.7204107954 8.72259312554,11.0210601701 C 8.4769750206,11.3647091701 8.19976791425,11.6486270144 7.88109180017,11.8678574874 C 7.56018715783,12.1185316159 7.21575021429,12.3082699492 6.83305918856,12.4368981882 C 6.44792735262,12.5843401863 6.02698477788,12.6602623477 5.58215617819,12.6601686141 C 5.31399765296,12.660336356 5.04531237169,12.6175744304 4.78261142655,12.5482582668 C 4.51871221943,12.4691350305 4.28524720354,12.361436739 4.07877528353,12.2307284766 C 3.87225708051,12.084447577 3.70060717745,11.912109881 3.56265958829,11.7229270035 C 3.45981092437,11.9700344646 3.36744568928,12.2061333203 2.92299644335,12.4290270203" fill="none" stroke="#000000" stroke-width="0.0104364640559"></path>
    <path d="M 4.51165859055,10.7774855271 C 4.69112591099,10.9564082995 4.91208523166,11.0025880337 5.12983078908,11.0022439144 C 5.32052212607,11.0022971628 5.52861579906,10.9495290925 5.75020680975,10.8410314059 C 5.97048233103,10.8413024068 6.18356597077,10.6757964462 6.39397941183,10.4818850278 C 6.60217857015,10.2565397441 6.7861631478,9.98013411161 6.96205827247,9.67502422329 C 7.13384459566,9.33664427396 7.26269141983,8.97898716923 7.37861865413,8.62635032531 C 7.48987675857,8.23436866399 7.55303581458,7.85781903263 7.55319723797,7.61942591962 C 7.55326730663,7.48231506046 7.55657097673,7.36848888245 7.54095333045,7.25292922255 C 7.52587205147,7.12443753775 7.50012806219,7.00818372216 7.48195877274,6.91049363908 C 7.45936895323,6.79912433472 7.42358348308,6.69629381295 7.37871490953,6.61428925093 C 7.33180101377,6.519904834 7.27034126756,6.436152105 7.19653781292,6.37287593331 C 7.12070391861,6.29975013133 7.03079920051,6.24071520638 6.92577969817,6.20247761231 C 6.81941737769,6.15816698294 6.69995297281,6.1305599257 6.57580486474,6.13049788126 C 6.41698314784,6.1306448969 6.29159658191,6.14600701993 6.16859015611,6.17579148141 C 6.04471318213,6.20842056898 5.92996107576,6.25663327975 5.82362694827,6.31769975079 C 5.71346209732,6.3852791096 5.61109833953,6.45976932896 5.51732923625,6.54032653374 C 5.42020288644,6.63015194786 5.33084258971,6.72001953227 5.25124030349,6.80882721198 C 5.16829075453,6.90787173612 5.09192307082,7.0010401587 5.02533985463,7.08911813599 C 4.87916412739,7.92028088672 4.72425690082,8.68019200665 4.56516320792,9.34959937436 C 4.62531663266,9.57022803826 4.69936658231,9.77099482519 4.79505222825,9.88690627915 C 4.88907278118,10.0266621689 5.04333064494,10.0973952468 5.29863185225,10.0973487241" fill="none" stroke="#000000" stroke-width="0.0104364640559"></path>
</svg>