<svg baseProfile="full" height="600px" version="1.1" viewBox="-0.573594965451 -3.03296417035 7.63119620701 16.4732126828" width="278px" xmlns="http://www.w3.org/2000/svg" xmlns:ev="http://www.w3.org/2001/xml-events" xmlns:xlink="http://www.w3.org/1999/xlink">
    <defs></defs>
    <path d="M 1.63072709182,12.0584407962 C 1.19619069436,12.0587461297 0.63427940944,12.0617780258 0.0680531654671,12.0617656482 C 0.0679579545849,7.31596038464 0.701014118373,3.15367410306 0.701272048247,-1.65442278262 C 1.23902539183,-1.65461560388 1.76149288584,-1.65426599639 2.35983178784,-1.65431872186 C 2.35997181421,-0.116445096108 2.35987201422,1.25398048582 2.35967399675,2.75925859633 C 2.58598460752,2.55476228717 2.77358013886,2.40212951424 3.02445140976,2.28609646681 C 3.25473140675,2.16649992588 3.48399165768,2.10617371472 3.78217581409,2.10629306122 C 4.6774591555,2.1063700729 5.36858115095,2.47460822397 5.80440757174,3.33647887045 C 6.21507192153,4.19114528233 6.41621813673,5.15914176041 6.41595285933,6.57089589172 C 6.4160952426,8.19232962662 6.15058533917,9.31451736027 5.65029262076,10.2606976443 C 5.16912050615,11.2175137215 4.3632055081,11.6576748305 3.25785274874,11.6578621419 C 2.87709648977,11.6579501655 2.50121568213,11.6018213507 2.15604804526,11.4600071337" fill="none" stroke="#000000" stroke-width="0.0137162470298"></path>
    <path d="M 3.54671575185,10.0446394529 C 4.08954520579,10.0449894715 4.53168453332,9.79051045065 4.77157850619,9.19322887545 C 5.00512656625,8.5955937851 5.14790412839,7.84271267538 5.14775504964,6.66110685949 C 5.14742838111,5.53783277159 5.07003842559,4.86880627756 4.93343408671,4.39111817365 C 4.79886548486,3.92049539571 4.54162828889,3.72069742267 4.17434858051,3.72081471822 C 3.95581572023,3.72079899851 3.73492805925,3.80079138223 3.5014841285,3.97008512858 C 3.28431754079,4.13940653149 3.07182793584,4.31577162388 2.90097934273,4.59228332284 C 2.70992145207,6.51115520242 2.51668218043,8.15720100644 2.33955966201,10.1201719785 C 2.52942554918,10.2851733262 2.67191872266,10.3230808707 2.82506197956,10.3377889203 C 2.96014169124,10.3514074808 3.11417353418,10.3315024706 3.28347857562,10.3314459645" fill="none" stroke="#000000" stroke-width="0.0137162470298"></path>
</svg>