<svg baseProfile="full" height="600px" version="1.1" viewBox="-0.725332989016 -0.891204731986 8.90655255393 13.0609969593" width="410px" xmlns="http://www.w3.org/2000/svg" xmlns:ev="http://www.w3.org/2001/xml-events" xmlns:xlink="http://www.w3.org/1999/xlink">
    <defs></defs>
    <path d="M 6.60559114853,3.99273009796 C 7.05271795431,4.55748225946 7.43393838445,5.52253855963 7.43386781968,6.76391436358 C 7.43434388215,7.95927657385 7.43473396856,8.76899309654 7.43426156328,9.55239571829 C 7.43449488742,10.4172888567 6.29439107043,11.0764116218 5.72511610849,11.0764951055 C 5.09016910655,11.0765904463 4.12999913556,11.0763799005 3.29659727676,11.0768445201 C 2.41463366611,11.0768699798 1.76347664458,10.7881254408 1.57899846596,10.2271050665 C 1.5790688922,10.479771063 1.53633241777,10.7128904912 1.53635085917,10.6713839809 C 1.09876753187,10.6713338924 0.535900128844,10.6712738459 0.0214185843497,10.6713176635 C 0.0213810354717,7.2255473998 0.021492352188,3.64499315289 0.0215518248142,0.201742973602 C 0.896113075024,0.201853218214 1.94602493168,0.201740585968 2.86359713197,0.201759506132 C 2.86363777327,1.67579858389 2.86350468285,3.25072233763 2.86343146366,4.72687010851 C 3.00751196844,4.36445735779 3.31243955595,4.07742838946 3.63967748982,3.85906018701 C 3.94054114324,3.64287184563 4.35726159317,3.531601783 4.7337352286,3.53156725847 C 5.49447389943,3.53146134535 6.29163661105,3.89336471478 6.80808451277,4.61277006785" fill="none" stroke="#000000" stroke-width="0.0108751015481"></path>
    <path d="M 4.61906263435,8.36335681201 C 4.61895119968,7.62047956706 4.56464466649,7.09777413131 4.56469975708,6.589618845 C 4.56462209796,6.21364594818 4.38933486615,5.97732497574 4.04601670181,5.97735956649 C 3.71086258565,5.97722272038 3.42076821004,6.11283349454 3.26665752505,6.38737651169 C 3.26669799209,7.27472331583 3.26649881173,8.20300575554 3.26653218164,8.91832062065 C 3.26666884949,9.21086733996 3.41076684823,9.32322913616 3.59481995633,9.32341539462 C 3.76202514103,9.32260138115 3.96912672451,9.3087746123 4.10807759395,9.30881101623 C 4.24723496368,9.30870257707 4.36392270854,9.24835719557 4.47277142187,9.05180502327 C 4.56335514119,8.86778836341 4.61989495611,8.61326443048 4.61986502242,8.39326331408" fill="none" stroke="#000000" stroke-width="0.0108751015481"></path>
</svg>