<svg baseProfile="full" height="600px" version="1.1" viewBox="-0.804219898009 1.01945975708 8.76828705342 14.7082056479" width="358px" xmlns="http://www.w3.org/2000/svg" xmlns:ev="http://www.w3.org/2001/xml-events" xmlns:xlink="http://www.w3.org/1999/xlink">
    <defs></defs>
    <path d="M 0.810251739902,11.9625531781 C 0.639161464853,12.0249649073 0.56639110027,11.7071390535 0.574395872747,11.3110800768 C 0.56809092695,11.0097892369 0.602098438983,10.7822363462 0.662270482724,10.4143913175 C 1.26328080529,8.18747452751 1.73537611598,5.38061527268 2.1778989696,2.61179713265 C 2.24451782191,2.34340111271 2.31715190793,2.25094972656 2.44537048424,2.25095019355 C 2.67293377603,2.25097756033 2.81794734681,2.25048106924 2.96268685544,2.25024714491 C 3.14983167136,2.24994955606 3.32752190912,2.33063875533 3.37409244487,2.464618657 C 3.45179961631,2.57432686187 3.47111002924,2.77430139877 3.42430158155,3.00789730645 C 3.04397593634,4.78465478517 2.69807867902,6.87483184434 2.36378763812,8.9218179474 C 2.37860282054,8.9400505165 2.40875190599,8.95842307642 2.43197168885,8.97833245642 C 3.09877534686,8.24317520506 3.70527525721,7.59343772776 3.71812918978,7.53110374905 C 4.41574111777,7.01882203318 4.63637753027,6.9514927233 5.04279492991,6.95135674982 C 5.72329466241,6.95134703925 6.18384893434,7.17588785401 6.56755836504,7.58248046151 C 7.03409241336,7.92555734626 7.22809541421,8.56513843051 7.22827353703,9.34684875718 C 7.22850875087,9.88894847146 7.07331591375,10.838790686 6.94114605613,11.5026066016 C 6.60004083343,12.5272468042 6.22816286512,13.3828530621 5.87803814836,13.8507414173 C 5.40442497559,14.2444511663 4.90996653862,14.4926670056 4.33900035448,14.4926758503 C 3.6493844492,14.5069018958 3.07753599711,14.4804367909 2.60161096878,14.4806275955 C 1.93430311509,14.4807091944 1.4457744164,14.3681873746 1.07139957972,14.1410535045 C 0.613131592945,13.9556421853 0.343519638256,13.6193759955 0.189788038806,13.2529256261 C 0.123499172703,13.4491865255 0.0488315475741,13.7086316563 -0.0684265466771,13.9682560183" fill="none" stroke="#000000" stroke-width="0.0122466325128"></path>
    <path d="M 5.60969539469,11.7289351537 C 6.00093321985,11.1552266791 6.1688987959,10.2861659839 6.17745751625,9.40112683323 C 6.17779670606,8.62896058109 6.04872173021,8.14640110877 5.72872808525,7.84769502428 C 5.34892222235,7.6196891829 4.97154456327,7.47929859307 4.53174138019,7.47929101515 C 3.9636964793,7.47921432226 3.50856539557,7.72857062189 2.97759738514,8.42052994339 C 2.37202945301,8.95154182284 1.97573086569,9.7525124964 1.67742755959,10.6997122583 C 1.57152840445,11.1004458484 1.48874192635,11.5955704269 1.4232410262,12.0919573721 C 1.42325172732,12.6181095657 1.51843598644,13.1112266597 1.81524902741,13.4549794909 C 2.1529662327,13.7308825073 2.53505662243,13.9059231099 3.04509034912,13.9061358854 C 3.55386462967,13.9061743545 3.99537021081,13.70764149 4.40338531295,13.3432858961 C 4.89020469944,13.0460313039 5.24664899866,12.5353087263 5.4313571618,11.8841453867" fill="none" stroke="#000000" stroke-width="0.0122466325128"></path>
</svg>