<svg baseProfile="full" height="600px" version="1.1" viewBox="-0.715025797855 0.946573625895 6.14708082883 11.9066397131" width="310px" xmlns="http://www.w3.org/2000/svg" xmlns:ev="http://www.w3.org/2001/xml-events" xmlns:xlink="http://www.w3.org/1999/xlink">
    <defs></defs>
    <path d="M 1.82910066657,4.2162375208 C 1.82842591207,4.63307685219 1.87730290543,4.67437760346 1.99318405043,4.67291809304 C 2.11772098194,4.66456190462 2.1464885528,4.67160733289 2.2352639715,4.60420657194 C 2.57856297295,4.22949660814 2.69469928544,4.1836743342 3.00905623834,4.18312606285 C 3.63876947563,4.18337480162 4.09484380286,4.52154944275 4.40978544753,5.01327274178 C 4.76308929722,5.53130201434 4.91558244627,6.35099474524 4.91566725481,7.23388848637 C 4.91594905521,8.35885010098 4.66045633818,9.46050105427 4.1924123254,10.2344096098 C 3.66735137369,11.0326099787 2.99909091856,11.5301666949 2.20010341074,11.5301112435 C 1.83581397797,11.5300002896 1.51375664141,11.4327365734 1.22705487277,11.2851884641 C 0.910992362755,11.129436908 0.67707144584,10.8898827561 0.518778958576,10.6470575758 C 0.452640907126,10.767253814 0.392200199174,10.8938439318 0.333075550603,10.9903173127 C 0.269591559874,11.0869109236 0.180532832848,11.1406706773 0.165722614372,11.1405296929 C 0.135417362893,11.1446109156 0.0657727925427,11.137647033 -0.00327928528714,11.1374171253 C -0.113460579669,11.1371770479 -0.181448029136,11.2312266805 -0.198638254558,11.162880195 C 0.256652659024,8.25581837972 0.638335054959,4.86585689863 1.01047367438,2.04910661062 C 1.38238219007,2.00748281335 1.77009136065,1.94294934129 2.13192028388,1.94292440955 C 1.90950251206,3.14955130164 1.69797820433,4.62888649051 1.50251290783,5.90873280112" fill="none" stroke="#000000" stroke-width="0.00991393814582"></path>
    <path d="M 1.25401672938,9.65249240683 C 1.10415782251,10.3333302169 0.974157529257,11.0624443917 1.10209481635,11.3366648285 C 1.22297397473,11.6545385747 1.4074195049,11.8567393749 1.67758059718,11.8568625066 C 2.10251420953,11.8569891386 2.44062924602,11.6107564502 2.69609528997,11.1650787823 C 2.98515287258,10.7140483194 3.18925239363,10.0390579038 3.32564547875,9.35742061665 C 3.47681495764,8.66032796433 3.52900389054,8.16046481659 3.52913861953,7.73340915968 C 3.52896718014,7.21050351193 3.47276305858,6.88244601419 3.31262220148,6.72053293219 C 3.13723814194,6.57023393443 2.92665347163,6.49252024373 2.69704004828,6.49240267607 C 2.19685610835,6.49231905286 1.81376918856,7.10047406499 1.4734972686,7.82600051706 C 1.10202258531,8.58629429882 0.951061618369,9.41485441272 0.865408268612,10.0969500596" fill="none" stroke="#000000" stroke-width="0.00991393814582"></path>
</svg>