<svg baseProfile="full" height="600px" version="1.1" viewBox="-1.00791557544 -0.142801772358 12.1518237037 16.8633466659" width="433px" xmlns="http://www.w3.org/2000/svg" xmlns:ev="http://www.w3.org/2001/xml-events" xmlns:xlink="http://www.w3.org/1999/xlink">
    <defs></defs>
    <path d="M 2.99935000535,14.1787287743 C 2.57948681113,14.1785887197 2.39062348899,14.0446534023 2.25558186468,13.8375913367 C 2.21362180036,14.1037208304 2.1701640464,14.3874029681 2.10679637414,14.6902616784 C 1.44184206944,14.6901164379 0.725623895938,14.6901475003 0.0109282634803,14.6901309571 C 0.0109040244843,10.6607225022 0.0106083036062,5.9390399537 0.0105868531919,1.26843000268 C 0.834186310933,1.26838285577 1.70621448295,1.2683016619 2.53518300788,1.26833566167 C 2.53514666372,2.5099410627 2.53519169109,3.97097893693 2.53526467423,5.47499462105 C 2.83315524797,5.07108660676 3.29871189932,4.73672663309 3.87536537985,4.51269588508 C 4.41144186596,4.32358633615 5.03318083624,4.21525986381 5.70982843975,4.21529438121 C 6.63306409458,4.21527243969 7.54818648438,4.54749162314 8.30111825804,5.25539047835 C 8.9961671863,5.85969497082 9.39237606863,6.8676688802 9.74091947416,7.87512542126 C 10.027010623,8.74125458119 10.1254413087,9.70453668949 10.1254055577,10.4512847197 C 10.1256121616,11.314686073 9.90014269157,12.1950812471 9.47218256397,12.9764033091 C 9.07196047111,13.6544001829 8.50867917342,14.2673547995 7.79913016362,14.704620136 C 7.14850243135,15.082178874 6.36816777988,15.3093171698 5.51506938739,15.3094155514 C 4.69124432607,15.3093695295 3.72473307653,14.8335280371 3.0278739552,13.9023435069 C 3.02769885863,14.4209117842 3.02761816047,14.9131078077 3.02763242915,15.2475388003" fill="none" stroke="#000000" stroke-width="0.0140410879816"></path>
    <path d="M 2.39550648577,8.64047491753 C 2.39529462045,9.74158930982 2.46596379465,10.5298627635 2.78017707055,11.0061494728 C 3.05709196514,11.4121063968 3.52889849132,11.6480270793 4.31258065885,11.6479331719 C 4.79580373948,11.647813193 5.30424161142,11.4475580821 5.70518021172,11.0433619986 C 6.08398239201,10.6938608954 6.33871288484,10.143076844 6.51305720096,9.49252266387 C 6.67101322001,8.94003475407 6.71991203984,8.25869578818 6.71991737339,7.61760092476 C 6.71979941249,6.88453639248 6.54755520642,6.25711316565 6.2015861851,5.76464990476 C 5.88651633084,5.35147214631 5.37646138489,5.11324276725 4.68041568816,5.11322596584 C 3.98528361142,5.11325015352 3.39522307933,5.3770564966 2.92614608824,5.90484531448 C 2.49635597885,6.34921516703 2.21213537276,7.06628962086 2.21207397899,8.15405674503" fill="none" stroke="#000000" stroke-width="0.0140410879816"></path>
</svg>