<svg baseProfile="full" height="600px" version="1.1" viewBox="-0.250372835668 -6.15073840078 7.00731736227 18.8650159161" width="223px" xmlns="http://www.w3.org/2000/svg" xmlns:ev="http://www.w3.org/2001/xml-events" xmlns:xlink="http://www.w3.org/1999/xlink">
    <defs></defs>
    <path d="M 1.73899461329,10.7425284386 C 1.44846333563,10.7318427823 1.38763677329,10.5137497894 1.47937054932,9.64268995449 C 1.79729346931,5.88781548664 1.8132384643,1.23025942966 1.8913783133,0.441962372512 C 1.69700317085,0.342214796692 1.53843413293,0.237140405923 1.5703138411,-0.227113675326 C 1.64685311913,-0.527151118964 1.61044899747,-0.585634943098 1.70839056745,-1.20921146497 C 1.53515521064,-1.2640754655 1.51195482537,-1.32191527635 1.54536544159,-1.41043648869 C 1.58450325206,-1.45854134485 1.6716110073,-1.499968905 1.69393778592,-1.52520809695 C 1.694035686,-1.55681084096 1.7717679659,-1.59379673377 1.76831571609,-1.60730409902 C 1.79061378763,-1.65574231651 1.9771085851,-1.70384500083 2.01030545906,-1.73251845967 C 2.10790109858,-1.80158198904 2.23758933172,-1.84960425179 2.28396951259,-1.8795496719 C 2.56896393598,-1.86006965581 2.70620860756,-1.89651541505 2.73004804962,-1.93200212065 C 2.77203403079,-2.00241410825 2.83380764761,-2.09014055226 2.78970226683,-2.16195796523 C 3.08835020699,-3.6067619184 3.96460810342,-4.56525723729 5.35825160184,-4.56306458823 C 5.40823960715,-4.57599732373 5.52551286333,-4.57364700595 5.61852476411,-4.56486264756 C 5.72115566247,-4.5649790669 5.77842406966,-4.53268570622 5.84031310715,-4.49777866324 C 6.01631680169,-4.49779813093 6.06123244055,-4.45203700018 6.08491041922,-4.39988949624 C 6.11304760948,-4.3443334448 6.15238382146,-4.29843488809 6.16645651442,-4.24967608702 C 6.10421606657,-3.9901450659 6.06316894051,-3.70586205375 6.01032135022,-3.40589449656 C 5.96583710369,-3.22553482008 5.95390185472,-3.15720817548 5.92657550183,-3.10549181429 C 5.90596298446,-3.06384576958 5.87203499992,-3.04012546045 5.80563170035,-3.04014231832 C 5.74445579146,-3.03924932572 5.68732479532,-3.02601153458 5.5775357293,-3.02593749212 C 4.93841449489,-3.0259814052 4.49430043568,-2.65841446203 4.23726640214,-2.30208269638 C 3.94353653063,-1.90481478852 3.74860654344,-1.33755970877 3.5928693818,-0.211642989336 C 3.54261161704,0.0636090846674 3.50830795933,0.307199067058 3.4812880898,0.528924679937 C 3.48137463659,0.553980401339 3.50352331094,0.590066621633 3.61721006624,0.590244065243 C 4.02997431748,0.590230855301 4.34789717786,0.589910230334 4.75841558568,0.589787401168 C 4.82200508408,0.58978226199 4.88423089899,0.626488549404 4.90323297523,0.672123444967 C 4.90334044566,0.82490597456 4.9097126106,0.888099079721 4.90983193587,0.952549656623 C 4.90997377533,1.10065372824 4.87585660193,1.33018942713 4.83927668754,1.58220659732 C 4.80313564215,1.78105347394 4.79693705339,1.88573020487 4.76773656096,1.95841091662 C 4.7291365334,2.03172827303 4.70674940322,2.11114253639 4.69303578075,2.11111475515 C 4.10890018877,2.11100593224 3.54608684715,2.11079028544 3.5493125071,2.11069989533 C 3.17778793473,2.11062806345 3.14172103379,2.14911758027 3.12574524183,2.24411879352 C 2.65548253555,5.13553081325 2.23546416063,7.96416650585 1.84253776569,10.6148177224 C 1.81772911299,10.7732183026 1.81768303179,10.8837692278 1.75841486641,10.9567358705 C 1.70510079899,11.0403973596 1.65286589228,11.0833680021 1.62265491673,11.0833012015 C 1.16440698691,11.0832030694 1.10163268634,11.1305380161 0.65097913333,11.1306249687 C 0.495895178996,11.1303569728 0.409935111187,11.1502333114 0.340115176521,11.1127116212" fill="none" stroke="#000000" stroke-width="0.0157077567994"></path>
</svg>