<svg baseProfile="full" height="600px" version="1.1" viewBox="-0.378493349112 -0.919229481444 9.18905282692 20.5430679055" width="269px" xmlns="http://www.w3.org/2000/svg" xmlns:ev="http://www.w3.org/2001/xml-events" xmlns:xlink="http://www.w3.org/1999/xlink">
    <defs></defs>
    <path d="M 1.58425587569,14.4415081625 C 1.66031685625,12.860837925 1.66012627471,10.960188139 1.66010013245,9.05030356696 C 1.35037490748,9.05034234151 0.980424255357,9.05053421304 0.571409732328,9.05064326118 C 0.430027723537,9.05078454666 0.394461609648,8.82368758671 0.394388133848,8.46802187316 C 0.39435482184,8.24707410089 0.475507797399,7.9719619786 0.475379986967,7.69725340955 C 0.47547390318,7.34725696198 0.766200207235,6.47106796853 0.995189853073,6.47109301847 C 1.24957571185,6.47122349733 1.55957455194,6.47117458784 1.96334848559,6.47123285542 C 2.10589168227,4.80159124146 2.57807461178,3.28761550198 3.31637886918,2.19784935722 C 3.95132289088,1.3299532176 5.01821932948,0.799814725018 6.37108967459,0.799819951825 C 6.76437688625,0.799751136524 7.14282471693,0.894778337401 7.40787110484,1.05581046276 C 7.62299477315,1.18878833584 7.76146296418,1.49782482914 7.88998920477,1.75670273237 C 7.97862369573,2.00193430118 8.03765006369,2.34782053165 8.0376780051,2.78935910396 C 8.03766470863,2.93027165167 7.93263555779,3.40940424435 7.57050074352,3.97885116569 C 7.33718017949,4.35912367336 7.0299853505,4.57827864222 6.56726886047,4.57822220557 C 6.16507996334,4.57837680918 5.93302006735,4.50768755567 5.59656260623,4.63625844014 C 5.36679960503,4.7260638718 5.20321723534,4.90345628005 5.08494614525,5.15699459058 C 5.00601580454,5.36118633491 4.95186149789,5.73791066748 4.95180802332,6.21847761613 C 4.95191295422,6.64718792778 4.95166699696,7.22633234602 4.95162349072,7.7428000961 C 5.61336134997,7.74274067991 6.35243772593,7.74285401191 7.14406185475,7.74275497914 C 7.32185298827,7.74276829245 7.46054158237,7.81297456207 7.46045341237,8.20263080778 C 7.48317786946,8.42204556348 7.4964621904,8.74362120511 7.49642270466,9.10298258545 C 7.49636722192,9.44865873935 7.05809307679,9.74118599774 6.83937584444,9.74110205497 C 6.17182826086,9.7410611167 5.43874692007,9.74122917396 4.63683121487,9.74112170712 C 4.63691059236,12.1925176956 4.63687958504,14.9202770568 4.63685344858,17.573703704 C 4.29414974852,17.7197360672 4.03308793111,17.9042549111 3.48836346669,17.9043481152 C 3.16872622771,17.904414902 2.81405728264,17.904761586 2.51508184476,17.9047890281" fill="none" stroke="#000000" stroke-width="0.0171049691136"></path>
</svg>