<svg baseProfile="full" height="600px" version="1.1" viewBox="0.821508754512 -1.21828911369 8.37824994462 17.5928712768" width="286px" xmlns="http://www.w3.org/2000/svg" xmlns:ev="http://www.w3.org/2001/xml-events" xmlns:xlink="http://www.w3.org/1999/xlink">
    <defs></defs>
    <path d="M 4.46728840403,4.44579343111 C 4.46719926692,4.88453708202 4.46725105698,5.48215745002 4.46724911277,6.08372567207 C 5.18288655822,6.08362550303 5.99660976474,6.05958146244 6.7279634649,6.0596531409 C 6.80731226747,6.05965800352 6.88293250893,6.0719358395 6.88399146007,6.13471171959 C 6.88405396318,6.28399846657 6.85003189271,6.38680805965 6.64520366018,6.41043559975 C 6.04928804462,6.41048962701 5.45506341284,6.41059344024 4.74107820814,6.4105803144 C 4.74104100827,8.90086737991 4.74071376108,11.4468580854 4.74070068154,13.966153301 C 5.29384060654,14.0583624464 5.84014733586,14.174436025 6.07095383558,14.3303933662 C 6.32407440696,14.4622227472 6.32612164722,14.4926667658 6.32514724562,14.5791212019 C 6.32514990059,14.6564198878 6.30582417858,14.7031297346 6.30460707222,14.7640996572 C 6.28543096346,14.8306517971 6.12487111551,14.8803488907 6.02024321568,14.8804576539 C 4.50143187058,14.8804387196 2.96316413892,14.8804765332 1.55712502015,14.8804752009 C 1.5572070872,14.9446819352 1.52577829935,14.8477694096 1.5257998105,14.844732047 C 1.96668729148,14.7455453435 2.38347527346,14.6631214106 2.71383482179,14.5779219651 C 3.01093900165,14.4810638809 3.21931786797,14.1657950366 3.34284537247,14.0492092752 C 3.46056795827,13.8839649492 3.52499233893,13.6866987133 3.52504166861,11.1104257488 C 3.52494186528,9.33528009891 3.52547553774,7.64076069832 3.52549812891,5.67178408146 C 3.06367961266,5.6718643232 2.59031257727,5.67193325822 2.13939920761,5.6719412896 C 2.105998903,5.66634975692 2.07389194839,5.66305215044 2.07390733311,5.61819435043 C 2.48651288697,5.48764678223 2.91052170345,5.35626281185 3.28801666448,5.21986512227 C 3.40800235668,5.21980003105 3.40784015901,4.91060197936 3.40781002988,4.53311107146 C 3.40781500417,4.09617603408 3.55793721455,3.41520488845 3.76261586922,2.72166830884 C 3.97398395317,2.23065782176 4.25961963313,1.75821826445 4.56802187341,1.32101995336 C 4.89591012376,1.00861892687 5.26078731793,0.744624858963 5.60809306281,0.519265597927 C 5.9972947337,0.356993993985 6.43457225936,0.253822898733 6.80480898398,0.253887234584 C 7.20289535301,0.253748396609 7.63550798076,0.328785786603 7.96628792065,0.480258817051 C 8.31050578731,0.600756930385 8.49546890932,0.807768153224 8.49546765417,1.11213602332 C 8.49540825346,1.30905829576 8.45905357012,1.49329649118 8.25593724259,1.68010115829 C 8.06536279031,1.82751134244 7.84772812733,1.90783159641 7.60619770893,1.90792770642 C 7.36409225472,1.90785833721 7.19667343208,1.86129397054 7.05340416142,1.69570557674 C 6.91890242108,1.56549447675 6.81537652918,1.40596565505 6.74121719756,1.23119231959 C 6.66592208454,1.08426684042 6.59416061052,0.944510771829 6.40729712852,0.944463318557 C 6.19170909533,0.94449399164 5.92397713074,1.06499923518 5.75320338615,1.3615369623 C 5.57000906178,1.59842176488 5.40787584492,1.88373650363 5.29460803577,2.24509982517 C 5.17948044994,2.5435369735 5.08710105875,2.86271400502 5.02623748564,3.22223897031 C 4.9700859242,3.51138625791 4.93671064609,3.85287995389 4.9367072765,4.46762855103 C 4.93670678789,4.78135691336 4.9365473695,5.12194867184 4.93656615896,5.49840475371 C 5.6061190216,5.49840751005 6.3556030838,5.49842741902 6.97420124693,5.49851441272 C 6.97422960217,5.50713372678 6.97414808537,5.54960312396 6.97415226435,5.6449057132" fill="none" stroke="#000000" stroke-width="0.0146485189648"></path>
</svg>