<svg baseProfile="full" height="600px" version="1.1" viewBox="-0.667984376844 -1.41532025959 7.37470577369 18.8334991681" width="235px" xmlns="http://www.w3.org/2000/svg" xmlns:ev="http://www.w3.org/2001/xml-events" xmlns:xlink="http://www.w3.org/1999/xlink">
    <defs></defs>
    <path d="M 5.65298909078,0.160671968879 C 6.03324803839,0.160819614081 6.22718337307,0.251751871554 5.96563580761,0.251883872646 C 5.9656835483,0.478351258535 5.73790824279,0.478313005049 5.41272875532,0.478305618238 C 4.96221804484,0.478247910137 4.54655060037,0.693807213898 4.17937159404,0.693866393205 C 3.80693864688,0.782450838622 3.49960476025,1.08412320786 3.22651496395,1.47899098569 C 2.96370684966,1.88457979136 2.83730375632,2.50412167483 2.83726819331,3.44574446851 C 2.83741381292,4.04355151826 2.83746048632,4.69169415408 2.83742834801,5.27661462003 C 3.61006213898,5.2767000823 4.26700200314,5.27669019758 5.05971683735,5.27665386609 C 5.05982746738,5.59976790361 5.0599104849,5.92408780269 5.05991244668,6.22266624383 C 4.24755418653,6.22261109947 3.57990175838,6.22253062445 2.73131442422,6.22267793676 C 2.73147246869,9.42169260046 2.73159451789,12.6464970019 2.7316042701,15.84218668 C 2.31966545379,15.8420545594 2.0070321182,15.8419766171 1.62055694258,15.8419926494 C 1.6207317236,12.8070285648 1.62084423927,9.67974928316 1.62085700234,6.56853345331 C 1.03535413941,6.56842473808 0.554808588822,6.56839890575 -0.046891597907,6.56841343881 C -0.0467834354565,6.27862689139 -0.0466026916326,5.95872962714 -0.0465802744891,5.62840274216 C 0.523779611204,5.62851663002 1.02550373516,5.62846721895 1.57867912492,5.62843902429 C 1.57873245666,5.08882583697 1.57882305059,4.48734994252 1.57890992754,3.85629947503 C 1.57893014215,3.03343828042 1.7622665342,2.31148357709 2.18707429134,1.74618460258 C 2.59628145658,1.21413476785 3.05599303805,0.928517684537 3.61619641148,0.657886877853 C 4.17378808819,0.410829350549 4.61335493885,0.291675061184 5.10715131723,0.291680880506 C 5.30985282623,0.294375414178 5.49801436328,0.321452623382 5.70462344848,0.373529242501" fill="none" stroke="#000000" stroke-width="0.0156815147112"></path>
</svg>