<svg baseProfile="full" height="600px" version="1.1" viewBox="-1.06849218153 -3.24499306837 8.32307604719 20.1257299478" width="249px" xmlns="http://www.w3.org/2000/svg" xmlns:ev="http://www.w3.org/2001/xml-events" xmlns:xlink="http://www.w3.org/1999/xlink">
    <defs></defs>
    <path d="M 3.29723784531,6.42160258922 C 3.14575292374,9.08919201526 3.10180519352,11.7237959925 3.01817786525,14.094024283 C 2.98515921662,14.4964484397 2.94501622597,14.7112217668 2.83522838185,14.9135294232 C 2.73371646384,15.097541568 2.62740170042,15.1873933125 2.40893430094,15.18743873 C 2.05197489838,15.1874863449 1.87736900727,15.1966455039 1.62359934131,15.1966103339 C 1.40047926287,15.1895617811 1.24960086326,15.1591196587 1.12028276006,15.1038780479 C 0.980329116981,15.0523369653 0.89362292568,14.9819138987 0.838516092103,14.8888812778 C 1.11304569821,11.4002958057 1.37872353772,7.9681607006 1.61254910211,4.18634588699 C 1.19030070881,4.19895230382 0.850560432475,4.19240732127 0.554174667399,4.16501945079 C 0.470476707618,4.14985927389 0.417720949452,4.13159373411 0.23344204406,4.03478679069 C 0.072221851151,3.95999182769 -0.0565952750039,3.86863845595 -0.183545300562,3.75608726599 C -0.296006673772,3.66128481933 -0.366039054294,3.56196722397 -0.366078474599,3.44664420941 C -0.375480977858,3.34668517121 -0.348973564844,3.25275447973 -0.284458585124,3.15936587759 C -0.225879382382,3.07341471323 -0.150335539172,2.99702800074 -0.0515131391985,2.92722712466 C 0.0392733998196,2.86582213276 0.493626851548,2.86591027714 0.816301066388,2.86591767453 C 1.06968237828,2.86102478046 1.31789775561,2.85054464385 1.58309086036,2.85426108729 C 1.58321274996,2.05495129715 1.67196712077,1.30791740309 1.88027501286,0.745060609687 C 2.02807763398,0.208467291701 2.23486718715,-0.222456110608 2.53980720223,-0.55158041228 C 2.80635804117,-0.898228390109 3.1175251323,-1.1577680241 3.54353648604,-1.30716973354 C 3.91640204371,-1.47814743031 4.32771551788,-1.56092817892 4.91329783381,-1.56086658961 C 5.28673979819,-1.56086230547 5.57729169906,-1.53041547433 5.86638528288,-1.47812540726 C 6.13105517805,-1.42349513517 6.32628111721,-1.36485395105 6.55401191295,-1.26336631448 C 6.5326180774,-1.05087109179 6.49865084693,-0.830343621679 6.45322913856,-0.608389290877 C 6.45168788782,-0.503511208006 6.3842399051,-0.462971421786 6.29860271565,-0.436275745638 C 6.21432928792,-0.40355456517 6.11011401615,-0.390552609124 5.97484301827,-0.38747944882 C 5.84473761222,-0.376277834306 5.70937722228,-0.371399923823 5.52753720484,-0.371300270161 C 5.3611810287,-0.361214067167 5.13428441486,-0.304113957411 4.90068807504,-0.252110335356 C 4.68700669012,-0.194661564505 4.46946003339,-0.107855267202 4.24650091729,-0.0213509344812 C 4.04718423686,0.0751684165243 3.87741508386,0.198595628763 3.69443183444,0.345979035521 C 3.5363667836,0.501709581042 3.41028185985,0.688683182621 3.2805536916,0.912953019762 C 3.17130591772,1.14481125834 3.11029596306,1.43443845274 3.0355913756,1.7322650707 C 2.9725653199,2.04024379017 2.93863895587,2.38756392958 2.90890655904,2.78946881058 C 2.90902383851,3.19083993199 2.89182405586,3.45499377015 2.87438743787,3.7117187834 C 3.6156411119,3.71173417431 4.3827238627,3.71169832925 5.20798491913,3.71178341792 C 5.30290598648,3.77147042886 5.39094009476,3.82195789502 5.49151041585,3.89878606931 C 5.57983069348,3.9984164475 5.62312567832,4.13689755783 5.67642955335,4.24890227751 C 5.65275615121,4.49756944315 5.6248379186,4.71756993369 5.58638293895,4.94199444489 C 5.56637086014,5.13179434971 5.48061014752,5.21916002915 5.36307693312,5.27282117815 C 5.25697319249,5.35138499499 5.11594705323,5.37195835956 4.91795708279,5.37195185933 C 4.39932008127,5.37199002003 3.91409926156,5.37195591084 3.31464497785,5.37204346761" fill="none" stroke="#000000" stroke-width="0.0167574770589"></path>
</svg>