<svg baseProfile="full" height="600px" version="1.1" viewBox="-0.720573675996 -2.60543421652 10.3507471584 18.2331667982" width="341px" xmlns="http://www.w3.org/2000/svg" xmlns:ev="http://www.w3.org/2001/xml-events" xmlns:xlink="http://www.w3.org/1999/xlink">
    <defs></defs>
    <path d="M 4.44638743097,2.4335936154 C 4.44641659511,3.06099216591 4.44642086669,3.74884806524 4.44649525712,4.52548198353 C 5.00971265863,4.52536376621 5.6156917436,4.52519985433 6.20696689914,4.52535497002 C 6.20698592909,5.0771305447 6.20710507962,5.63300423674 6.20701373679,6.28656296782 C 5.66039974553,6.28662786819 5.15281988246,6.28661748474 4.61248577697,6.28649394789 C 4.61253166112,8.89259045401 4.61262179973,11.470271757 4.61263829949,14.1019763259 C 3.6217649031,14.1019432172 2.65603638175,14.1018889304 1.63324511531,14.1019008837 C 1.63326742736,11.5070791922 1.63335267209,9.00565011119 1.63340107326,6.47284562205 C 1.13035199765,6.47282754645 0.636400498191,6.47288548599 0.148315049449,6.47289243603 C 0.148301935978,5.92769506836 0.148460156101,5.39300737047 0.148450094922,4.84643253947 C 0.6553845589,4.8058001388 1.15581287788,4.77173185984 1.63022671984,4.73060767243 C 1.63024446878,4.1657589514 1.63041751381,3.56312845537 1.63041103284,2.96021978447 C 1.63039167359,1.58568255493 1.96435611084,0.576356812211 2.63160227373,-0.095986143855 C 3.33036534622,-0.754013554362 4.34506397083,-1.07955475262 5.59784583881,-1.07967796071 C 6.63302700355,-1.05144330195 7.81658594444,-0.810827501928 8.76128552988,-0.420608081733 C 8.55849658087,0.104665718163 8.36019441619,0.677902064408 8.17613606289,1.23458965787 C 7.37686650589,0.942786327685 6.68397466972,0.784446678246 6.23542527988,0.784444306637 C 5.63235597446,0.78436393937 5.23869674042,1.02195550403 5.07981997862,1.39931450685" fill="none" stroke="#000000" stroke-width="0.0151816542866"></path>
</svg>