<svg baseProfile="full" height="600px" version="1.1" viewBox="-0.996098898652 -3.00452443151 9.63087003889 21.3111842232" width="272px" xmlns="http://www.w3.org/2000/svg" xmlns:ev="http://www.w3.org/2001/xml-events" xmlns:xlink="http://www.w3.org/1999/xlink">
    <defs></defs>
    <path d="M 1.22136096071,15.6784373708 C 0.66371969293,15.6784765223 0.420343557103,15.6044057706 0.194712632998,15.5020143265 C -0.0526155589978,15.3951774413 -0.143060637907,15.2025614554 -0.170956714348,15.0335383588 C -0.197344964639,14.8572229916 -0.189786072158,14.6492972547 -0.144623256558,14.4459064329 C -0.0717059590752,14.2269484276 -0.00857646697114,13.9599717135 0.0625794760053,13.6908522719 C 0.161361233062,13.3917204017 0.224232979781,13.0110941106 0.281418622202,12.6139063412 C 0.779776395029,10.0194878155 1.11560866303,7.31798739973 1.56206223435,5.01892681661 C 1.00863179631,5.01880406009 0.572802395291,5.01898289334 0.0273923582499,5.01905420204 C 0.0796015753513,4.60605346938 0.117993590153,4.18724810858 0.162511088616,3.84163012882 C 0.775721528298,3.66788582285 1.27827517009,3.49154361863 1.81639949299,3.33459092458 C 1.86526952005,3.00433410485 1.90113229371,2.67597000082 1.94782392747,2.4226923712 C 2.14779087967,1.17928786357 2.45874679155,0.235652519063 2.99863410062,-0.273003863498 C 3.60748279161,-0.902640091583 4.28831249542,-1.22116257469 5.3720862276,-1.22119885746 C 5.86707699365,-1.22117698044 6.23527029223,-1.15095791817 6.67663198776,-1.0271838069 C 7.16604352064,-0.888505703218 7.5061152584,-0.704730978616 7.82480508155,-0.501261389263 C 7.61917355723,0.0455207467003 7.43515935606,0.613996112339 7.2359654165,1.09036471843 C 6.77485682136,0.868443900339 6.38004149563,0.745129437737 5.90692584283,0.745167973693 C 5.50197197563,0.745145960665 5.24717067248,0.840304381169 5.0118629641,0.989049858368 C 4.75243145294,1.16732827476 4.60949724979,1.49012146047 4.45662123031,1.80795261911 C 4.29797795481,2.17086947612 4.20400031722,2.65055686883 4.1291614852,3.03084675125 C 4.08472763813,3.31092698029 4.05391720562,3.58927968792 4.01497312515,3.77297694138 C 4.8123273465,3.77293372833 5.42338242262,3.77315833568 6.15293701618,3.77312966376 C 6.05974574267,4.33072956591 5.97926686584,4.89125015526 5.88644193738,5.36046840935 C 5.06475483506,5.36033236093 4.45947980016,5.36046431006 3.70179080098,5.36051150919 C 3.15963106482,8.2434756434 2.71010991066,11.1188873923 2.20413830011,13.5655991709 C 2.00606907039,14.5170874274 1.78028323381,15.2751480019 1.36705907314,15.6334687746 C 0.92980479329,16.106033293 0.437426796845,16.3632014668 -0.0581377235139,16.5233342177" fill="none" stroke="#000000" stroke-width="0.0177445330751"></path>
</svg>