<svg baseProfile="full" height="600px" version="1.1" viewBox="-0.213816926525 -3.3355257056 13.8796545799 15.9028881786" width="524px" xmlns="http://www.w3.org/2000/svg" xmlns:ev="http://www.w3.org/2001/xml-events" xmlns:xlink="http://www.w3.org/1999/xlink">
    <defs></defs>
    <path d="M 2.43164751222,5.67539682746 C 2.04367876341,5.67599885206 1.54057854702,5.52897395234 1.35218087127,5.062978581 C 1.08586815288,4.62344293337 0.948379534388,4.16842858534 0.948338193608,3.52588234883 C 0.948494142816,2.67587731819 1.2568476861,1.86992929917 1.71948415689,1.00448946696 C 2.28172618799,0.16697733145 3.09529495888,-0.46904511709 3.89889795236,-1.08851070661 C 4.84681910925,-1.68373443146 5.97096115999,-2.00443606038 7.11763400488,-2.00476777102 C 8.02892900162,-2.00481343126 8.85308695488,-1.89741953319 9.45374143772,-1.59339334673 C 10.0426127975,-1.59582115846 10.900337643,-1.63448879259 11.6558878487,-1.64422549537 C 11.8062042361,-1.48358337811 12.253089047,-1.3552507036 12.237697104,-0.974697279245 C 12.3147484008,-0.631271170885 12.4384551216,-0.346492933542 12.5036825332,-0.0101544134923 C 12.0128564927,1.96457071373 12.0941878501,2.23563574025 11.6846503559,4.54346583554 C 11.3895167652,6.36088905999 11.0777032319,7.30026308963 10.661593372,8.27609412143 C 10.1849874798,9.19793389508 9.58632754717,9.58419935176 8.85219382677,10.3029469676 C 7.9997526351,10.97035603 6.953810567,11.2366398103 5.89297377501,11.2366044886 C 5.282374436,11.2366837842 4.60128455792,11.1635259746 4.07587545548,11.0446754826 C 3.44177960787,10.9292151837 2.83952301178,10.8056363074 2.42015879784,10.600130832 C 1.92274486456,10.4050089477 1.50731801424,10.213230407 1.25048094425,9.93206275086 C 1.25097348386,9.41320282798 1.26477059474,9.16261259298 1.26491176438,8.90706965904 C 1.26464746822,8.44758871775 1.34382968325,8.22147682886 1.53094225306,8.01014341991 C 1.74304295261,7.80967875402 2.02531251986,7.72473982553 2.30419380147,7.62879282068 C 2.63504619081,7.53896173667 3.15731478412,7.57801854442 3.53180137951,7.55383240822 C 4.39691195566,7.54707693886 4.90629968722,7.59662299808 5.60032603819,7.29228674825 C 5.89431131561,6.68854903634 6.30648172576,6.3369578069 6.45142944832,5.90375008639 C 6.58326583285,4.84532227572 6.72411564667,3.93737062271 6.96588096697,2.54852780159 C 6.74194096703,2.5695959704 6.97163575072,2.61327804643 6.53913848777,2.96712379176" fill="none" stroke="#000000" stroke-width="0.0132413723385"></path>
    <path d="M 5.97815733657,0.220656496771 C 5.53804313645,0.220599754626 5.1175174664,0.922988816077 4.9048770915,1.42684851485 C 4.63431700573,1.95344678956 4.4890461664,2.58778057891 4.48933711227,3.38900916176 C 4.48923121244,3.94851873713 4.53345734477,4.28258563476 4.59272529036,4.53928498822 C 4.66942273676,4.78424240547 4.86185593009,4.89177918332 5.09892616272,4.89149712675 C 5.23397146761,4.89104053989 5.45917754471,4.840225088 5.64304854572,4.73124771059 C 5.86565147936,4.62533870578 6.04266407192,4.48577557743 6.18801558614,4.2679298842 C 6.44212049842,2.98848900438 6.76702276468,1.80474588514 6.99165760577,0.322982641461 C 7.02578146979,0.108072894218 6.83060714826,-0.00377771764761 6.77176601663,-0.113634345529 C 6.65892939493,-0.21215873718 6.46823843047,-0.235004892049 6.42260902598,-0.235252576444 C 6.04432060793,-0.234973565384 5.63433956578,0.267388507084 5.3537738271,0.636167898134" fill="none" stroke="#000000" stroke-width="0.0132413723385"></path>
</svg>