<svg baseProfile="full" height="600px" version="1.1" viewBox="-0.742643429149 -3.92534783233 12.9761370438 18.7034564134" width="417px" xmlns="http://www.w3.org/2000/svg" xmlns:ev="http://www.w3.org/2001/xml-events" xmlns:xlink="http://www.w3.org/1999/xlink">
    <defs></defs>
    <path d="M 10.3582683256,0.356115334507 C 10.4762357971,0.619458698508 10.5191381215,0.960312717434 10.4549244805,1.36366414356 C 10.0983236893,3.33136653232 9.91564588384,5.4731166296 9.502909766,7.45074116516 C 9.38764880733,8.31424438285 8.99168931083,9.54311847019 8.51850475506,10.2979633145 C 8.04199473695,11.0525086455 7.4549966319,11.8811539345 6.668296562,12.3462771409 C 5.90927277641,12.811368876 5.11189733581,13.2133871846 4.02748845653,13.2129968403 C 3.52825702862,13.2133908172 3.09854026274,13.1374260907 2.59846289591,12.9897951012 C 2.12250541286,12.8509329085 1.82470978932,12.7557020609 1.41533412175,12.5091363166 C 1.04340900616,12.2851534461 0.820888267321,12.1020095472 0.586309419436,11.8006025081 C 0.370140553874,11.5218237166 0.344961806622,11.4425429155 0.345191718094,11.105354314 C 0.530076400391,10.3911958386 0.866970882766,9.86969888704 1.42642538344,9.47447625296 C 1.74958573376,9.23074692981 1.81788443124,9.22700293902 2.16599635874,9.36782704834 C 2.55905492698,9.36845756262 2.79583826756,9.51294573337 3.13097667789,9.60955609322 C 3.43726882433,9.71254122198 3.69134196734,9.91192664146 3.99068248367,9.99391812026 C 4.27582186555,10.0843062767 4.5731684873,10.1543837705 5.02143603658,9.87702502996 C 5.50900313353,9.8772464245 5.96043893789,9.26948003465 6.3546891818,8.45898203546 C 6.50937412774,7.74288968736 6.56662962308,7.43958435947 6.80365732779,5.96269010002 C 6.35521835556,6.55737237626 6.3563151007,6.42508883768 6.35617474634,6.25620625907 C 5.67918835003,6.96434710914 5.05224982816,7.26724405581 4.25614092666,7.26718508651 C 3.6777083667,7.26760612735 3.25195343215,7.14500492372 2.86875824053,6.86343189635 C 2.49626011569,6.59541287579 2.24029923398,6.20036175408 2.05759864468,5.7155879096 C 1.87842381913,5.24558761277 1.80088635701,4.61577018657 1.81568251159,3.95658465781 C 1.8155276787,3.1847549335 2.02854438243,2.1847420589 2.40920539317,1.35060330787 C 2.78405268607,0.532648827219 3.28550352273,-0.303096626616 4.01058282075,-0.897074495173 C 4.71076966939,-1.47839764199 5.47648604331,-1.91621223531 6.45845343289,-2.12678441844 C 7.39412070927,-2.33598013661 7.72437380371,-2.36009782619 8.62158100423,-2.36023761622 C 9.10273529706,-2.35981310406 9.36857019481,-2.29625021168 9.57948471722,-2.25357674309 C 9.98753135023,-2.23110106089 10.3742997807,-2.25172343724 10.5761908155,-2.15848092609 C 10.8252943319,-2.10215645903 11.0584922743,-2.11504503866 11.1115064744,-2.06083374251 C 11.2728076701,-1.83494464089 10.8383040254,-0.163701330916 10.3220816676,2.59012028049 C 10.2012654815,3.37464430402 9.88425740344,4.7261423118 9.88585678174,4.91958096097 C 9.5821710868,6.4335098512 9.47834717168,6.80431505512 9.90228660835,6.41669585775" fill="none" stroke="#000000" stroke-width="0.0155732359812"></path>
    <path d="M 9.58159955073,2.362468883 C 9.66014749039,1.17152886053 9.69389283512,0.0966664995722 9.92203292105,-0.908508494897 C 9.3685715482,-1.12416929047 9.04401585314,-1.24379013519 8.72625353787,-1.24425146574 C 8.43326675746,-1.24716517151 8.18255895231,-1.16407071621 7.73323041055,-0.685355415648 C 7.32078322623,-0.238907268351 6.9804502115,0.311208376581 6.67894163582,1.04801250427 C 6.38938078139,1.75697220295 6.25820614252,2.47030783623 6.25831081351,3.01741064518 C 6.25832832606,3.77142448157 6.58672551067,4.27995837658 7.27453801782,4.27995947051 C 7.67856032402,4.28003620371 8.23560387642,3.73407637342 8.57706926019,3.73423191137" fill="none" stroke="#000000" stroke-width="0.0155732359812"></path>
</svg>