<svg baseProfile="full" height="600px" version="1.1" viewBox="-1.85544242529 -1.60436956211 12.4121307253 16.6904735651" width="447px" xmlns="http://www.w3.org/2000/svg" xmlns:ev="http://www.w3.org/2001/xml-events" xmlns:xlink="http://www.w3.org/1999/xlink">
    <defs></defs>
    <path d="M 6.41449239973,12.0685399726 C 5.99264258269,12.4482841447 5.7160932136,13.4310597733 4.99267313007,13.4315162069 C 4.27632811788,13.5258515468 3.58131471399,13.6886319658 2.57782152418,13.689440728 C 1.41115442041,13.689297758 0.790003211536,13.5620051101 0.212206633129,13.3562835529 C -0.337769715748,13.1489075795 -0.632860778533,12.8014870658 -0.815307720266,12.4380206838 C -0.648798434697,12.2602965906 -0.495350836478,11.9018919244 -0.16563603159,11.7077221349 C 0.183652044572,11.9338753596 0.658620477952,12.1915751174 1.0888026667,12.0679749921 C 1.56950083498,11.9740825668 2.03906896833,11.8840066195 2.53075355414,11.6898686588 C 3.28513854865,11.6895483849 3.9656505597,11.3545100508 4.5684680951,10.9163549361 C 5.21295684699,10.4773429451 5.70849919442,9.71017114498 6.06751880173,8.77733622171 C 6.44590541843,7.86056421377 6.59046651546,6.60548410989 6.79382653657,5.46234427072 C 6.48957626645,6.06499789335 6.05691684905,6.7163246689 5.54538799945,7.16107479908 C 4.9957802457,7.61242372967 4.4556809229,7.93438248016 4.0290385348,8.20665304042 C 3.55093725149,8.47152559139 3.09753708664,8.59256078728 2.6923644406,8.59241114632 C 1.94275860611,8.59245557286 1.40329305951,8.3148184786 0.973458276429,7.84766093589 C 0.523878322281,7.3829789231 0.291163550057,6.64756334521 0.2908052333,5.80192536808 C 0.29121838438,4.88129503228 0.538981451864,3.86586875416 0.988844766493,3.02579922177 C 1.47066704857,2.19411910273 2.1193590008,1.37722564436 2.93606088984,0.790759868398 C 3.78890059816,0.21799547173 4.72729740965,-0.207699828372 5.81668387281,-0.207706252082 C 6.7368839823,-0.207788822654 7.49503038752,-0.0618307268651 8.10146020281,0.367833437916 C 8.23635481226,0.198486866948 8.65778432714,-0.0238825804026 8.93267859446,0.508492576477 C 9.1082600497,0.194742577669 9.32454293894,0.0456770980327 9.51655359494,-0.124546525481 C 8.99250395524,2.96302247286 8.54648877608,5.55988645792 8.05177406895,8.49715423822 C 7.87108986008,9.44367480516 7.49899299371,10.516710403 7.10944344031,11.1926969314 C 6.67078499424,11.8756081486 6.11147682297,12.5382731581 5.50035802948,12.9278838658 C 4.83119074928,13.3213728392 4.13160495388,13.6016025269 3.24160538542,13.6014721696 C 2.81969906318,13.6013757924 2.47184993255,13.518142883 1.89823920953,13.3184628229 C 1.32560481059,13.1264144371 0.882778837557,12.8651443909 0.471736177082,12.5688802193 C 0.541987708981,12.3572101782 0.661985344464,12.1210583488 0.66186728816,11.7757648866 C 1.11945822577,11.9405000846 1.34755250554,11.8214584852 1.46448776613,11.4952547516 C 1.70023850094,11.9048636521 2.07761961709,12.161388513 2.35751677047,12.1614060973" fill="none" stroke="#000000" stroke-width="0.0138971470151"></path>
    <path d="M 1.97397583253,5.97748550239 C 2.09826594866,6.77934202019 2.26276858426,7.55253484312 3.17475612736,7.55279762155 C 3.76387293911,7.55284674902 4.34337659455,7.39165650744 4.93014915562,7.08076970715 C 5.5539772091,6.77387269277 6.08310534335,6.3077678575 6.55378385163,5.69668136973 C 7.04977269745,5.0984933867 7.32730813599,3.83351915021 7.60634251214,2.56137340207 C 7.52952119983,2.25747974653 7.33673152602,1.96714871068 7.445270854,1.19688551564 C 7.11245008088,0.935108293485 6.95034896112,0.768060599159 6.40282397247,0.768012793164 C 5.87924967981,0.766467967664 5.40003018356,0.842247867618 4.8827386973,0.8425117517 C 4.13460962749,0.841970521502 3.55462740636,1.07146703034 3.05851014233,1.48092161446 C 2.53674520827,1.88921819954 2.19274877286,2.47646318703 1.90767784691,3.16570018559 C 1.61826949096,3.84656899004 1.47467306531,4.62791042357 1.47493755923,5.39129953413" fill="none" stroke="#000000" stroke-width="0.0138971470151"></path>
</svg>