<svg baseProfile="full" height="600px" version="1.1" viewBox="-0.944013476814 -0.861585770251 11.2734458414 16.0346309848" width="422px" xmlns="http://www.w3.org/2000/svg" xmlns:ev="http://www.w3.org/2001/xml-events" xmlns:xlink="http://www.w3.org/1999/xlink">
    <defs></defs>
    <path d="M 9.33482812005,0.480196422897 C 9.33565684562,0.791402257048 9.37486616676,0.907004549168 9.38441500129,1.09050667193 C 9.38455756061,1.16018634196 9.35926890239,1.1640618681 9.28309614077,1.17745375587 C 9.21610768751,1.19449665351 9.0800382407,1.23014428793 9.07984507308,1.204886775 C 9.08013833413,1.18523851736 9.07235883136,1.17454701429 9.07223760497,1.08563953405 C 9.07243437382,0.926567567047 8.57007969233,0.977120095398 8.57027972164,0.670273774769 C 8.26832312765,0.70295057958 7.84323224845,0.81613379484 7.57517520013,0.816186543936 C 7.93529546681,1.35890298747 8.08146310272,1.79978456759 8.08106454704,2.55504151844 C 8.0813431803,3.35067841076 7.72666603959,4.00551643633 7.26015401519,4.51065310502 C 6.77759722507,5.0704028275 6.10921481884,5.40343200826 5.3833794359,5.40324939789 C 5.00890476144,5.40347875274 4.58501440919,5.32155771918 4.33606453872,5.2417814917 C 4.07493107653,5.14950354761 3.779312006,5.26817121721 3.61074588335,5.48337940491 C 3.43280485905,5.72463924802 3.33738646543,6.02168972409 3.33789790227,6.31197248018 C 3.33801264023,6.73364908612 3.51051044917,7.01568786419 3.81556612706,7.20341993487 C 4.12003261303,7.41093562162 4.64875561451,7.50662698216 5.24770743107,7.50673180785 C 5.83417982316,7.5065058814 6.57351619458,7.53956772104 7.09735042309,7.63586180374 C 7.64324707245,7.74187350736 8.19931072449,7.95725836322 8.55317172861,8.32431827948 C 8.91471398329,8.73588814304 9.15327492809,9.12645407483 9.15319765494,9.66492118404 C 9.1531454851,10.2681378917 8.93450980681,10.7064806418 8.41563087004,11.1652291314 C 7.91264831322,11.66815715 7.17604535121,11.9578503566 6.32035111684,12.1979493545 C 5.48059558171,12.4573160754 4.51265358227,12.5248668091 3.59172409075,12.5247195716 C 2.54392235774,12.5249150526 1.65383856791,12.369867621 1.00238221186,11.9831811171 C 0.364252202689,11.5664749425 0.00106682676051,11.0863415878 0.0010033022445,10.3519939463 C 0.000955185765633,9.75679936817 0.120468362147,9.38741987756 0.36706133085,9.03749066403 C 0.609574555332,8.66010272315 1.02033418315,8.38248997739 1.56222236055,8.11390730551 C 2.09141123193,7.82471558264 2.76760154861,7.61994795313 3.52397608655,7.44061058572 C 3.24873518842,7.39611386692 3.02455983954,7.35487032494 2.85632285374,7.22277418336 C 2.6906647523,7.08290643057 2.60054391521,6.97162587753 2.60060415651,6.80522167495 C 2.60023467806,6.64266663602 2.73752603498,6.47081258705 2.9428405967,6.26765668204 C 3.15317243901,6.04256644657 3.46635929313,5.84248725882 3.84712631073,5.62837499192 C 4.22462541428,5.39232326856 4.56382698384,5.21402047386 4.28561539021,4.85490120759 C 3.72702509728,4.5699991416 3.32952395645,4.21070281973 3.19548722175,3.88642294517 C 3.05490795341,3.51110742798 3.00647131917,3.13394357076 3.06677153152,2.77769608608 C 3.12842288804,2.3712538611 3.4087458868,1.81986488214 3.82274559331,1.42522992006 C 4.24304393124,0.966838223841 4.79421767783,0.616136325505 5.42874595714,0.616192199774 C 6.13873264384,0.615941211134 6.68022570205,0.724344633072 7.10998401236,1.06900443837 C 7.34097664249,0.930775828212 7.62774716508,0.889309606999 7.86529706609,0.771297908872" fill="none" stroke="#000000" stroke-width="0.0133510665985"></path>
    <path d="M 5.482206387,9.83532840894 C 5.00078062482,9.67778030918 4.28495470949,9.50454617427 3.81088565059,9.46418620036 C 3.29915807911,9.41714033992 2.69886116453,9.40982031212 2.40104569264,9.52020839737 C 2.06373210021,9.64135901765 1.6563553638,10.0209211274 1.42086310454,10.3584194942 C 1.16795448728,10.7520076199 1.06539202251,11.2389052971 1.06560398082,11.7161353095 C 1.06567930052,12.2879110439 1.37179334828,12.8020771606 1.9182501621,13.1872756048 C 2.46206887433,13.618015544 3.32071872422,13.8311317577 4.3170213885,13.8312630214 C 5.18324663112,13.8311732658 5.98797287414,13.6621967055 6.5804994888,13.3026173212 C 7.17295672366,12.9062649109 7.50988935301,12.445611576 7.77826471993,11.8686973252 C 8.02224035928,11.2346217431 8.12933186063,10.681141714 8.1293402431,10.0443874397 C 8.12915054259,9.37232712883 7.87168750462,8.91988475102 7.39035466608,8.60386518616 C 6.91522667107,8.25515271205 6.13761803803,8.08013210672 5.2134648889,7.98716001439 C 4.28841665682,7.88975336629 3.25465277132,7.83143014315 2.79464200434,7.80606001656" fill="none" stroke="#000000" stroke-width="0.0133510665985"></path>
    <path d="M 6.64524079063,3.42184732541 C 6.64542778974,2.51709900483 6.68076660877,2.02717040166 6.31536188369,1.52935905441 C 5.99088999276,0.996887755242 5.49401345496,0.776280027476 4.66541531329,0.776455451294 C 4.00282337909,0.776320170855 3.40841754918,0.943721082305 2.94297131543,1.30754473457 C 2.48292794471,1.70646419773 2.14615666514,2.14968517075 1.92944709604,2.76953443537 C 1.71955425685,3.45538445959 1.63595292365,3.95525610099 1.63582646401,4.49953281531 C 1.63608078518,5.23297369132 1.81577788153,5.69849809656 2.1569365994,6.1285107697 C 2.49438343802,6.60009818921 3.06654570857,6.78879452894 3.80236004153,6.7888586279 C 4.42373029748,6.78883644096 5.0295599536,6.6173983132 5.51148785511,6.23192851893 C 5.99123905459,5.81192534319 6.3554443256,5.34320761911 6.57493968168,4.68517830125 C 6.79362289467,3.9775869464 6.80580050172,3.70145188919 6.80571630571,2.92295920006 C 6.80547106362,2.30750786415 6.58706782855,1.93875967614 6.20126696027,1.51640989534" fill="none" stroke="#000000" stroke-width="0.0133510665985"></path>
</svg>