<svg baseProfile="full" height="600px" version="1.1" viewBox="0.446106877203 -0.917449432335 9.897398805 15.7073837378" width="379px" xmlns="http://www.w3.org/2000/svg" xmlns:ev="http://www.w3.org/2001/xml-events" xmlns:xlink="http://www.w3.org/1999/xlink">
    <defs></defs>
    <path d="M 8.47090096296,0.403555142169 C 8.5130807002,0.372340539878 8.54664585264,0.453686470573 8.59095832975,0.606358642166 C 8.62572539495,0.766073832696 9.18049431489,0.766502673941 9.51327303694,0.765925224609 C 9.31352067636,3.5247822364 8.98817128585,6.23117595512 8.73704630778,9.04314857323 C 8.59755962239,10.3543307145 8.0948893343,11.5328175386 7.49256276236,12.2465853055 C 6.88246809588,13.0008119305 5.73671077834,13.475635465 4.63828395949,13.47553623 C 4.02061604605,13.4755874409 3.24625991927,13.372731833 2.76014732466,13.2392539067 C 2.26396625386,13.0948714448 1.67777638779,12.8648629917 1.27633952246,12.6158187522 C 1.40722227738,11.8903513087 1.63102684067,11.2164843215 1.77215155111,10.5276741518 C 2.1419708942,10.7467924787 2.72408141838,10.9217631651 3.07019095765,11.0171008391 C 3.4393874024,11.1165547503 3.95224305139,11.1724788753 4.32467239247,11.1726703992 C 4.91889446126,11.1724925721 5.44894795762,10.9746467704 5.73656361447,10.657317006 C 6.01751404152,10.3212557071 6.22903611408,9.69847878159 6.22891629447,8.89842232407 C 6.22905522953,8.60883607805 6.23334211246,8.35161056459 6.22061063391,8.15692248285 C 5.84500323278,8.79176356733 5.20141790849,9.16759877742 4.41553585273,9.16765080583 C 3.72752152425,9.16745482989 2.98920510751,8.94003965564 2.52288173181,8.53444247552 C 2.06219212753,8.11021413513 1.67562611443,7.4218052239 1.67531425291,6.58885194965 C 1.67543629514,5.61181797691 1.8736894499,4.65580638357 2.14866778957,3.8939314694 C 2.43050540196,3.07720919557 2.9928481053,2.36315824695 3.56701607214,1.88074668356 C 4.14388633477,1.3672074885 5.05156315075,1.06167843052 5.88181746708,1.06172637209 C 6.23118437039,1.06164230614 6.70630360352,1.14960461318 6.99304939019,1.27631397008" fill="none" stroke="#000000" stroke-width="0.0130785876251"></path>
    <path d="M 5.47794245168,4.76691557468 C 5.31919115767,4.96447388829 5.39666993901,5.11921323837 5.27126362905,5.27964989842 C 5.2003949134,5.44089631737 5.11012092963,5.65011431278 5.10979192313,5.83882333339 C 5.11000821967,5.98032008113 5.16338119139,6.20106860996 5.25021420647,6.298156254 C 5.33536327113,6.41232976318 5.52058962215,6.49137111009 5.71755203833,6.49147518736 C 5.91986529757,6.49158083649 6.1509927981,6.3856740147 6.28969678511,6.23442794384 C 6.43134120335,6.07392387093 6.58892217506,5.83958974482 6.67962867995,5.59411212803 C 6.77118732263,5.33791381122 6.85517505784,5.03821837903 6.85496695115,4.78013017775 C 6.85517625501,4.22823908926 6.85497236257,3.67864641548 6.95415541535,3.08020946385 C 7.03502307838,2.47104641796 7.06239243602,1.95410236717 6.95376306032,1.84774939717 C 6.85964284097,1.71292777361 6.6307836399,1.65305181221 6.36572679137,1.65291356205" fill="none" stroke="#000000" stroke-width="0.0130785876251"></path>
</svg>