<svg baseProfile="full" height="600px" version="1.1" viewBox="0.209254933229 0.130429441213 9.83537238103 16.0315111337" width="369px" xmlns="http://www.w3.org/2000/svg" xmlns:ev="http://www.w3.org/2001/xml-events" xmlns:xlink="http://www.w3.org/1999/xlink">
    <defs></defs>
    <path d="M 8.55117211816,11.305626592 C 7.7182764816,12.2393101662 7.25847313878,13.2853554695 6.53230414865,13.8376224249 C 5.74980841157,14.3883737534 4.94156448123,14.8209452241 4.04589776275,14.8204189721 C 2.94021753547,14.8203656874 1.7851741719,14.2592398129 1.08532426832,13.3738091193 C 1.53699086187,13.0451308392 1.98705757735,12.6984377406 2.40841976878,12.3736018441 C 2.89190159318,12.6953058146 3.27759949443,12.9475281142 3.68890763399,13.1061340175 C 4.14209650037,13.2561154865 4.53548238752,13.3414297081 4.82603619573,13.3413758539 C 5.45971183059,13.3414727849 5.94386989949,13.1496604931 6.2418460953,12.770540322 C 6.59200577018,12.4088934016 6.80249118385,11.9469161582 6.88131408719,11.3695447397 C 6.88125701782,11.2421466213 6.89955078599,11.1053073805 6.90286256883,10.9745492589 C 6.44069339845,11.2001998675 6.11376898501,11.3882809532 5.79765709255,11.5316969108 C 5.44345121596,11.6723289889 5.10614996169,11.7530562755 4.78076689456,11.7529167169 C 3.43512134764,11.7527045936 2.47353201125,11.1278963417 1.90402542565,10.3416030139 C 1.26587711785,9.57565877145 1.03478682552,8.2085939378 1.03443116035,6.81521699136 C 1.03444760282,5.66365441983 1.36763753731,4.30907473271 1.92789354164,3.48489138787 C 2.59141679842,2.69098398392 3.49301072199,1.99954352086 4.43568011362,1.70372158592 C 5.03754802782,1.55482755904 5.48394417007,1.47191655194 6.33429484803,1.47195060663 C 7.03975509841,1.47190168317 7.53509234626,1.51434908252 7.88692428906,1.61925526898 C 8.27993812401,1.7211869676 8.56828107674,1.84073131721 8.76153662045,1.97010377984 C 8.98059814412,2.09258923124 9.13059898455,2.22328587066 9.20481268306,2.36514756273 C 9.29069724668,2.49915041219 8.97047427286,4.34146811258 8.97394944484,4.48376742195 C 8.66314534599,6.49163928818 8.01752684767,9.03428188156 7.58516381437,11.5624589045 C 7.30737055594,12.8541577179 6.79482801015,13.8395971377 6.10392917449,14.4531656225" fill="none" stroke="#000000" stroke-width="0.0133484688873"></path>
    <path d="M 3.85461969979,7.73737269947 C 4.31290297515,7.73676653793 4.5132374347,7.82495148321 4.70665523715,8.09872419974 C 5.03930810399,8.09901338331 5.44213071771,8.08582872878 5.79135415263,7.62184605729 C 5.77735362973,7.45170768331 6.01604799952,7.0648219509 6.20996329214,6.3716229124 C 6.21833390023,6.1766902877 6.35124200608,5.27412915956 6.39088897433,5.03577729296 C 6.37824688691,4.92485681902 6.49511495817,4.15388516318 6.48807029592,4.0184537543 C 6.51459530161,3.82050762307 6.54446669833,3.41402251254 6.5638676768,3.27327550184 C 6.59013870151,3.1180221511 6.59116123095,2.89263086747 6.4148184456,2.8924449828 C 6.09537173286,2.89249963659 5.89446530715,3.05614994066 5.7804673113,3.16859116005 C 5.65238248781,3.28669177341 5.56030568704,3.52029349255 5.46138925329,3.72354527163 C 5.35417398289,3.924607638 5.01053216532,4.62832832682 4.84956131354,5.41716319668 C 4.61732139662,6.19452172863 4.48982214406,6.93744010078 4.49022001447,7.47046608078" fill="none" stroke="#000000" stroke-width="0.0133484688873"></path>
</svg>