<svg baseProfile="full" height="581px" version="1.1" viewBox="-4.02643925253 -2.52398863324 13.2950480736 12.8642093798" width="600px" xmlns="http://www.w3.org/2000/svg" xmlns:ev="http://www.w3.org/2001/xml-events" xmlns:xlink="http://www.w3.org/1999/xlink">
    <defs></defs>
    <path d="M 5.20695492385,0.225082571531 C 5.64262613414,0.225272203184 5.75298562406,0.519951755501 5.72372688672,0.628872396745 C 6.37760408541,0.381339939631 6.45581117591,0.404024532385 6.35324497095,0.518406613119 C 7.20786095729,0.3436170801 6.97170994749,0.484962163813 6.64108036032,0.630854694493 C 6.22891230455,0.79546049083 5.55613769164,0.932585282571 5.30128846636,0.932748931911 C 5.21648226252,0.840780954328 5.06287528148,0.836678857901 5.36754019132,0.387669677832 C 5.67989684215,0.388073484661 5.93600610962,0.147103975774 6.04628280124,0.0534013316646 C 6.16672624221,-0.0698678090557 6.26222212931,-0.271750529049 6.33792117557,-0.34314572507 C 6.41178377291,-0.434166957377 6.47599199733,-0.530334588824 6.80162668547,-0.530481158334 C 6.94517174682,-0.530288913345 7.09385140559,-0.493438222504 7.1917715626,-0.46893688204 C 7.29301955125,-0.443952719739 7.35933953097,-0.411212070903 7.54715288749,-0.310583709797 C 7.75926276615,-0.310583084058 7.86440928599,-0.310452965518 7.99814087471,-0.181123686453 C 8.05727104789,-0.181267213012 8.09957216999,-0.0891498438367 8.15607565588,0.0144876950137 C 7.97233155316,0.0142728074053 7.91186205244,-0.0191550718089 7.93745487502,0.0954847170571 C 7.62194826773,0.0952711685888 7.41538595727,0.095545549025 7.23512160352,0.09594617498 C 6.94878485372,0.0957245689708 6.71929993799,0.0963085873292 6.70574715866,0.0975137331763 C 6.67396570129,0.0960094718968 6.65203556178,0.113486520458 6.6767592611,0.13165844183 C 6.69835831544,0.147907619808 6.68984092532,0.185682048533 6.84163301943,0.326601584885 C 6.97337883471,0.466178854439 7.04328418283,0.584296641383 7.04319689103,0.791737822328 C 7.04326919132,0.9671286023 6.99809879102,1.1493711001 6.94091400542,1.40886820618 C 6.94086561788,1.5898392326 6.8752616464,1.79002330962 6.62455938448,2.04616288606 C 6.39274240721,2.31401757661 6.0580135106,2.51808792118 5.53495110263,2.72005802158 C 5.02622230042,2.93148422006 4.41439313878,3.05215234819 3.52221561659,3.05218949002 C 3.05960805405,3.05215623686 2.70963720668,3.05044021984 1.77213196148,3.05031204162 C 1.62640791823,3.03782188365 1.38713340152,3.04388709258 1.14113117446,3.03856522668 C 1.02390277822,3.05698734786 0.893147845458,3.11783455949 0.623751599978,3.11855584025 C 0.549879339229,3.21473431229 0.438388471197,3.31125609218 0.438520793639,3.53342225789 C 0.438486332292,3.65803852319 0.483055522884,3.75654235869 0.48320992256,3.9598433563 C 0.482989703029,4.12370442241 0.594939139395,4.26789884656 0.776454013496,4.40921886652 C 0.957410466581,4.55290505677 1.23763383618,4.62333931415 1.54628960481,4.69292811691 C 1.79428103259,4.74924328565 2.10865541986,4.7783268021 2.49475583127,4.77816374137 C 3.19597276738,4.77838552121 3.90403678706,4.80056468707 4.59936472467,4.81444562909 C 5.28707888415,4.82746059291 5.82458516648,4.87862130098 6.2815229862,4.96548092954 C 6.72899588635,5.05253760361 7.0105493634,5.16302673363 7.23819765142,5.34753677093 C 7.45472199908,5.53490467213 7.54257666758,5.71411290609 7.5983357138,5.98939406716 C 7.64794804966,6.2711682304 7.59488184443,6.51419296705 7.59458376271,6.82617729746 C 7.59459754259,7.26161545359 7.45091443688,7.5584302231 6.95865827233,7.94339033805 C 6.49601542384,8.34037083231 5.86277818114,8.58747842752 4.9414801541,8.85686075531 C 4.03720843226,9.13316950046 3.00801515013,9.26385405504 1.78408991725,9.26359040774 C 0.781006568972,9.26340462113 -0.0408577379549,9.19299073363 -0.800714558061,8.97680426979 C -1.54931033224,8.7566492095 -1.93855456084,8.64946827883 -2.34532109469,8.4344239294 C -2.71446925968,8.21861546332 -2.91367079883,8.06417342121 -2.91390576094,7.6319577902 C -2.91410395973,7.41672893459 -2.82403430813,7.23288724417 -2.65214539044,7.01700719291 C -2.6520644641,6.71206497246 -2.55492094815,6.571621409 -2.3691578424,6.40591720337 C -2.18704283894,6.23866348559 -1.97808424294,6.14300573463 -1.68668860853,6.01465364391 C -1.40524623454,5.88303486103 -1.1361776656,5.7949725374 -0.801534122829,5.6762258246 C -1.13060403526,5.53322519207 -1.33768213451,5.45328195238 -1.51959215761,5.26681122029 C -1.69003475368,5.07892535472 -1.78020878047,4.92612886274 -1.82164517701,4.69746990347 C -1.8581667012,4.46230377102 -1.84571091556,4.26579639161 -1.77121992879,4.01487955296 C -1.69747060262,3.75579157317 -1.55111922048,3.5710753932 -1.32685208045,3.34292958522 C -1.10539523982,3.10917836273 -0.876569000115,2.93630696678 -0.588471827139,2.74421803499 C -0.988740232815,2.55671414578 -1.23951577865,2.39108182335 -1.48984825336,2.15308783794 C -1.72387329959,1.90769901717 -1.86050726198,1.69677817667 -1.86042490262,1.39037367547 C -1.86619401197,1.07370555246 -1.81509663756,0.823003677967 -1.6800338089,0.512603639009 C -1.6801092489,0.104906319025 -1.44923806324,-0.207741440889 -1.09353196755,-0.504250706789 C -0.733848096277,-0.813887091038 -0.326808811571,-1.02724637246 0.196508287047,-1.20613193667 C 0.425273029659,-1.2462895379 0.899522780035,-1.35773155993 1.50712817774,-1.35766727903 C 1.81541234121,-1.35797605809 2.11651643977,-1.35814726314 2.72142073378,-1.35804354918 C 3.32480135426,-1.35799315455 3.68227961526,-1.3422014385 3.99272397027,-1.36199601995 C 4.28370091185,-1.3787123959 4.47621852026,-1.37621171074 4.61664712295,-1.39084253134 C 4.75159481034,-1.40566921094 4.83658525214,-1.42225838499 4.88604657963,-1.44735869253" fill="none" stroke="#000000" stroke-width="0.0110699817432"></path>
    <path d="M 4.26149769337,5.61643180275 C 4.26131060865,5.18789428496 3.84095353034,5.0799185189 3.84067192042,4.56483753049 C 3.8408707754,4.1818711611 3.75213662547,4.06577218348 3.59979616862,3.92707011872 C 3.44502169651,3.79244468385 3.22052051884,3.73836651095 2.80484022957,3.7385741709 C 2.28165163857,3.73883028679 1.79267882568,3.7393777345 1.32050587994,3.73941473694 C 0.943079583465,3.73957259739 0.707690678655,3.73919084094 0.335230670988,3.6496314647 C 0.136803545176,3.81782377682 -0.138496242345,3.77341338418 -0.288557372869,3.96933887324 C -0.458520389975,4.15139029346 -0.621148146571,4.19723265044 -0.621581246027,4.48872347347 C -0.64054075151,4.76975621454 -0.589382297241,4.92837685517 -0.589548391055,5.07240384988 C -0.58962722041,5.36237684063 -0.453111975568,5.6039737182 -0.175226955789,5.86671453885 C 0.0968466111244,6.13941267303 0.507250369412,6.25620778821 1.15046751581,6.25631278643 C 1.58099150739,6.25640071834 1.98052936874,6.19709727819 2.3605887898,6.0515126353 C 2.84077981196,6.05152402207 3.25608712516,5.86829369649 3.5963150569,5.57968085393 C 3.93334063969,5.27201669797 4.10326458595,5.00341301545 4.10300257997,4.59190207108 C 4.1028034569,4.24254890665 3.97472137523,4.05057668075 3.65284321022,3.88089890167" fill="none" stroke="#000000" stroke-width="0.0110699817432"></path>
    <path d="M 3.12204468776,1.18424013072 C 3.20050940444,0.875729201374 3.31725711902,0.569897023974 3.11426625927,0.19972127491 C 2.95288066347,-0.189808221521 2.72697917898,-0.473932685318 2.41049594958,-0.703707667055 C 2.09748624046,-0.948763372364 1.77257872899,-1.05715837515 1.44287837823,-1.05691223043 C 1.0321815439,-1.0568114918 0.722881955699,-0.918890501214 0.421319288806,-0.656102175666 C 0.13198633273,-0.383271361543 -0.00629186849255,-0.0418688010703 -0.00646694482566,0.329283182668 C -0.00642366329703,0.606821452426 0.0859623440119,0.938506429242 0.301779929599,1.26276022677 C 0.510712135634,1.60855815296 0.816354561648,1.78379546587 1.28798075398,1.78413417602 C 1.69126128038,1.78427064426 2.00319902976,1.69140753157 2.31236188491,1.4754400552 C 2.61270912369,1.24737802155 2.76902394374,1.01010701067 2.89525947352,0.661326170039" fill="none" stroke="#000000" stroke-width="0.0110699817432"></path>
</svg>