<svg baseProfile="full" height="600px" version="1.1" viewBox="-0.687240859059 -1.10515690037 8.927726602 14.4748021251" width="371px" xmlns="http://www.w3.org/2000/svg" xmlns:ev="http://www.w3.org/2001/xml-events" xmlns:xlink="http://www.w3.org/1999/xlink">
    <defs></defs>
    <path d="M 0.825242326548,10.4349320182 C 0.366495684673,9.75061097233 0.0620003798504,8.50115230171 0.0620417919163,7.09975257007 C 0.0620049869503,5.6301995763 0.0616671783828,4.67807414619 0.0617817480779,3.51478448002 C 0.061506555674,2.40802278606 0.431011692879,1.56209274618 1.13636238992,0.973197067658 C 1.69432099282,0.395136083047 2.73167367398,0.106081659476 3.97640545785,0.106098398921 C 4.94668467462,0.106112126923 5.96394093454,0.444306169367 6.62034274757,1.09348693929 C 7.14212872207,1.73503825507 7.49134351432,2.72433355889 7.49142323355,4.00575402818 C 7.4914010468,5.5359237536 7.49132897228,6.90648916802 7.49148673797,8.40893188558 C 7.49140241684,9.70022133431 7.15027946176,10.6286853894 6.52179557027,11.2451274141 C 6.0170081252,11.8584073528 5.0464089507,12.1583139046 3.81094032468,12.1583899262 C 2.79095178785,12.1583669831 1.77642375173,11.820546781 1.13165491761,11.130724286" fill="none" stroke="#000000" stroke-width="0.012052291528"></path>
    <path d="M 4.77816992098,9.06852467169 C 4.85276851648,8.87260348905 4.88940730536,8.58629505147 4.88948940348,7.56829194535 C 4.88936159012,6.08038274754 4.88964969878,5.02431635369 4.88982046787,3.81406192292 C 4.88965345233,3.29066638459 4.79736671655,2.95800621618 4.64004973381,2.73110554923 C 4.51613905339,2.51114268411 4.26610141306,2.4266737308 3.94869657664,2.42669198688 C 3.68275030761,2.42663475829 3.42906003504,2.56055538314 3.27195117681,2.8234823491 C 3.14750985115,3.08252094644 3.06837397127,3.54834143776 3.06849416496,4.19475220102 C 3.06845570824,5.39870046037 3.06831486382,6.65071617025 3.06832651851,7.91563819307 C 3.06837200025,8.34920491236 3.15060647974,8.70835237163 3.31068072865,8.95030675787 C 3.43861348579,9.18795312899 3.69645629475,9.31345924693 4.05168772886,9.31352597418 C 4.32624412725,9.31337266182 4.54713509629,9.24507827079 4.79112279067,9.24509054211" fill="none" stroke="#000000" stroke-width="0.012052291528"></path>
</svg>