<svg baseProfile="full" height="600px" version="1.1" viewBox="-0.884314684761 -2.65603465667 10.0710614195 10.7981622096" width="560px" xmlns="http://www.w3.org/2000/svg" xmlns:ev="http://www.w3.org/2001/xml-events" xmlns:xlink="http://www.w3.org/1999/xlink">
    <defs></defs>
    <path d="M 0.993653800959,6.83660878851 C 0.435514774794,6.59159213914 0.144257065529,6.25509116663 0.0757588564102,5.65051040663 C -0.0111734674629,5.06240097298 -0.041609893864,4.22697440399 -0.0413111516009,2.58816460385 C -0.0413311372104,1.05527750267 0.0369695400295,0.269486582416 0.209143382817,-0.356419944626 C 0.41112297526,-0.958177351815 0.767920253187,-1.26226910339 1.34033906212,-1.47292602943 C 2.01364636174,-1.67596242712 2.90823250762,-1.75246470557 4.17465108386,-1.75244154857 C 5.68457621089,-1.75248699094 6.56847697249,-1.66296181286 7.08795070401,-1.41800105775 C 7.69532429925,-1.18285784329 8.01050728312,-0.853208454499 8.13474049917,-0.19646492804 C 8.27995529523,0.427565423599 8.3435655286,1.26485749876 8.34374537643,2.82402869855 C 8.34363059873,4.31501802599 8.25048416281,5.13903769647 8.08157450879,5.77326765453 C 7.88157908047,6.37974354421 7.51319081509,6.70761617815 6.95424223864,6.93889461254 C 6.29695213759,7.1620058695 5.39720041478,7.23840490525 4.14671904767,7.23853445951 C 2.66193432534,7.23855210911 1.79418123687,7.14849493723 1.29249996865,6.90806230228" fill="none" stroke="#000000" stroke-width="0.00899097602796"></path>
    <path d="M 4.90757984409,5.37730422692 C 5.12948661039,5.26711192058 5.22459939608,5.12734026538 5.23389830088,4.78817746865 C 5.2481888218,4.46414534079 5.24733719169,3.99073187338 5.24748298568,3.01846138464 C 5.24736457723,2.02112797724 5.22131377491,1.57371778118 5.17738116193,1.24057508336 C 5.12366653267,0.926623114217 4.99520454588,0.784452491273 4.61061210218,0.784836181971 C 4.17840949479,0.780709776162 3.94913864914,0.812681294112 3.29467052999,0.812745194191 C 2.60170710865,0.812811179247 2.29932699385,0.861020734694 2.11238894644,0.992422616269 C 1.90351524237,1.1180184392 1.85335351559,1.31218693235 1.85359716553,2.26361242511 C 1.85352051908,3.43902078846 1.8687076615,4.02468273618 1.86880770542,5.1746911762 C 1.86864249629,5.8610041497 1.91812486795,6.09365110674 2.04636113194,6.28142758289 C 2.1954551473,6.45660892704 2.4708341494,6.51341273465 3.0253984466,6.51342844091 C 3.65580774692,6.51330439223 3.96916307358,6.40312955005 4.66290618328,6.4032104712" fill="none" stroke="#000000" stroke-width="0.00899097602796"></path>
</svg>