<svg baseProfile="full" height="456px" version="1.1" viewBox="-2.65683831012 1.35317128821 15.8191111441 12.0193934439" width="600px" xmlns="http://www.w3.org/2000/svg" xmlns:ev="http://www.w3.org/2001/xml-events" xmlns:xlink="http://www.w3.org/1999/xlink">
    <defs></defs>
    <path d="M 11.1897814808,9.21607521098 C 10.8420707522,10.0571892552 10.4581719873,10.7823120646 9.77973648289,11.1107884638 C 9.0960247753,11.6151712529 8.43964686374,11.9713358573 7.53892042617,12.0974784784 C 6.65287991742,12.2857230894 5.87685742358,12.3654910318 4.93981548528,12.3654604003 C 4.06141498069,12.3655329326 3.35313829163,12.2617787177 2.54235597829,12.1285456771 C 1.74020459632,11.9340725297 1.14066734294,11.6157792264 0.526998781956,11.3256753141 C -0.0811249973412,10.8998470956 -0.488101160729,10.3368253762 -0.840328312122,9.87322983685 C -1.18898767849,9.1917862648 -1.33326377591,8.38587746563 -1.33309071918,7.79579303208 C -1.3330591334,6.80181411448 -1.15159025918,5.91283008995 -0.74981933962,5.40801176968 C -0.35522443186,4.65824959221 0.103529183758,4.02186415138 0.802223353279,3.69943532887 C 1.48902436961,3.22228885236 2.15405264367,2.86080399695 3.06847336758,2.70580621603 C 3.96218708028,2.47947021368 4.73665454854,2.3602965677 5.70724889506,2.36027581152 C 6.65665313472,2.36008375616 7.39932432641,2.48043638945 8.20562431086,2.62630187452 C 9.00413110722,2.84532951296 9.58536204566,3.19216819585 10.1615923332,3.49247090996 C 10.7308719443,3.93871362985 11.0997956084,4.50620444596 11.4080170976,4.96088023961 C 11.7120263862,5.63231571496 11.8383819448,6.40429236472 11.8385253986,7.03638454259 C 11.8385121382,7.96054955304 11.6741318114,8.79452081502 11.3327457316,9.27844302834" fill="none" stroke="#000000" stroke-width="0.0131716162732"></path>
    <path d="M 7.27681102891,8.14373706523 C 7.47415121932,7.84864102546 7.61790760894,7.57920222226 7.68603517403,7.41821295265 C 7.75647470642,7.17013949398 7.77350280721,6.95807245615 7.72233721901,6.83882874492 C 7.67263735746,6.66002953294 7.60611393963,6.50601955 7.47616571103,6.41656230632 C 7.35023692165,6.28489023689 7.22997691397,6.1780806506 7.06730361943,6.13515611235 C 6.90894598429,6.06994742397 6.76278486018,6.03000417966 6.5868974543,6.03004098524 C 6.41427675549,6.02816115358 6.26335532133,6.05294932463 6.09595026736,6.10418821909 C 5.93194404904,6.17736190595 5.80098182623,6.2746479217 5.67151401107,6.38189686128 C 5.54497658376,6.53867506274 5.4544166318,6.70908600875 5.45452466441,6.90997635611 C 5.45163807829,7.19901254066 5.46074583844,7.42175338455 5.46083540963,7.61717874595 C 5.46092737504,7.97998473831 5.5347228054,8.36969379374 5.64276161083,8.47954375335 C 5.75136586317,8.6637541134 5.89309080728,8.80044398495 6.10967462548,8.80060375609 C 6.20639892705,8.80048325133 6.27094995268,8.76235882413 6.39254927673,8.74199878273 C 6.50843416937,8.71273955365 6.59135114439,8.64923022349 6.69781623074,8.59705122967 C 6.80086179861,8.5226403739 6.86774011739,8.42530776967 6.94320105054,8.34297445078" fill="none" stroke="#000000" stroke-width="0.0131716162732"></path>
</svg>