<svg baseProfile="full" height="600px" version="1.1" viewBox="-0.349358527712 0.745324666676 11.6059566039 11.6501162954" width="598px" xmlns="http://www.w3.org/2000/svg" xmlns:ev="http://www.w3.org/2001/xml-events" xmlns:xlink="http://www.w3.org/1999/xlink">
    <defs></defs>
    <path d="M 3.26696440578,10.7497343421 C 2.43995508552,10.1405910254 1.90061417222,9.75998002291 1.29735931754,9.00187957287 C 0.788271039724,8.06275749207 0.621403872967,7.46395015717 0.621847214381,6.62755084038 C 0.621763004026,5.59560132027 0.799125177822,5.02173531055 1.28136376854,4.29297685623 C 1.71444387551,3.40067046881 2.18912352439,2.94413906336 2.99668355103,2.48312494159 C 3.74077541944,1.90909484029 4.41551966783,1.72047109902 5.39337201234,1.72020950238 C 6.248751713,1.72030914231 6.94045783397,1.90586439177 7.78811736222,2.3229109387 C 8.5588930976,2.84063581034 9.08725215312,3.32248092099 9.60972000476,4.04569214984 C 10.0817701053,4.9362678568 10.2853048426,5.59797549649 10.2853932121,6.46543693944 C 10.2854192322,7.56035089894 10.0982906288,8.21811938687 9.61735723075,8.94545114442 C 9.18553305325,9.84931421682 8.68194217142,10.3180342655 7.8598532742,10.735594515 C 7.12222636399,11.2511254589 6.42161197123,11.4204538356 5.42893505749,11.4205561263 C 4.56277162489,11.420470555 3.87369472441,11.246523936 3.05749887881,10.8216672434" fill="none" stroke="#000000" stroke-width="0.00970034662394"></path>
    <path d="M 6.76519130812,9.84974651547 C 7.34091221438,9.36852159114 7.72275148974,8.98418136449 7.72285990307,8.04342760654 C 7.72272724563,7.02299000831 7.66632062101,6.54199405522 7.66632317842,6.03966941447 C 7.66626335159,5.09847845645 7.44192639962,4.61293595047 7.01120979562,4.1693921885 C 6.62217764035,3.60799129815 6.09159765616,3.42078491063 5.31911090985,3.42082491909 C 4.60181621686,3.42083796319 4.05735568181,3.62167417463 3.58188102618,4.12979942021 C 3.1525518395,4.77087890562 2.94858538583,5.32915359196 2.94849936624,6.22712271866 C 2.94844915807,7.1283634251 3.00911836043,7.52399661597 3.00909518936,7.91311382708 C 3.00903702273,8.41135838088 3.10204193487,8.62442390081 3.50294656053,9.01228247043 C 3.86300558343,9.49812705275 4.25245211019,9.6716568267 5.04836175337,9.67177867602 C 5.77512476339,9.67157810497 6.17127118006,9.54054624903 6.57992885008,9.22040865886" fill="none" stroke="#000000" stroke-width="0.00970034662394"></path>
</svg>