<svg baseProfile="full" height="600px" version="1.1" viewBox="-1.07740087565 -0.825232660706 9.88492038479 12.9121102412" width="460px" xmlns="http://www.w3.org/2000/svg" xmlns:ev="http://www.w3.org/2001/xml-events" xmlns:xlink="http://www.w3.org/1999/xlink">
    <defs></defs>
    <path d="M 0.679383477196,10.3346885256 C 0.0841449107975,9.27587328479 -0.248865792528,7.69876597449 -0.249177567399,6.16442022845 C -0.249526884174,4.75221155211 0.0509291032795,3.30870674178 0.468454215908,2.62977413461 C 0.866599176312,1.7546688132 1.4521155695,1.0015748553 2.10689738789,0.753721948713 C 2.72737303772,0.445249374956 3.47513696947,0.255330305547 4.19007835188,0.255256164637 C 5.31975409784,0.255325541744 6.29603508511,0.770027444611 6.9687069396,1.47227387215 C 7.62271413603,2.34964250113 7.97940746346,3.85591374422 7.97929641631,5.22119854475 C 7.97944891568,6.5578899243 7.78328214701,7.84867666746 7.40413121995,8.52155463482 C 7.03937865909,9.37516693855 6.50228263553,10.1096050599 5.86115653929,10.4031266131 C 5.24036111053,10.7799361208 4.47148116049,11.006389425 3.65585847315,11.0063886986 C 2.6141107839,11.0065678598 1.68634791788,10.5810416283 1.00363512453,9.94940560478" fill="none" stroke="#000000" stroke-width="0.0107511325905"></path>
    <path d="M 5.42406728816,8.85040855404 C 5.86282738996,8.55793324109 6.23102208925,8.02514597769 6.49987941933,7.51238974925 C 6.75843927217,6.85162004824 6.8908261056,5.91858491297 6.89092781691,5.10409036275 C 6.89087402056,4.06932309266 6.72908816467,3.12148657437 6.42805112133,2.62739971276 C 6.14147330056,1.99167832728 5.71318537722,1.53745654221 5.21830344925,1.37566642459 C 4.74084571729,1.16666385527 4.16288153062,1.09640539433 3.62385234962,1.09630367755 C 3.09454540143,1.09635378295 2.53902909885,1.28425760442 2.10247573982,1.5152830618 C 1.67397034893,1.81795547777 1.29505497942,2.36916504675 1.05043952892,2.90184382969 C 0.809982709388,3.59070883566 0.676709987025,4.53445975357 0.676863280334,5.37566952282 C 0.676919867279,6.43682806069 0.851543341758,7.35525826985 1.17155400384,7.83608470732 C 1.48431438673,8.45001439625 1.95213947165,8.88177652532 2.46283856499,9.03446507329 C 2.96554849017,9.22626177841 3.57934430707,9.28609016412 4.10095701087,9.28624169211 C 4.66404888499,9.28621054906 5.20545909274,9.1661689328 5.39415014255,9.16628701327" fill="none" stroke="#000000" stroke-width="0.0107511325905"></path>
</svg>