<svg baseProfile="full" height="556px" version="1.1" viewBox="-0.659323279714 -2.14764548465 14.3304632677 13.2773210989" width="600px" xmlns="http://www.w3.org/2000/svg" xmlns:ev="http://www.w3.org/2001/xml-events" xmlns:xlink="http://www.w3.org/1999/xlink">
    <defs></defs>
    <path d="M 3.54429304963,9.0480241835 C 2.7046003974,8.68499470352 1.93198114996,8.21937573551 1.40461111432,7.37138915657 C 0.847249392324,6.58069271444 0.539835873895,5.75682640671 0.539853738221,4.50957525372 C 0.539734102356,3.18268740772 0.860796756613,2.25966156124 1.43058360325,1.33480549454 C 2.03121466147,0.463741129628 2.87127292858,-0.061317259082 3.77503431545,-0.479657912263 C 4.72187072741,-0.869366937884 5.79185194479,-1.03629969955 6.74315214859,-1.03623032592 C 7.85314298378,-1.03618453469 8.92110765682,-0.846800312658 9.7376791309,-0.369676456114 C 10.596491165,0.0822228935758 11.3160603713,0.636650100092 11.7571303021,1.56097127471 C 12.2202369045,2.42922659192 12.471898831,3.2859397677 12.4719630029,4.50493271623 C 12.4719774099,5.79368002687 12.1670946749,6.68807919298 11.6506179245,7.60394550834 C 11.1056115897,8.46494813238 10.3026901158,8.99928106342 9.44127091487,9.43843455587 C 8.53442409356,9.85070283685 7.43813600858,10.0182032881 6.41783061345,10.0182604772 C 5.33716252168,10.0182611783 4.28426947912,9.84666924079 3.47873565276,9.40177531441" fill="none" stroke="#000000" stroke-width="0.0119321092986"></path>
    <path d="M 9.73892103599,7.87160366529 C 10.3380675213,7.05330455058 10.6503611402,6.11311042064 10.6503898229,4.64631426089 C 10.6502592864,3.30945253127 10.3082513215,2.40168255323 9.75592649005,1.64338755363 C 9.17027217172,0.924165723258 8.25004065059,0.606807140046 7.22367918513,0.606876781445 C 6.11829113982,0.606859196216 5.17945516131,0.945254732162 4.59924429677,1.78534089425 C 3.98845905088,2.57675956586 3.65478274248,3.51282482246 3.65477941701,5.04982082942 C 3.65479731129,6.41075019935 3.97387396859,7.26867895225 4.54321413802,8.04897158244 C 5.14451551007,8.78347705701 6.0916160302,9.09443296888 7.16013407277,9.09445201353 C 8.25811647939,9.09433139039 9.19171595143,8.81444791628 9.75501203107,8.06416366173" fill="none" stroke="#000000" stroke-width="0.0119321092986"></path>
</svg>