<svg baseProfile="full" height="600px" version="1.1" viewBox="-0.594716010149 0.760230846997 10.7588485759 12.1942205378" width="530px" xmlns="http://www.w3.org/2000/svg" xmlns:ev="http://www.w3.org/2001/xml-events" xmlns:xlink="http://www.w3.org/1999/xlink">
    <defs></defs>
    <path d="M 2.47771937125,11.0017763525 C 1.83334231846,10.7213740497 1.25983518832,10.238535121 0.878276680638,9.57710714632 C 0.509789531161,8.99954856926 0.306018938352,8.15230967098 0.306085299582,7.23470027738 C 0.306119490166,6.23861475282 0.509756523867,5.16907103353 0.884344178934,4.34401358657 C 1.24757416894,3.61008764797 1.81968899419,2.89681221538 2.49374814679,2.4407243579 C 3.14573718955,2.03653876477 3.99251075437,1.78063045436 4.86049349954,1.78064647143 C 5.65834941318,1.78068326612 6.50081082036,2.00870104333 7.15032025029,2.39294375678 C 7.78078051259,2.73426489731 8.35473843266,3.35739188095 8.71355854322,4.08288453718 C 9.06091632297,4.72376822134 9.26333378603,5.6742555966 9.26333127105,6.65105764767 C 9.26334929631,7.60401301285 9.05212660299,8.65061991116 8.67162265049,9.46132533451 C 8.3023705648,10.1778471341 7.71449645029,10.8698584904 7.02962847219,11.3087154498 C 6.36602170931,11.6951390078 5.49428852068,11.9339736869 4.60293992029,11.9340357611 C 3.77228410707,11.9339858101 2.93047638403,11.7313306288 2.28048719631,11.3566660241" fill="none" stroke="#000000" stroke-width="0.0101533892904"></path>
    <path d="M 7.00848066278,9.90317117256 C 7.54716169306,9.50575288219 8.00209971734,8.87883009595 8.27528607317,8.16311772746 C 8.53982918926,7.52609123868 8.67259942957,6.68110873384 8.67249399058,5.85270210189 C 8.67248530191,5.08470811528 8.43179115158,4.24106635732 8.0876217733,3.64374121112 C 7.74998276931,3.11328079385 7.14965289337,2.69361274523 6.3730397175,2.69358519777 C 5.7242763589,2.6935052391 5.1002861808,2.92478960416 4.64226600033,3.36190044544 C 4.20060666901,3.75241398475 3.81998937827,4.39431666992 3.58594351512,5.11977445743 C 3.36176807684,5.76127379796 3.23881759,6.60144441984 3.23877123745,7.43570351264 C 3.23881401099,8.10984581373 3.40075692512,8.8097135391 3.7248573599,9.32885568998 C 4.0352618096,9.78548147938 4.56221890427,10.1273536052 5.27618092276,10.1273254376 C 5.92925399519,10.1270715587 6.45922356821,9.92729058793 6.81117835618,9.53418973019" fill="none" stroke="#000000" stroke-width="0.0101533892904"></path>
</svg>