<svg baseProfile="full" height="559px" version="1.1" viewBox="-1.42365168053 -3.21763837987 13.8577328417 12.9014896516" width="600px" xmlns="http://www.w3.org/2000/svg" xmlns:ev="http://www.w3.org/2001/xml-events" xmlns:xlink="http://www.w3.org/1999/xlink">
    <defs></defs>
    <path d="M -0.262246202663,7.93918418633 C -0.274151024394,7.76642647135 -0.223954190486,7.60593041527 -0.189038571887,7.4271327083 C -0.137268894337,7.22521255659 0.0397792970907,7.04230905818 0.325714907623,6.82456654059 C 1.44811614511,5.5729265784 2.58115383146,4.48734491813 3.76471146104,3.28667598712 C 3.00478394983,1.86328178393 2.28052421568,0.664511976116 1.51136889217,-0.659213009007 C 1.22873344181,-0.874682533271 1.0072191423,-1.00547187281 1.0123323654,-1.18239858998 C 1.02250660818,-1.46971056116 1.05430524285,-1.63775581372 1.10464121263,-1.80082619441 C 1.17720702897,-1.99177749706 1.30694200705,-2.07598513616 2.06369801472,-2.07543284779 C 2.63247676801,-2.07560311106 3.08653773974,-2.07659280928 3.65686108779,-2.07692687914 C 4.03604274105,-2.07731588656 4.27027114342,-1.96167564118 4.44597606968,-1.78645440662 C 4.94872026752,-0.775518146394 5.43161349605,0.0446904031051 5.96607547115,0.966294559599 C 6.72670637678,-0.0903334292161 7.46253984283,-0.949414578317 8.23881428551,-1.90449049795 C 8.35305294256,-2.06451362097 8.48788595061,-2.13756434345 8.6932076798,-2.13770653586 C 8.90606197577,-2.1314187725 9.17545494299,-2.07596880243 9.67412873964,-2.07569698442 C 10.0832302855,-2.0757465981 10.4364165948,-1.96088654772 10.8547035442,-1.96089189739 C 11.2368269549,-1.91339296715 11.2671260932,-1.76851156966 11.2744623847,-1.5204113038 C 10.0683176941,0.0483716218055 8.849950952,1.40761525317 7.51272921033,2.86995131655 C 8.37738023467,4.50277967139 9.22824565835,5.86636740847 10.1720261402,7.35545403643 C 10.2474673442,7.50366512819 10.2759944401,7.65530990942 10.2671242603,7.77881708129 C 10.2636702315,7.99768389149 10.1028421626,8.16044985636 9.86072171784,8.31539283081 C 9.60645629025,8.48735275252 9.31818376041,8.55668306484 8.66973803497,8.55659017231 C 8.11775533414,8.55653457404 7.8035005436,8.51130950511 7.6010313735,8.37288838685 C 6.97090763903,7.15510052503 6.34113128042,6.14220446408 5.67592443085,5.09289246858 C 4.81551892615,6.24646061719 3.94854045963,7.23360300124 3.04299361563,8.23534822524 C 2.83255348659,8.50773781598 2.65593245185,8.60427818508 2.31354933536,8.60391842652 C 1.85390945828,8.60380435437 1.51894023574,8.48650208563 1.16098621047,8.28109607548 C 0.845151121976,8.07219566852 0.630308802487,7.80741514713 0.466530363323,7.57442810089 C 0.314255158664,7.28390624076 0.264660111876,7.0112635091 0.316968019368,6.72578059584 C 0.370710048141,6.40230913907 0.514208945693,6.1410077706 0.724434334101,5.89749150425" fill="none" stroke="#000000" stroke-width="0.0115384952887"></path>
</svg>