<svg baseProfile="full" height="600px" version="1.1" viewBox="-1.13746308608 -0.749184787829 11.321837714 14.2615746886" width="477px" xmlns="http://www.w3.org/2000/svg" xmlns:ev="http://www.w3.org/2001/xml-events" xmlns:xlink="http://www.w3.org/1999/xlink">
    <defs></defs>
    <path d="M -0.189028797438,12.1850577058 C 1.05717116804,10.1642633141 2.32530743093,8.03015548601 3.57169968099,6.14226991548 C 2.54107541055,4.20993990316 1.46374863596,2.21032649888 0.428672852227,0.444248861211 C 1.05646157474,0.44420135301 1.68219143362,0.444229919292 2.28947299928,0.444369857436 C 3.08824432106,1.89006954921 3.91244274587,3.40841895831 4.68937707157,4.73712784541 C 5.56121623726,3.28981358302 6.4502941987,1.77626258624 7.30369109125,0.446860616332 C 7.92990631075,0.446854129775 8.54723066301,0.446801663911 9.15268266411,0.446854527861 C 7.9762866518,2.35682957974 6.77528977604,4.37353270856 5.62143635959,6.13702648488 C 6.82685625763,8.21497052518 8.05775821419,10.3982550463 9.23594033928,12.3189775309 C 8.58987826318,12.3188348935 7.95979964943,12.3188210698 7.32980281324,12.3187904149 C 6.39381444664,10.7165785819 5.44953537197,9.03966377079 4.546922507,7.55818090737 C 3.56890452118,9.13750276864 2.58044362278,10.7931551725 1.62769127102,12.2683399707 C 1.05020827265,12.2685094524 0.48513180227,12.2685948796 -0.0623998024967,12.2685909899" fill="none" stroke="#000000" stroke-width="0.0118747499488"></path>
</svg>