<svg baseProfile="full" height="600px" version="1.1" viewBox="-0.384599418158 -2.64981064442 11.2897198629 11.4096980864" width="594px" xmlns="http://www.w3.org/2000/svg" xmlns:ev="http://www.w3.org/2001/xml-events" xmlns:xlink="http://www.w3.org/1999/xlink">
    <defs></defs>
    <path d="M 3.28671275661,2.7032406052 C 2.65790181444,1.30973646244 1.90137403295,-0.246066002044 1.25111632631,-1.69504406849 C 2.35043149278,-1.69455499759 3.49171703146,-1.69434911018 4.59652142809,-1.69447325665 C 4.96054386185,-0.966060807288 5.35760604427,-0.141429354728 5.73576753424,0.644330869138 C 6.22909428761,-0.0346707602148 6.7534016578,-0.820547213138 7.25247704075,-1.55717419583 C 8.11883466528,-1.55717974464 9.05721842335,-1.55709739678 9.9603520541,-1.5569883873 C 8.92236386822,-0.123845486833 7.75816332386,1.49814614754 6.67721354053,3.03668353062 C 7.40917479084,4.51517340641 8.22344528721,6.19300672512 9.00678735063,7.80504021149 C 8.19200842665,7.80516387873 7.24813943193,7.80516667137 6.39264445589,7.80489618736 C 5.9492210655,6.96614022212 5.46646284149,6.00487030702 5.00508796261,5.10713417487 C 4.42602126882,5.93713684039 3.78100412176,6.9036373015 3.17213892029,7.80409831958 C 2.34188967035,7.80399484179 1.40694349096,7.80364910266 0.560168972472,7.80350602564 C 1.56194423721,6.39835847315 2.68237148807,4.79052151141 3.72205006168,3.28876663146 C 2.99899088428,1.9879808515 2.17588554905,0.492846617074 1.40720140026,-0.897096386581" fill="none" stroke="#000000" stroke-width="0.00950016493459"></path>
</svg>