<svg baseProfile="full" height="600px" version="1.1" viewBox="-1.20074720669 2.42545772192 12.0633114024 12.2463271618" width="592px" xmlns="http://www.w3.org/2000/svg" xmlns:ev="http://www.w3.org/2001/xml-events" xmlns:xlink="http://www.w3.org/1999/xlink">
    <defs></defs>
    <path d="M -0.189211413264,12.6518245572 C -0.197912308387,12.3981854552 -0.178129891865,12.2736423472 -0.134752008133,12.0465018908 C 0.872515347786,10.7124540964 1.85949369986,9.45432688389 2.81560018379,8.13074316178 C 1.98119809944,6.67853798065 1.17854001839,5.30634750519 0.400766399689,3.91879321728 C 0.335045454092,3.78993146215 0.327162059024,3.73375105578 0.3402247997,3.66835992504 C 0.34971038159,3.5362231927 0.406261465512,3.45020762552 1.08964063879,3.4502336477 C 1.88639136311,3.45043513785 2.69248195644,3.45069556062 3.4968480682,3.4507487275 C 3.63122201618,3.45032393565 3.80204873439,3.5414907374 3.88442902919,3.69551627715 C 3.98421342578,3.85254769404 4.05973078962,4.02254909654 4.11599888187,4.25288755079 C 4.43459274154,4.78036499401 4.75359161478,5.27634624024 5.06711833458,5.7565436997 C 5.48949383479,5.11875528474 5.91097615939,4.52562618633 6.32645999175,3.90349966665 C 6.40366513561,3.78316326817 6.49442008417,3.71942167361 6.5826196475,3.71934049484 C 7.54601399135,3.71912721344 8.52460388374,3.71912617716 9.48591850232,3.71895428683 C 9.64726186823,3.71900733475 9.72378189396,3.7461721423 9.76248397585,3.8529832187 C 9.80918516126,3.95720097151 9.80670488416,4.05862398174 9.76221170067,4.18688094345 C 8.79608078836,5.6679830524 7.82233091234,7.06523644653 6.8461374843,8.50487196174 C 7.80759908794,10.0788128349 8.78446843266,11.5468108627 9.78274907707,13.1111540767 C 9.83198163449,13.195161772 9.85481862514,13.2602777007 9.85293167131,13.3402992609 C 9.84648463642,13.4716465446 9.79243748775,13.5631733212 9.71606910368,13.6469958248 C 8.59270393988,13.6471259907 7.43708312651,13.6462423719 7.27986745676,13.6463984839 C 6.88347257813,13.6469284082 6.81775419554,13.6325693503 6.75916319108,13.5637931228 C 6.70148589974,13.4967126921 6.67483070446,13.4131003171 6.66130434209,13.2772124261 C 6.15889851982,12.5179167837 5.70905949408,11.8159354776 5.3026172989,11.0977440327 C 4.7615784877,11.8707136959 4.24260877306,12.5951128453 3.75456755096,13.3552777022 C 3.68025946105,13.4420690462 3.59027489508,13.4892024547 3.53285679454,13.5247435793 C 2.45761749381,13.524596646 1.39759680862,13.524028237 0.3971782648,13.5241272329 C 0.362538340036,13.4881128511 0.292907285038,13.4360233536 0.243605239782,13.3446996352" fill="none" stroke="#000000" stroke-width="0.0101967753221"></path>
</svg>