<svg baseProfile="full" height="600px" version="1.1" viewBox="0.988304688389 -0.154838034554 11.5555912158 11.7605166915" width="590px" xmlns="http://www.w3.org/2000/svg" xmlns:ev="http://www.w3.org/2001/xml-events" xmlns:xlink="http://www.w3.org/1999/xlink">
    <defs></defs>
    <path d="M 2.75199479749,9.79368298045 C 3.82425791909,8.36303131571 4.88712818315,6.79281656733 5.93159360578,5.29400091162 C 4.90809006383,3.87642400256 3.89803428342,2.3466926097 2.8836653917,0.861931729225 C 3.40239650895,0.861904422582 3.90723908832,0.861865458079 4.39401386072,0.861926085825 C 5.26276008179,2.06043589818 6.1035907655,3.34101987588 6.95034960796,4.59817350614 C 7.85754231503,3.38806761014 8.73826436092,2.08982277619 9.61982254078,0.8293244909 C 10.1952118068,0.829206560367 10.7671438842,0.829375559937 11.3259377866,0.829542687694 C 10.1629039436,2.34929972009 9.03176704933,3.96700518445 7.91369465878,5.52591150121 C 9.15977815678,7.16132622079 10.373911777,8.91871958093 11.5768498569,10.6181209596 C 10.9274203568,10.6179987157 10.3413594752,10.6181928185 9.7408677726,10.6183095075 C 8.71280852844,9.24747348796 7.7177113681,7.78853524695 6.73062572767,6.37464571963 C 5.67737148096,7.75436676513 4.65683100512,9.20287323962 3.65809635212,10.6213644839 C 3.05027882149,10.6213852102 2.50420371582,10.6214828002 1.95535073568,10.6215554867" fill="none" stroke="#000000" stroke-width="0.00979227035095"></path>
</svg>