<svg baseProfile="full" height="534px" version="1.1" viewBox="-2.56464894912 -1.1012725493 11.9733468534 10.6397095856" width="600px" xmlns="http://www.w3.org/2000/svg" xmlns:ev="http://www.w3.org/2001/xml-events" xmlns:xlink="http://www.w3.org/1999/xlink">
    <defs></defs>
    <path d="M 8.38225508528,8.64764062036 C 8.3868541983,8.6212972207 8.40144543024,8.61645660503 8.40676504932,8.60697392048 C 7.97478893958,8.60698943053 7.57183790766,8.60693068703 7.15891230665,8.60600995482 C 6.94976252876,8.60574057829 6.70550184511,8.60615927222 6.70586658944,8.56998180839 C 6.71841824078,8.44920084867 6.74058864289,8.36686309668 6.77440290921,8.32618213314 C 6.8659519034,8.3260399118 6.87245090981,8.24542912244 6.88509620656,8.17995835989 C 6.89942866494,8.12055229544 6.88281809841,8.05307950228 6.82733410527,7.96697815656 C 6.77638839115,7.8903351739 6.71359527786,7.80613533556 6.62392231752,7.70105256288 C 5.45014628698,6.43728388994 4.39640042116,5.32099057882 3.31184121897,4.13016261308 C 2.06224605371,5.38153626173 0.939501135843,6.47787346094 -0.218298108084,7.64874972551 C -0.257146798773,7.71709704547 -0.283540489851,7.77053797393 -0.279727183981,7.81573248803 C -0.285280328942,7.86708124503 -0.22128773178,7.93464375808 -0.0997232838999,8.00978879406 C 0.0244123220909,8.08344705923 0.172185900854,8.14269878863 0.359529632377,8.21525978445 C 0.280483114766,8.21517578912 0.194311964558,8.2156594268 0.170066145482,8.2151475364 C -0.383635493694,8.21488715965 -0.930261823116,8.21548194166 -1.40469858306,8.21544086514 C -1.55954350787,8.21540789004 -1.56152203865,8.2032946942 -1.56271609419,8.16143504508 C -1.54773848911,8.12705041818 -1.22666218539,8.08710157849 -1.19523021241,8.05455722265 C -1.1865053646,8.03964959062 -0.918106602854,7.96272138484 -0.883991899318,7.93321288168 C 0.527700600796,6.58389366209 1.80163234251,5.39439178049 3.10656958597,4.06510460913 C 1.84629636782,2.76236737311 0.700228986912,1.61939144671 -0.462766351528,0.372616296409 C -0.544194737799,0.346887210158 -0.622516306466,0.272540474085 -0.712356070406,0.233426702915 C -0.803854482598,0.188637858031 -0.897649133927,0.143924889861 -1.03090108407,0.101451521514 C -1.16927636636,0.0575193741897 -1.28850166721,0.020743561683 -1.43174743874,-0.0136714784821 C -1.43618908187,-0.0298233984431 -1.44941865408,-0.0523411875984 -1.4484742991,-0.0853196962198 C -0.626096617372,-0.0855420525841 0.231979299395,-0.0851926720716 1.06172673783,-0.0853951278041 C 1.06317152985,-0.052930839629 1.06094149494,-0.025415895776 1.05614790547,0.017956362768 C 0.764610233193,0.0593054012497 0.650423812156,0.104191070153 0.473098086601,0.114772951893 C 0.28908713389,0.126605229183 0.179586993938,0.148630328207 0.0991559796385,0.201084185122 C 0.0134121872834,0.2472685014 -0.0123792919912,0.306788548558 -0.0362000275054,0.375105812876 C 1.07383253094,1.54497249398 2.0692790341,2.58956916603 3.09148963209,3.72438736233 C 4.23290248628,2.61620576653 5.25007899519,1.61871208224 6.28655787226,0.543485417693 C 6.32567592751,0.509811814605 6.34985892329,0.473742872207 6.35342961823,0.414198528706 C 6.35256672115,0.351259473442 6.32558555924,0.287031870066 6.24768117093,0.199013951897 C 6.15415756428,0.115487936615 6.04989670985,0.0648704503765 5.90001652413,0.0225849782219 C 5.8528482581,0.0222762751146 5.7704044173,0.0365289843394 5.73010494211,0.0364824427852 C 5.73287466564,-0.00202673984677 5.73586082249,-0.034439622741 5.73904184857,-0.0740322278252 C 5.74043524172,-0.124188701939 5.7448209133,-0.166477124523 5.75056853332,-0.210476133358 C 6.34792419709,-0.210199928635 6.95714958943,-0.209690306245 7.53278824128,-0.210014639564 C 7.80191245116,-0.209622437247 7.81470816955,-0.175919870027 7.8178901046,-0.120209993907 C 7.74314660276,-0.120022970234 7.65529506351,-0.0698103187424 7.55084780301,0.0260634767073 C 7.4297725379,0.11921436062 7.32548027928,0.215881613101 7.19615617092,0.335428674724 C 5.89560213382,1.60277612975 4.72952475841,2.74835212996 3.54868283565,3.95652015975 C 4.88280287082,5.43300219348 6.09010401065,6.74988659194 7.32893111999,8.16012557318 C 7.49110285635,8.39115964344 7.681687203,8.5317880409 7.95074298675,8.62076782903" fill="none" stroke="#000000" stroke-width="0.00996948114352"></path>
</svg>