<svg baseProfile="full" height="600px" version="1.1" viewBox="-1.34325635951 -0.60980547495 13.1448401305 14.7703391425" width="534px" xmlns="http://www.w3.org/2000/svg" xmlns:ev="http://www.w3.org/2001/xml-events" xmlns:xlink="http://www.w3.org/1999/xlink">
    <defs></defs>
    <path d="M 1.88635541206,11.1928552128 C 1.8729163854,11.2404238134 1.85195469098,11.2741428688 1.64774485664,11.2741229108 C 0.864834807682,11.2738797478 0.168849311638,11.2745665965 -0.235576070976,11.1069067029 C -0.243206854109,11.0104434026 -0.244606320528,10.9102303965 -0.240374494126,10.8227493671 C -0.2349779301,10.7305918691 -0.198207929046,10.6017009822 0.896090910523,9.22766979611 C 1.96294097671,8.00370164788 2.83575050601,6.80276270783 3.94779686698,5.30445524132 C 3.2223561264,4.12509509003 2.66134594449,3.06817277348 1.88977144727,1.71035309708 C 1.41947190532,1.57784940875 1.04781089792,1.35102467811 0.566712335436,1.28670090264 C 0.577108113779,1.07275542444 0.591591781689,0.852682469547 0.618652152581,0.6262553913 C 1.48027615504,0.625903752272 2.15807406859,0.626894376812 3.01209472374,0.6270605395 C 3.68800054745,0.627100630565 3.88731567816,0.780151723786 3.90955860795,0.972366570397 C 4.63478262605,2.09055912392 5.21133769931,3.1895959367 5.98959334077,4.54845821754 C 6.82528729619,3.55233967201 7.46836240472,2.60435229437 8.25781430186,1.51626616613 C 8.02667246641,1.35207949476 7.80200146021,1.14382989602 7.88172823073,0.96723368661 C 7.91566016407,0.827482758923 7.90996703993,0.744791298075 7.95845088105,0.714232477261 C 7.99488980438,0.681440065517 8.01463955383,0.667118515721 8.07531844567,0.695412825695 C 9.03534029912,0.695506136497 9.79394661378,0.695793589821 10.6888121862,0.695773354055 C 10.7392294791,0.885510256769 10.6181505557,1.12865144599 10.6103553062,1.36229575265 C 9.37690262844,2.72189701188 8.97926877787,3.47186941493 8.54151444485,4.05194229472 C 7.65935944369,4.92106330979 6.98329817106,5.82954747069 6.1124961858,7.00914925921 C 7.01497571518,8.34461361754 7.72656463434,9.67469817984 8.55938284447,11.256043142 C 9.13214956572,11.4142988532 9.56361635377,11.6075841098 10.0474110728,11.7742112188 C 10.0305403226,11.9635282664 10.0065526438,12.1496327876 9.99439193563,12.3575251757 C 9.05555899696,12.5779055117 8.30157853918,12.7075811534 7.23791577177,12.9245477526 C 7.21239514159,12.8125988452 7.10021503524,12.6554904042 7.03357181208,12.4603265284 C 6.22231278078,11.0239329098 5.54304054634,9.56417939651 4.72778079168,7.87471661556 C 3.85453126089,8.87019560325 3.22200843946,9.78285107601 2.81176069634,10.3586472033 C 2.37124419467,10.822403705 2.14031751709,11.1778392552 1.93989864246,11.4092774599" fill="none" stroke="#000000" stroke-width="0.0122983673126"></path>
</svg>