<?xml version="1.0" ?>
<svg baseProfile="full" height="600px" version="1.1" viewBox="-1.0628282395 -1.62977554545 12.6728592487 19.4762333573" width="391px" xmlns="http://www.w3.org/2000/svg" xmlns:ev="http://www.w3.org/2001/xml-events" xmlns:xlink="http://www.w3.org/1999/xlink">
	<defs/>
	<path d="M 6.90767049789,15.5731019974 C 6.32132619619,15.5731019974 5.73561781645,15.5731019974 5.1499094367,15.5731019974 C 5.1499094367,12.4614071846 5.1499094367,9.35034823418 5.1499094367,6.23928928375 C 6.0822095871,6.23928928375 7.01514571905,6.23928928375 7.94744586945,6.23928928375 C 7.94744586945,6.01607143879 7.94744586945,5.79348954558 7.94744586945,5.57090765238 C 7.01514571905,5.57090765238 6.0822095871,5.57090765238 5.1499094367,5.57090765238 C 5.1499094367,5.52957101539 5.1499094367,5.4882343784 5.1499094367,5.44689774141 C 5.1499094367,2.95461654291 5.33942201734,1.46904134378 5.71908313036,0.990172293037 C 5.91749899089,0.759323056787 6.17315019667,0.643580470234 6.48667268455,0.643580470234 C 6.89940311015,0.643580470234 7.23772759736,0.957102958113 7.50164614618,1.58478391543 C 7.83170329034,2.34347021952 8.04665380716,2.78926998749 8.14522578567,2.92154722288 C 8.42631494254,3.23506971076 8.7563720867,3.40041625872 9.13603319973,3.41695091315 C 9.81268217415,3.41695091315 10.2584819421,3.15239644237 10.4727965072,2.62455934472 C 10.5224004723,2.49228210934 10.5472024549,2.3517375309 10.5472024549,2.20356159098 C 10.5472024549,1.47730867751 10.117937373,0.899867640808 9.25940720923,0.470602558926 C 8.63236223347,0.157080071047 7.87304000743,8.51228833199e-07 6.98207645305,8.51228833199e-07 C 5.05070154555,8.51228833199e-07 3.6560669411,0.693184452131 2.79753677733,2.07955165394 C 2.26969967969,2.9380818177 2.00514520891,3.99439199455 2.00514520891,5.24848194607 C 2.00514520891,5.35595720448 2.00514520891,5.46343246289 2.00514520891,5.5709077213 C 1.33676357754,5.5709077213 0.668381946161,5.5709077213 3.1478703022e-07,5.5709077213 C 3.1478703022e-07,5.7934896145 3.1478703022e-07,6.01607150771 3.1478703022e-07,6.23928935267 C 0.668381946161,6.23928935267 1.33676357754,6.23928935267 2.00514520891,6.23928935267 C 2.00514520891,8.9210830424 2.00514520891,11.6035128329 2.00514520891,14.2853065226 C 1.9727118481,15.1438366864 1.34503089078,15.5731017683 0.12401019223,15.5731017683 C 0.12401019223,15.7874163333 0.12401019223,16.0023668502 0.12401019223,16.2166814152 C 2.58322201855,16.2166814152 5.04243384488,16.2166814152 7.5016456712,16.2166814152 C 7.5016456712,15.8370203022 7.39417041279,15.6309730653 7.17985584773,15.5979037564 C 7.09718257375,15.581369102 7.00687792338,15.5731017748 6.90766999312,15.5731017748" fill="none" stroke="#000000" stroke-width="0.016216680564"/>
</svg>
