<svg baseProfile="full" height="600px" version="1.1" viewBox="-1.43901168623 -1.51121728084 10.1485297068 18.1392720553" width="336px" xmlns="http://www.w3.org/2000/svg" xmlns:ev="http://www.w3.org/2001/xml-events" xmlns:xlink="http://www.w3.org/1999/xlink">
    <defs></defs>
    <path d="M 5.43402159875,0.00668183909875 C 6.19789660638,0.00666776994694 6.84272766775,0.126124947765 7.21408293313,0.367019950845 C 7.6580708391,0.650817572572 7.85752186841,0.951548099019 7.85751409732,1.38912698577 C 7.85740497045,1.87944713185 7.76378914795,2.23467609236 7.39338919602,2.44207937966 C 6.99705389224,2.69423101793 6.65169081173,2.77344173888 6.30250912986,2.77337959667 C 6.03804901324,2.77330370146 5.76950043521,2.54965650934 5.54813739739,2.32583159107 C 5.29471284233,2.06059762734 5.08982600353,1.79573330182 4.71477030299,1.79565399293 C 4.1354173281,1.79568132049 3.77316667221,2.13583620673 3.47523976944,2.75023563987 C 3.13641844771,3.40020778066 3.01143543504,4.20417340881 3.01144587671,5.16136612779 C 3.01157136745,5.76501085645 3.01140505339,6.32102217561 3.01135490924,6.83641644603 C 3.01138683501,6.95199702716 3.02950812224,7.00817159227 3.15772532765,7.00811291021 C 3.95835786406,7.00812329079 4.74758272711,7.00820238927 5.62584828678,7.00819323797 C 5.68984142039,7.0082648188 5.70322012063,7.06605990381 5.70163390191,7.11990936996 C 5.70154020629,7.30693081917 5.69335100866,7.40488857926 5.69238814458,7.50089793057 C 4.82331457481,7.50088805002 4.03455951556,7.50092126163 3.27260586366,7.50100001856 C 3.14497898266,7.50104106005 3.11214005694,7.57578134324 3.09971022818,7.64813865509 C 3.09974971028,9.63056053009 3.09966974702,11.4585964807 3.09971715138,13.1644545921 C 3.09964849292,13.7752698788 3.16922502457,14.263156397 3.53108506142,14.2630333468 C 3.91875057159,14.3316492303 4.1796455556,14.3960151537 4.72460545836,14.4424512996 C 4.79101081429,14.4425480317 4.81889899498,14.4889227065 4.81810152069,14.6890877697 C 4.81799263959,14.8867994758 4.79241443691,14.9883253115 4.68483189759,15.1101556557 C 4.4226590198,15.0969579478 4.15234492239,15.0716743113 3.86722419676,15.0716390553 C 3.19882927355,15.037877662 2.53286496815,15.017663544 1.5085413855,14.9891021549 C 1.20271087703,14.9905035359 0.652453194231,15.0221278978 -0.255296458631,15.0590511908 C -0.511591513782,15.0610793438 -0.585360889464,15.0146755968 -0.587007763238,14.8521030639 C -0.586918868222,14.6847181265 -0.586128596838,14.518326575 -0.586288615591,14.3009862546 C -0.586229469171,14.1015041713 -0.556538573942,13.9833185617 -0.436109542391,13.898433188 C -0.321368500135,13.8151687403 -0.0426737512562,13.7541726921 0.146573111871,13.7050215993 C 0.452829704144,13.6801240184 0.67242057667,13.6235257723 0.836815193751,13.5740253479 C 1.00991931603,13.5059034825 1.09529320196,13.3896052987 1.09567276335,13.1636802257 C 1.09565585344,11.2428832353 1.09553444257,9.46895292405 1.09558413139,7.44136074189 C 1.09551254625,7.09579476718 1.04971171881,7.02411066745 0.848034783853,7.02402839886 C 0.471041127695,7.02404133817 0.11513562466,7.02398263448 -0.237155244099,7.02397296068 C -0.360172801064,7.02396058588 -0.416220214563,6.99557123817 -0.416237859165,6.86129918433 C -0.416226488117,6.70828848815 -0.383057933811,6.57685470319 -0.38309278492,6.42787110544 C -0.38308630141,6.25730047858 -0.192225269996,6.03422586358 -0.0456715747946,5.96681635565 C 0.209391869581,5.96678287819 0.441646553553,5.89517752365 0.772107876814,5.75964362458 C 0.79722501894,5.75962361389 0.852401645831,5.70221664452 0.911542171589,5.64758273655 C 0.911479540554,5.51780947738 0.911401743919,5.44674928927 0.911355019546,5.43267877189 C 0.911387989514,4.79522903052 1.31060011148,3.25242025939 2.19726021051,2.06040699569 C 3.05584807157,1.04855341998 4.14344341516,0.437421453866 5.69796652555,0.437303535025" fill="none" stroke="#000000" stroke-width="0.0151034738179"></path>
</svg>