<svg baseProfile="full" height="600px" version="1.1" viewBox="-2.3368127643 -1.55864478609 10.9776398721 18.6857695399" width="353px" xmlns="http://www.w3.org/2000/svg" xmlns:ev="http://www.w3.org/2001/xml-events" xmlns:xlink="http://www.w3.org/1999/xlink">
    <defs></defs>
    <path d="M 5.37988831554,0.00498540221633 C 6.1101909474,0.00494542605702 6.77104874407,0.087675682078 7.10686584268,0.317969447742 C 7.52262361799,0.550328842173 7.71956430827,0.878237626324 7.71954107092,1.37767811752 C 7.71936075131,1.87815483547 7.50071020166,2.12250886 7.12071658412,2.34374039508 C 6.74871425072,2.54429251588 6.33740453164,2.63196558393 6.00207294265,2.6319380075 C 5.74530665318,2.63184815534 5.50957731644,2.52223703899 5.31306813399,2.28755659498 C 5.10150177518,2.02985245623 4.91354348997,1.78649078943 4.61137890557,1.78638133649 C 4.02728253345,1.78636194573 3.65892505387,2.12486089574 3.40578472356,2.66836102115 C 3.08644127587,3.30463434564 2.96685607473,4.01489414083 2.96682666665,5.17795802461 C 2.96695072411,5.76903785573 2.96676668533,6.26586879598 2.96672491962,6.74158362852 C 2.96676807408,6.87932906853 2.98177484353,6.93402908923 3.09358480503,6.93403697884 C 3.9622618251,6.93403702864 4.70153543283,6.93409098145 5.56790068676,6.93405053167 C 5.62111072917,6.93406987353 5.62604898331,6.99399179383 5.63529192866,7.06916296644 C 5.63518806662,7.26995980902 5.58682051043,7.47594727738 5.41586744528,7.75117559893 C 4.61209529381,7.75118413999 3.8317499731,7.75116435403 3.07017463188,7.75118838555 C 2.93483669798,7.75115416335 2.8916192476,7.83711017804 2.85726532455,7.934939885 C 2.85727463183,9.96474626051 2.85723257222,11.8187034367 2.85725327191,13.5051046847 C 2.85718054071,14.1039896248 2.89917703837,14.5793297826 3.08736039072,14.7185693173 C 3.32120347887,14.9032087116 3.57901407152,14.9690823494 4.1381041494,15.0129523701 C 4.23839592308,15.0129621852 4.30597004414,15.0703070726 4.39999830097,15.1056616422 C 4.39991790595,15.2824950185 4.38529028909,15.3978789266 4.38717395629,15.5625074025 C 4.10890579785,15.568421312 3.84702772464,15.5473587088 3.3439936098,15.510197258 C 2.90307275022,15.4861876912 2.28945020403,15.4637086022 1.74099281992,15.4635449173 C 1.26964802112,15.4635816213 0.742217725171,15.4773310299 -0.0671912375556,15.4992958127 C -0.345590407001,15.5018006032 -0.799098873483,15.5250372038 -1.3156441692,15.5454982956 C -1.37165451233,15.4216536646 -1.41501764764,15.3330990811 -1.41552672946,15.1672125896 C -1.41548463129,15.0025022467 -1.40571724889,14.8256089975 -1.27364967284,14.7374315997 C -0.964889685482,14.7118067564 -0.725528041691,14.6467706756 -0.573423052997,14.5782198058 C -0.3942822617,14.5083405049 -0.211107964486,14.4221403645 -0.138254861206,14.3559937746 C -0.0533709701604,14.2759212599 -0.00484366607725,14.1516923727 -0.00398209892319,13.9244362534 C -0.00394855301874,12.2825609864 -0.00414075034951,10.6539769591 -0.00412463863086,8.88697986017 C -0.00417231184019,8.53330214034 -0.0426889413275,8.45071433197 -0.103200928984,8.3533702762 C -0.458018021402,8.35340278366 -0.800764428196,8.35344015991 -1.07580273014,8.35341121765 C -1.19504079383,8.35346793648 -1.24231182945,8.31130352881 -1.24235648528,8.14518477287 C -1.24236835736,7.99533891942 -1.18394377652,7.76537731554 -1.00016993108,7.46794805195 C -0.800927473337,7.16734126474 -0.602720288664,7.01592162516 -0.410299850732,7.0159667202 C -0.293651057512,7.01589929655 -0.183234727115,7.01595571686 -0.0452648309174,7.01594289669 C 0.0640430319008,7.01594871905 0.0951185635176,6.96029990044 0.0950692911692,6.87823070463 C 0.0950291185663,6.48300199088 0.508426639347,4.95362989482 0.508420276606,4.82371558126 C 0.508393697571,4.47476966556 1.38646870119,2.67043585953 3.82922654612,2.66843348433" fill="none" stroke="#000000" stroke-width="0.0155585091923"></path>
</svg>