<svg baseProfile="full" height="600px" version="1.1" viewBox="-2.23266529534 -1.62460852062 10.6653239238 19.4565222136" width="329px" xmlns="http://www.w3.org/2000/svg" xmlns:ev="http://www.w3.org/2001/xml-events" xmlns:xlink="http://www.w3.org/1999/xlink">
    <defs></defs>
    <path d="M 5.18664078559,0.00351844895317 C 5.91555337752,0.00348557476514 6.54374735201,0.125285289628 6.9071374997,0.329545057757 C 7.3394094571,0.558715097053 7.53716261829,0.850083909376 7.53713151934,1.29799740706 C 7.53703052983,1.76553790961 7.31688582585,2.01608898435 7.11040243194,2.36241825615 C 6.86586945937,2.68103440796 6.56544360206,2.81434581373 6.28460141704,2.81426290001 C 6.02409949587,2.81416850519 5.8031144856,2.73508548718 5.60528890476,2.46971154195 C 5.37162066684,2.19753518682 5.19530597017,1.95230191928 4.8879688649,1.95223357574 C 4.30512180612,1.95225349812 3.92556261704,2.25125379114 3.62584620402,2.25121073082 C 3.02738183425,2.25125870091 2.70968413041,2.67007759196 2.70968937204,3.50077697617 C 2.70978216508,4.43761548383 2.70969308242,5.38290950639 2.7096922945,6.24633559567 C 2.70971806415,6.45369535667 2.70953693326,6.73242786509 3.41679170068,6.73240064934 C 4.10654869016,6.73245172195 4.78952720101,6.73246210464 5.48630996879,6.73246777971 C 5.6137264603,6.73248839447 5.634964629,6.78924793074 5.65521065231,6.84665805915 C 5.65516785548,7.02750726858 5.65778670941,7.12470698425 5.65776506058,7.27515579829 C 5.65773676356,7.51768466899 4.91727732142,7.51766475779 4.81106448194,7.51761218078 C 4.11686939021,7.51752902504 3.5228600504,7.5175984171 2.86947923919,7.51754598393 C 2.74647497406,7.51758128874 2.71519189348,7.60794385992 2.71564392099,7.7703506472 C 2.71566967886,9.85802240394 2.71563122843,11.791264725 2.71564252072,13.6353305104 C 2.71559249212,14.1878556731 2.73706215409,14.5408196869 2.76420647998,14.9919061782 C 2.81447187786,15.4022494676 2.88175113474,15.7011217894 2.95281083112,15.700955598 C 3.0547677425,15.7519392468 3.15751713489,15.7647321302 3.43715870355,15.7900881286 C 3.69962254141,15.8259424533 3.81580763285,15.8556020338 3.92387482499,15.8555005856 C 3.92390800527,15.9954293437 3.91839314977,16.0945369072 3.92202371967,16.20378673 C 3.68808165801,16.2018950701 3.47980915618,16.1938873807 2.95462261749,16.1424397173 C 2.43547098947,16.1113146449 2.00827955318,16.0904720014 1.55207558585,16.0903434996 C 1.02264042807,16.0902382195 0.56067450953,16.1126336589 -0.15962670135,16.1263424953 C -0.422652462,16.1292838574 -0.783332773919,16.150192446 -1.221801409,16.1490516763 C -1.28798996049,16.0469026964 -1.33640786397,15.9519802507 -1.3371381899,15.7784048493 C -1.337048484,15.6243428613 -1.30235830879,15.5345181401 -1.19469597375,15.4586357202 C -0.834914470075,15.4339705787 -0.565661812184,15.3669103093 -0.421009892581,15.3119587235 C -0.243293547986,15.2530346557 -0.118157679198,15.1590895622 -0.0463478211147,15.078459163 C 0.0300990697163,14.9764441221 0.0671706851738,14.8208125203 0.0680811853547,14.5583655208 C 0.068113628948,12.7038471072 0.0678789789511,10.8607276052 0.0679001533939,8.94823258812 C 0.0678154364144,8.54887109692 0.032270687065,8.45461635734 -0.0336665265347,8.35497228498 C -0.424939846256,8.35503718574 -0.789008503416,8.35504551692 -1.10374582336,8.35501637104 C -1.19617602752,8.35503186012 -1.24678381682,8.31338175858 -1.24683647824,8.16713730718 C -1.24683403786,7.99795064057 -1.18557646316,7.89382252569 -1.18562084548,7.74737661059 C -1.16279803886,7.58698168869 -0.954443968081,7.37030739064 -0.691612578177,7.13161644811 C -0.481097064161,7.03883647645 -0.255647531891,6.95700135554 0.101201900101,6.95700527061 C 0.133662686503,6.95694993487 0.208379135287,6.92712397551 0.288902112103,6.91834216429 C 0.288740590937,6.82756409658 0.28874627204,6.71998169137 0.288727934921,6.67748782648 C 0.288759812092,5.84776381267 0.671990438675,4.22963455929 1.5016121113,3.07459155334" fill="none" stroke="#000000" stroke-width="0.0162002682877"></path>
</svg>