<svg baseProfile="full" height="600px" version="1.1" viewBox="-1.376404054 -4.01056592867 9.77896128751 21.160911256" width="278px" xmlns="http://www.w3.org/2000/svg" xmlns:ev="http://www.w3.org/2001/xml-events" xmlns:xlink="http://www.w3.org/1999/xlink">
    <defs></defs>
    <path d="M 5.28188273074,0.00584259033167 C 5.93803319098,0.00581018036064 6.5725052035,0.121619792337 6.94360843064,0.335093067641 C 7.37693980099,0.555248858089 7.58032724024,0.867064745778 7.58030236982,1.34081065809 C 7.58015908052,1.80727282321 7.3641691034,2.05795085585 6.98683531333,2.28577023899 C 6.61860097696,2.49560141718 6.25154654433,2.57749162024 5.93081612636,2.57744906089 C 5.70539581527,2.57736225667 5.44273534168,2.38001345339 5.2457753693,2.13508729877 C 5.02171885718,1.8775049025 4.83519090463,1.61471159997 4.5691754644,1.61459738695 C 3.97646568467,1.61459049043 3.61016781379,1.94683104214 3.34005613376,2.54668420013 C 3.03129721929,3.15905242619 2.90527619172,3.98699640688 2.90527248939,5.04184090551 C 2.90539117418,5.59178077635 2.90522463481,6.1366276091 2.90516689497,6.64553296026 C 2.90520212154,6.77254668829 2.92551905761,6.82456946951 3.06563273917,6.82456073953 C 3.9282484437,6.82456797393 4.73208496819,6.82463368045 5.5856200243,6.82463343853 C 5.65099730442,6.82470513415 5.66109993874,6.88908182364 5.66545953142,6.95055388566 C 5.66537779133,7.14823851641 5.60741203214,7.36984447297 5.44129639055,7.64964041766 C 4.6112676778,7.64961815419 3.8374259391,7.64960254187 3.07378058816,7.64963939317 C 2.9366414168,7.64961461376 2.89395142282,7.73122058462 2.85772267292,7.82328854155 C 2.85775480245,9.69103477549 2.85768414871,11.5754105861 2.85770442443,13.321071964 C 2.85766826525,13.8708254511 2.94750943735,14.3450079973 3.11862014189,14.491957959 C 3.33083683207,14.6541924293 3.61869537785,14.7331141944 4.12576007798,14.7904652397 C 4.30090616598,14.8457961681 4.38492658689,14.8979149165 4.48678028539,14.9335401247 C 4.48673086935,15.1084205995 4.47960289703,15.220557947 4.48097749713,15.3794301341 C 4.21881034139,15.381100958 3.98538697425,15.3703004334 3.45236814681,15.3352479663 C 2.98885667983,15.3179534904 2.57491532627,15.3043138616 2.04904011551,15.304185646 C 1.41023025576,15.3041256844 0.889484978351,15.3169928585 0.108879125748,15.3330377657 C -0.15978755888,15.3364413197 -0.543602340784,15.3559461052 -0.545455202273,15.2005458738 C -0.545365866109,15.0292449857 -0.553900163456,14.8775825466 -0.554149192593,14.6950231309 C -0.554069666449,14.5280119146 -0.53485190149,14.425759543 -0.43139684971,14.34203757 C -0.0661275463885,14.3102921846 0.205323360603,14.2423096823 0.344840042036,14.1781320426 C 0.526050634425,14.1030440929 0.647600553673,13.9956748488 0.703482508402,13.9047759774 C 0.771617583674,13.7945213246 0.80296301816,13.6292708742 0.802982207173,11.8762671578 C 0.802891728115,10.1744088757 0.802853186862,8.52734764693 0.802842055355,6.55525525687 C 0.802830676378,6.31633009789 0.766568309457,6.23143814532 0.697667657227,6.12711742548 C 0.318913190455,6.12713639878 -0.0507605086855,6.12717870938 -0.397752971559,6.12711435527 C -0.485323832541,6.12713236636 -0.540748906492,6.09646447277 -0.540786548201,5.93517773128 C -0.540813475798,5.78045302904 -0.4658055454,5.55240811682 -0.465832367846,5.3873123703 C -0.465885286945,5.23646059907 -0.244512935894,5.01843487001 -0.180940544027,5.01844115459 C 0.0424373245064,5.01840633453 0.182606363875,5.01849020909 0.48011189161,4.91085979979 C 0.603747869116,4.91083975044 0.718448082191,4.86934218091 0.831943081898,4.81123880205 C 0.93195671795,4.81122489907 0.976919586045,4.73719949909 0.976886002997,4.70561470353 C 1.04713187991,2.51710476243 1.46617476521,0.894585269323 2.3337650734,-0.568307859072 C 3.19863574086,-1.68587897457 4.30089156208,-2.23976181186 5.83100716648,-2.23981523656" fill="none" stroke="#000000" stroke-width="0.0176194098717"></path>
</svg>