<svg baseProfile="full" height="600px" version="1.1" viewBox="-2.7477537845 -1.59061696529 11.4789390422 19.0572900274" width="362px" xmlns="http://www.w3.org/2000/svg" xmlns:ev="http://www.w3.org/2001/xml-events" xmlns:xlink="http://www.w3.org/1999/xlink">
    <defs></defs>
    <path d="M 5.28697775111,0.00410214440808 C 5.95106594071,0.00408146474683 6.59303478703,0.132934383491 7.04792670712,0.355383015612 C 7.53459428058,0.588815725783 7.76810456619,0.872243947724 7.76799536101,1.33496028874 C 7.76796793593,1.67308578585 7.66630360885,1.98932788465 7.41246882482,2.18238847647 C 7.36262251465,2.18265533773 7.30832891939,2.19857492251 6.95531787751,2.19852762603 C 6.69040646432,2.13124801897 6.34458287833,1.91209278189 6.15311413286,1.79709882968 C 6.07068737624,1.61103573375 5.89083027123,1.407164424 5.67371103941,1.2241443836 C 5.13188330112,1.22407165667 4.90649866341,1.11263174315 4.79005737631,1.11263130156 C 4.07833130686,1.11263621461 3.61934010713,1.48812485349 3.36723427503,1.9528314234 C 2.98061694233,2.60038981449 2.82057566969,3.46231160176 2.8205209284,4.83033618939 C 2.82062569757,5.35856930029 2.82059134949,5.8185444535 2.82048474002,6.22723067415 C 2.82051631982,6.34197418254 2.85877768869,6.40138045934 2.9566874745,6.40142461547 C 3.78028037573,6.4015251252 4.73637976671,6.40156901297 5.6246420982,6.4015211604 C 5.74731033469,6.40158583928 5.79805362398,6.46520164568 5.77847723464,6.50359670404 C 5.72121608803,6.58500370715 5.70798471092,6.66361724172 5.66576567931,6.88933684263 C 5.66573809512,7.13006332848 5.53802547284,7.19864549819 4.8396584136,7.19865215922 C 4.01356432267,7.19859539555 3.29170403309,7.1985940655 2.52424160071,7.19871633551 C 2.39729506202,7.19873068968 2.36878329381,7.30054232219 2.1684864448,7.57246866564 C 2.16853937793,9.62601533273 2.13040735859,11.1346483503 2.13037108938,12.9124572549 C 2.1302904111,13.6871598635 2.13821097991,14.3556607042 2.22899503043,14.6680701051 C 2.32700737348,14.9638515089 2.46884878507,15.1827207182 3.01384814611,15.2550385121 C 3.20638628831,15.3329365526 3.22359596161,15.4130794455 3.21976579461,15.5390012313 C 3.18330760408,15.6659782578 3.12962102998,15.7494731371 3.13083660164,15.8719532017 C 2.93510962584,15.8721079363 2.49608622052,15.8483713179 2.40615142443,15.8482561852 C 2.2406205193,15.8394948659 1.83973431148,15.8225226817 1.62687095561,15.8224925617 C 1.32734489002,15.821045672 1.12520677902,15.8132605534 0.788635920069,15.771105824 C 0.449861954234,15.7356772515 0.203508432291,15.7251530503 -0.345212642767,15.6823107069 C -0.782818530419,15.6423499463 -1.13249734483,15.5772826029 -1.42039588533,15.4816387621 C -1.7365413054,15.3935580505 -1.78459287129,15.3430030001 -1.78456382883,14.8915902031 C -1.78465798908,14.6716714603 -1.71637111568,14.4538672221 -1.54804706239,14.4538246158 C -1.36741076075,14.4021161374 -1.21014463567,14.3723774131 -1.04855307602,14.3166747678 C -0.720539238682,14.3167201241 -0.495393481484,14.259566169 -0.416317213705,14.1886859199 C -0.293489549687,14.1236532217 -0.226400066545,13.946874786 -0.0583952557354,13.5876760369 C -0.0584271852204,11.4562423116 -0.0585097135845,10.3333868867 0.0455830035862,8.17677472885 C 0.0456058193049,7.55942111071 0.024270932754,7.47029597666 -0.0481544252434,7.34777439739 C -0.232554477076,7.34782191189 -0.523876797775,7.33323449558 -0.770565804462,7.33315566754 C -1.0304576423,7.3331045609 -1.2952395942,7.34734279085 -1.29955156091,7.13019007612 C -1.29958783681,6.95102991332 -1.25158578748,6.71986654569 -1.25163720181,6.43883016874 C -1.25169342881,6.12574258615 -1.21266833073,6.06203422863 -1.07925900942,6.06204848086 C -0.910030917581,6.06200347235 -0.757269905265,6.06216858499 -0.690166862067,5.9915809872 C -0.482866526898,5.99156866205 -0.191918284949,5.99175422743 -0.0453875524363,5.99175102573 C 0.0767713102141,5.93213143509 0.12292757133,5.88063858759 0.170813354347,5.76024554979 C 0.262899945174,3.23225401651 0.678672889862,1.8339793564 1.43576828638,0.269667971248" fill="none" stroke="#000000" stroke-width="0.015867851813"></path>
</svg>