<svg baseProfile="full" height="600px" version="1.1" viewBox="-2.08876896262 -1.70089335034 10.0222470486 19.6128554785" width="307px" xmlns="http://www.w3.org/2000/svg" xmlns:ev="http://www.w3.org/2001/xml-events" xmlns:xlink="http://www.w3.org/1999/xlink">
    <defs></defs>
    <path d="M 4.74439436617,-0.000731991392058 C 5.38318962279,-0.000785019091381 5.94920123043,0.0971782320821 6.37124431553,0.297697346815 C 6.87227958861,0.538343336591 7.09146881523,0.848231014022 7.091486483,1.34252449513 C 7.09135310508,1.96031620742 6.82387901998,2.39136191846 6.42823697782,2.54022591949 C 6.27816237665,2.54006857205 6.10975252248,2.48524292711 5.93405530013,2.37460418198 C 5.82651411153,2.37472547378 5.65259975351,2.20541827168 5.65260160967,1.92023475255 C 5.54816422864,1.87093980025 5.39116259917,1.67527979027 5.3336167249,1.41873770367 C 5.21730537593,1.41081156648 5.02475869536,1.28703145749 4.96817380442,1.28701014838 C 4.3274688746,1.28696861174 4.09844857707,1.32820753809 3.95571241035,1.3282294747 C 3.14259359493,1.32814878431 2.73553300156,1.71113068071 2.70711682244,1.9220539501 C 2.49011906489,2.38337095288 2.28409623607,4.16043170002 2.2841404259,5.44039984253 C 2.2842124088,5.69437806514 2.28404318929,6.15763093737 2.28401458224,6.38743131069 C 2.28405721926,6.4442046417 2.33866658503,6.51010466946 2.48648342186,6.51014258328 C 3.32399305397,6.51016585123 4.28664490276,6.51023047218 5.12303909355,6.5101333697 C 5.18190195852,6.51025660089 5.20917127909,6.56121123708 5.20911236614,6.69740318633 C 5.17568034812,6.83905235804 5.12640426442,7.01055621482 5.12641259603,7.17429436124 C 5.07584208198,7.33940432346 5.02497026645,7.43322242177 4.966790426,7.43317959692 C 4.03018586658,7.43319696499 3.20425890707,7.43322427208 2.34436641954,7.43330212717 C 2.28893997096,7.43342265781 2.25652299769,7.50918906476 2.25681512436,7.65302839424 C 2.2567548104,9.19320967342 2.25664350448,11.2346751943 2.25668867667,12.884146358 C 2.25650844906,13.4843200698 2.26734525335,13.9747151091 2.17352796716,14.5584388926 C 2.10485662144,15.0550376728 2.06893387061,15.4689275279 2.2837799601,15.5723109573 C 2.51113092524,15.6923062607 2.74092647058,15.7687558785 2.93659530205,15.8037981905 C 3.1707643382,15.8384927354 3.29221667719,15.8674991142 3.35401288417,15.8674510462 C 3.35390483833,16.0345094098 3.33661583684,16.1631361736 3.3410279333,16.2706771983 C 3.03614054912,16.272623911 2.7972533285,16.2369050676 2.55788019591,16.1918991799 C 2.31656502479,16.1585576678 1.81231515401,16.140655111 0.950176763472,16.0928688268 C 0.23264865869,16.0548799182 -0.204075527254,16.0590121028 -0.92140491015,16.0476947687 C -1.15743633813,16.0505749273 -1.22298007912,15.9943786289 -1.22410320106,15.8528229023 C -1.2241447312,15.6790165777 -1.23550036784,15.5331081624 -1.23569540016,15.3219408865 C -1.22520868469,15.1306663479 -1.19898705546,15.0136993255 -1.07853059087,14.9306712697 C -0.660222362614,14.9110741324 -0.354416947699,14.8300412006 -0.167694669104,14.7507326609 C 0.0700752624507,14.6619739465 0.197631958985,14.5183329961 0.19761625739,12.9614205739 C 0.197569244274,11.1150845668 0.197511549099,9.42972938037 0.19746541514,7.32180754161 C 0.197457668562,7.0322753272 0.179201594744,6.95835996485 0.178985964813,6.62119586086 C 0.178999237516,6.39974051034 -0.131251372597,6.39975817683 -0.295473061702,6.39966630236 C -0.394771464369,6.39966380333 -0.692440368435,6.39969929139 -0.991013266346,6.39957791276 C -1.12797514369,6.39953339652 -1.19562426229,6.353415301 -1.2467773596,6.25857934163 C -1.24677073692,6.13648035184 -1.23424167109,6.04311483906 -1.23429754685,5.89944848225 C -1.23432731995,5.70717620657 -0.990769270748,5.46901806996 -0.834345657319,5.33976772235 C -0.553985554666,5.32616720249 -0.285153496951,5.25354839017 0.0363051109607,5.06944885005 C 0.149790156692,5.05497757618 0.23061781755,5.02652999659 0.350511681348,4.97083641861 C 0.350466692756,4.91374372591 0.41810877801,4.81772256543 0.41809705898,4.85975803708 C 0.455063811241,3.00146366929 0.83735915154,1.3358819661 1.62476398676,-0.0596843781614" fill="none" stroke="#000000" stroke-width="0.0163304375341"></path>
</svg>