<svg baseProfile="full" height="600px" version="1.1" viewBox="-2.85918373199 -1.53805379414 11.1662486127 18.4398363879" width="364px" xmlns="http://www.w3.org/2000/svg" xmlns:ev="http://www.w3.org/2001/xml-events" xmlns:xlink="http://www.w3.org/1999/xlink">
    <defs></defs>
    <path d="M 5.20242874477,0.00499663126175 C 5.74991063926,0.00497507264299 6.39720158431,0.111627183458 6.75006245229,0.323989010951 C 7.14954938147,0.531333736679 7.37026278827,0.862917385599 7.37014672745,1.58722623398 C 7.36992782038,1.96481084039 7.19069431406,2.39019768645 6.78724722248,2.68722312858 C 6.28136209827,2.6870976352 5.92931066137,2.80893903607 5.5650224505,2.80880185522 C 5.37800845188,2.80867582006 5.31193777603,2.73138755752 5.11003707033,2.53088112367 C 4.93624050599,2.34531387878 4.9028299382,2.12589143408 4.69837658909,1.93674470676 C 4.50177357402,1.74692660762 4.318236061,1.71448778553 4.07610426154,1.71442994617 C 3.4229321858,1.71440220528 3.05077774134,2.09966260844 2.81668505874,2.64633060151 C 2.50323934164,3.42976767474 2.39558853265,4.16852224522 2.39549459534,4.9786377018 C 2.39557613727,5.68974263125 2.39541834097,6.18785873704 2.39528810069,6.70312783771 C 2.39531560823,6.86501840406 2.43246538772,6.91574024686 2.5509833081,6.91581698367 C 3.37014305427,6.91585621144 4.2322106941,6.91591409319 5.08916026189,6.91585760553 C 5.14613086566,6.91592892093 5.14374481489,6.97839036418 5.17119780717,7.07703718377 C 5.1810221772,7.19717474116 5.11757750319,7.38934513761 5.11758630809,7.50470059199 C 5.07180000928,7.63102202697 5.01511497509,7.71579303427 4.30904419434,7.71586821781 C 3.91980145585,7.71589496469 3.09278957259,7.71597205592 2.17553870094,7.7161022404 C 2.05462365311,7.71608881932 1.98907848906,7.82373019587 1.9890724085,9.28537544143 C 1.98899041355,9.92058661115 1.98912812218,11.2972421898 1.98912726123,12.9314801944 C 1.98919675547,13.1612703009 2.00345313876,13.4436870618 2.02380417428,13.6768175019 C 2.08285069234,13.8406901015 2.15806693352,13.9780362649 2.2552712462,14.0998381255 C 2.3616909287,14.2151099844 2.48268864817,14.3035313366 2.57814916736,14.3965830011 C 2.67724867678,14.4763004361 2.72278035573,14.5618701009 2.75822287938,14.5617750122 C 2.79400175205,14.5769234507 2.77658825508,14.6377063489 2.48037155858,14.9597368038 C 2.17175837747,15.1484492368 1.85948743812,15.2469132489 1.26739891759,15.2468907096 C 0.411124849234,15.2467496781 -0.114008164491,15.2486257414 -0.779889440622,15.266928359 C -0.985504052128,15.267319297 -1.35442464658,15.2548995079 -1.63432659813,15.3407119872 C -1.87714344868,15.3973283121 -1.9236610555,15.3157457212 -1.92223425127,15.1630648175 C -1.92228062373,14.9905886898 -1.8768152326,14.8748337948 -1.76004084494,14.7873230228 C -1.65020361837,14.6942293668 -1.51168901022,14.6483207928 -1.33712143,14.5964020515 C -1.12034920152,14.5963999723 -0.86947861608,14.5355373901 -0.674270170889,14.5020289999 C -0.467276233397,14.4399628808 -0.379698599837,14.3446016629 -0.376363736726,14.0858460684 C -0.376386122057,12.3459962626 -0.286403515586,10.7245415469 -0.286325609289,7.7043625136 C -0.613947814308,7.70438289047 -0.663025615714,7.61582198889 -0.726466847561,7.49789881856 C -1.07887519707,7.49794746269 -1.36414049377,7.49793944758 -1.62044055571,7.49790667885 C -1.86102436294,7.50366369824 -1.91786389237,7.47434546242 -1.9178492878,7.23192912529 C -1.91787884895,7.11725396852 -1.91797202172,6.97532693486 -1.91802429865,6.79467601518 C -1.91797546112,6.62013223211 -1.74593093061,6.4612372164 -1.66870589369,6.46119223261 C -1.38721836918,6.46115590839 -1.19471080416,6.46119181778 -0.877591414387,6.34973583337 C -0.842484170581,6.34969987909 -0.74153582939,6.32148156877 -0.69816220739,6.27458420585 C -0.633789392198,6.27459721115 -0.599547067667,6.11445285228 -0.599569982173,6.03407315013 C -0.599605743876,5.67357007262 -0.190498595229,4.18594065902 0.588236267576,2.70109800098" fill="none" stroke="#000000" stroke-width="0.0153537355437"></path>
</svg>