<svg baseProfile="full" height="600px" version="1.1" viewBox="-1.65001018062 -1.55313635324 9.92007968954 18.5700875267" width="321px" xmlns="http://www.w3.org/2000/svg" xmlns:ev="http://www.w3.org/2001/xml-events" xmlns:xlink="http://www.w3.org/1999/xlink">
    <defs></defs>
    <path d="M 5.05906305345,0.000813660821223 C 5.8488178614,0.000709923164322 6.48735216888,0.0574469251496 6.81257522734,0.254095880495 C 7.25795770319,0.486650152312 7.43693069251,0.75617341529 7.43695362322,1.20830850135 C 7.43684478771,1.75040332805 7.18523483645,2.14152742754 6.71190275919,2.54572380911 C 6.22880830538,2.87905816566 5.80233582031,3.03625359963 5.42248167764,3.03616729671 C 5.29104527008,3.03600123033 5.06409076523,2.95768179998 4.85220757794,2.66722541555 C 4.61616305184,2.39406433209 4.55978945564,2.02486338719 4.29016543102,2.02480072764 C 3.72907090854,2.02480558113 3.41252735924,2.25345610634 3.17969123196,2.92135589377 C 2.94540177953,3.5396498944 2.83380880874,4.29769133584 2.83376824943,5.27141540305 C 2.83383428099,5.59695630328 2.83355725033,6.10362975852 2.83355442027,6.62477689044 C 2.83362224557,6.8233432229 2.84413122989,6.88398239196 3.00295795359,6.88404307192 C 3.86687339701,6.88402674723 4.54783238329,6.88410495279 5.46926338829,6.88408853365 C 5.51472698383,6.88412370102 5.51858016777,6.95346251445 5.53501650433,7.01664099412 C 5.53496735677,7.24688758271 5.46782019123,7.4827908607 5.28410620376,7.77425587492 C 4.48592872307,7.77425387203 4.32753598079,7.89552762061 3.56037103519,7.89558624275 C 3.3658619909,7.89562361436 3.07453296468,7.89570077004 2.99734417483,7.9998241836 C 2.99739629813,9.84051610769 2.9972741016,11.6710589105 2.99724009064,13.3847927028 C 2.99729168886,14.0351559097 3.00807820732,14.3457314545 3.23547034437,14.4681806737 C 3.4959716397,14.6166971499 3.72148201341,14.6880095402 4.08978274936,14.7461419241 C 4.22536013002,14.7460926845 4.32671434904,14.8027120455 4.40679600561,14.8328286446 C 4.46885037148,14.8763926289 4.44609485107,15.0270571223 4.4458984019,15.1903834454 C 4.44578198962,15.3739193789 4.42737600453,15.4831491894 3.800354513,15.4599010049 C 3.50920504577,15.3993793241 3.07184979565,15.4044850449 2.5339646662,15.4043676951 C 2.04970866687,15.4041362369 1.45416546114,15.4076106573 0.570831658913,15.4094489949 C 0.298683556391,15.4128615366 -0.179967490362,15.429742684 -0.548442569898,15.4338344228 C -0.769760293292,15.4363998826 -0.816647415386,15.3400877024 -0.816894294915,15.1815256084 C -0.816842554358,15.0612463783 -0.815499996638,14.8543427716 -0.815058232127,14.6520905028 C -0.796419882058,14.4637550692 -0.755343624233,14.3456690143 -0.5919133507,14.278349636 C -0.440465547918,14.2081299405 -0.195340418099,14.1413130368 -0.0105629794584,14.1044910158 C 0.210318706156,14.0792030766 0.422775886179,14.0188149846 0.538507825853,13.9525669552 C 0.669236890198,13.8731038309 0.733828916372,13.7748080826 0.736697888392,13.5459079779 C 0.736709811584,11.4465293921 0.760122907207,10.5947034991 0.760179542858,8.92695731289 C 0.760092354483,8.43319076664 0.722272249973,8.36494160808 0.657270955956,8.25839266545 C 0.240750270999,8.2583625859 -0.110355687224,8.25831933861 -0.44730819472,8.25824835294 C -0.555260014617,8.25828467972 -0.612511013531,8.25642235274 -0.612561740635,8.05739117855 C -0.612555072573,7.89364483649 -0.612731298755,7.79738519037 -0.612744662772,7.63522778893 C -0.609597133566,7.33104436541 -0.426894517709,7.1226617589 -0.153811873962,6.88258013571 C 0.0317546854722,6.82971026072 0.237252814602,6.74858531425 0.601374490093,6.74859208463 C 0.598705964302,6.7485791462 0.667845519399,6.73002792881 0.739583717798,6.71167465844 C 0.739413800366,6.58527733186 0.739347303178,6.42057840326 0.739319441099,6.38960611993 C 0.739263402685,5.02847242528 1.1610756688,3.68756210976 2.02185453699,2.54664409333 C 2.86291273163,1.47276270562 3.96983750389,0.952778639134 5.59926219509,0.95273743587" fill="none" stroke="#000000" stroke-width="0.0154621877824"></path>
</svg>