<svg baseProfile="full" height="600px" version="1.1" viewBox="-1.67964276304 -3.39548730354 10.0993477843 21.5145813215" width="282px" xmlns="http://www.w3.org/2000/svg" xmlns:ev="http://www.w3.org/2001/xml-events" xmlns:xlink="http://www.w3.org/1999/xlink">
    <defs></defs>
    <path d="M 5.27278116478,0.00423201425838 C 5.90756520762,0.00408904454343 6.58906653656,0.0570217502736 6.93951383366,0.264190731707 C 7.35889879002,0.445656580987 7.57071693374,0.765467269483 7.57062855758,1.22218899256 C 7.57043719876,1.67666517025 7.37052099991,1.86999912387 6.86362682868,2.33752189404 C 6.36593689609,2.79182220823 5.95345850873,2.93472485072 5.53798841525,2.93468720488 C 5.33672282684,2.93483419519 5.12560406912,2.84155477386 4.90147226143,2.55950765114 C 4.68201622952,2.28404964309 4.48596372295,2.03236157994 4.29634455431,1.76311762433 C 4.08024742294,1.50577901106 3.87435709525,1.38493042241 3.67136972237,1.38489067902 C 3.10513823319,1.38494441076 2.78996213365,1.69628939196 2.56064816404,2.38833156391 C 2.31574759472,3.02778420015 2.22807198602,3.76306310459 2.22805740667,4.69578108355 C 2.22819262812,5.26075908705 2.22804476198,5.77224025293 2.22800462318,6.38132468029 C 2.22803452407,6.50486082747 2.24732805957,6.55909815594 2.39111399819,6.55911202293 C 3.22601789404,6.55918391634 4.02267974783,6.5592499219 4.86327958275,6.55929056688 C 4.93200293351,6.55934859711 4.94497371726,6.61862243238 4.94595333508,6.75002656403 C 4.94589951847,6.90778117898 4.90684735242,7.07449991527 4.74610275988,7.32356638733 C 3.93452120785,7.3235671627 3.7966815776,7.42103313977 3.26666187708,7.4210526563 C 3.03425159518,7.42101008043 2.67824139659,7.42098447993 2.62742539335,7.49949954763 C 2.62745238587,9.5030538918 2.62727824675,11.363842714 2.62728975919,13.14930259 C 2.62720527445,13.4722967328 2.70454294924,14.0560702862 2.77194781546,14.5534318568 C 2.87253043,15.0208339871 2.96737508421,15.3650633277 3.32521714215,15.4126545446 C 3.55525739436,15.4126534093 3.74003840928,15.4728277254 4.29642607217,15.5184823427 C 4.43485282306,15.5702881183 4.44434569162,15.6782420616 4.44600602615,15.9041682373 C 4.44595992417,16.0848694782 4.41904681027,16.1771954488 4.34326218665,16.3187481205 C 4.0382801503,16.3017472181 3.73534085453,16.2739831063 3.39267643392,16.2739622305 C 2.66033001841,16.2013119693 2.02793957889,16.1811152614 1.00988461674,16.1532086293 C 0.708281210069,16.1554820641 0.176735928659,16.1802519812 -0.16762090623,16.1834932932 C -0.40159758329,16.1859805482 -0.691329413648,16.1583366609 -0.69272116243,15.9939247734 C -0.737452898613,15.8445000119 -0.741625883589,15.7032949246 -0.742457998074,15.4813848204 C -0.742366136628,15.3667386017 -0.728624559584,15.2654532037 -0.645563758555,15.1802864141 C -0.423784754816,15.1802604233 -0.149280629697,15.1154685874 -0.00563461298043,15.0381285731 C 0.235793851671,15.0009603721 0.389124594984,14.9021991563 0.471665941534,14.8221804348 C 0.604556315002,14.0860786286 0.66225830501,13.1156096306 0.662219336549,11.3315477219 C 0.662168982157,9.76040743262 0.662184128991,8.36714337736 0.662127950642,6.88130520254 C 0.66219201387,6.65499758691 0.601396203796,6.55754388094 0.403666243712,6.557472904 C 0.0767301775613,6.55744167272 -0.313960298141,6.55744694316 -0.678267969926,6.55737594692 C -0.780559650799,6.55738965686 -0.830488342037,6.51349846538 -0.830566300059,6.35416315015 C -0.830599502633,6.18714655455 -0.799982768456,6.1008792248 -0.799982218991,5.97740497704 C -0.80003455849,5.76866419133 -0.594445815399,5.56723717864 -0.4913754967,5.56720284495 C -0.228492429569,5.56716049944 0.0136758926362,5.51741588597 0.318657779977,5.37101033811 C 0.401066595599,5.37823403317 0.469437809572,5.32756686646 0.533271932885,5.26686038139 C 0.533157481839,5.16364695939 0.532923798511,5.10352171275 0.53287385083,5.01847118202 C 0.592985384681,2.82940691772 1.02185609243,1.21723657909 1.82920565508,-0.0172331922967 C 2.67242505453,-1.10119002995 3.70068194769,-1.59518048105 5.28946819208,-1.5951414038" fill="none" stroke="#000000" stroke-width="0.0179138895267"></path>
</svg>