<svg baseProfile="full" height="600px" version="1.1" viewBox="-4.19807018597 -2.25073028677 13.6134479453 19.6510516721" width="416px" xmlns="http://www.w3.org/2000/svg" xmlns:ev="http://www.w3.org/2001/xml-events" xmlns:xlink="http://www.w3.org/1999/xlink">
    <defs></defs>
    <path d="M 5.05659122084,0.0105957522555 C 5.80289811705,0.0105519536319 6.41672248457,0.114076064843 7.06798560236,0.1140067744 C 7.74324823235,0.129539746691 8.27436781738,0.219813574005 8.27410606673,0.549980658938 C 8.27399901616,0.976405162264 8.14949342924,1.31073426073 7.44972077327,1.77761786049 C 6.9662162097,2.19638453787 6.7943410905,2.24184020971 6.26548236924,2.24170687808 C 6.212398074,2.01422481252 6.07312240394,1.91162477447 5.7880233148,1.5578503759 C 5.543079398,1.26265274002 5.34005951079,1.01246054484 4.93353199157,1.01222788092 C 4.32298003825,1.01215308318 3.87562169823,1.28358750948 3.51529522928,1.71881591687 C 3.04996939691,2.30136697897 2.88922487887,3.25490050921 2.88919093729,4.36437457213 C 2.88921932646,4.72407370219 2.88908172188,5.33934372077 2.88904840447,5.72190206656 C 2.88908890532,5.76147829527 2.89008797917,5.82126795659 2.96028013739,5.82116928041 C 3.68404610667,5.82122080223 4.50031294141,5.82133564778 5.28267123017,5.82130225037 C 5.36916965458,5.82140831125 5.37301487315,5.87140295875 5.39242447566,5.92096368817 C 5.35101877179,6.12503982929 5.3496987686,6.20587857661 5.34962208458,6.44875139591 C 5.34953735249,6.67114399967 5.00361068027,6.88646823761 4.26498098151,6.88653657154 C 3.57015950458,6.88654191558 2.84993154781,6.88671029617 1.906718383,6.88674335111 C 1.73941076772,6.88685399084 1.70540959986,6.99853591411 1.70485055154,7.17047051875 C 1.70490071828,9.23162440745 1.70475910486,11.0128231475 1.70472206224,13.3251488635 C 1.70469030962,13.5458430776 1.71743971334,13.8356180915 1.84787611888,14.0248844752 C 1.98046039269,14.1921594271 2.25054730699,14.2564472088 2.21694484205,14.8191608915 C 2.46660859735,14.9143841022 2.483580748,15.1027082556 2.54641249255,15.2227107116 C 2.58468477652,15.3459304923 2.60642525778,15.4346322396 2.65177364499,15.4345840383 C 2.71975152046,15.4546533599 2.78090766669,15.4709563478 2.81678387747,15.471021915 C 2.86489118115,15.4813904866 2.86327005681,15.5519923597 2.8630065565,15.6499190434 C 2.61108153509,15.6501164326 2.00314235137,15.6230771879 1.85402617799,15.7142611334 C 1.53156069861,15.7751965748 0.863664845094,15.7623050317 -0.164435407058,15.7202144593 C -0.899578889743,15.7201491766 -1.4222407545,15.7205976074 -2.09210534944,15.7499586132 C -2.31052195086,15.7507734378 -2.38014179273,15.6688020681 -2.7566762547,15.6333677476 C -3.03402617379,15.6099090917 -3.056832984,15.5027768282 -3.05679855119,14.7155947951 C -3.05667081284,14.4923419175 -3.02497739898,14.2501300243 -2.92380872922,14.1525871125 C -2.81091498392,14.0655807001 -2.68474041479,14.0108634388 -2.47827636259,13.9655248081 C -2.29210581439,13.9655078712 -2.02647407906,13.9298620473 -1.91883411812,13.8630837004 C -1.79670677143,13.790541711 -1.62956625777,13.7258622299 -1.55504427659,13.6518228154 C -1.46818203288,13.6053080435 -1.42282217549,13.4956303264 -1.42563538877,13.2710901822 C -1.42563111636,11.3208129729 -1.42602144055,9.3815058793 -1.35362581782,7.16059103861 C -1.3535600224,6.84929785385 -1.4104871632,6.78028624012 -1.46848081737,6.72095350429 C -1.65771522312,6.72100170325 -1.99507983713,6.72094679308 -2.26286136298,6.72084916292 C -2.36496122866,6.72082840264 -2.41637401967,6.67171924174 -2.66243382483,6.67170213408 C -2.84601170509,6.65037861898 -2.94754537134,6.5651054351 -2.94792270253,6.45275799617 C -2.94796265695,6.32568378433 -2.8260539997,6.11744551047 -2.8260622246,6.04911704793 C -2.76608313227,5.9473154588 -2.45849020386,5.76177443996 -2.28073167408,5.76173122398 C -2.06716434265,5.7616477231 -1.88350151086,5.70171324485 -1.69211761261,5.66104640388 C -1.44660339857,5.63128611208 -1.25941238905,5.52494919063 -1.17057019079,5.47224179045 C -1.0682378521,3.70341208712 -0.780566822535,2.16126421229 -0.780598209746,2.10793060199 C -0.780548213331,0.537944854657 0.371117116602,-0.606024085124 2.65079093138,-0.606325046933" fill="none" stroke="#000000" stroke-width="0.0163622411924"></path>
</svg>