<?xml version="1.0" ?>
<svg baseProfile="full" height="600px" version="1.1" viewBox="-2.27024667255 -1.81408762307 13.842739487 14.9844139479" width="555px" xmlns="http://www.w3.org/2000/svg" xmlns:ev="http://www.w3.org/2001/xml-events" xmlns:xlink="http://www.w3.org/1999/xlink">
	<defs/>
	<path d="M 1.53231000395,4.13546852694 C 1.39141840727,4.64382265435 1.27487328143,5.18032525406 1.28595699517,5.15807966628 C 2.73149098603,3.04145984092 4.27651061264,1.41710726657 5.76907386032,-0.559949475142 C 6.76783700434,-0.559960105382 7.61962409464,-0.560030883526 8.36608792988,-0.560187871391 C 8.36596902422,2.36610097176 8.36586990571,4.75595897919 8.36589534381,7.54313654191 C 9.15728409389,7.54323019229 9.7941441665,7.54329658623 10.4137326012,7.543360911 C 10.343751965,7.98366426645 10.2596335764,8.35158406912 10.1723486687,8.79282914816 C 9.37152170191,8.79282696441 8.61039715061,8.79282571689 7.80255513439,8.7928306798 C 7.67575027594,9.92868158617 7.52442668924,10.8629535774 7.3541154022,11.9164265732 C 6.68587968299,11.9164133129 6.07942441652,11.9163452517 5.46061370322,11.9163387723 C 5.65764192292,10.8143714376 5.84115374634,9.90362557845 6.02441928336,8.80592307525 C 3.59945008704,8.8059410651 1.24769446799,8.80590888917 -1.11148645928,8.80589501549 C -1.08508822521,8.53873853375 -1.07105857613,8.33625251044 -1.02248411359,8.07733544697" fill="none" stroke="#000000" stroke-width="0.0124766144446"/>
	<path d="M 6.18260764798,5.69042198395 C 6.4396568807,4.0158194754 6.72189035734,2.62606124615 6.99815073331,0.932908460848 C 5.19580641111,2.81896011566 3.35937586149,4.6160421822 1.48014858087,6.51844613289 C 2.9137542518,6.51831817279 4.41662516912,6.5183645816 6.00400319418,6.51846086333 C 6.18501576503,5.2766426737 6.37420570572,4.20210599253 6.58814029118,3.00008236716" fill="none" stroke="#000000" stroke-width="0.0124766144446"/>
</svg>
