<?xml version="1.0" ?>
<svg baseProfile="full" height="600px" version="1.1" viewBox="-2.1484903418 -0.0780175402568 9.99545740021 15.4094108795" width="390px" xmlns="http://www.w3.org/2000/svg" xmlns:ev="http://www.w3.org/2001/xml-events" xmlns:xlink="http://www.w3.org/1999/xlink">
	<defs/>
	<path d="M 2.00012732522,1.21144606789 C 2.77101589219,1.21149526903 3.30115253703,1.29478702316 4.03159214036,1.29483631364 C 4.63133002298,1.29487280853 5.05605391638,1.35615474663 5.6703222193,1.30233669586 C 5.68110716754,1.50594836779 6.09381947333,1.48446505822 6.5844692927,1.38483663209 C 6.11125895792,1.64198257334 5.61274245793,1.88059261746 5.493954983,2.20740962334 C 5.06666314268,2.25035670705 4.55680071974,2.36735339768 4.07256057525,2.64335652001 C 3.5814773705,2.91627250917 3.11532416606,3.2473018647 2.69926890397,3.73029707677 C 2.28525346184,4.21613394029 1.94069361353,4.74062352188 1.67982750797,5.41702811725 C 1.42193141246,6.09464298494 1.78584625983,5.98286406256 1.73824200446,6.74365393378 C 1.99987286741,6.55441396989 2.35776424819,6.42241566933 2.66365257317,6.35738558627 C 2.97625449711,6.29470764406 3.34069499785,6.25060551919 3.76573932582,6.25074992193 C 4.41465354377,6.25074905789 4.92827260906,6.38009192681 5.35947937185,6.61012395358 C 5.78212017232,6.84369877613 6.10230672771,7.14751414096 6.35606640989,7.51728979385 C 6.60429278428,7.89130569136 6.76543130392,8.30109570062 6.86629681701,8.77411297596 C 6.96354658568,9.2513265971 7.00859335849,9.70513290799 7.0086662394,10.1610438291 C 7.00867775176,10.8074308101 6.88356484567,11.3567208115 6.64008325432,11.8643901411 C 6.39723159467,12.3778355781 6.05939932261,12.7824816469 5.6382298926,13.1127286915 C 5.21813054477,13.4470086161 4.72079946194,13.6784552846 4.15940471087,13.8237093452 C 3.60083259736,13.9709300909 3.02021075879,14.0419519532 2.43878580724,14.0419297259 C 1.80703260098,14.0419176285 1.24149699603,13.9247536872 0.740598098381,13.6823330734 C 0.246632264002,13.437691978 -0.162642463104,13.1112074767 -0.473658814089,12.6549574946 C -0.782833202736,12.1945199881 -1.00308811571,11.6768606816 -1.12556555028,11.0247467671 C -1.24796169902,10.3653606687 -1.31023456808,9.69396512848 -1.31018949915,8.90109895808 C -1.31019045927,7.96812444073 -1.18534300991,7.13415240389 -0.925679040627,6.27159791333 C -0.669937772231,5.40242605549 -0.299519164042,4.68984954697 0.189286100192,4.00849353415 C 0.673782127424,3.32156120879 1.26910616688,2.79878400904 1.97270961337,2.34209366781 C 2.6661207252,1.88443403584 3.43574388556,1.57561033112 4.30005879931,1.3541574989" fill="none" stroke="#000000" stroke-width="0.0128304836632"/>
	<path d="M 2.87954041611,7.21026181967 C 2.62945372116,7.21025149699 2.371690544,7.25076195028 2.13322311889,7.43276190188 C 1.89351065706,7.61283933547 1.67029702913,7.80397413101 1.48379490029,8.06789914694 C 1.29703948151,8.33172152367 1.13709089409,8.58421123948 1.02679129939,8.89314101067 C 0.916397298387,9.20420021739 0.856950401029,9.49166426983 0.857002358428,9.8179757091 C 0.856979317945,10.4111755582 0.939752005023,10.8443575891 1.12303590028,11.2878382 C 1.30363927035,11.7330575379 1.54244906454,12.0377206894 1.84635905175,12.3193177673 C 2.14645612983,12.6027606818 2.48591402916,12.7657277229 2.90213323383,12.7657302312 C 3.28192854671,12.765726092 3.64784530548,12.6632481765 3.97313714771,12.3779274772 C 4.29782793669,12.0934895526 4.57440642266,11.7780854653 4.78819497673,11.3238068174 C 5.00167331843,10.8675454806 5.15663928537,10.4300373148 5.24711924045,9.88504117239 C 5.33752553908,9.33835005272 5.38330119474,8.87808507193 5.38334960388,8.4446617018 C 5.38330650518,7.77888616431 5.25328690002,7.28264396895 4.99217900822,6.88496139157 C 4.73320198248,6.48206689466 4.38317826579,6.21478336561 3.94765034506,6.03435697663 C 3.51698252747,5.85350676883 3.05687502215,5.77006885666 2.5987163801,5.77007978313" fill="none" stroke="#000000" stroke-width="0.0128304836632"/>
</svg>
