<?xml version="1.0" ?>
<svg baseProfile="full" height="600px" version="1.1" viewBox="-1.44521474271 -2.04864426382 9.89396036635 16.0820420207" width="370px" xmlns="http://www.w3.org/2000/svg" xmlns:ev="http://www.w3.org/2001/xml-events" xmlns:xlink="http://www.w3.org/1999/xlink">
	<defs/>
	<path d="M 2.3579888407,-0.000165266329986 C 3.30151725448,-0.000225012528517 3.97203958667,0.273879999888 4.83080131448,0.273927817067 C 5.5968064729,0.27402875746 6.07907850183,0.491594100244 6.54720053709,0.771732592828 C 7.00665021575,1.06841876531 7.19377688206,1.52227070356 7.19388866218,2.24422862554 C 7.19377816931,2.94594242597 7.0427496703,3.49934759165 6.64737823323,3.97061320568 C 6.26511102632,4.44028570677 5.84415727571,4.76897179509 5.17974245265,5.00168431724 C 5.68999778941,5.13221740151 6.060608861,5.33780720258 6.39792871192,5.59294136787 C 6.73091745094,5.85290556575 6.94378536657,6.15481084014 7.14679571703,6.49952807451 C 7.34208556727,6.84576782013 7.44836357698,7.21002166892 7.52089871183,7.62022080446 C 7.59068772659,8.03023853327 7.61865711302,8.42707344318 7.61866953356,8.83118169928 C 7.61865324741,9.44965439463 7.53149181818,9.98085915471 7.30044064139,10.4718185904 C 7.0783734641,10.9640048983 6.82328286981,11.3596116843 6.40369388675,11.6940087619 C 5.9994721732,12.0290646496 5.59939184999,12.269767532 5.01166025018,12.4382968041 C 4.44417867278,12.6071539762 3.93295595263,12.6877103838 3.24069729661,12.6876481596 C 2.60000875806,12.6876363592 2.12441373085,12.6047434868 1.59257471775,12.4253082933 C 1.07900786613,12.246862522 0.724428566446,11.996942869 0.361544730416,11.6531751665 C 0.0109726509954,11.3099748107 -0.198377249489,10.9042875083 -0.375672114739,10.4018632682 C -0.54664049829,9.89840935787 -0.615108204732,9.35660772642 -0.615138650493,8.75769644102 C -0.615151260904,8.40096973499 -0.559748587123,8.01525311788 -0.433664244524,7.66196407994 C -0.310885620228,7.30405735096 -0.164504033438,6.96902041753 0.0655404954041,6.67446266731 C 0.288363757619,6.3789645048 0.51374694992,6.12027438601 0.835967364796,5.90454710146 C 1.14684480716,5.68881159147 1.43268513966,5.51879172643 1.79357987929,5.39480912556 C 1.49482414413,5.26570464542 1.24656614948,5.10291471948 1.06280054439,4.90874828269 C 0.878689888009,4.71521679928 0.744133475312,4.50113233795 0.634114275762,4.25603231659 C 0.525449010619,4.01223386695 0.461784358212,3.75684414675 0.430464166292,3.47124032547 C 0.399331889191,3.18788064887 0.38584288031,2.91387407353 0.385858083929,2.63045130541 C 0.385877509846,2.24207402637 0.441598394199,1.86547992995 0.602653437539,1.49601937702 C 0.757024997159,1.12807141115 0.940016933961,0.80837212374 1.24361298351,0.526185108922 C 1.53604418902,0.245233966611 1.83478848009,0.0238239007217 2.27586961655,-0.144911245801 C 2.70152733593,-0.31310533116 3.1050102797,-0.396516927876 3.64714283614,-0.396515203486" fill="none" stroke="#000000" stroke-width="0.0133905428981"/>
	<path d="M 2.96795039089,6.72810772881 C 3.04335329146,6.72806656133 2.82455995889,6.91759718727 2.60282626958,7.16203950118 C 2.36811432452,7.41124082874 2.06956362934,7.74424008797 1.81168762059,8.07155398797 C 1.55046701641,8.40317071747 1.3154593131,8.78249524306 1.13922530622,9.14900429319 C 0.963033112,9.52033535908 0.875287698816,9.92475066851 0.875285689245,10.2734726198 C 0.875247989235,10.6320151515 0.959428761539,10.9913697667 1.15384596997,11.2803219087 C 1.34180474692,11.5715425737 1.58051455432,11.8341896958 1.91414335781,12.0221504248 C 2.24030518943,12.2129107393 2.59183177763,12.360928563 3.03160649949,12.4376436971 C 3.46146813446,12.5158125735 3.86463588887,12.5589090861 4.28076321298,12.558859116 C 4.72751236373,12.5588350162 5.09135497027,12.4960600749 5.43856320196,12.3603032843 C 5.77801433617,12.2251242116 6.04084825927,12.025599958 6.26824134999,11.7579859808 C 6.4909259122,11.4914256648 6.64631240481,11.163791956 6.7552702319,10.776982905 C 6.86276847535,10.3916948155 6.91378366613,9.95622548613 6.91378973709,9.51038694534 C 6.91373726756,9.20286649618 6.87705399871,8.85836652074 6.7626805383,8.53403222713 C 6.65368972004,8.20809492621 6.51752036095,7.89089685831 6.29865255237,7.61939495954 C 6.08740393102,7.3479036108 5.85965289951,7.10623866472 5.53843130946,6.91910581443 C 5.22709282518,6.73220093701 4.90884652019,6.63375060413 4.45636256814,6.63373825413 C 4.07999058843,6.6337012091 3.76503520489,6.71565392998 3.45128082514,6.8578640708 C 3.14350920201,6.99954176333 2.90939905524,7.19489676145 2.67854847789,7.41355418053 C 2.45412946522,7.63237165299 2.29680807173,7.89063822117 2.15859190405,8.15431912628 C 2.02447604418,8.41869907465 1.96496452421,8.70499606815 1.96497570257,8.99189703551" fill="none" stroke="#000000" stroke-width="0.0133905428981"/>
	<path d="M 3.50336176958,3.82394370194 C 3.61359672304,3.82405424834 3.85351957436,3.75136688323 4.13914562817,3.60864199669 C 4.42547963615,3.46778199048 4.72341047283,3.27662120731 5.03525699731,3.04630921752 C 5.34117613788,2.81618638308 5.61366652008,2.54559497506 5.86310894843,2.24623753101 C 6.10751257892,1.94689552457 6.23015725668,1.60699225933 6.2301499887,1.23442582757 C 6.2301036823,0.952072903224 6.139813419,0.657375946351 5.9697016287,0.417100429245 C 5.80161533834,0.173549294182 5.5920003015,-0.0486250224627 5.32037457408,-0.212239265732 C 5.05535766067,-0.376825094513 4.77124580325,-0.508304417423 4.42874157013,-0.584756590716 C 4.09637319626,-0.661354527167 3.79095753612,-0.702915426633 3.48335387887,-0.702894694805 C 3.08317687692,-0.702898213184 2.76095601501,-0.642652054793 2.44384294333,-0.519275923735 C 2.13553854408,-0.396342461473 1.90160968484,-0.222817202574 1.69359327437,-0.00321341074107 C 1.49134876909,0.21562861883 1.35899145486,0.481502915257 1.2643032554,0.783380831116 C 1.17248998167,1.08397972071 1.13137086065,1.41889517986 1.13138760327,1.74804773414 C 1.13137830239,2.05989461624 1.17169150155,2.35733958566 1.30754330199,2.61847587907 C 1.43633813601,2.87945547187 1.59217620831,3.11030132555 1.83051350157,3.29711093985 C 2.06141986888,3.48409765446 2.30537630062,3.63445792579 2.63233856302,3.73873265319 C 2.95028824549,3.84336744481 3.25941021185,3.89682306954 3.63342768889,3.89681391983" fill="none" stroke="#000000" stroke-width="0.0133905428981"/>
</svg>
