<?xml version="1.0" ?>
<svg baseProfile="full" height="600px" version="1.1" viewBox="-0.045918666437 0.318140067555 8.82690253067 11.6796326803" width="454px" xmlns="http://www.w3.org/2000/svg" xmlns:ev="http://www.w3.org/2001/xml-events" xmlns:xlink="http://www.w3.org/1999/xlink">
	<defs/>
	<path d="M 1.84330718008,3.23150992803 C 1.84331456748,3.5088443499 1.84327722692,3.89540249519 1.84334966336,4.27125612311 C 2.0217903385,3.79685247354 1.97998857293,3.7967166477 2.12762911413,3.79679002451 C 2.85144914482,3.12764593052 2.98490766976,2.64938529419 2.98511003245,2.19434892225 C 2.98521512778,1.61647366571 3.10491493375,1.29552008795 3.60845497282,1.29549486455 C 4.34684905441,1.29546992638 4.94915977151,1.31631126225 5.55275484951,1.4757944566 C 6.18301561506,1.63716731191 6.77201125057,2.00513652683 7.18083626063,2.34362501622 C 7.62348476083,2.7054739368 8.04128837616,3.49178866268 8.04135660204,4.18078467965 C 8.04134584822,5.06187484384 7.6541431383,6.0592783463 7.15888114132,6.62580714345 C 6.61333079494,7.23844573617 5.84965802588,7.94343427539 5.10354073204,8.28911361814 C 5.10362670287,8.97588703752 4.2676766859,9.48739264131 4.26792409919,10.3301047456 C 5.35090723537,10.3299743363 6.41280606292,10.3298974724 7.42021658919,10.3297004115 C 7.42038047499,10.666157515 7.42041468817,10.8894830656 7.4204618603,11.0203249168 C 5.30860945284,11.0203499793 3.23488184511,11.0204583031 1.16678186953,11.0204019264 C 1.16661090465,10.5166820006 1.16651809662,10.1041234152 1.16662564329,9.62548703114 C 2.43761780313,8.43342846791 3.69732322744,7.1692226545 5.01940991929,6.08844155232 C 5.50325849107,5.67075452368 5.76045348695,5.08053615848 5.76053647611,4.6127321736 C 5.76049516225,4.19809389274 5.51075520241,3.6957322375 5.16059809053,3.41065457622 C 4.78300725543,3.10079974095 4.28877141201,2.90222896795 3.78984340155,2.90218155915 C 2.94832714522,2.902180576 2.4137982341,3.46785809961 2.23072985434,4.39327713218 C 1.65319732451,4.37322831643 1.14289591336,4.26314764959 0.693708604812,4.10604588431 C 0.693629797853,3.65425751847 1.20797592059,3.01966337603 1.20801747256,2.53521300596 C 1.20798106627,2.12928290409 1.63113625483,1.70064897579 2.58471520381,1.70066382475" fill="none" stroke="#000000" stroke-width="0.00972492313099"/>
</svg>
