<?xml version="1.0" ?>
<svg baseProfile="full" height="600px" version="1.1" viewBox="-1.28637776129 -0.906378184012 9.28302471745 13.6911362874" width="407px" xmlns="http://www.w3.org/2000/svg" xmlns:ev="http://www.w3.org/2001/xml-events" xmlns:xlink="http://www.w3.org/1999/xlink">
	<defs/>
	<path d="M 5.21664360258,0.739929225118 C 5.83898851368,1.31264391151 6.27232530806,1.98050227371 6.27226420051,3.00415816513 C 6.2722350401,3.71198311058 6.13030575636,4.38334658352 5.78632162931,5.25830438343 C 5.45496945503,6.11554970947 4.8324483526,6.99368318525 4.05358247879,8.0434256455 C 3.26460282925,9.11011692491 2.15786497715,10.1609429976 0.495526720313,11.6369902751 C 0.796776015786,11.6592644414 0.508305181293,11.4994102081 0.348965380816,11.35194635 C 0.133952904967,11.190174829 0.988377262382,10.5619893184 1.86353742006,9.46973539499 C 2.77110337141,8.41560948995 3.59109436396,7.86395676044 4.10947524431,7.17277104762 C 3.70261700871,7.37025677767 3.31211735728,7.47995925304 3.01046865108,7.59838938323 C 2.70537268045,7.7137876412 2.25856464031,7.6598633377 2.05729912641,7.65975699551 C 1.72447155836,7.65984314194 1.28112222674,7.55034019312 0.997785140304,7.35510677359 C 0.70420666459,7.15888817868 0.364175994424,6.91226098201 0.162620205907,6.56071457526 C -0.0439744996747,6.21261406204 -0.253557051989,5.85278234145 -0.344925034316,5.37800020239 C -0.439621503921,4.90886071584 -0.508001420172,4.4915434446 -0.508042459658,3.99991709253 C -0.508043278988,3.4300237324 -0.389000651474,2.94520899913 -0.204529699917,2.45640793702 C -0.018023428555,1.96856960914 0.319800498847,1.59436586759 0.653100076084,1.25204465053 C 0.991158935194,0.912135335417 1.50646892465,0.677882346125 1.97518518842,0.497744994969 C 2.44874218381,0.31969635448 3.10264852918,0.239324266822 3.63949242509,0.239299748446 C 4.19967815555,0.239359693576 4.81496623433,0.331083023895 5.23037344492,0.534706095208 C 5.64958817041,0.735483640779 6.08750111139,0.984060326566 6.35740605271,1.34847913121 C 6.63083237684,1.70658818816 6.88644522703,2.08406073784 7.010325822,2.58566934799 C 7.13649413264,3.0799320135 7.21832113243,3.55051306819 7.2183116537,4.13923714494" fill="none" stroke="#000000" stroke-width="0.0113997804225"/>
	<path d="M 4.23730841477,4.41523320633 C 4.12040124287,4.41527221626 4.26760970999,4.26202642447 4.2089349312,3.98321425444 C 4.19013663766,3.70724752075 4.24721195188,3.39711907035 4.21827721794,3.03325959569 C 4.21826466398,2.84596994048 4.15111071097,2.61473583704 4.05506205039,2.36638767547 C 3.95763176905,2.11783645576 3.77887895929,1.8808196885 3.60388355182,1.65191046423 C 3.42715773212,1.42439193553 3.1457420014,1.2430742932 2.88447404133,1.08871227032 C 2.62106406914,0.935552786053 2.23554074989,0.863665278019 1.91544300543,0.863653814952 C 1.61302575694,0.863710052255 1.23559236752,0.930951586845 0.98321542369,1.06189597297 C 0.724809350835,1.19122102011 0.429101856815,1.35611671853 0.240571828949,1.56941378761 C 0.0493913166396,1.77949844945 -0.153063339723,2.01009569216 -0.265189809335,2.28699836779 C -0.379359637929,2.5595723455 -0.454885458184,2.83729804206 -0.454854749536,3.18825549531 C -0.454826199366,3.49872384119 -0.408410389824,3.7751552825 -0.32312666337,4.09762275863 C -0.238442604346,4.41343466091 -0.0900877759883,4.67624363947 0.0672655208876,4.95037159968 C 0.226014892655,5.21953547645 0.470583508806,5.42635875094 0.698117013173,5.62143824148 C 0.928325424986,5.81281449545 1.2789051636,5.89932229269 1.61778996428,5.8992976609 C 1.98168794354,5.89934292582 2.39674217542,5.81787210849 2.68704740246,5.62504646328 C 2.98078600605,5.4353510603 3.29529644092,5.21600230184 3.49411245723,4.91010211554 C 3.69509683092,4.6093472704 3.89352696677,4.31271387783 3.99852183749,3.93819426146 C 4.10527526875,3.57038061467 4.17454873313,3.24015598145 4.17452552616,2.8749389216" fill="none" stroke="#000000" stroke-width="0.0113997804225"/>
</svg>
