<?xml version="1.0" ?>
<svg baseProfile="full" height="600px" version="1.1" viewBox="-0.400323018002 -1.45178366597 4.71912846203 12.3144466378" width="230px" xmlns="http://www.w3.org/2000/svg" xmlns:ev="http://www.w3.org/2001/xml-events" xmlns:xlink="http://www.w3.org/1999/xlink">
	<defs/>
	<path d="M 1.06395005554,5.86095772603 C 1.06391371236,5.75127109805 1.06388632266,5.60206958571 1.06392037102,5.56663945237 C 1.06390166146,3.63803234616 1.0638777153,1.57893577137 1.06397024824,-0.0131665178253 C 0.595900694865,0.0848117537187 0.279359440345,0.0848053748539 -0.00279002354728,0.0847644766234 C -0.00276928571839,0.188717659321 -0.00274492661811,0.428218763079 -0.00275117278807,0.388151235636 C 0.777523516409,0.118765748795 1.44125199198,-0.11126752967 2.10398542761,-0.421196602527 C 2.37718769788,-0.421220314827 2.61675037324,-0.421272048072 2.85068635523,-0.421307490204 C 2.85064168855,2.97786982265 2.85068834369,6.55547101703 2.85073439393,9.40711028781 C 2.85075520762,9.83231033292 3.36594980248,9.83219918688 3.92127244957,9.83218481884 C 3.81886088886,9.83220157091 3.71547798105,9.83210834635 3.53891179748,9.83203847131 C 2.52183733173,9.83201501635 1.46673248001,9.83192093684 0.450970866164,9.83183253388 C 0.450848679131,9.47955334763 0.45078001586,9.11041397433 0.450766953872,8.80825505237 C 1.02750483458,8.808302931 1.60649404232,8.80819542063 2.04351035063,8.80822363726" fill="none" stroke="#000000" stroke-width="0.0102534942862"/>
</svg>
