<?xml version="1.0" ?>
<svg baseProfile="full" height="600px" version="1.1" viewBox="-1.90855271855 -1.5213640088 10.7769052865 16.5472786993" width="391px" xmlns="http://www.w3.org/2000/svg" xmlns:ev="http://www.w3.org/2001/xml-events" xmlns:xlink="http://www.w3.org/1999/xlink">
	<defs/>
	<path d="M 1.55311849417,2.22445585669 C 2.11571725907,2.22446894855 2.54228350224,2.22858431679 3.10668256583,2.22859680895 C 3.58565053048,2.22865281983 3.95512103738,2.16289707257 4.42112150492,2.06011017395 C 4.8699768454,1.95832415654 5.21011021437,1.79999967648 5.6053155333,1.60474248959 C 5.98414647283,1.41189815833 6.26258140506,1.17314905657 6.54971509876,0.89215702547 C 6.82587668004,0.617916561498 6.94715008589,0.339966721667 6.94721869907,0.168104089631 C 6.94714711428,0.112213834955 6.85416835368,-0.0719155223833 6.43379589737,-0.0719195367942 C 6.03899460853,-0.0869414393032 5.65452787102,-0.136624931934 5.00425538243,-0.136683318307 C 4.12789591969,-0.136654049758 3.49770644129,0.021410494443 3.01178696574,0.179588183161 C 2.52768301786,0.342469632026 2.22104468764,0.642261444922 1.96693607987,0.927837222215 C 1.72088645221,1.21811342179 1.58863048077,1.62320893943 1.50687245101,2.00726005375 C 1.42770976395,2.39333489477 1.47107261614,2.34691576972 1.55534787671,2.34691870832 C 1.7939396371,2.34690326003 2.01839152173,2.1514017686 2.25715726808,2.07647490052 C 2.48933865324,1.98793406335 2.7055575271,1.80346081702 2.96355128483,1.67965648619 C 3.2124153097,1.55233187524 3.43948945598,1.38466479925 3.72341081695,1.25950662343 C 3.99778336481,1.13369181303 4.25728795127,1.05585538892 4.63640287713,1.05582583546 C 5.16486892299,1.05585594528 5.56111210779,1.14580805652 5.99657896356,1.27878373914 C 6.41627738074,1.4117741143 6.71364695028,1.63432237558 7.02823209957,1.85592827253 C 7.3307473977,2.07807402365 7.52688949005,2.39284639113 7.71269139842,2.68028505199 C 7.89095919029,2.96803782933 7.96452116416,3.35229249351 7.96453632853,3.69385556929 C 7.96450253352,4.01470793836 7.91081784069,4.40855272167 7.79277947693,4.69832702033 C 7.67869307994,4.9895705735 7.53596974312,5.32144747727 7.31454394161,5.55277793162 C 7.10047152042,5.78551553242 6.88426647484,6.04048867576 6.57482332885,6.20236741059 C 6.27749098241,6.36550247722 6.00656304657,6.53589694254 5.65661946832,6.61116278969 C 6.06708295047,6.73638301395 6.36155638992,6.93494781159 6.70029408633,7.17512885534 C 7.02448020279,7.41274767421 7.23720964193,7.72682472371 7.44939711093,8.04699575208 C 7.65222279131,8.36459156178 7.76073801666,8.76233192586 7.83556094914,9.14692213439 C 7.90568710267,9.52609240316 7.9329206027,9.95052307151 7.93293454058,10.2661032011 C 7.93291945219,10.7027420928 7.83739316672,11.2012268534 7.59078547567,11.6001357963 C 7.35336585551,11.9961823156 7.0807943514,12.3980320921 6.62866224557,12.6875921717 C 6.19518064171,12.9742011359 5.76772533565,13.2332240572 5.12525700241,13.392051362 C 4.50851045757,13.5498633017 3.95187775999,13.6412781333 3.16724990517,13.6412339841 C 2.32577447801,13.6412651768 1.73633192688,13.512425535 1.12472646147,13.2854595265 C 0.533374117907,13.0621243647 0.161187278327,12.7144142023 -0.195468527976,12.3247855535 C -0.538623137179,11.9384205869 -0.714389992658,11.4292502335 -0.841435966793,10.9269186786 C -0.961222713593,10.4310066632 -1.00476353407,9.86728327782 -1.00473646651,9.49042769582 C -1.004757106,9.3611631474 -0.964351620223,9.06984014125 -0.869462672319,8.86664568694 C -0.777580145445,8.65539632053 -0.665451649274,8.36676261635 -0.495235133614,8.15199995847 C -0.331571150269,7.93571645827 -0.16762698039,7.6805131218 0.0608996714691,7.49270715625 C 0.280138593469,7.30500345738 0.480499800597,7.11063415618 0.814416047488,7.11064057944 C 0.957553621683,7.11066301923 1.16284720257,7.15112678345 1.22621643946,7.23396087077 C 1.30380695716,7.31542282935 1.38693944022,7.44363350805 1.38698817093,7.67946861323 C 1.3869675014,7.89502444502 1.37453473153,8.14576926466 1.39432238022,8.34785781439 C 1.40972447282,8.5489412361 1.41764759159,8.77685063716 1.45887684709,8.95496056613 C 1.49565924591,9.13210563 1.52869720271,9.32688712712 1.60135274639,9.46566663321 C 1.66894007733,9.604275521 1.7330757778,9.75475301977 1.8490230765,9.85481866088 C 1.95818360409,9.95535742875 2.06059409937,10.0643530675 2.22985223195,10.1300775 C 2.3902080383,10.1965579652 2.53742343446,10.2653183975 2.87867442032,10.2653108214 C 3.19896942636,10.2681400287 3.48899522683,10.2797242799 3.98136493823,10.2796878059 C 4.43861982485,10.2797088714 4.7803941395,10.1990103589 5.1706111755,10.0578017251 C 5.5465299215,9.91884923145 5.80062940976,9.71031963989 6.05830359718,9.48232317134 C 6.30485771855,9.25661590859 6.45297919473,8.96098268196 6.56886213532,8.67149129673 C 6.67988088986,8.38529834315 6.72622287905,8.04189083144 6.72626773416,7.76104134485 C 6.72624013724,7.4189756231 6.6206483707,7.02233028575 6.3621583149,6.74057790801 C 6.11319498869,6.45752796694 5.83333544584,6.16148758098 5.40397168847,5.9721732454 C 4.99193944188,5.78368574544 4.59797294589,5.60186983808 4.05199237319,5.49785138085 C 3.52695240231,5.39447494015 3.09099583479,5.33028573706 2.54962949606,5.33025267454 C 2.2473191783,5.33026549975 2.24729479864,5.0910635517 2.24734825552,4.953681253 C 2.24734964775,4.86144147823 2.24732279085,4.66790060709 2.52655299805,4.56942145536 C 2.78057231806,4.46338880072 2.98884209298,4.27429130683 3.36900904082,4.15732121477 C 3.72657754324,4.0370195062 3.9972875347,3.84754097472 4.40197210811,3.71579794596 C 4.78551071189,3.58099749694 5.05430191062,3.38508465896 5.39862229727,3.22570668171 C 5.72677507304,3.06528626392 5.9379675319,2.8430750818 6.16594327293,2.64752525101 C 6.38363496266,2.45227901647 6.46896386199,2.18202485154 6.46900622192,1.90426160405 C 6.46896842869,1.65318591903 6.3837952763,1.37048657248 6.16184100511,1.16322304318 C 5.9481328279,0.95670865486 5.73451782765,0.748068675497 5.3951123506,0.613947659829 C 5.07083664836,0.480372861126 4.79538141193,0.364153348008 4.38810460271,0.30485665808 C 4.00155527892,0.246138479659 3.73058293762,0.210381280729 3.321776405,0.210386738496 C 2.72598131003,0.210378073604 2.41800327601,0.27474837795 2.01091761889,0.404450946004 C 1.63633270564,0.531634636671 1.45212480428,0.73210763231 1.21652512254,0.955289744289 C 0.998880729098,1.17534387902 0.916186936219,1.47392610505 0.813949741442,1.75854722455 C 0.722252376396,2.04033152059 0.699443604816,2.38473466829 0.699428877823,2.63707891896" fill="none" stroke="#000000" stroke-width="0.0137779173184"/>
</svg>
