<?xml version="1.0" ?>
<svg baseProfile="full" height="600px" version="1.1" viewBox="-2.61620386914 -0.998798157143 9.66921740064 13.433620044" width="432px" xmlns="http://www.w3.org/2000/svg" xmlns:ev="http://www.w3.org/2001/xml-events" xmlns:xlink="http://www.w3.org/1999/xlink">
	<defs/>
	<path d="M 1.74710420879,1.7194631442 C 2.12563375743,1.71944619819 2.42514209064,1.77002755284 2.78213281544,1.77003277582 C 3.26839275273,1.77007859139 3.69683675083,1.74184184274 4.07363013538,1.74198447218 C 4.58466694864,1.74200194573 4.92036212595,1.70051177835 5.19670997175,1.69146272691 C 5.46331254753,1.68168240564 5.61655431601,1.63351257296 5.74723077925,1.59741958382 C 5.87026198568,1.56135542842 5.92288825276,1.49669005873 5.96748930948,1.43441931682 C 6.00819941597,1.3735686891 6.01712604041,1.50373979436 5.89220328057,1.50372797309 C 5.58118102873,1.50379956898 5.47094078536,1.63050740597 5.04722120041,1.63050778066 C 4.66541131014,1.64374088259 4.42492918844,1.7386561683 3.97514225716,1.75545657748 C 3.54807414288,1.7805330711 3.25694020266,1.85845227861 2.81795461649,1.93525033021 C 2.394915806,2.01339059645 2.10419129009,2.12648941153 1.73764090414,2.26574420506 C 1.38523324007,2.40255614692 1.14723897154,2.57033425146 0.888815941162,2.76936694556 C 0.641023160762,2.96465669149 0.476716415829,3.17856467837 0.378354342527,3.79205019349 C 0.672887028999,3.65405572527 0.927187116689,3.59128313833 1.23849532182,3.56074013324 C 1.54063394839,3.5344055234 1.81009012634,3.52309133714 2.23166269237,3.52311573225 C 2.8316522854,3.52312692632 3.29130166943,3.59880415727 3.8164185899,3.76202819873 C 4.32665199215,3.92109758784 4.6797499674,4.13982872297 5.07451784784,4.43068466712 C 5.45503139669,4.7141621523 5.69064243311,5.0521656983 5.92706684942,5.46712039043 C 6.15393808658,5.87135846545 6.24255119438,6.32205845047 6.24258484718,6.87423391272 C 6.24254540446,7.59419442345 6.08701249304,8.25459827114 5.75555666628,8.83307225634 C 5.43265505972,9.4030929916 5.05890109482,9.87851248313 4.49507048073,10.2549976819 C 3.94671114626,10.6235461049 3.41470941248,10.8961306327 2.68459864797,11.0628553294 C 1.97713383379,11.2271305286 1.38813807907,11.3107095026 0.71148421707,11.3106929798 C 0.241199755095,11.3106586526 -0.0621988838684,11.2564553956 -0.427741146661,11.1493956189 C -0.77356103716,11.0449674989 -1.00049341378,10.8928351517 -1.23052788434,10.6919918026 C -1.45168594179,10.4954516555 -1.57286649851,10.2527601386 -1.67348132936,9.96673130644 C -1.76960752068,9.68609651578 -1.80581386296,9.3846302892 -1.8057751237,9.0914729501 C -1.80582597781,8.90380908203 -1.77414223109,8.69059273255 -1.72324834693,8.53704237593 C -1.67277724225,8.3818135078 -1.60699346591,8.22961035025 -1.51786095578,8.12100716335 C -1.43091747094,8.01283927661 -1.33917616237,7.91723063988 -1.21824264456,7.8588783632 C -1.1010332622,7.8005128133 -0.989836565444,7.76544163403 -0.828516966889,7.76544894975 C -0.658510647008,7.76542640138 -0.540698706398,7.81845288384 -0.463174670229,7.89407293904 C -0.386627308319,7.96920657563 -0.341891135315,8.08053966272 -0.303191188017,8.20352090555 C -0.266516934375,8.32452920484 -0.244855751509,8.47263445365 -0.216842481161,8.62419791925 C -0.190588033984,8.7732211988 -0.166629343519,8.93722433257 -0.0719294615483,9.12680970538 C 0.0159968219305,9.31150827217 0.10153778713,9.49055822599 0.259294190218,9.66635232079 C 0.409550630262,9.83746445584 0.555268474629,9.98942675102 0.788370200207,10.1219477992 C 1.01207663934,10.2513174455 1.21926812153,10.3555076535 1.51948878985,10.4279906716 C 1.80825836282,10.4989839386 2.06350184303,10.5357510786 2.44532055478,10.535694845 C 2.90573579889,10.5356962717 3.2440577231,10.4410245007 3.63416836481,10.2587214148 C 4.01048556786,10.0801336801 4.26651261072,9.83303554713 4.5322682045,9.51925625264 C 4.78817574005,9.21307085811 4.94699751656,8.84503229319 5.08233908634,8.42159472763 C 5.2133313499,8.00871952235 5.26667384874,7.56002568065 5.26670258698,7.11549587905 C 5.26661839159,6.77391262709 5.21740781711,6.42282422244 5.03560053752,6.09994526564 C 4.86411062823,5.78286628782 4.68988438891,5.49325828611 4.38485690401,5.2563205248 C 4.09369763182,5.02421963572 3.83326708721,4.8326347357 3.42661836193,4.69462138771 C 3.03699182914,4.55980334043 2.72634931849,4.48904659956 2.25754641937,4.48904436134 C 1.92190977381,4.48902112734 1.66708552287,4.5308395226 1.36313855098,4.59400979918 C 1.0684953575,4.6569675405 0.857583576902,4.74747142684 0.601188654169,4.84440742922 C 0.354911545381,4.9403105874 0.180944243535,5.05091866594 -0.0155750270042,5.15823905659 C -0.204173838631,5.26411545765 -0.324187612072,5.32002862286 -0.438710993067,5.32001417017 C -0.57934822692,5.31996092338 -0.65271629943,5.26034066218 -0.751830151215,5.16188334066 C -0.842848708764,5.06428183007 -0.873473659069,4.9200729667 -0.873435200154,4.70943228293 C -0.873472474928,4.47919841993 -0.853919271793,4.28526043284 -0.837620867829,4.19895935196 C -0.819641588669,4.11008263517 -0.790425073768,4.03493673492 -0.736409336741,3.95986723292 C -0.684494596388,3.88757424939 -0.627585158165,3.79583064604 -0.524200022634,3.66311740267 C -0.424749225791,3.53417781878 -0.331879102107,3.3898021369 -0.193232261057,3.21982551503 C -0.0594599176602,3.05398950863 0.0569167878075,2.87644865501 0.219625711028,2.6827079891 C 0.376469432895,2.49279304731 0.506484090869,2.29916090655 0.683335452859,2.10284593094 C 0.853736444895,1.91052436221 0.991050540988,1.7216896354 1.18330953974,1.53987390685 C 1.36810350377,1.36149496722 1.51494321186,1.19116183508 1.71473759371,1.03554772723 C 1.9069867577,0.882952520134 2.05455350835,0.743941166879 2.26230488676,0.625736893596 C 2.46184557635,0.509586357953 2.61384643573,0.408417062344 2.819565862,0.333758675934 C 3.01738560158,0.260349401714 3.16567324061,0.201499932887 3.36265756149,0.170611267419 C 3.55224262137,0.14017078604 3.69484795589,0.119865459831 3.87166173715,0.126635603582 C 4.04305642802,0.132742141815 4.16602394689,0.144051224434 4.31624322343,0.180056661808 C 4.46087739575,0.214582041347 4.56374971527,0.252481990004 4.68231682438,0.307729665631 C 4.79679451096,0.36103751182 4.87685910571,0.417737916553 4.9637608077,0.488205366278 C 5.04759952385,0.556331575358 5.10778985131,0.625702336872 5.02175246138,0.625680798988 C 4.84075015742,0.625666466884 4.48549663979,0.709708144299 4.29607216973,0.709697445633 C 4.08171546418,0.717273758968 3.81516379077,0.763665003946 3.61291539628,0.73785875762 C 3.28769803006,0.737870103303 3.06352473754,0.73453102619 2.89219680387,0.691428333377 C 2.72688773233,0.651943817591 2.60468187142,0.606718942379 2.47827146161,0.606746810594 C 2.14620865095,0.606735351561 1.84873715747,0.637979730098 1.66473767865,0.638003105132 C 1.47623018134,0.641982280018 1.32024549652,0.666288430171 1.21213635761,0.6760877914" fill="none" stroke="#000000" stroke-width="0.0111853622348"/>
</svg>
