<?xml version="1.0" ?>
<svg baseProfile="full" height="600px" version="1.1" viewBox="-0.358536899594 -3.44485123381 8.63924903532 16.0685708189" width="323px" xmlns="http://www.w3.org/2000/svg" xmlns:ev="http://www.w3.org/2001/xml-events" xmlns:xlink="http://www.w3.org/1999/xlink">
	<defs/>
	<path d="M 1.01986532857,6.86272565655 C 1.01985285696,7.09556884698 1.0933022153,7.19263337932 1.0933655701,7.31926985465 C 0.861142804412,6.32674582682 0.587332387952,5.31865747653 0.587280062579,3.72167130194 C 0.587442370174,1.4475185462 0.948570700405,0.318521935563 1.78048858237,-0.69862274446 C 2.59950241637,-1.74023620405 3.74885472846,-2.10021109499 5.0096847732,-2.10022894068 C 6.44190749717,-2.10028440238 7.55531725478,-1.68989027025 7.55519998758,0.166841263758 C 7.55521749985,2.45328711985 7.17683267128,3.57162725447 7.17665483617,5.91239130019 C 7.17667399979,8.17630779265 6.7242972169,9.1062628579 5.90885000563,10.0506839704 C 5.08513038493,11.0031991553 3.9621832881,11.2791514349 2.83889572955,11.2790972831 C 1.72256176806,11.2791704962 0.875227621563,11.0021218786 0.366975239284,10.2353308925" fill="none" stroke="#000000" stroke-width="0.0133793262439"/>
	<path d="M 4.55154279998,9.65127407127 C 4.89184297255,9.17290110999 5.14891714981,8.60051865989 5.29972271255,7.86582632476 C 5.45607100061,7.07425226384 5.53857855132,6.25775803739 5.53864511678,4.84610213452 C 5.53853627227,3.0847551983 5.39863099835,2.11354251319 5.15666332028,1.26148583108 C 4.90607383035,0.36597122365 4.39795049212,0.040438370047 3.75440921567,0.0404240747794 C 3.14145781777,0.0404297317218 2.64447566054,0.300793161507 2.36042847417,0.854127993698 C 2.06843628667,1.43435274612 1.90671821616,2.17547266733 1.90673960245,3.45098858129 C 1.90671962262,5.10525887262 2.0157659179,6.0005585457 2.27846185625,6.7647193576 C 2.54509307206,7.56042074215 2.90999673069,7.92860077869 3.63535789908,7.92858643962 C 4.26132182539,7.92869373498 4.66897900165,7.77375305531 4.94122166694,7.35070929763" fill="none" stroke="#000000" stroke-width="0.0133793262439"/>
</svg>
