<?xml version="1.0" ?>
<svg baseProfile="full" height="600px" version="1.1" viewBox="-0.845338650187 -1.24759676801 10.0819842967 14.9090919645" width="406px" xmlns="http://www.w3.org/2000/svg" xmlns:ev="http://www.w3.org/2001/xml-events" xmlns:xlink="http://www.w3.org/1999/xlink">
	<defs/>
	<path d="M 8.39130783081,4.17642498016 C 8.39130783081,5.04880559444 8.18927770853,5.8763988018 7.78521746397,6.65920460224 C 7.38115721941,7.44201040268 6.86464172602,8.17662107944 6.23567086458,8.86303663254 C 5.60718685389,9.54945218563 4.92077130079,10.1876726151 4.1764242053,10.7781847119 C 3.43207710981,11.3682100177 2.71353143454,11.9134479165 2.02078723907,12.4138984084 C 1.85429495573,12.2084605694 1.68731585145,12.0035095364 1.52033674717,11.7980716974 C 1.35384446383,11.5926338583 1.18686535954,11.3871960193 1.01988625526,11.1822449863 C 1.85429489613,10.6301915944 2.55969637632,10.1141628325 3.13706433773,9.6326982975 C 3.71443229914,9.15172058344 4.20855411887,8.70579388738 4.6189430058,8.29540500045 C 4.55516964942,8.30806230847 4.48750173301,8.31439096248 4.41691289842,8.31439096248 C 4.34973180294,8.31439096248 4.28255070746,8.31439096248 4.21488279104,8.31439096248 C 3.63751482964,8.31439096248 3.09568464756,8.20875111734 2.58841866255,7.99698462104 C 2.08163952827,7.78521812474 1.63571283221,7.49020547187 1.2511253953,7.11145985639 C 0.866051137447,6.73320106184 0.561302095652,6.29360303795 0.336878284812,5.79315254604 C 0.112454473972,5.29270205414 -8.34465026855e-07,4.75379285729 -8.34465026855e-07,4.17642489588 C -8.34465026855e-07,3.59905693447 0.112454473972,3.05673996126 0.336878284812,2.54996082699 C 0.561302095652,2.04318169272 0.866051137447,1.6006627134 1.2511253953,1.22191709792 C 1.63571283221,0.843658303376 2.08163952827,0.545237903949 2.58841866255,0.327142750379 C 3.09568464756,0.109047596809 3.63751482964,2.00234353542e-08 4.21488279104,2.00234353542e-08 C 4.79225075245,2.00234353542e-08 5.33456772566,0.112455328461 5.84134685993,0.3368791393 C 6.34812599421,0.56130295014 6.79064497352,0.862644245382 7.169390589,1.24138986086 C 7.54764938354,1.62013547635 7.84606978297,2.06265445566 8.06416493654,2.56943358993 C 8.28226009011,3.07621272421 8.3913076669,3.61171420431 8.3913076669,4.17642488098" fill="none" stroke="#000000" stroke-width="0.0124138983884"/>
	<path d="M 6.73612125218,4.17642488098 C 6.73612125218,3.81715204334 6.67186106741,3.48027290916 6.54382751882,3.16578747844 C 6.41530714929,2.85178886866 6.23567073047,2.5757621727 6.00491827726,2.33819422638 C 5.77367898822,2.1011131159 5.50446775556,1.91174030816 5.19631099701,1.77056263899 C 4.8886410296,1.62938496983 4.56149831414,1.55879613524 4.21488279104,1.55879613524 C 3.8556099534,1.55879613524 3.51873081923,1.62938496983 3.20473220944,1.77056263899 C 2.89024677873,1.91174030816 2.61422008276,2.1011131159 2.37713897228,2.33819422638 C 2.13957102597,2.5757621727 1.95019821823,2.85178886866 1.80902054906,3.16578747844 C 1.66784287989,3.48027290916 1.59725404531,3.81715204334 1.59725404531,4.17642488098 C 1.59725404531,4.53569771862 1.66784287989,4.87257685279 1.80902054906,5.18706228351 C 1.95019821823,5.50106089329 2.13957102597,5.77367984271 2.37713897228,6.00491913175 C 2.61422008276,6.23567158496 2.89024677873,6.41871573543 3.20473220944,6.55356474733 C 3.51873081923,6.68792693829 3.8556099534,6.75559485471 4.21488279104,6.75559485471 C 4.56149831414,6.75559485471 4.8886410296,6.68792693829 5.19631099701,6.55356474733 C 5.50446775556,6.41871573543 5.77367898822,6.23567158496 6.00491827726,6.00491913175 C 6.23567073047,5.77367984271 6.41530714929,5.50106089329 6.54382751882,5.18706228351 C 6.67186106741,4.87257685279 6.73612125218,4.53569771862 6.73612125218,4.17642488098" fill="none" stroke="#000000" stroke-width="0.0124138983884"/>
</svg>
