<?xml version="1.0" ?>
<svg baseProfile="full" height="600px" version="1.1" viewBox="-0.871187644646 -1.2475966109 10.3921853278 14.9090920959" width="419px" xmlns="http://www.w3.org/2000/svg" xmlns:ev="http://www.w3.org/2001/xml-events" xmlns:xlink="http://www.w3.org/1999/xlink">
	<defs/>
	<path d="M 7.75649595261,2.68042850494 C 7.43957641721,2.57917004079 7.14456376433,2.50322619826 6.87243163586,2.45259696618 C 6.59981268644,2.40148091689 6.29262956977,2.37616630085 5.95039540529,2.37616630085 C 5.35452830791,2.37616630085 4.86040648818,2.6263915468 4.46754312515,3.12732882984 C 4.07467976213,3.62777932175 3.77674621344,4.23922468908 3.57422928512,4.96166487224 C 3.86534737051,4.73383332975 4.20466057956,4.53423732705 4.59119530022,4.36287684925 C 4.97773002088,4.19200319238 5.40515758097,4.10632295348 5.87445165217,4.10632295348 C 6.34325887263,4.10632295348 6.74877955019,4.18226679601 7.09101371467,4.33464131691 C 7.43324787915,4.48652900197 7.70878772438,4.68904593028 7.9181201309,4.94267892279 C 8.12696571648,5.19631191529 8.2822611481,5.48791682161 8.38351961225,5.81700685062 C 8.4852648899,6.14658367075 8.53589412197,6.48881783523 8.53589412197,6.84370928444 C 8.53589412197,7.69272261299 8.42149153724,8.45946341194 8.19365999475,9.14393174089 C 7.96534163132,9.82840006985 7.64209345356,10.4145308081 7.22391546145,10.9023240153 C 6.80573746935,11.3906040136 6.30528697744,11.7644814197 5.7220771648,12.0239562336 C 5.13935414329,12.2839178685 4.49918648973,12.4138986859 3.80206093565,12.4138986859 C 3.21933791414,12.4138986859 2.69308594242,12.3408757541 2.22427872196,12.1953167114 C 1.7554715015,12.0497576687 1.3562794961,11.8180315588 1.02670267597,11.5015988443 C 0.697125855833,11.1846793089 0.443492863327,10.7728299592 0.266290549189,10.2655639742 C 0.0886014141142,9.75878483988 2.57045030594e-07,9.1439317558 2.57045030594e-07,8.42149157263 C 2.57045030594e-07,7.28087336756 0.117323774844,6.20062072016 0.351483974606,5.18024701811 C 0.586131010205,4.16036004759 0.953679773957,3.26655931212 1.45413026586,2.49981851317 C 1.9550675489,1.73307771422 2.59815618768,1.1245532725 3.38388291374,0.674732038751 C 4.16960963979,0.224910805002 5.11403951421,1.88127160072e-07 6.21668574587,1.88127160072e-07 C 6.67283565179,1.88127160072e-07 7.109999571,0.0477085057646 7.5281775631,0.142638320103 C 7.94635555521,0.237568134442 8.32023296133,0.380206266418 8.64980978146,0.570552716032 C 8.35187623277,1.27352012135 8.05394268408,1.97697437741 7.75649592653,2.68042863347" fill="none" stroke="#000000" stroke-width="0.0124138984978"/>
	<path d="M 4.58145878091,6.34958756901 C 4.30251118913,6.34958756901 4.04303637519,6.40654545464 3.80206071213,6.52046122588 C 3.56108504906,6.63486381061 3.35223946348,6.75510823913 3.1745503284,6.88168131001 C 3.14923571236,7.13531430252 3.13024975173,7.38894729502 3.11759244371,7.64209343679 C 3.10493513569,7.8957264293 3.09860648168,8.13670209236 3.09860648168,8.36453363486 C 3.09860648168,9.50515183993 3.39654003037,10.0757043678 3.99240712775,10.0757043678 C 4.23289598478,10.0757043678 4.44514931692,10.002681436 4.62916710926,9.85712239332 C 4.81269808067,9.7110765297 4.96799351228,9.52121690102 5.0950534041,9.28656986542 C 5.22162647499,9.05240966566 5.31655628933,8.78271164186 5.37984282477,8.47893627174 C 5.44312936021,8.17467405088 5.47525945259,7.86408318765 5.47525945259,7.54716365226 C 5.47525945259,6.74877964146 5.1773259039,6.34958763607 4.58145880653,6.34958763607" fill="none" stroke="#000000" stroke-width="0.0124138984978"/>
</svg>
