<?xml version="1.0" ?>
<svg baseProfile="full" height="600px" version="1.1" viewBox="-0.947229294583 -1.2475973473 11.3046802106 14.9090918811" width="455px" xmlns="http://www.w3.org/2000/svg" xmlns:ev="http://www.w3.org/2001/xml-events" xmlns:xlink="http://www.w3.org/1999/xlink">
	<defs/>
	<path d="M 0.0,9.46231079102 C 0.0287223514169,9.05727693439 0.0579315256327,8.65224307775 0.0866538770497,8.24720922112 C 2.33819429949,5.498139292 4.58924787119,2.74906936288 6.84078829363,-5.66244125366e-07 C 7.42497174814,0.0866533145308 8.0096420534,0.173794008791 8.59431235865,0.260447889566 C 8.17759479955,2.86493244767 7.76087724045,5.46893015504 7.34415968135,8.07341471314 C 8.03300930932,8.07341471314 8.72137214616,8.07341471314 9.41022177413,8.07341471314 C 9.32940972969,8.53638011217 9.24811086431,8.9993455112 9.16729881987,9.46231091022 C 8.49013283476,9.46231091022 7.81296684965,9.46231091022 7.13580086455,9.46231091022 C 6.97953179106,10.4461731911 6.82326271757,11.4300354719 6.66699364409,12.4138977528 C 6.11737438664,12.4138977528 5.56726827845,12.4138977528 5.017649021,12.4138977528 C 5.17391809449,11.4300354719 5.33018716797,10.4461731911 5.48645624146,9.46231091022 C 3.65747519955,9.46231091022 1.82898088917,9.46231091022 -1.52736902237e-07,9.46231091022" fill="none" stroke="#000000" stroke-width="0.012413898319"/>
	<path d="M 6.61490425095,2.27442085743 C 5.02933296189,4.20758128166 3.44327482209,6.14025485516 1.85770353302,8.07341527939 C 3.13657852635,8.07341527939 4.41594037041,8.07341527939 5.69481536373,8.07341527939 C 6.00151168928,6.14025485516 6.30820801482,4.20758128166 6.61490434036,2.27442085743" fill="none" stroke="#000000" stroke-width="0.012413898319"/>
</svg>
