<?xml version="1.0" ?>
<svg baseProfile="full" height="600px" version="1.1" viewBox="-0.774603121474 -1.24759672445 9.23316561902 14.9090919169" width="372px" xmlns="http://www.w3.org/2000/svg" xmlns:ev="http://www.w3.org/2001/xml-events" xmlns:xlink="http://www.w3.org/1999/xlink">
	<defs/>
	<path d="M 7.41036701202,3.31913566589 C 7.40452517755,3.92230510712 7.24144064076,4.4587802887 6.92062656768,4.92904797196 C 6.59981249459,5.39931565523 6.17092444189,5.76735123992 5.63444926031,6.03266787529 C 5.94406651147,6.16556961834 6.22496138699,6.33011463284 6.47664709575,6.52630291879 C 6.72833280452,6.72297801077 6.94399385341,6.94837546349 7.12411709316,7.20249524713 C 7.30375351198,7.4571018815 7.44201025553,7.7336153686 7.53888734616,8.03252255917 C 7.6357644368,8.33142974973 7.68395957164,8.649322927 7.68395957164,8.98668885231 C 7.68395957164,9.53436082602 7.58318792842,10.0211803615 7.38115780614,10.4471474588 C 7.17912768386,10.8731145561 6.90553509258,11.2314137518 6.55940639041,11.5220450163 C 6.21376450919,11.8121894598 5.80873065256,12.0336923599 5.34381796978,12.185580045 C 4.87939213775,12.3379545659 4.38137578033,12.4138984084 3.85025565885,12.4138984084 C 3.30793868564,12.4138984084 2.80359362625,12.3394150212 2.33576004766,12.189961426 C 1.86841326021,12.0405078307 1.46191891097,11.8204653934 1.11627702974,11.5303209499 C 0.770148327574,11.2396896854 0.498016199097,10.8813904896 0.298907002434,10.4554233924 C 0.0997978057712,10.0294562951 -1.95577740669e-07,9.5402026549 -1.95577740669e-07,8.98668882996 C -1.95577740669e-07,8.64932290465 0.0472213011235,8.32996929437 0.14117747359,8.02814117819 C 0.235133646056,7.72679988295 0.37046947889,7.45028639585 0.547671793029,7.19860068709 C 0.724874107167,6.94691497833 0.93761424534,6.72151752561 1.18637904339,6.52240832895 C 1.43563064747,6.32329913229 1.71506506018,6.15729366988 2.02468231134,6.02439192683 C 1.75936567597,5.89149018377 1.51839001291,5.7327870056 1.30272896402,5.54730876535 C 1.08706791513,5.3618305251 0.904510585591,5.15444538742 0.755056990311,4.92466657609 C 0.60560339503,4.69537457079 0.489740340039,4.44514932483 0.406494198367,4.17399083823 C 0.32373487018,3.90283235162 0.282355206087,3.61804290861 0.282355206087,3.31913571805 C 0.282355206087,2.7938574478 0.37046954222,2.32505022734 0.547671856359,1.91271405667 C 0.724874170497,1.500377886 0.969257580116,1.15327554196 1.28228254803,0.871407024562 C 1.594820695,0.589051686227 1.96821128018,0.373390637338 2.40245430358,0.223937042058 C 2.83669732697,0.0744834467769 3.31085954793,5.96046447754e-08 3.82542781718,5.96046447754e-08 C 4.3341542352,5.96046447754e-08 4.80734284408,0.0744834467769 5.24450676329,0.223937042058 C 5.68118392117,0.373390637338 6.06041635759,0.589051686227 6.38123043068,0.871407024562 C 6.70204450376,1.15327554196 6.95373021252,1.500377886 7.13628754206,1.91271405667 C 7.3188448716,2.32505022734 7.41036694683,2.7938574478 7.41036694683,3.31913571805" fill="none" stroke="#000000" stroke-width="0.0124138983488"/>
	<path d="M 6.14901750721,8.95358520001 C 6.14901750721,8.6162192747 6.09205962159,8.30660202354 5.97863067128,8.02424668521 C 5.86520172097,7.74189134687 5.7064985428,7.49994204193 5.5015475098,7.29791191965 C 5.29708331265,7.09636863321 5.05221306719,6.94009955972 4.76742362417,6.82910470665 C 4.48214736022,6.7185966745 4.17106967606,6.66358606517 3.83370375074,6.66358606517 C 3.4851409737,6.66358606517 3.16968190111,6.7185966745 2.88781338371,6.82910470665 C 2.60545804538,6.94009955972 2.36496918835,7.09636863321 2.16585999168,7.29791191965 C 1.96675079502,7.49994204193 1.81291581132,7.74189134687 1.70532868989,8.02424668521 C 1.59725474752,8.30660202354 1.54321777634,8.6162192747 1.54321777634,8.95358520001 C 1.54321777634,9.30214797705 1.59725474752,9.61322566122 1.70532868989,9.88730507344 C 1.81291581132,10.1608976647 1.96675079502,10.3921369538 2.16585999168,10.5800492987 C 2.36496918835,10.7679616436 2.60691849329,10.9120602235 2.8917079363,11.0113714114 C 3.17698420025,11.1111694127 3.49633781053,11.1608250067 3.85025561787,11.1608250067 C 4.18762154318,11.1608250067 4.49772558548,11.1111694127 4.77959410287,11.0113714114 C 5.06194944121,10.9120602235 5.30389874615,10.7679616436 5.50592886843,10.5800492987 C 5.70747215487,10.3921369538 5.86520169117,10.1608976647 5.97863064148,9.88730507344 C 6.09205959179,9.61322566122 6.14901747741,9.30214797705 6.14901747741,8.95358520001" fill="none" stroke="#000000" stroke-width="0.0124138983488"/>
	<path d="M 5.86666213907,3.34396319836 C 5.86666213907,3.0397009775 5.81554608978,2.76026656479 5.7133139912,2.50614678115 C 5.61108189262,2.25154014677 5.46990422346,2.03149770945 5.2897809837,1.84650629014 C 5.11014456488,1.66102804989 4.8959439639,1.51692947 4.64669235982,1.41469737142 C 4.39792756177,1.31246527284 4.12433497049,1.26134922355 3.82542777993,1.26134922355 C 3.52652058937,1.26134922355 3.25536210276,1.3095443584 3.01195233501,1.40642144904 C 2.76854256727,1.50329853967 2.55872333981,1.64301574603 2.38152102567,1.82557307556 C 2.20431871153,2.0081304051 2.06752241589,2.22817284241 1.97064532526,2.48521358147 C 1.87376823463,2.74274111167 1.82557309978,3.02899101749 1.82557309978,3.34396323934 C 1.82557309978,3.65942231193 1.87376823463,3.94275129214 1.97064532526,4.1944370009 C 2.06752241589,4.4466095306 2.20577915944,4.66227057949 2.3859023992,4.84190699831 C 2.56553881802,5.02154341713 2.77827895619,5.15980016068 3.02460964955,5.25667725131 C 3.27094034292,5.35355434194 3.5430724714,5.40223629773 3.84197966196,5.40223629773 C 4.13504503109,5.40223629773 4.40620351769,5.35355434194 4.65496831574,5.25667725131 C 4.90421991982,5.15980016068 5.1184205208,5.02154341713 5.29854376055,4.84190699831 C 5.47818017937,4.66227057949 5.61789738573,4.44514906779 5.71720857359,4.19054243341 C 5.81700657494,3.93593579903 5.86666216888,3.65406728163 5.86666216888,3.34396323934" fill="none" stroke="#000000" stroke-width="0.0124138983488"/>
</svg>
