<?xml version="1.0" ?>
<svg baseProfile="full" height="600px" version="1.1" viewBox="-0.818757517755 -1.24759666485 9.76302000606 14.9090919169" width="393px" xmlns="http://www.w3.org/2000/svg" xmlns:ev="http://www.w3.org/2001/xml-events" xmlns:xlink="http://www.w3.org/1999/xlink">
	<defs/>
	<path d="M 4.06250905991,12.413898468 C 2.82111918926,12.413898468 1.83384913206,11.8745024204 1.10021209717,10.796197176 C 0.366575062275,9.71789193153 -5.96046447754e-08,8.16931903362 -5.96046447754e-08,6.15047824383 C -5.96046447754e-08,4.13163745403 0.366575062275,2.60205042362 1.10021209717,1.56123030186 C 1.83384913206,0.520410180092 2.82111918926,1.19209289551e-07 4.06250905991,1.19209289551e-07 C 5.30389893055,1.19209289551e-07 6.29165583849,0.520410180092 7.02529287338,1.56123030186 C 7.75892990828,2.60205042362 8.12550503016,4.13163745403 8.12550503016,6.15047824383 C 8.12550503016,8.16931903362 7.75892990828,9.71789193153 7.02529287338,10.796197176 C 6.29165583849,11.8745024204 5.30389893055,12.413898468 4.06250905991,12.413898468" fill="none" stroke="#000000" stroke-width="0.0124138983488"/>
	<path d="M 4.06250905991,10.7212269306 C 4.63939023018,10.7212269306 5.11598655581,10.3824005127 5.49229806662,9.70523452759 C 5.86860957742,9.02806854248 6.05652192235,7.84314978123 6.05652192235,6.15047824383 C 6.05652192235,4.45780670643 5.86860957742,3.29138708115 5.49229806662,2.65219300985 C 5.11598655581,2.01251208782 4.63939023018,1.69267162681 4.06250905991,1.69267162681 C 3.48611474037,1.69267162681 3.00951841474,2.01251208782 2.63320690393,2.65219300985 C 2.25689539313,3.29138708115 2.0689830482,4.45780670643 2.0689830482,6.15047824383 C 2.0689830482,7.84314978123 2.25689539313,9.02806854248 2.63320690393,9.70523452759 C 3.00951841474,10.3824005127 3.48611474037,10.7212269306 4.06250905991,10.7212269306" fill="none" stroke="#000000" stroke-width="0.0124138983488"/>
</svg>
