<?xml version="1.0" ?>
<svg baseProfile="full" height="600px" version="1.1" viewBox="-0.74743874462 -1.24759679323 8.90719124112 14.9090920265" width="359px" xmlns="http://www.w3.org/2000/svg" xmlns:ev="http://www.w3.org/2001/xml-events" xmlns:xlink="http://www.w3.org/1999/xlink">
	<defs/>
	<path d="M 5.84524202347,0.0 C 6.06625808775,0.0 6.25465723872,0.0326169095933 6.41043949127,0.09785072878 C 6.56622174382,0.163084547967 6.64362605661,0.296473097056 6.64362605661,0.497042741627 C 6.64362605661,0.718058805913 6.56330083311,0.863617848605 6.4026503861,0.934206683189 C 6.24199993908,1.00430869684 6.08134949207,1.03935970366 5.92069904506,1.03935970366 C 5.74008899927,1.03935970366 5.45870730281,1.04179380136 5.07704076171,1.04714881629 C 4.69537422061,1.05201701168 4.29861631989,1.0646743197 3.88676697016,1.08463392034 C 3.47491762042,1.10459352098 3.08594882488,1.13477633335 2.719373703,1.17518235557 C 2.35279858112,1.21510155685 2.09429740906,1.26573078893 1.94338335097,1.32560959272 C 1.7778646946,2.63661458902 1.61185923219,3.94713285379 1.44634057581,5.25765111856 C 1.50670620054,5.23769151792 1.62208242714,5.20507460833 1.79295608401,5.15980039164 C 1.96334291995,5.11452617496 2.16439940035,5.06681785733 2.3956386894,5.01667544618 C 2.62639114261,4.96653303504 2.87223501503,4.92125881836 3.13365711272,4.88133961707 C 3.39459238946,4.84093359485 3.64092308283,4.82097399421 3.87167553604,4.82097399421 C 4.52450053394,4.82097399421 5.07704071701,4.92661383934 5.5288092345,5.13740669377 C 5.98106460273,5.3481995482 6.34520561993,5.61448982544 6.6212323159,5.93579071946 C 6.89725901186,6.25709161349 7.09831549227,6.618798526 7.22391493618,7.02042463608 C 7.3495143801,7.42205074616 7.41231410205,7.80907228775 7.41231410205,8.18051561899 C 7.41231410205,8.67269015498 7.314463377,9.16973290034 7.11827509105,9.67213067599 C 6.92257364094,10.1740416605 6.62366645038,10.6287311334 6.2220403403,11.0352254827 C 5.82041423023,11.4422065932 5.31314824522,11.7737306971 4.70024244487,12.0297977943 C 4.08782343566,12.2858648915 3.36440961063,12.4138984401 2.53097449243,12.4138984401 C 2.36010083556,12.4138984401 2.13178247213,12.4036752302 1.84553256631,12.3837156296 C 1.55928266048,12.3637560289 1.2803350687,12.2985222097 1.0091765821,12.1880141776 C 0.738018095493,12.0775061455 0.502397432923,11.9041983839 0.301340952516,11.6680909153 C 0.100284472108,11.4319834467 -3.50177288055e-07,11.0980252381 -3.50177288055e-07,10.6662163194 C -3.50177288055e-07,10.4753830489 0.0301824621856,10.2923388984 0.0905480869114,10.1165970471 C 0.150426890701,9.94085519575 0.233673032373,9.78994113766 0.33882605657,9.66434169374 C 0.444465901703,9.53874224983 0.564710330218,9.43845742755 0.700532983989,9.3630003985 C 0.836355637759,9.28803019039 0.979480590671,9.25005826913 1.12990782782,9.25005826913 C 1.33096430823,9.25005826913 1.49648296461,9.30312160216 1.62695060298,9.40827462636 C 1.75741824135,9.51391447149 1.82313888147,9.67213082872 1.82313888147,9.88292368315 C 1.82313888147,10.0839801636 1.77786466479,10.2168819066 1.68731623143,10.2821157258 C 1.59676779807,10.347349545 1.49648297578,10.3950578626 1.38597494364,10.425240675 C 1.27546691149,10.4554234874 1.17518208921,10.4880403969 1.08463365585,10.5230914038 C 0.994085222483,10.5581424106 0.949297823012,10.6462567467 0.949297823012,10.786947595 C 0.949297823012,10.8974556271 0.994085222483,10.9928722624 1.08463365585,11.0731974859 C 1.17518208921,11.1535227094 1.29055831581,11.223624723 1.43124916404,11.2839903478 C 1.57194001228,11.3443559725 1.73502454907,11.3896301892 1.92098961025,11.4198130015 C 2.10646785051,11.4495089948 2.28999882191,11.464600401 2.4706088677,11.464600401 C 3.13365707546,11.464600401 3.70615688711,11.3667496759 4.18810821325,11.1710482258 C 4.67005953938,10.9753467757 5.06681744009,10.7163587827 5.37838194519,10.3950578887 C 5.68945962936,10.0737569947 5.91826479882,9.71448415704 6.06382384151,9.31772625633 C 6.2093828842,8.92145511694 6.28240581602,8.51690805145 6.28240581602,8.10505870171 C 6.28240581602,7.84412342496 6.24443389475,7.57783314772 6.16946368665,7.30667466111 C 6.0940066576,7.03551617451 5.95818400383,6.79210640676 5.76248255372,6.57595852204 C 5.56678110361,6.36029747315 5.30535900593,6.18455562182 4.97918993235,6.04873296805 C 4.65253400803,5.91339713521 4.23338240385,5.84524239786 3.72124820948,5.84524239786 C 3.43013012409,5.84524239786 3.14095932245,5.8705570139 2.85470941663,5.92069942504 C 2.5684595108,5.97084183618 2.30022192001,6.02341834828 2.04902303219,6.07891577482 C 1.79782414436,6.13392638415 1.57437396049,6.18698971719 1.37867251039,6.23713212833 C 1.18248422444,6.28727453947 1.03449109197,6.31258915551 0.934206269681,6.31258915551 C 0.722926579416,6.31258915551 0.579801626503,6.21717252024 0.504831418395,6.02633924969 C 0.42937438935,5.83550597914 0.391889285296,5.59453031607 0.391889285296,5.30292540975 C 0.391889285296,5.24255978502 0.396757480688,5.14714314975 0.406980690546,5.01667551138 C 0.416717081331,4.886207873 0.431808487512,4.75574023463 0.451768088154,4.62527259625 C 0.51213371288,4.20320003666 0.559842030518,3.84684812464 0.594893037342,3.55524321832 C 0.630430865102,3.26412513293 0.663047774695,2.97544115223 0.693230587058,2.68919124641 C 0.722926580347,2.40294134058 0.750675293617,2.09673183598 0.775989909656,1.77007591166 C 0.800817706622,1.44390683807 0.828566419892,1.03935977258 0.858749232255,0.557408446446 C 0.878708832897,0.396757999435 0.974125468172,0.30134136416 1.14499912504,0.271158551797 C 1.40593440179,0.231239350513 1.75741810445,0.193267429247 2.19945023302,0.158216422424 C 2.64148236159,0.1231654156 3.09860593919,0.092982603237 3.57033405546,0.0676679871976 C 4.04254899267,0.0428401902318 4.48701525573,0.0253146868199 4.90373281483,0.015091476962 C 5.32045037393,0.00486826710403 5.63444898371,7.17118382454e-08 5.84524183813,7.17118382454e-08" fill="none" stroke="#000000" stroke-width="0.0124138984401"/>
</svg>
