<?xml version="1.0" ?>
<svg baseProfile="full" height="600px" version="1.1" viewBox="-0.870116802443 -1.24759679525 10.3793333444 14.9090919617" width="418px" xmlns="http://www.w3.org/2000/svg" xmlns:ev="http://www.w3.org/2001/xml-events" xmlns:xlink="http://www.w3.org/1999/xlink">
	<defs/>
	<path d="M 6.02098417282,2.94720554352 C 6.02098417282,2.67117884755 5.97035494074,2.43068999052 5.86909647658,2.22525215149 C 5.76783801243,2.01981431246 5.63006808981,1.84796701372 5.45529988036,1.7101970911 C 5.28101849183,1.57194034755 5.07947520539,1.46776095778 4.8516436629,1.39765894413 C 4.62332529947,1.32707010955 4.38283644244,1.29201910272 4.12969030067,1.29201910272 C 3.85950545594,1.29201910272 3.58883379027,1.3372933194 3.31864894554,1.42735493928 C 3.04846410081,1.51741655916 2.79969930276,1.65080510825 2.57138093933,1.82849424332 C 2.34354939684,2.00569655746 2.14492702112,2.22671262175 1.97600063309,2.49105561525 C 1.80707424507,2.75588545948 1.68634299561,3.0596608296 1.61283324286,3.40335542709 C 1.07538447902,3.0177943483 0.53744886443,2.63174644858 1.00582838058e-07,2.24618536979 C 0.135335933417,1.86890021712 0.330550577492,1.53981018811 0.587104465812,1.25842849165 C 0.843171562999,0.976559974253 1.14548650011,0.743373416364 1.4945361279,0.557408355176 C 1.84358575568,0.371443293989 2.23498865589,0.232212908566 2.66874485835,0.139230377972 C 3.10201423988,0.0462478473783 3.56644007191,-7.45058059692e-09 4.06202238426,-7.45058059692e-09 C 4.60823392496,-7.45058059692e-09 5.13156491145,0.0603656172752 5.63250219449,0.181583687663 C 6.13392632827,0.302801758051 6.57547163591,0.488279998302 6.95859861001,0.738992065191 C 7.34123879299,0.989217311144 7.64696147665,1.30321592093 7.87479301915,1.6805010736 C 8.10262456164,2.05778622627 8.21702714637,2.49981835485 8.21702714637,3.00659748912 C 8.21702714637,3.34396341443 8.15081968531,3.65942248702 8.01840476319,3.95200103521 C 7.88598984107,4.24506640434 7.69759069011,4.50794896483 7.45272044465,4.74162235856 C 7.20785019919,4.97529575229 6.91089029238,5.17829950154 6.5618406646,5.34965997934 C 6.21279103681,5.52150727808 5.81846718118,5.65538264811 5.37935591862,5.75079928339 C 5.89149011299,5.8184671998 6.35056094453,5.93676435202 6.75608162209,6.10569074005 C 7.16111547872,6.27461712807 7.5033496432,6.49271228164 7.78181041405,6.75997620076 C 8.06075800583,7.02772694081 8.27301133797,7.34415965527 8.41954402253,7.71024795622 C 8.56607670709,8.07584943622 8.63909963891,8.4896460399 8.63909963891,8.95163776726 C 8.63909963891,9.48616560549 8.53199933842,9.96763014048 8.31828555837,10.3955445215 C 8.10408495739,10.8234589025 7.80323048308,11.1866262779 7.41474847868,11.4850466773 C 7.02626647428,11.7834670767 6.55745925382,12.012759082 6.00832684711,12.173409529 C 5.45968117192,12.3335731551 4.85018308833,12.4138983786 4.18031938747,12.4138983786 C 3.75776000693,12.4138983786 3.34834479168,12.3803078309 2.95158689097,12.3126399145 C 2.55434213951,12.244971998 2.17997791246,12.1505290046 1.8284942098,12.0297977552 C 1.4765236862,11.9085796848 1.15717007592,11.7664283738 0.869946528226,11.603343837 C 0.582722980529,11.4397724792 0.337852735072,11.2596492395 0.135335806757,11.0624873117 C 0.140690821689,10.9105996266 0.146532656159,10.7528700903 0.151887671091,10.5897855535 C 0.157729505561,10.4267010167 0.166005438194,10.2504723445 0.177202288061,10.0620731935 C 0.188399137929,9.87318720669 0.203977363184,9.66385480016 0.223936963826,9.43310234696 C 0.243409745395,9.20186305791 0.270184820518,8.94287506491 0.303775368258,8.65613836795 C 0.740452526137,8.70920170099 1.17664283328,8.76275185123 1.61283314042,8.81630200148 C 1.65226552449,9.25005820394 1.74524805509,9.61419922113 1.89178073965,9.91018548608 C 2.03782660328,10.2056849599 2.21697620116,10.4432529062 2.42776905559,10.623376146 C 2.63904874586,10.8039861917 2.8756430503,10.9344538301 3.13706514798,11.016239509 C 3.3989740666,11.0980251878 3.66769844852,11.1389180273 3.94372514449,11.1389180273 C 4.28693292104,11.1389180273 4.59265560471,11.0824469626 4.85991952382,10.9699916542 C 5.12718344294,10.8570495248 5.35258089565,10.7007804513 5.53562504612,10.5011844486 C 5.71866919659,10.3011016101 5.85789958201,10.0620732158 5.95380303077,9.78312562406 C 6.04921966605,9.50466485322 6.09692798369,9.19942899048 6.09692798369,8.86693124473 C 6.09692798369,8.07877038419 5.835505886,7.50042878091 5.31168804877,7.13141958416 C 4.78835706227,6.76289717853 4.04790453427,6.57839258015 3.0908173155,6.57839258015 C 2.82598747127,6.57839258015 2.56164447777,6.57839258015 2.29681463353,6.57839258015 C 2.302656468,6.38171748817 2.30947194155,6.17871373892 2.31823469326,5.97035495937 C 2.32651062589,5.76199617982 2.34744386654,5.57651793957 2.38152123522,5.41294658184 C 2.61811553966,5.39882881567 2.85422300827,5.38519786857 3.09081731271,5.3710801024 C 3.40043456387,5.35404141806 3.72709048819,5.287833957 4.07029826473,5.1724577304 C 4.41399286222,5.05708150379 4.73042557668,4.89643105678 5.02057002019,4.69099321775 C 5.31022764277,4.48555537872 5.54974285793,4.23630377464 5.73814200889,3.94372522645 C 5.9270279957,3.65114667825 6.02098416816,3.3186489325 6.02098416816,2.94720560126" fill="none" stroke="#000000" stroke-width="0.0124138983861"/>
</svg>
