<?xml version="1.0" ?>
<svg baseProfile="full" height="600px" version="1.1" viewBox="-0.906530960351 -1.24759712525 10.8163026588 14.9090918095" width="436px" xmlns="http://www.w3.org/2000/svg" xmlns:ev="http://www.w3.org/2001/xml-events" xmlns:xlink="http://www.w3.org/1999/xlink">
	<defs/>
	<path d="M 3.64433121681,6.47518634796 C 4.52742183208,5.58674067259 4.96896713972,4.79030388594 4.96896713972,4.08587598801 C 4.96896713972,3.50899481773 4.76693701744,3.22031083703 4.36287677288,3.22031083703 C 4.13212431967,3.22031083703 3.96757930517,3.32156930119 3.86972858012,3.52311258763 C 3.77139103413,3.72514270991 3.72222226113,4.10340150446 3.72222226113,4.65740218014 C 2.48180609196,4.65740218014 1.24090307206,4.65740218014 5.21540641785e-08,4.65740218014 C 0.0345642380416,3.58396508545 0.268237631768,2.70087447017 0.701020222157,2.00861706585 C 1.13380281255,1.31587287039 1.69656620547,0.80812009424 2.38931040093,0.484871916473 C 3.08205459639,0.161623738706 3.84344039485,-3.50177288055e-07 4.6749281697,-3.50177288055e-07 C 6.12905822322,-3.50177288055e-07 7.19373260066,0.357812024653 7.86895130202,1.07343677431 C 8.54417000338,1.78906152397 8.88202277943,2.66631034762 8.88202277943,3.70518330485 C 8.88202277943,4.80150095373 8.51836858317,5.83453194052 7.79106019065,6.80427650362 C 7.06375179812,7.77402106673 6.14658377692,8.61086390167 5.03809569404,9.31480494887 C 6.35981069133,9.31480494887 7.68152568862,9.31480494887 9.00324068591,9.31480494887 C 9.00324068591,10.3478359357 9.00324068591,11.3808669224 9.00324068591,12.4138979092 C 6.01952372119,12.4138979092 3.03580675647,12.4138979092 0.0520897917449,12.4138979092 C 0.0520897917449,11.449995257 0.0520897917449,10.4860926047 0.0520897917449,9.52267668396 C 1.56415126845,8.37962446362 2.76172731444,7.36411891133 3.64433107898,6.47518638521" fill="none" stroke="#000000" stroke-width="0.0124138982594"/>
</svg>
